<?xml version="1.0" encoding="UTF-8"?>
<svg xmlns="http://www.w3.org/2000/svg" xmlns:xlink="http://www.w3.org/1999/xlink" width="768" height="576" viewBox="0 0 768 576">
<defs>
<g>
<g id="glyph-0-0-3f8ea115">
<path d="M 8.640625 -7.203125 C 8.640625 -5.515625 7.46875 -4.328125 5.78125 -4.328125 C 5.78125 -4.328125 2.578125 -4.328125 2.578125 -4.328125 C 2.578125 -4.328125 2.578125 0 2.578125 0 C 2.578125 0 1.28125 0 1.28125 0 C 1.28125 0 1.28125 -10.203125 1.28125 -10.203125 C 1.28125 -10.203125 5.484375 -10.203125 5.484375 -10.203125 C 7.5 -10.203125 8.640625 -9.125 8.640625 -7.203125 Z M 7.28125 -7.265625 C 7.28125 -8.390625 6.53125 -9.0625 5.296875 -9.0625 C 5.296875 -9.0625 2.578125 -9.0625 2.578125 -9.0625 C 2.578125 -9.0625 2.578125 -5.46875 2.578125 -5.46875 C 2.578125 -5.46875 5.296875 -5.46875 5.296875 -5.46875 C 6.53125 -5.46875 7.28125 -6.140625 7.28125 -7.265625 Z M 7.28125 -7.265625 "/>
</g>
<g id="glyph-0-1-3f8ea115">
<path d="M 7.484375 -0.03125 C 7.109375 0.0625 6.9375 0.09375 6.6875 0.09375 C 6.125 0.09375 5.609375 -0.3125 5.484375 -0.875 C 4.84375 -0.1875 3.9375 0.203125 3 0.203125 C 1.515625 0.203125 0.59375 -0.578125 0.59375 -1.90625 C 0.59375 -2.796875 1.015625 -3.453125 1.875 -3.8125 C 2.328125 -3.984375 2.578125 -4.046875 4.234375 -4.25 C 5.15625 -4.375 5.453125 -4.578125 5.453125 -5.0625 C 5.453125 -5.0625 5.453125 -5.375 5.453125 -5.375 C 5.453125 -6.078125 4.859375 -6.46875 3.8125 -6.46875 C 2.71875 -6.46875 2.1875 -6.0625 2.09375 -5.171875 C 2.09375 -5.171875 0.90625 -5.171875 0.90625 -5.171875 C 0.984375 -6.859375 2.078125 -7.546875 3.84375 -7.546875 C 5.65625 -7.546875 6.609375 -6.84375 6.609375 -5.546875 C 6.609375 -5.546875 6.609375 -1.453125 6.609375 -1.453125 C 6.609375 -1.09375 6.828125 -0.875 7.234375 -0.875 C 7.3125 -0.875 7.359375 -0.875 7.484375 -0.90625 C 7.484375 -0.90625 7.484375 -0.03125 7.484375 -0.03125 Z M 5.453125 -2.53125 C 5.453125 -2.53125 5.453125 -3.625 5.453125 -3.625 C 5.046875 -3.4375 4.796875 -3.390625 3.5625 -3.21875 C 2.328125 -3.03125 1.8125 -2.703125 1.8125 -1.9375 C 1.8125 -1.140625 2.34375 -0.8125 3.25 -0.8125 C 4.375 -0.8125 5.453125 -1.484375 5.453125 -2.53125 Z M 5.453125 -2.53125 "/>
</g>
<g id="glyph-0-2-3f8ea115">
<path d="M 4.5 -6.3125 C 2.6875 -6.28125 2.140625 -5.453125 2.140625 -3.8125 C 2.140625 -3.8125 2.140625 0 2.140625 0 C 2.140625 0 0.984375 0 0.984375 0 C 0.984375 0 0.984375 -7.34375 0.984375 -7.34375 C 0.984375 -7.34375 2.046875 -7.34375 2.046875 -7.34375 C 2.046875 -7.34375 2.046875 -6 2.046875 -6 C 2.71875 -7.09375 3.296875 -7.546875 4.046875 -7.546875 C 4.203125 -7.546875 4.296875 -7.53125 4.5 -7.5 C 4.5 -7.5 4.5 -6.3125 4.5 -6.3125 Z M 4.5 -6.3125 "/>
</g>
<g id="glyph-0-3-3f8ea115">
<path d="M 10.640625 0 C 10.640625 0 9.484375 0 9.484375 0 C 9.484375 0 9.484375 -5.046875 9.484375 -5.046875 C 9.484375 -5.984375 8.984375 -6.53125 8.140625 -6.53125 C 7.1875 -6.53125 6.390625 -5.671875 6.390625 -4.609375 C 6.390625 -4.609375 6.390625 0 6.390625 0 C 6.390625 0 5.234375 0 5.234375 0 C 5.234375 0 5.234375 -5.046875 5.234375 -5.046875 C 5.234375 -5.984375 4.75 -6.53125 3.875 -6.53125 C 2.921875 -6.53125 2.15625 -5.671875 2.15625 -4.609375 C 2.15625 -4.609375 2.15625 0 2.15625 0 C 2.15625 0 1 0 1 0 C 1 0 1 -7.34375 1 -7.34375 C 1 -7.34375 2.0625 -7.34375 2.0625 -7.34375 C 2.0625 -7.34375 2.0625 -6.296875 2.0625 -6.296875 C 2.6875 -7.1875 3.328125 -7.546875 4.3125 -7.546875 C 5.265625 -7.546875 5.859375 -7.203125 6.28125 -6.421875 C 6.96875 -7.25 7.5625 -7.546875 8.546875 -7.546875 C 9.90625 -7.546875 10.640625 -6.8125 10.640625 -5.5 C 10.640625 -5.5 10.640625 0 10.640625 0 Z M 10.640625 0 "/>
</g>
<g id="glyph-0-4-3f8ea115">
<path d="M 7.1875 -3.328125 C 7.1875 -3.328125 1.78125 -3.328125 1.78125 -3.328125 C 1.8125 -1.65625 2.71875 -0.875 3.9375 -0.875 C 4.875 -0.875 5.53125 -1.265625 5.859375 -2.21875 C 5.859375 -2.21875 7.03125 -2.21875 7.03125 -2.21875 C 6.734375 -0.734375 5.578125 0.203125 3.890625 0.203125 C 1.828125 0.203125 0.5625 -1.21875 0.5625 -3.625 C 0.5625 -6.03125 1.875 -7.546875 3.921875 -7.546875 C 5.296875 -7.546875 6.40625 -6.8125 6.890625 -5.609375 C 7.09375 -5.0625 7.1875 -4.390625 7.1875 -3.328125 Z M 5.9375 -4.375 C 5.9375 -5.515625 5.046875 -6.46875 3.90625 -6.46875 C 2.734375 -6.46875 1.90625 -5.59375 1.8125 -4.28125 C 1.8125 -4.28125 5.921875 -4.28125 5.921875 -4.28125 C 5.9375 -4.3125 5.9375 -4.375 5.9375 -4.375 Z M 5.9375 -4.375 "/>
</g>
<g id="glyph-0-5-3f8ea115">
<path d="M 3.5625 0 C 3.15625 0.0625 2.890625 0.09375 2.609375 0.09375 C 1.6875 0.09375 1.1875 -0.328125 1.1875 -1.0625 C 1.1875 -1.0625 1.1875 -6.390625 1.1875 -6.390625 C 1.1875 -6.390625 0.203125 -6.390625 0.203125 -6.390625 C 0.203125 -6.390625 0.203125 -7.34375 0.203125 -7.34375 C 0.203125 -7.34375 1.1875 -7.34375 1.1875 -7.34375 C 1.1875 -7.34375 1.1875 -9.359375 1.1875 -9.359375 C 1.1875 -9.359375 2.359375 -9.359375 2.359375 -9.359375 C 2.359375 -9.359375 2.359375 -7.34375 2.359375 -7.34375 C 2.359375 -7.34375 3.5625 -7.34375 3.5625 -7.34375 C 3.5625 -7.34375 3.5625 -6.390625 3.5625 -6.390625 C 3.5625 -6.390625 2.359375 -6.390625 2.359375 -6.390625 C 2.359375 -6.390625 2.359375 -1.578125 2.359375 -1.578125 C 2.359375 -1.0625 2.484375 -0.921875 3 -0.921875 C 3.21875 -0.921875 3.40625 -0.9375 3.5625 -0.984375 C 3.5625 -0.984375 3.5625 0 3.5625 0 Z M 3.5625 0 "/>
</g>
<g id="glyph-0-6-3f8ea115">
<path d="M 7.09375 -4.78125 C 7.09375 -1.515625 5.953125 0.203125 3.84375 0.203125 C 1.71875 0.203125 0.609375 -1.515625 0.609375 -4.859375 C 0.609375 -8.1875 1.703125 -9.921875 3.84375 -9.921875 C 6 -9.921875 7.09375 -8.21875 7.09375 -4.78125 Z M 5.84375 -4.890625 C 5.84375 -7.546875 5.1875 -8.828125 3.84375 -8.828125 C 2.515625 -8.828125 1.859375 -7.5625 1.859375 -4.84375 C 1.859375 -2.125 2.515625 -0.8125 3.828125 -0.8125 C 5.1875 -0.8125 5.84375 -2.078125 5.84375 -4.890625 Z M 5.84375 -4.890625 "/>
</g>
<g id="glyph-0-7-3f8ea115">
<path d="M 2.671875 0 C 2.671875 0 1.21875 0 1.21875 0 C 1.21875 0 1.21875 -1.453125 1.21875 -1.453125 C 1.21875 -1.453125 2.671875 -1.453125 2.671875 -1.453125 C 2.671875 -1.453125 2.671875 0 2.671875 0 Z M 2.671875 0 "/>
</g>
<g id="glyph-0-8-3f8ea115">
<path d="M 7.15625 -7.015625 C 7.15625 -5.796875 6.4375 -4.765625 5.046875 -4.015625 C 5.046875 -4.015625 3.65625 -3.265625 3.65625 -3.265625 C 2.4375 -2.546875 1.984375 -2.03125 1.859375 -1.21875 C 1.859375 -1.21875 7.078125 -1.21875 7.078125 -1.21875 C 7.078125 -1.21875 7.078125 0 7.078125 0 C 7.078125 0 0.46875 0 0.46875 0 C 0.59375 -2.1875 1.1875 -3.125 3.265625 -4.296875 C 3.265625 -4.296875 4.546875 -5.03125 4.546875 -5.03125 C 5.4375 -5.53125 5.890625 -6.203125 5.890625 -6.984375 C 5.890625 -8.046875 5.046875 -8.84375 3.9375 -8.84375 C 2.71875 -8.84375 2.03125 -8.140625 1.9375 -6.484375 C 1.9375 -6.484375 0.703125 -6.484375 0.703125 -6.484375 C 0.765625 -8.890625 1.953125 -9.921875 3.96875 -9.921875 C 5.859375 -9.921875 7.15625 -8.6875 7.15625 -7.015625 Z M 7.15625 -7.015625 "/>
</g>
<g id="glyph-0-9-3f8ea115">
<path d="M 7.28125 -2.375 C 7.28125 -2.375 5.8125 -2.375 5.8125 -2.375 C 5.8125 -2.375 5.8125 0 5.8125 0 C 5.8125 0 4.578125 0 4.578125 0 C 4.578125 0 4.578125 -2.375 4.578125 -2.375 C 4.578125 -2.375 0.390625 -2.375 0.390625 -2.375 C 0.390625 -2.375 0.390625 -3.6875 0.390625 -3.6875 C 0.390625 -3.6875 4.90625 -9.921875 4.90625 -9.921875 C 4.90625 -9.921875 5.8125 -9.921875 5.8125 -9.921875 C 5.8125 -9.921875 5.8125 -3.484375 5.8125 -3.484375 C 5.8125 -3.484375 7.28125 -3.484375 7.28125 -3.484375 C 7.28125 -3.484375 7.28125 -2.375 7.28125 -2.375 Z M 4.578125 -3.484375 C 4.578125 -3.484375 4.578125 -7.828125 4.578125 -7.828125 C 4.578125 -7.828125 1.46875 -3.484375 1.46875 -3.484375 C 1.46875 -3.484375 4.578125 -3.484375 4.578125 -3.484375 Z M 4.578125 -3.484375 "/>
</g>
<g id="glyph-0-10-3f8ea115">
<path d="M 7.1875 -3.078125 C 7.1875 -1.140625 5.828125 0.203125 3.9375 0.203125 C 1.671875 0.203125 0.609375 -1.421875 0.609375 -4.515625 C 0.609375 -7.984375 1.84375 -9.921875 4.15625 -9.921875 C 5.671875 -9.921875 6.734375 -8.953125 6.96875 -7.34375 C 6.96875 -7.34375 5.734375 -7.34375 5.734375 -7.34375 C 5.546875 -8.28125 4.9375 -8.828125 4.078125 -8.828125 C 2.65625 -8.828125 1.875 -7.484375 1.859375 -5.0625 C 2.390625 -5.796875 3.15625 -6.171875 4.140625 -6.171875 C 5.921875 -6.171875 7.1875 -4.921875 7.1875 -3.078125 Z M 5.921875 -2.984375 C 5.921875 -4.3125 5.1875 -5.078125 3.984375 -5.078125 C 2.765625 -5.078125 1.9375 -4.28125 1.9375 -3.046875 C 1.9375 -1.78125 2.796875 -0.875 3.953125 -0.875 C 5.078125 -0.875 5.921875 -1.734375 5.921875 -2.984375 Z M 5.921875 -2.984375 "/>
</g>
<g id="glyph-0-11-3f8ea115">
<path d="M 7.1875 -2.796875 C 7.1875 -1 5.8125 0.203125 3.84375 0.203125 C 1.890625 0.203125 0.515625 -1 0.515625 -2.8125 C 0.515625 -3.90625 1.078125 -4.671875 2.21875 -5.21875 C 1.203125 -5.859375 0.875 -6.359375 0.875 -7.28125 C 0.875 -8.828125 2.09375 -9.921875 3.84375 -9.921875 C 5.609375 -9.921875 6.828125 -8.828125 6.828125 -7.28125 C 6.828125 -6.34375 6.5 -5.84375 5.46875 -5.21875 C 6.625 -4.671875 7.1875 -3.90625 7.1875 -2.796875 Z M 5.578125 -7.25 C 5.578125 -8.21875 4.90625 -8.828125 3.84375 -8.828125 C 2.8125 -8.828125 2.125 -8.21875 2.125 -7.265625 C 2.125 -6.328125 2.8125 -5.71875 3.84375 -5.71875 C 4.890625 -5.71875 5.578125 -6.328125 5.578125 -7.25 Z M 5.921875 -2.78125 C 5.921875 -3.953125 5.078125 -4.671875 3.84375 -4.671875 C 2.625 -4.671875 1.78125 -3.953125 1.78125 -2.78125 C 1.78125 -1.625 2.625 -0.875 3.828125 -0.875 C 5.078125 -0.875 5.921875 -1.609375 5.921875 -2.78125 Z M 5.921875 -2.78125 "/>
</g>
<g id="glyph-0-12-3f8ea115">
<path d="M 8.109375 -9.0625 C 8.109375 -9.0625 2.5625 -9.0625 2.5625 -9.0625 C 2.5625 -9.0625 2.5625 -5.796875 2.5625 -5.796875 C 2.5625 -5.796875 7.4375 -5.796875 7.4375 -5.796875 C 7.4375 -5.796875 7.4375 -4.640625 7.4375 -4.640625 C 7.4375 -4.640625 2.5625 -4.640625 2.5625 -4.640625 C 2.5625 -4.640625 2.5625 0 2.5625 0 C 2.5625 0 1.265625 0 1.265625 0 C 1.265625 0 1.265625 -10.203125 1.265625 -10.203125 C 1.265625 -10.203125 8.109375 -10.203125 8.109375 -10.203125 C 8.109375 -10.203125 8.109375 -9.0625 8.109375 -9.0625 Z M 8.109375 -9.0625 "/>
</g>
<g id="glyph-0-13-3f8ea115">
<path d="M 2.140625 0 C 2.140625 0 0.984375 0 0.984375 0 C 0.984375 0 0.984375 -7.34375 0.984375 -7.34375 C 0.984375 -7.34375 2.140625 -7.34375 2.140625 -7.34375 C 2.140625 -7.34375 2.140625 0 2.140625 0 Z M 2.296875 -8.4375 C 2.296875 -8.4375 0.84375 -8.4375 0.84375 -8.4375 C 0.84375 -8.4375 0.84375 -9.890625 0.84375 -9.890625 C 0.84375 -9.890625 2.296875 -9.890625 2.296875 -9.890625 C 2.296875 -9.890625 2.296875 -8.4375 2.296875 -8.4375 Z M 2.296875 -8.4375 "/>
</g>
<g id="glyph-0-14-3f8ea115">
<path d="M 6.421875 -2.0625 C 6.421875 -0.640625 5.25 0.203125 3.40625 0.203125 C 1.484375 0.203125 0.53125 -0.546875 0.46875 -2.234375 C 0.46875 -2.234375 1.703125 -2.234375 1.703125 -2.234375 C 1.859375 -1.125 2.453125 -0.875 3.5 -0.875 C 4.515625 -0.875 5.203125 -1.28125 5.203125 -1.953125 C 5.203125 -2.484375 4.890625 -2.734375 4.078125 -2.921875 C 4.078125 -2.921875 2.984375 -3.1875 2.984375 -3.1875 C 1.25 -3.609375 0.65625 -4.15625 0.65625 -5.3125 C 0.65625 -6.65625 1.765625 -7.546875 3.46875 -7.546875 C 5.171875 -7.546875 6.125 -6.734375 6.125 -5.296875 C 6.125 -5.296875 4.90625 -5.296875 4.90625 -5.296875 C 4.875 -6.0625 4.375 -6.46875 3.4375 -6.46875 C 2.484375 -6.46875 1.875 -6.03125 1.875 -5.359375 C 1.875 -4.84375 2.28125 -4.53125 3.234375 -4.3125 C 3.234375 -4.3125 4.359375 -4.046875 4.359375 -4.046875 C 5.8125 -3.703125 6.421875 -3.15625 6.421875 -2.0625 Z M 6.421875 -2.0625 "/>
</g>
<g id="glyph-0-15-3f8ea115">
<path d="M 3.96875 -3.359375 C 3.96875 -3.359375 0.640625 -3.359375 0.640625 -3.359375 C 0.640625 -3.359375 0.640625 -4.375 0.640625 -4.375 C 0.640625 -4.375 3.96875 -4.375 3.96875 -4.375 C 3.96875 -4.375 3.96875 -3.359375 3.96875 -3.359375 Z M 3.96875 -3.359375 "/>
</g>
<g id="glyph-0-16-3f8ea115">
<path d="M 7.140625 -3.609375 C 7.140625 -1.203125 5.875 0.203125 3.828125 0.203125 C 1.734375 0.203125 0.5 -1.203125 0.5 -3.671875 C 0.5 -6.125 1.75 -7.546875 3.8125 -7.546875 C 5.921875 -7.546875 7.140625 -6.140625 7.140625 -3.609375 Z M 5.921875 -3.625 C 5.921875 -5.453125 5.140625 -6.46875 3.828125 -6.46875 C 2.515625 -6.46875 1.71875 -5.4375 1.71875 -3.671875 C 1.71875 -1.890625 2.515625 -0.875 3.828125 -0.875 C 5.109375 -0.875 5.921875 -1.90625 5.921875 -3.625 Z M 5.921875 -3.625 "/>
</g>
<g id="glyph-0-17-3f8ea115">
<path d="M 6.9375 0 C 6.9375 0 5.890625 0 5.890625 0 C 5.890625 0 5.890625 -1.078125 5.890625 -1.078125 C 5.265625 -0.171875 4.5625 0.203125 3.5625 0.203125 C 1.578125 0.203125 0.359375 -1.265625 0.359375 -3.734375 C 0.359375 -6.078125 1.609375 -7.546875 3.515625 -7.546875 C 4.5 -7.546875 5.28125 -7.15625 5.765625 -6.40625 C 5.765625 -6.40625 5.765625 -10.203125 5.765625 -10.203125 C 5.765625 -10.203125 6.9375 -10.203125 6.9375 -10.203125 C 6.9375 -10.203125 6.9375 0 6.9375 0 Z M 5.765625 -3.640625 C 5.765625 -5.328125 4.96875 -6.453125 3.703125 -6.453125 C 2.4375 -6.453125 1.578125 -5.375 1.578125 -3.671875 C 1.578125 -1.953125 2.4375 -0.875 3.71875 -0.875 C 4.953125 -0.875 5.765625 -1.953125 5.765625 -3.640625 Z M 5.765625 -3.640625 "/>
</g>
<g id="glyph-0-18-3f8ea115">
</g>
<g id="glyph-0-19-3f8ea115">
<path d="M 4.078125 2.96875 C 4.078125 2.96875 3.296875 2.96875 3.296875 2.96875 C 1.90625 1.140625 1.015625 -1.40625 1.015625 -3.625 C 1.015625 -5.828125 1.90625 -8.375 3.296875 -10.203125 C 3.296875 -10.203125 4.078125 -10.203125 4.078125 -10.203125 C 2.84375 -8.21875 2.15625 -5.859375 2.15625 -3.625 C 2.15625 -1.390625 2.84375 0.96875 4.078125 2.96875 Z M 4.078125 2.96875 "/>
</g>
<g id="glyph-0-20-3f8ea115">
<path d="M 8.6875 -2.796875 C 8.6875 -0.984375 7.296875 0.25 4.703125 0.25 C 2.296875 0.25 0.671875 -0.90625 0.671875 -3.3125 C 0.671875 -3.3125 1.90625 -3.3125 1.90625 -3.3125 C 1.90625 -1.859375 2.859375 -0.890625 4.78125 -0.890625 C 6.546875 -0.890625 7.390625 -1.546875 7.390625 -2.671875 C 7.390625 -3.46875 6.796875 -3.984375 5.515625 -4.328125 C 5.515625 -4.328125 2.984375 -5 2.984375 -5 C 1.640625 -5.34375 0.984375 -6.125 0.984375 -7.375 C 0.984375 -9.21875 2.359375 -10.453125 4.609375 -10.453125 C 6.953125 -10.453125 8.34375 -9.296875 8.34375 -7.296875 C 8.34375 -7.296875 7.109375 -7.296875 7.109375 -7.296875 C 7.109375 -8.625 6.1875 -9.359375 4.5625 -9.359375 C 3.1875 -9.359375 2.28125 -8.59375 2.28125 -7.5625 C 2.28125 -6.78125 2.734375 -6.375 3.96875 -6.046875 C 3.96875 -6.046875 6.53125 -5.359375 6.53125 -5.359375 C 7.90625 -4.984375 8.6875 -4.0625 8.6875 -2.796875 Z M 8.6875 -2.796875 "/>
</g>
<g id="glyph-0-21-3f8ea115">
<path d="M 3.578125 -3.609375 C 3.578125 -1.40625 2.703125 1.140625 1.296875 2.96875 C 1.296875 2.96875 0.53125 2.96875 0.53125 2.96875 C 1.765625 0.984375 2.453125 -1.390625 2.453125 -3.609375 C 2.453125 -5.859375 1.765625 -8.203125 0.53125 -10.203125 C 0.53125 -10.203125 1.296875 -10.203125 1.296875 -10.203125 C 2.703125 -8.375 3.578125 -5.828125 3.578125 -3.609375 Z M 3.578125 -3.609375 "/>
</g>
<g id="glyph-0-22-3f8ea115">
<path d="M 2.703125 0 C 2.703125 0 1.40625 0 1.40625 0 C 1.40625 0 1.40625 -10.203125 1.40625 -10.203125 C 1.40625 -10.203125 2.703125 -10.203125 2.703125 -10.203125 C 2.703125 -10.203125 2.703125 0 2.703125 0 Z M 2.703125 0 "/>
</g>
<g id="glyph-0-23-3f8ea115">
<path d="M 6.8125 0 C 6.8125 0 5.65625 0 5.65625 0 C 5.65625 0 5.65625 -5.078125 5.65625 -5.078125 C 5.65625 -5.96875 5.0625 -6.53125 4.140625 -6.53125 C 2.953125 -6.53125 2.140625 -5.546875 2.140625 -4.046875 C 2.140625 -4.046875 2.140625 0 2.140625 0 C 2.140625 0 0.984375 0 0.984375 0 C 0.984375 0 0.984375 -7.34375 0.984375 -7.34375 C 0.984375 -7.34375 2.0625 -7.34375 2.0625 -7.34375 C 2.0625 -7.34375 2.0625 -6.109375 2.0625 -6.109375 C 2.703125 -7.125 3.40625 -7.546875 4.5 -7.546875 C 5.90625 -7.546875 6.8125 -6.765625 6.8125 -5.546875 C 6.8125 -5.546875 6.8125 0 6.8125 0 Z M 6.8125 0 "/>
</g>
<g id="glyph-0-24-3f8ea115">
<path d="M 6.671875 -2.515625 C 6.53125 -0.84375 5.4375 0.203125 3.6875 0.203125 C 1.6875 0.203125 0.4375 -1.234375 0.4375 -3.59375 C 0.4375 -6.03125 1.71875 -7.546875 3.703125 -7.546875 C 5.328125 -7.546875 6.453125 -6.65625 6.59375 -4.875 C 6.59375 -4.875 5.421875 -4.875 5.421875 -4.875 C 5.28125 -5.890625 4.65625 -6.46875 3.6875 -6.46875 C 2.40625 -6.46875 1.65625 -5.4375 1.65625 -3.59375 C 1.65625 -1.859375 2.421875 -0.875 3.703125 -0.875 C 4.703125 -0.875 5.3125 -1.34375 5.5 -2.515625 C 5.5 -2.515625 6.671875 -2.515625 6.671875 -2.515625 Z M 6.671875 -2.515625 "/>
</g>
<g id="glyph-0-25-3f8ea115">
<path d="M 7.21875 -4.296875 C 7.21875 -4.296875 0.953125 -4.296875 0.953125 -4.296875 C 0.953125 -4.296875 0.953125 -5.25 0.953125 -5.25 C 0.953125 -5.25 7.21875 -5.25 7.21875 -5.25 C 7.21875 -5.25 7.21875 -4.296875 7.21875 -4.296875 Z M 7.21875 -1.75 C 7.21875 -1.75 0.953125 -1.75 0.953125 -1.75 C 0.953125 -1.75 0.953125 -2.703125 0.953125 -2.703125 C 0.953125 -2.703125 7.21875 -2.703125 7.21875 -2.703125 C 7.21875 -2.703125 7.21875 -1.75 7.21875 -1.75 Z M 7.21875 -1.75 "/>
</g>
<g id="glyph-0-26-3f8ea115">
<path d="M 4.859375 0 C 4.859375 0 3.625 0 3.625 0 C 3.625 0 3.625 -7.0625 3.625 -7.0625 C 3.625 -7.0625 1.421875 -7.0625 1.421875 -7.0625 C 1.421875 -7.0625 1.421875 -7.953125 1.421875 -7.953125 C 3.328125 -8.1875 3.609375 -8.40625 4.046875 -9.921875 C 4.046875 -9.921875 4.859375 -9.921875 4.859375 -9.921875 C 4.859375 -9.921875 4.859375 0 4.859375 0 Z M 4.859375 0 "/>
</g>
<g id="glyph-1-0-3f8ea115">
<path d="M 3.09375 -6 C 4.09375 -5 3.859375 -3.578125 2.546875 -2.265625 C 1.1875 -0.90625 -0.015625 -0.765625 -1.25 -1.90625 C -1.25 -1.90625 -0.375 -2.78125 -0.375 -2.78125 C 0.515625 -2.109375 1.109375 -2.359375 1.84375 -3.09375 C 2.5625 -3.8125 2.765625 -4.578125 2.296875 -5.046875 C 1.921875 -5.421875 1.515625 -5.390625 0.828125 -4.953125 C 0.828125 -4.953125 -0.140625 -4.359375 -0.140625 -4.359375 C -1.65625 -3.4375 -2.46875 -3.40625 -3.28125 -4.21875 C -4.234375 -5.171875 -4.09375 -6.59375 -2.890625 -7.796875 C -1.6875 -9 -0.4375 -9.09375 0.578125 -8.078125 C 0.578125 -8.078125 -0.28125 -7.21875 -0.28125 -7.21875 C -0.828125 -7.734375 -1.484375 -7.671875 -2.140625 -7.015625 C -2.828125 -6.328125 -2.9375 -5.59375 -2.46875 -5.125 C -2.09375 -4.75 -1.59375 -4.8125 -0.765625 -5.328125 C -0.765625 -5.328125 0.21875 -5.9375 0.21875 -5.9375 C 1.484375 -6.734375 2.3125 -6.78125 3.09375 -6 Z M 3.09375 -6 "/>
</g>
<g id="glyph-2-0-3f8ea115">
<path d="M 2.71875 -7.4375 C 2.71875 -7.4375 -1.09375 -3.625 -1.09375 -3.625 C 0.109375 -2.453125 1.296875 -2.546875 2.15625 -3.40625 C 2.828125 -4.078125 3.015625 -4.796875 2.578125 -5.703125 C 2.578125 -5.703125 3.40625 -6.53125 3.40625 -6.53125 C 4.25 -5.28125 4.078125 -3.796875 2.890625 -2.609375 C 1.4375 -1.15625 -0.46875 -1.25 -2.171875 -2.953125 C -3.875 -4.65625 -4.015625 -6.671875 -2.578125 -8.109375 C -1.59375 -9.09375 -0.28125 -9.34375 0.90625 -8.84375 C 1.4375 -8.59375 1.96875 -8.1875 2.71875 -7.4375 Z M 1.109375 -7.296875 C 0.296875 -8.109375 -1.015625 -8.140625 -1.8125 -7.34375 C -2.640625 -6.515625 -2.609375 -5.296875 -1.75 -4.3125 C -1.75 -4.3125 1.15625 -7.21875 1.15625 -7.21875 C 1.15625 -7.25 1.109375 -7.296875 1.109375 -7.296875 Z M 1.109375 -7.296875 "/>
</g>
<g id="glyph-2-1-3f8ea115">
<path d="M 4.8125 -4.8125 C 4.8125 -4.8125 4 -4 4 -4 C 4 -4 0.40625 -7.59375 0.40625 -7.59375 C -0.21875 -8.21875 -1.046875 -8.203125 -1.703125 -7.546875 C -2.53125 -6.71875 -2.40625 -5.4375 -1.34375 -4.375 C -1.34375 -4.375 1.515625 -1.515625 1.515625 -1.515625 C 1.515625 -1.515625 0.703125 -0.703125 0.703125 -0.703125 C 0.703125 -0.703125 -4.484375 -5.890625 -4.484375 -5.890625 C -4.484375 -5.890625 -3.734375 -6.640625 -3.734375 -6.640625 C -3.734375 -6.640625 -2.859375 -5.765625 -2.859375 -5.765625 C -3.125 -6.9375 -2.9375 -7.75 -2.15625 -8.53125 C -1.171875 -9.515625 0.03125 -9.59375 0.890625 -8.734375 C 0.890625 -8.734375 4.8125 -4.8125 4.8125 -4.8125 Z M 4.8125 -4.8125 "/>
</g>
<g id="glyph-2-2-3f8ea115">
<path d="M 3.09375 -6 C 4.09375 -5 3.859375 -3.578125 2.546875 -2.265625 C 1.1875 -0.90625 -0.015625 -0.765625 -1.25 -1.90625 C -1.25 -1.90625 -0.375 -2.78125 -0.375 -2.78125 C 0.515625 -2.109375 1.109375 -2.359375 1.84375 -3.09375 C 2.5625 -3.8125 2.765625 -4.578125 2.296875 -5.046875 C 1.921875 -5.421875 1.515625 -5.390625 0.828125 -4.953125 C 0.828125 -4.953125 -0.140625 -4.359375 -0.140625 -4.359375 C -1.65625 -3.4375 -2.46875 -3.40625 -3.28125 -4.21875 C -4.234375 -5.171875 -4.09375 -6.59375 -2.890625 -7.796875 C -1.6875 -9 -0.4375 -9.09375 0.578125 -8.078125 C 0.578125 -8.078125 -0.28125 -7.21875 -0.28125 -7.21875 C -0.828125 -7.734375 -1.484375 -7.671875 -2.140625 -7.015625 C -2.828125 -6.328125 -2.9375 -5.59375 -2.46875 -5.125 C -2.09375 -4.75 -1.59375 -4.8125 -0.765625 -5.328125 C -0.765625 -5.328125 0.21875 -5.9375 0.21875 -5.9375 C 1.484375 -6.734375 2.3125 -6.78125 3.09375 -6 Z M 3.09375 -6 "/>
</g>
<g id="glyph-2-3-3f8ea115">
<path d="M 1.515625 -1.515625 C 1.515625 -1.515625 0.703125 -0.703125 0.703125 -0.703125 C 0.703125 -0.703125 -4.484375 -5.890625 -4.484375 -5.890625 C -4.484375 -5.890625 -3.671875 -6.703125 -3.671875 -6.703125 C -3.671875 -6.703125 1.515625 -1.515625 1.515625 -1.515625 Z M -4.34375 -7.59375 C -4.34375 -7.59375 -5.375 -6.5625 -5.375 -6.5625 C -5.375 -6.5625 -6.40625 -7.59375 -6.40625 -7.59375 C -6.40625 -7.59375 -5.375 -8.625 -5.375 -8.625 C -5.375 -8.625 -4.34375 -7.59375 -4.34375 -7.59375 Z M -4.34375 -7.59375 "/>
</g>
<g id="glyph-2-4-3f8ea115">
<path d="M 2.515625 -2.515625 C 2.28125 -2.1875 2.109375 -1.984375 1.90625 -1.78125 C 1.25 -1.125 0.609375 -1.078125 0.09375 -1.59375 C 0.09375 -1.59375 -3.671875 -5.359375 -3.671875 -5.359375 C -3.671875 -5.359375 -4.375 -4.65625 -4.375 -4.65625 C -4.375 -4.65625 -5.046875 -5.328125 -5.046875 -5.328125 C -5.046875 -5.328125 -4.34375 -6.03125 -4.34375 -6.03125 C -4.34375 -6.03125 -5.78125 -7.46875 -5.78125 -7.46875 C -5.78125 -7.46875 -4.953125 -8.296875 -4.953125 -8.296875 C -4.953125 -8.296875 -3.515625 -6.859375 -3.515625 -6.859375 C -3.515625 -6.859375 -2.671875 -7.703125 -2.671875 -7.703125 C -2.671875 -7.703125 -2 -7.03125 -2 -7.03125 C -2 -7.03125 -2.84375 -6.1875 -2.84375 -6.1875 C -2.84375 -6.1875 0.5625 -2.78125 0.5625 -2.78125 C 0.921875 -2.421875 1.09375 -2.40625 1.46875 -2.78125 C 1.625 -2.9375 1.75 -3.0625 1.8125 -3.21875 C 1.8125 -3.21875 2.515625 -2.515625 2.515625 -2.515625 Z M 2.515625 -2.515625 "/>
</g>
<g id="glyph-2-5-3f8ea115">
<path d="M -0.375 -10 C -0.375 -10 2.8125 -2.8125 2.8125 -2.8125 C 2.8125 -2.8125 1.921875 -1.921875 1.921875 -1.921875 C 1.921875 -1.921875 -5.09375 -5.28125 -5.09375 -5.28125 C -5.09375 -5.28125 -4.15625 -6.21875 -4.15625 -6.21875 C -4.15625 -6.21875 1.4375 -3.40625 1.4375 -3.40625 C 1.4375 -3.40625 -1.3125 -9.0625 -1.3125 -9.0625 C -1.3125 -9.0625 -0.375 -10 -0.375 -10 Z M -0.375 -10 "/>
</g>
<g id="glyph-2-6-3f8ea115">
</g>
<g id="glyph-2-7-3f8ea115">
<path d="M -1.96875 -7.0625 C -1.96875 -7.0625 -2.828125 -6.203125 -2.828125 -6.203125 C -2.828125 -6.203125 1.6875 -1.6875 1.6875 -1.6875 C 1.6875 -1.6875 0.875 -0.875 0.875 -0.875 C 0.875 -0.875 -3.640625 -5.390625 -3.640625 -5.390625 C -3.640625 -5.390625 -4.34375 -4.6875 -4.34375 -4.6875 C -4.34375 -4.6875 -5.015625 -5.359375 -5.015625 -5.359375 C -5.015625 -5.359375 -4.3125 -6.0625 -4.3125 -6.0625 C -4.3125 -6.0625 -5.1875 -6.9375 -5.1875 -6.9375 C -5.9375 -7.6875 -5.921875 -8.578125 -5.15625 -9.34375 C -5 -9.5 -4.875 -9.59375 -4.640625 -9.734375 C -4.640625 -9.734375 -3.96875 -9.0625 -3.96875 -9.0625 C -4.15625 -8.875 -4.1875 -8.84375 -4.25 -8.78125 C -4.625 -8.40625 -4.65625 -8.03125 -4.3125 -7.6875 C -4.3125 -7.6875 -3.5 -6.875 -3.5 -6.875 C -3.5 -6.875 -2.640625 -7.734375 -2.640625 -7.734375 C -2.640625 -7.734375 -1.96875 -7.0625 -1.96875 -7.0625 Z M -1.96875 -7.0625 "/>
</g>
<g id="glyph-2-8-3f8ea115">
<path d="M -1.28125 -7.65625 C -2.53125 -6.34375 -2.34375 -5.375 -1.1875 -4.21875 C -1.1875 -4.21875 1.515625 -1.515625 1.515625 -1.515625 C 1.515625 -1.515625 0.703125 -0.703125 0.703125 -0.703125 C 0.703125 -0.703125 -4.484375 -5.890625 -4.484375 -5.890625 C -4.484375 -5.890625 -3.734375 -6.640625 -3.734375 -6.640625 C -3.734375 -6.640625 -2.796875 -5.703125 -2.796875 -5.703125 C -3.09375 -6.9375 -3.015625 -7.671875 -2.484375 -8.203125 C -2.375 -8.3125 -2.296875 -8.359375 -2.109375 -8.484375 C -2.109375 -8.484375 -1.28125 -7.65625 -1.28125 -7.65625 Z M -1.28125 -7.65625 "/>
</g>
<g id="glyph-2-9-3f8ea115">
<path d="M 2.9375 -6.5 C 4.03125 -5.21875 3.984375 -3.703125 2.75 -2.46875 C 1.328125 -1.046875 -0.5625 -1.1875 -2.234375 -2.859375 C -3.953125 -4.578125 -4.125 -6.5625 -2.71875 -7.96875 C -1.578125 -9.109375 -0.140625 -9.265625 1.203125 -8.109375 C 1.203125 -8.109375 0.375 -7.28125 0.375 -7.28125 C -0.4375 -7.90625 -1.28125 -7.875 -1.96875 -7.1875 C -2.875 -6.28125 -2.671875 -5.015625 -1.375 -3.71875 C -0.140625 -2.484375 1.09375 -2.34375 2 -3.25 C 2.703125 -3.953125 2.796875 -4.703125 2.109375 -5.671875 C 2.109375 -5.671875 2.9375 -6.5 2.9375 -6.5 Z M 2.9375 -6.5 "/>
</g>
<g id="glyph-3-0-3f8ea115">
<path d="M 5.28125 -5.3125 C 5.078125 -4.984375 4.96875 -4.84375 4.796875 -4.671875 C 4.390625 -4.265625 3.75 -4.1875 3.25 -4.5 C 3.296875 -3.546875 2.921875 -2.640625 2.265625 -1.984375 C 1.21875 -0.9375 0.015625 -0.828125 -0.921875 -1.765625 C -1.5625 -2.40625 -1.71875 -3.15625 -1.375 -4.03125 C -1.171875 -4.453125 -1.03125 -4.6875 0 -6 C 0.546875 -6.734375 0.625 -7.09375 0.28125 -7.4375 C 0.28125 -7.4375 0.0625 -7.65625 0.0625 -7.65625 C -0.4375 -8.15625 -1.140625 -8.015625 -1.875 -7.28125 C -2.65625 -6.5 -2.734375 -5.828125 -2.171875 -5.140625 C -2.171875 -5.140625 -3.015625 -4.296875 -3.015625 -4.296875 C -4.140625 -5.546875 -3.875 -6.8125 -2.625 -8.0625 C -1.34375 -9.34375 -0.171875 -9.515625 0.75 -8.59375 C 0.75 -8.59375 3.640625 -5.703125 3.640625 -5.703125 C 3.90625 -5.4375 4.203125 -5.453125 4.484375 -5.734375 C 4.546875 -5.796875 4.578125 -5.828125 4.65625 -5.9375 C 4.65625 -5.9375 5.28125 -5.3125 5.28125 -5.3125 Z M 2.0625 -5.65625 C 2.0625 -5.65625 1.296875 -6.421875 1.296875 -6.421875 C 1.125 -6 1 -5.78125 0.234375 -4.796875 C -0.5 -3.78125 -0.625 -3.1875 -0.09375 -2.65625 C 0.46875 -2.09375 1.078125 -2.234375 1.71875 -2.875 C 2.515625 -3.671875 2.8125 -4.90625 2.0625 -5.65625 Z M 2.0625 -5.65625 "/>
</g>
<g id="glyph-3-1-3f8ea115">
<path d="M 2.5 -7.59375 C 4.203125 -5.890625 4.296875 -4.015625 2.84375 -2.5625 C 1.359375 -1.078125 -0.484375 -1.203125 -2.234375 -2.953125 C -3.96875 -4.6875 -4.109375 -6.578125 -2.640625 -8.046875 C -1.15625 -9.53125 0.703125 -9.390625 2.5 -7.59375 Z M 1.625 -6.75 C 0.328125 -8.046875 -0.9375 -8.21875 -1.875 -7.28125 C -2.796875 -6.359375 -2.625 -5.0625 -1.375 -3.8125 C -0.125 -2.5625 1.15625 -2.40625 2.078125 -3.328125 C 2.984375 -4.234375 2.84375 -5.53125 1.625 -6.75 Z M 1.625 -6.75 "/>
</g>
<g id="glyph-4-0-3f8ea115">
<path d="M 2.515625 -2.515625 C 2.28125 -2.1875 2.109375 -1.984375 1.90625 -1.78125 C 1.25 -1.125 0.609375 -1.078125 0.09375 -1.59375 C 0.09375 -1.59375 -3.671875 -5.359375 -3.671875 -5.359375 C -3.671875 -5.359375 -4.375 -4.65625 -4.375 -4.65625 C -4.375 -4.65625 -5.046875 -5.328125 -5.046875 -5.328125 C -5.046875 -5.328125 -4.34375 -6.03125 -4.34375 -6.03125 C -4.34375 -6.03125 -5.78125 -7.46875 -5.78125 -7.46875 C -5.78125 -7.46875 -4.953125 -8.296875 -4.953125 -8.296875 C -4.953125 -8.296875 -3.515625 -6.859375 -3.515625 -6.859375 C -3.515625 -6.859375 -2.671875 -7.703125 -2.671875 -7.703125 C -2.671875 -7.703125 -2 -7.03125 -2 -7.03125 C -2 -7.03125 -2.84375 -6.1875 -2.84375 -6.1875 C -2.84375 -6.1875 0.5625 -2.78125 0.5625 -2.78125 C 0.921875 -2.421875 1.09375 -2.40625 1.46875 -2.78125 C 1.625 -2.9375 1.75 -3.0625 1.8125 -3.21875 C 1.8125 -3.21875 2.515625 -2.515625 2.515625 -2.515625 Z M 2.515625 -2.515625 "/>
</g>
<g id="glyph-5-0-3f8ea115">
<path d="M 4.8125 -4.8125 C 4.8125 -4.8125 4 -4 4 -4 C 4 -4 0.40625 -7.59375 0.40625 -7.59375 C -0.21875 -8.21875 -1.046875 -8.203125 -1.703125 -7.546875 C -2.53125 -6.71875 -2.40625 -5.4375 -1.34375 -4.375 C -1.34375 -4.375 1.515625 -1.515625 1.515625 -1.515625 C 1.515625 -1.515625 0.703125 -0.703125 0.703125 -0.703125 C 0.703125 -0.703125 -4.484375 -5.890625 -4.484375 -5.890625 C -4.484375 -5.890625 -3.734375 -6.640625 -3.734375 -6.640625 C -3.734375 -6.640625 -2.859375 -5.765625 -2.859375 -5.765625 C -3.125 -6.9375 -2.9375 -7.75 -2.15625 -8.53125 C -1.171875 -9.515625 0.03125 -9.59375 0.890625 -8.734375 C 0.890625 -8.734375 4.8125 -4.8125 4.8125 -4.8125 Z M 4.8125 -4.8125 "/>
</g>
<g id="glyph-5-1-3f8ea115">
</g>
<g id="glyph-5-2-3f8ea115">
<path d="M -0.015625 -5.078125 C 1.53125 -3.53125 2.71875 -1.09375 3.015625 1.171875 C 3.015625 1.171875 2.46875 1.71875 2.46875 1.71875 C 1.953125 -0.546875 0.75 -2.71875 -0.8125 -4.28125 C -2.40625 -5.875 -4.546875 -7.046875 -6.84375 -7.59375 C -6.84375 -7.59375 -6.296875 -8.140625 -6.296875 -8.140625 C -4.015625 -7.828125 -1.59375 -6.65625 -0.015625 -5.078125 Z M -0.015625 -5.078125 "/>
</g>
<g id="glyph-6-0-3f8ea115">
<path d="M 4.984375 -0.796875 C 4.984375 -0.796875 4.421875 -0.234375 4.421875 -0.234375 C 2.15625 -0.53125 -0.28125 -1.71875 -1.84375 -3.28125 C -3.40625 -4.84375 -4.578125 -7.265625 -4.890625 -9.546875 C -4.890625 -9.546875 -4.328125 -10.109375 -4.328125 -10.109375 C -3.796875 -7.828125 -2.609375 -5.671875 -1.03125 -4.09375 C 0.546875 -2.515625 2.703125 -1.328125 4.984375 -0.796875 Z M 4.984375 -0.796875 "/>
</g>
<g id="glyph-7-0-3f8ea115">
<path d="M -0.375 -10 C -0.375 -10 2.8125 -2.8125 2.8125 -2.8125 C 2.8125 -2.8125 1.921875 -1.921875 1.921875 -1.921875 C 1.921875 -1.921875 -5.09375 -5.28125 -5.09375 -5.28125 C -5.09375 -5.28125 -4.15625 -6.21875 -4.15625 -6.21875 C -4.15625 -6.21875 1.4375 -3.40625 1.4375 -3.40625 C 1.4375 -3.40625 -1.3125 -9.0625 -1.3125 -9.0625 C -1.3125 -9.0625 -0.375 -10 -0.375 -10 Z M -0.375 -10 "/>
</g>
<g id="glyph-8-0-3f8ea115">
<path d="M -1.96875 -7.0625 C -1.96875 -7.0625 -2.828125 -6.203125 -2.828125 -6.203125 C -2.828125 -6.203125 1.6875 -1.6875 1.6875 -1.6875 C 1.6875 -1.6875 0.875 -0.875 0.875 -0.875 C 0.875 -0.875 -3.640625 -5.390625 -3.640625 -5.390625 C -3.640625 -5.390625 -4.34375 -4.6875 -4.34375 -4.6875 C -4.34375 -4.6875 -5.015625 -5.359375 -5.015625 -5.359375 C -5.015625 -5.359375 -4.3125 -6.0625 -4.3125 -6.0625 C -4.3125 -6.0625 -5.1875 -6.9375 -5.1875 -6.9375 C -5.9375 -7.6875 -5.921875 -8.578125 -5.15625 -9.34375 C -5 -9.5 -4.875 -9.59375 -4.640625 -9.734375 C -4.640625 -9.734375 -3.96875 -9.0625 -3.96875 -9.0625 C -4.15625 -8.875 -4.1875 -8.84375 -4.25 -8.78125 C -4.625 -8.40625 -4.65625 -8.03125 -4.3125 -7.6875 C -4.3125 -7.6875 -3.5 -6.875 -3.5 -6.875 C -3.5 -6.875 -2.640625 -7.734375 -2.640625 -7.734375 C -2.640625 -7.734375 -1.96875 -7.0625 -1.96875 -7.0625 Z M -1.96875 -7.0625 "/>
</g>
<g id="glyph-9-0-3f8ea115">
<path d="M 4 -5.6875 C 6.28125 -3.40625 6.296875 -1.984375 4.671875 -0.359375 C 3.453125 0.859375 2.109375 1.015625 1.046875 0.140625 C 1.046875 0.140625 1.890625 -0.703125 1.890625 -0.703125 C 2.609375 -0.171875 3.375 -0.4375 4.015625 -1.078125 C 4.984375 -2.046875 5.015625 -3.140625 3.640625 -4.515625 C 3.640625 -4.515625 3.296875 -4.859375 3.296875 -4.859375 C 3.40625 -3.65625 3.21875 -2.9375 2.578125 -2.296875 C 1.34375 -1.0625 -0.625 -1.1875 -2.265625 -2.828125 C -3.953125 -4.515625 -4.15625 -6.53125 -2.84375 -7.84375 C -2.1875 -8.5 -1.375 -8.71875 -0.359375 -8.515625 C -0.359375 -8.515625 -1.109375 -9.265625 -1.109375 -9.265625 C -1.109375 -9.265625 -0.34375 -10.03125 -0.34375 -10.03125 C -0.34375 -10.03125 4 -5.6875 4 -5.6875 Z M 1.4375 -6.5625 C 0.171875 -7.828125 -1.109375 -8.046875 -2 -7.15625 C -2.875 -6.28125 -2.6875 -5 -1.4375 -3.75 C -0.1875 -2.5 1.0625 -2.3125 1.96875 -3.21875 C 2.84375 -4.09375 2.671875 -5.328125 1.4375 -6.5625 Z M 1.4375 -6.5625 "/>
</g>
<g id="glyph-9-1-3f8ea115">
<path d="M -1.28125 -7.65625 C -2.53125 -6.34375 -2.34375 -5.375 -1.1875 -4.21875 C -1.1875 -4.21875 1.515625 -1.515625 1.515625 -1.515625 C 1.515625 -1.515625 0.703125 -0.703125 0.703125 -0.703125 C 0.703125 -0.703125 -4.484375 -5.890625 -4.484375 -5.890625 C -4.484375 -5.890625 -3.734375 -6.640625 -3.734375 -6.640625 C -3.734375 -6.640625 -2.796875 -5.703125 -2.796875 -5.703125 C -3.09375 -6.9375 -3.015625 -7.671875 -2.484375 -8.203125 C -2.375 -8.3125 -2.296875 -8.359375 -2.109375 -8.484375 C -2.109375 -8.484375 -1.28125 -7.65625 -1.28125 -7.65625 Z M -1.28125 -7.65625 "/>
</g>
<g id="glyph-9-2-3f8ea115">
<path d="M 2.5 -7.59375 C 4.203125 -5.890625 4.296875 -4.015625 2.84375 -2.5625 C 1.359375 -1.078125 -0.484375 -1.203125 -2.234375 -2.953125 C -3.96875 -4.6875 -4.109375 -6.578125 -2.640625 -8.046875 C -1.15625 -9.53125 0.703125 -9.390625 2.5 -7.59375 Z M 1.625 -6.75 C 0.328125 -8.046875 -0.9375 -8.21875 -1.875 -7.28125 C -2.796875 -6.359375 -2.625 -5.0625 -1.375 -3.8125 C -0.125 -2.5625 1.15625 -2.40625 2.078125 -3.328125 C 2.984375 -4.234375 2.84375 -5.53125 1.625 -6.75 Z M 1.625 -6.75 "/>
</g>
<g id="glyph-9-3-3f8ea115">
<path d="M 1.8125 -12.1875 C 1.8125 -12.1875 5.484375 -5.484375 5.484375 -5.484375 C 5.484375 -5.484375 4.546875 -4.546875 4.546875 -4.546875 C 4.546875 -4.546875 -0.578125 -7.546875 -0.578125 -7.546875 C -0.578125 -7.546875 2.5 -2.5 2.5 -2.5 C 2.5 -2.5 1.5625 -1.5625 1.5625 -1.5625 C 1.5625 -1.5625 -5.125 -5.25 -5.125 -5.25 C -5.125 -5.25 -4.21875 -6.15625 -4.21875 -6.15625 C -4.21875 -6.15625 0.875 -3.1875 0.875 -3.1875 C 0.875 -3.1875 -2.171875 -8.203125 -2.171875 -8.203125 C -2.171875 -8.203125 -1.15625 -9.21875 -1.15625 -9.21875 C -1.15625 -9.21875 3.890625 -6.203125 3.890625 -6.203125 C 3.890625 -6.203125 0.890625 -11.265625 0.890625 -11.265625 C 0.890625 -11.265625 1.8125 -12.1875 1.8125 -12.1875 Z M 1.8125 -12.1875 "/>
</g>
<g id="glyph-9-4-3f8ea115">
<path d="M 2.515625 -2.515625 C 2.28125 -2.1875 2.109375 -1.984375 1.90625 -1.78125 C 1.25 -1.125 0.609375 -1.078125 0.09375 -1.59375 C 0.09375 -1.59375 -3.671875 -5.359375 -3.671875 -5.359375 C -3.671875 -5.359375 -4.375 -4.65625 -4.375 -4.65625 C -4.375 -4.65625 -5.046875 -5.328125 -5.046875 -5.328125 C -5.046875 -5.328125 -4.34375 -6.03125 -4.34375 -6.03125 C -4.34375 -6.03125 -5.78125 -7.46875 -5.78125 -7.46875 C -5.78125 -7.46875 -4.953125 -8.296875 -4.953125 -8.296875 C -4.953125 -8.296875 -3.515625 -6.859375 -3.515625 -6.859375 C -3.515625 -6.859375 -2.671875 -7.703125 -2.671875 -7.703125 C -2.671875 -7.703125 -2 -7.03125 -2 -7.03125 C -2 -7.03125 -2.84375 -6.1875 -2.84375 -6.1875 C -2.84375 -6.1875 0.5625 -2.78125 0.5625 -2.78125 C 0.921875 -2.421875 1.09375 -2.40625 1.46875 -2.78125 C 1.625 -2.9375 1.75 -3.0625 1.8125 -3.21875 C 1.8125 -3.21875 2.515625 -2.515625 2.515625 -2.515625 Z M 2.515625 -2.515625 "/>
</g>
<g id="glyph-10-0-3f8ea115">
<path d="M 4.8125 -4.8125 C 4.8125 -4.8125 3.984375 -3.984375 3.984375 -3.984375 C 3.984375 -3.984375 0.390625 -7.578125 0.390625 -7.578125 C -0.296875 -8.265625 -1.125 -8.125 -1.703125 -7.546875 C -2.5625 -6.6875 -2.40625 -5.4375 -1.34375 -4.375 C -1.34375 -4.375 1.515625 -1.515625 1.515625 -1.515625 C 1.515625 -1.515625 0.703125 -0.703125 0.703125 -0.703125 C 0.703125 -0.703125 -6.515625 -7.921875 -6.515625 -7.921875 C -6.515625 -7.921875 -5.703125 -8.734375 -5.703125 -8.734375 C -5.703125 -8.734375 -2.953125 -5.984375 -2.953125 -5.984375 C -3.109375 -7.109375 -2.90625 -7.78125 -2.15625 -8.53125 C -1.15625 -9.53125 0.015625 -9.609375 0.890625 -8.734375 C 0.890625 -8.734375 4.8125 -4.8125 4.8125 -4.8125 Z M 4.8125 -4.8125 "/>
</g>
<g id="glyph-11-0-3f8ea115">
</g>
<g id="glyph-11-1-3f8ea115">
<path d="M 2.71875 -7.4375 C 2.71875 -7.4375 -1.09375 -3.625 -1.09375 -3.625 C 0.109375 -2.453125 1.296875 -2.546875 2.15625 -3.40625 C 2.828125 -4.078125 3.015625 -4.796875 2.578125 -5.703125 C 2.578125 -5.703125 3.40625 -6.53125 3.40625 -6.53125 C 4.25 -5.28125 4.078125 -3.796875 2.890625 -2.609375 C 1.4375 -1.15625 -0.46875 -1.25 -2.171875 -2.953125 C -3.875 -4.65625 -4.015625 -6.671875 -2.578125 -8.109375 C -1.59375 -9.09375 -0.28125 -9.34375 0.90625 -8.84375 C 1.4375 -8.59375 1.96875 -8.1875 2.71875 -7.4375 Z M 1.109375 -7.296875 C 0.296875 -8.109375 -1.015625 -8.140625 -1.8125 -7.34375 C -2.640625 -6.515625 -2.609375 -5.296875 -1.75 -4.3125 C -1.75 -4.3125 1.15625 -7.21875 1.15625 -7.21875 C 1.15625 -7.25 1.109375 -7.296875 1.109375 -7.296875 Z M 1.109375 -7.296875 "/>
</g>
<g id="glyph-11-2-3f8ea115">
<path d="M 5.28125 -5.3125 C 5.078125 -4.984375 4.96875 -4.84375 4.796875 -4.671875 C 4.390625 -4.265625 3.75 -4.1875 3.25 -4.5 C 3.296875 -3.546875 2.921875 -2.640625 2.265625 -1.984375 C 1.21875 -0.9375 0.015625 -0.828125 -0.921875 -1.765625 C -1.5625 -2.40625 -1.71875 -3.15625 -1.375 -4.03125 C -1.171875 -4.453125 -1.03125 -4.6875 0 -6 C 0.546875 -6.734375 0.625 -7.09375 0.28125 -7.4375 C 0.28125 -7.4375 0.0625 -7.65625 0.0625 -7.65625 C -0.4375 -8.15625 -1.140625 -8.015625 -1.875 -7.28125 C -2.65625 -6.5 -2.734375 -5.828125 -2.171875 -5.140625 C -2.171875 -5.140625 -3.015625 -4.296875 -3.015625 -4.296875 C -4.140625 -5.546875 -3.875 -6.8125 -2.625 -8.0625 C -1.34375 -9.34375 -0.171875 -9.515625 0.75 -8.59375 C 0.75 -8.59375 3.640625 -5.703125 3.640625 -5.703125 C 3.90625 -5.4375 4.203125 -5.453125 4.484375 -5.734375 C 4.546875 -5.796875 4.578125 -5.828125 4.65625 -5.9375 C 4.65625 -5.9375 5.28125 -5.3125 5.28125 -5.3125 Z M 2.0625 -5.65625 C 2.0625 -5.65625 1.296875 -6.421875 1.296875 -6.421875 C 1.125 -6 1 -5.78125 0.234375 -4.796875 C -0.5 -3.78125 -0.625 -3.1875 -0.09375 -2.65625 C 0.46875 -2.09375 1.078125 -2.234375 1.71875 -2.875 C 2.515625 -3.671875 2.8125 -4.90625 2.0625 -5.65625 Z M 2.0625 -5.65625 "/>
</g>
<g id="glyph-12-0-3f8ea115">
<path d="M -1.28125 -7.65625 C -2.53125 -6.34375 -2.34375 -5.375 -1.1875 -4.21875 C -1.1875 -4.21875 1.515625 -1.515625 1.515625 -1.515625 C 1.515625 -1.515625 0.703125 -0.703125 0.703125 -0.703125 C 0.703125 -0.703125 -4.484375 -5.890625 -4.484375 -5.890625 C -4.484375 -5.890625 -3.734375 -6.640625 -3.734375 -6.640625 C -3.734375 -6.640625 -2.796875 -5.703125 -2.796875 -5.703125 C -3.09375 -6.9375 -3.015625 -7.671875 -2.484375 -8.203125 C -2.375 -8.3125 -2.296875 -8.359375 -2.109375 -8.484375 C -2.109375 -8.484375 -1.28125 -7.65625 -1.28125 -7.65625 Z M -1.28125 -7.65625 "/>
</g>
<g id="glyph-12-1-3f8ea115">
<path d="M 4.984375 -0.796875 C 4.984375 -0.796875 4.421875 -0.234375 4.421875 -0.234375 C 2.15625 -0.53125 -0.28125 -1.71875 -1.84375 -3.28125 C -3.40625 -4.84375 -4.578125 -7.265625 -4.890625 -9.546875 C -4.890625 -9.546875 -4.328125 -10.109375 -4.328125 -10.109375 C -3.796875 -7.828125 -2.609375 -5.671875 -1.03125 -4.09375 C 0.546875 -2.515625 2.703125 -1.328125 4.984375 -0.796875 Z M 4.984375 -0.796875 "/>
</g>
<g id="glyph-12-2-3f8ea115">
<path d="M -0.375 -10 C -0.375 -10 2.8125 -2.8125 2.8125 -2.8125 C 2.8125 -2.8125 1.921875 -1.921875 1.921875 -1.921875 C 1.921875 -1.921875 -5.09375 -5.28125 -5.09375 -5.28125 C -5.09375 -5.28125 -4.15625 -6.21875 -4.15625 -6.21875 C -4.15625 -6.21875 1.4375 -3.40625 1.4375 -3.40625 C 1.4375 -3.40625 -1.3125 -9.0625 -1.3125 -9.0625 C -1.3125 -9.0625 -0.375 -10 -0.375 -10 Z M -0.375 -10 "/>
</g>
<g id="glyph-12-3-3f8ea115">
<path d="M 4.90625 -4.90625 C 4.90625 -4.90625 4.171875 -4.171875 4.171875 -4.171875 C 4.171875 -4.171875 3.40625 -4.9375 3.40625 -4.9375 C 3.59375 -3.84375 3.359375 -3.078125 2.65625 -2.375 C 1.25 -0.96875 -0.640625 -1.140625 -2.390625 -2.890625 C -4.046875 -4.546875 -4.203125 -6.484375 -2.859375 -7.828125 C -2.15625 -8.53125 -1.328125 -8.796875 -0.453125 -8.609375 C -0.453125 -8.609375 -3.140625 -11.296875 -3.140625 -11.296875 C -3.140625 -11.296875 -2.3125 -12.125 -2.3125 -12.125 C -2.3125 -12.125 4.90625 -4.90625 4.90625 -4.90625 Z M 1.5 -6.65625 C 0.3125 -7.84375 -1.046875 -8.078125 -1.9375 -7.1875 C -2.84375 -6.28125 -2.6875 -4.90625 -1.484375 -3.703125 C -0.265625 -2.484375 1.09375 -2.34375 2 -3.25 C 2.875 -4.125 2.703125 -5.453125 1.5 -6.65625 Z M 1.5 -6.65625 "/>
</g>
<g id="glyph-12-4-3f8ea115">
<path d="M 2.71875 -7.4375 C 2.71875 -7.4375 -1.09375 -3.625 -1.09375 -3.625 C 0.109375 -2.453125 1.296875 -2.546875 2.15625 -3.40625 C 2.828125 -4.078125 3.015625 -4.796875 2.578125 -5.703125 C 2.578125 -5.703125 3.40625 -6.53125 3.40625 -6.53125 C 4.25 -5.28125 4.078125 -3.796875 2.890625 -2.609375 C 1.4375 -1.15625 -0.46875 -1.25 -2.171875 -2.953125 C -3.875 -4.65625 -4.015625 -6.671875 -2.578125 -8.109375 C -1.59375 -9.09375 -0.28125 -9.34375 0.90625 -8.84375 C 1.4375 -8.59375 1.96875 -8.1875 2.71875 -7.4375 Z M 1.109375 -7.296875 C 0.296875 -8.109375 -1.015625 -8.140625 -1.8125 -7.34375 C -2.640625 -6.515625 -2.609375 -5.296875 -1.75 -4.3125 C -1.75 -4.3125 1.15625 -7.21875 1.15625 -7.21875 C 1.15625 -7.25 1.109375 -7.296875 1.109375 -7.296875 Z M 1.109375 -7.296875 "/>
</g>
<g id="glyph-12-5-3f8ea115">
<path d="M 5.28125 -5.3125 C 5.078125 -4.984375 4.96875 -4.84375 4.796875 -4.671875 C 4.390625 -4.265625 3.75 -4.1875 3.25 -4.5 C 3.296875 -3.546875 2.921875 -2.640625 2.265625 -1.984375 C 1.21875 -0.9375 0.015625 -0.828125 -0.921875 -1.765625 C -1.5625 -2.40625 -1.71875 -3.15625 -1.375 -4.03125 C -1.171875 -4.453125 -1.03125 -4.6875 0 -6 C 0.546875 -6.734375 0.625 -7.09375 0.28125 -7.4375 C 0.28125 -7.4375 0.0625 -7.65625 0.0625 -7.65625 C -0.4375 -8.15625 -1.140625 -8.015625 -1.875 -7.28125 C -2.65625 -6.5 -2.734375 -5.828125 -2.171875 -5.140625 C -2.171875 -5.140625 -3.015625 -4.296875 -3.015625 -4.296875 C -4.140625 -5.546875 -3.875 -6.8125 -2.625 -8.0625 C -1.34375 -9.34375 -0.171875 -9.515625 0.75 -8.59375 C 0.75 -8.59375 3.640625 -5.703125 3.640625 -5.703125 C 3.90625 -5.4375 4.203125 -5.453125 4.484375 -5.734375 C 4.546875 -5.796875 4.578125 -5.828125 4.65625 -5.9375 C 4.65625 -5.9375 5.28125 -5.3125 5.28125 -5.3125 Z M 2.0625 -5.65625 C 2.0625 -5.65625 1.296875 -6.421875 1.296875 -6.421875 C 1.125 -6 1 -5.78125 0.234375 -4.796875 C -0.5 -3.78125 -0.625 -3.1875 -0.09375 -2.65625 C 0.46875 -2.09375 1.078125 -2.234375 1.71875 -2.875 C 2.515625 -3.671875 2.8125 -4.90625 2.0625 -5.65625 Z M 2.0625 -5.65625 "/>
</g>
<g id="glyph-12-6-3f8ea115">
<path d="M 2.515625 -2.515625 C 2.28125 -2.1875 2.109375 -1.984375 1.90625 -1.78125 C 1.25 -1.125 0.609375 -1.078125 0.09375 -1.59375 C 0.09375 -1.59375 -3.671875 -5.359375 -3.671875 -5.359375 C -3.671875 -5.359375 -4.375 -4.65625 -4.375 -4.65625 C -4.375 -4.65625 -5.046875 -5.328125 -5.046875 -5.328125 C -5.046875 -5.328125 -4.34375 -6.03125 -4.34375 -6.03125 C -4.34375 -6.03125 -5.78125 -7.46875 -5.78125 -7.46875 C -5.78125 -7.46875 -4.953125 -8.296875 -4.953125 -8.296875 C -4.953125 -8.296875 -3.515625 -6.859375 -3.515625 -6.859375 C -3.515625 -6.859375 -2.671875 -7.703125 -2.671875 -7.703125 C -2.671875 -7.703125 -2 -7.03125 -2 -7.03125 C -2 -7.03125 -2.84375 -6.1875 -2.84375 -6.1875 C -2.84375 -6.1875 0.5625 -2.78125 0.5625 -2.78125 C 0.921875 -2.421875 1.09375 -2.40625 1.46875 -2.78125 C 1.625 -2.9375 1.75 -3.0625 1.8125 -3.21875 C 1.8125 -3.21875 2.515625 -2.515625 2.515625 -2.515625 Z M 2.515625 -2.515625 "/>
</g>
<g id="glyph-12-7-3f8ea115">
</g>
<g id="glyph-13-0-3f8ea115">
<path d="M 5.28125 -5.3125 C 5.078125 -4.984375 4.96875 -4.84375 4.796875 -4.671875 C 4.390625 -4.265625 3.75 -4.1875 3.25 -4.5 C 3.296875 -3.546875 2.921875 -2.640625 2.265625 -1.984375 C 1.21875 -0.9375 0.015625 -0.828125 -0.921875 -1.765625 C -1.5625 -2.40625 -1.71875 -3.15625 -1.375 -4.03125 C -1.171875 -4.453125 -1.03125 -4.6875 0 -6 C 0.546875 -6.734375 0.625 -7.09375 0.28125 -7.4375 C 0.28125 -7.4375 0.0625 -7.65625 0.0625 -7.65625 C -0.4375 -8.15625 -1.140625 -8.015625 -1.875 -7.28125 C -2.65625 -6.5 -2.734375 -5.828125 -2.171875 -5.140625 C -2.171875 -5.140625 -3.015625 -4.296875 -3.015625 -4.296875 C -4.140625 -5.546875 -3.875 -6.8125 -2.625 -8.0625 C -1.34375 -9.34375 -0.171875 -9.515625 0.75 -8.59375 C 0.75 -8.59375 3.640625 -5.703125 3.640625 -5.703125 C 3.90625 -5.4375 4.203125 -5.453125 4.484375 -5.734375 C 4.546875 -5.796875 4.578125 -5.828125 4.65625 -5.9375 C 4.65625 -5.9375 5.28125 -5.3125 5.28125 -5.3125 Z M 2.0625 -5.65625 C 2.0625 -5.65625 1.296875 -6.421875 1.296875 -6.421875 C 1.125 -6 1 -5.78125 0.234375 -4.796875 C -0.5 -3.78125 -0.625 -3.1875 -0.09375 -2.65625 C 0.46875 -2.09375 1.078125 -2.234375 1.71875 -2.875 C 2.515625 -3.671875 2.8125 -4.90625 2.0625 -5.65625 Z M 2.0625 -5.65625 "/>
</g>
<g id="glyph-13-1-3f8ea115">
<path d="M 2.515625 -2.515625 C 2.28125 -2.1875 2.109375 -1.984375 1.90625 -1.78125 C 1.25 -1.125 0.609375 -1.078125 0.09375 -1.59375 C 0.09375 -1.59375 -3.671875 -5.359375 -3.671875 -5.359375 C -3.671875 -5.359375 -4.375 -4.65625 -4.375 -4.65625 C -4.375 -4.65625 -5.046875 -5.328125 -5.046875 -5.328125 C -5.046875 -5.328125 -4.34375 -6.03125 -4.34375 -6.03125 C -4.34375 -6.03125 -5.78125 -7.46875 -5.78125 -7.46875 C -5.78125 -7.46875 -4.953125 -8.296875 -4.953125 -8.296875 C -4.953125 -8.296875 -3.515625 -6.859375 -3.515625 -6.859375 C -3.515625 -6.859375 -2.671875 -7.703125 -2.671875 -7.703125 C -2.671875 -7.703125 -2 -7.03125 -2 -7.03125 C -2 -7.03125 -2.84375 -6.1875 -2.84375 -6.1875 C -2.84375 -6.1875 0.5625 -2.78125 0.5625 -2.78125 C 0.921875 -2.421875 1.09375 -2.40625 1.46875 -2.78125 C 1.625 -2.9375 1.75 -3.0625 1.8125 -3.21875 C 1.8125 -3.21875 2.515625 -2.515625 2.515625 -2.515625 Z M 2.515625 -2.515625 "/>
</g>
<g id="glyph-14-0-3f8ea115">
</g>
<g id="glyph-15-0-3f8ea115">
<path d="M 2.515625 -2.515625 C 2.28125 -2.1875 2.109375 -1.984375 1.90625 -1.78125 C 1.25 -1.125 0.609375 -1.078125 0.09375 -1.59375 C 0.09375 -1.59375 -3.671875 -5.359375 -3.671875 -5.359375 C -3.671875 -5.359375 -4.375 -4.65625 -4.375 -4.65625 C -4.375 -4.65625 -5.046875 -5.328125 -5.046875 -5.328125 C -5.046875 -5.328125 -4.34375 -6.03125 -4.34375 -6.03125 C -4.34375 -6.03125 -5.78125 -7.46875 -5.78125 -7.46875 C -5.78125 -7.46875 -4.953125 -8.296875 -4.953125 -8.296875 C -4.953125 -8.296875 -3.515625 -6.859375 -3.515625 -6.859375 C -3.515625 -6.859375 -2.671875 -7.703125 -2.671875 -7.703125 C -2.671875 -7.703125 -2 -7.03125 -2 -7.03125 C -2 -7.03125 -2.84375 -6.1875 -2.84375 -6.1875 C -2.84375 -6.1875 0.5625 -2.78125 0.5625 -2.78125 C 0.921875 -2.421875 1.09375 -2.40625 1.46875 -2.78125 C 1.625 -2.9375 1.75 -3.0625 1.8125 -3.21875 C 1.8125 -3.21875 2.515625 -2.515625 2.515625 -2.515625 Z M 2.515625 -2.515625 "/>
</g>
<g id="glyph-16-0-3f8ea115">
<path d="M 4 -5.6875 C 6.28125 -3.40625 6.296875 -1.984375 4.671875 -0.359375 C 3.453125 0.859375 2.109375 1.015625 1.046875 0.140625 C 1.046875 0.140625 1.890625 -0.703125 1.890625 -0.703125 C 2.609375 -0.171875 3.375 -0.4375 4.015625 -1.078125 C 4.984375 -2.046875 5.015625 -3.140625 3.640625 -4.515625 C 3.640625 -4.515625 3.296875 -4.859375 3.296875 -4.859375 C 3.40625 -3.65625 3.21875 -2.9375 2.578125 -2.296875 C 1.34375 -1.0625 -0.625 -1.1875 -2.265625 -2.828125 C -3.953125 -4.515625 -4.15625 -6.53125 -2.84375 -7.84375 C -2.1875 -8.5 -1.375 -8.71875 -0.359375 -8.515625 C -0.359375 -8.515625 -1.109375 -9.265625 -1.109375 -9.265625 C -1.109375 -9.265625 -0.34375 -10.03125 -0.34375 -10.03125 C -0.34375 -10.03125 4 -5.6875 4 -5.6875 Z M 1.4375 -6.5625 C 0.171875 -7.828125 -1.109375 -8.046875 -2 -7.15625 C -2.875 -6.28125 -2.6875 -5 -1.4375 -3.75 C -0.1875 -2.5 1.0625 -2.3125 1.96875 -3.21875 C 2.84375 -4.09375 2.671875 -5.328125 1.4375 -6.5625 Z M 1.4375 -6.5625 "/>
</g>
<g id="glyph-17-0-3f8ea115">
<path d="M -0.015625 -5.078125 C 1.53125 -3.53125 2.71875 -1.09375 3.015625 1.171875 C 3.015625 1.171875 2.46875 1.71875 2.46875 1.71875 C 1.953125 -0.546875 0.75 -2.71875 -0.8125 -4.28125 C -2.40625 -5.875 -4.546875 -7.046875 -6.84375 -7.59375 C -6.84375 -7.59375 -6.296875 -8.140625 -6.296875 -8.140625 C -4.015625 -7.828125 -1.59375 -6.65625 -0.015625 -5.078125 Z M -0.015625 -5.078125 "/>
</g>
<g id="glyph-18-0-3f8ea115">
<path d="M 4.8125 -4.8125 C 4.8125 -4.8125 3.984375 -3.984375 3.984375 -3.984375 C 3.984375 -3.984375 0.390625 -7.578125 0.390625 -7.578125 C -0.296875 -8.265625 -1.125 -8.125 -1.703125 -7.546875 C -2.5625 -6.6875 -2.40625 -5.4375 -1.34375 -4.375 C -1.34375 -4.375 1.515625 -1.515625 1.515625 -1.515625 C 1.515625 -1.515625 0.703125 -0.703125 0.703125 -0.703125 C 0.703125 -0.703125 -6.515625 -7.921875 -6.515625 -7.921875 C -6.515625 -7.921875 -5.703125 -8.734375 -5.703125 -8.734375 C -5.703125 -8.734375 -2.953125 -5.984375 -2.953125 -5.984375 C -3.109375 -7.109375 -2.90625 -7.78125 -2.15625 -8.53125 C -1.15625 -9.53125 0.015625 -9.609375 0.890625 -8.734375 C 0.890625 -8.734375 4.8125 -4.8125 4.8125 -4.8125 Z M 4.8125 -4.8125 "/>
</g>
<g id="glyph-18-1-3f8ea115">
<path d="M -1.28125 -7.65625 C -2.53125 -6.34375 -2.34375 -5.375 -1.1875 -4.21875 C -1.1875 -4.21875 1.515625 -1.515625 1.515625 -1.515625 C 1.515625 -1.515625 0.703125 -0.703125 0.703125 -0.703125 C 0.703125 -0.703125 -4.484375 -5.890625 -4.484375 -5.890625 C -4.484375 -5.890625 -3.734375 -6.640625 -3.734375 -6.640625 C -3.734375 -6.640625 -2.796875 -5.703125 -2.796875 -5.703125 C -3.09375 -6.9375 -3.015625 -7.671875 -2.484375 -8.203125 C -2.375 -8.3125 -2.296875 -8.359375 -2.109375 -8.484375 C -2.109375 -8.484375 -1.28125 -7.65625 -1.28125 -7.65625 Z M -1.28125 -7.65625 "/>
</g>
<g id="glyph-19-0-3f8ea115">
<path d="M 2.515625 -2.515625 C 2.28125 -2.1875 2.109375 -1.984375 1.90625 -1.78125 C 1.25 -1.125 0.609375 -1.078125 0.09375 -1.59375 C 0.09375 -1.59375 -3.671875 -5.359375 -3.671875 -5.359375 C -3.671875 -5.359375 -4.375 -4.65625 -4.375 -4.65625 C -4.375 -4.65625 -5.046875 -5.328125 -5.046875 -5.328125 C -5.046875 -5.328125 -4.34375 -6.03125 -4.34375 -6.03125 C -4.34375 -6.03125 -5.78125 -7.46875 -5.78125 -7.46875 C -5.78125 -7.46875 -4.953125 -8.296875 -4.953125 -8.296875 C -4.953125 -8.296875 -3.515625 -6.859375 -3.515625 -6.859375 C -3.515625 -6.859375 -2.671875 -7.703125 -2.671875 -7.703125 C -2.671875 -7.703125 -2 -7.03125 -2 -7.03125 C -2 -7.03125 -2.84375 -6.1875 -2.84375 -6.1875 C -2.84375 -6.1875 0.5625 -2.78125 0.5625 -2.78125 C 0.921875 -2.421875 1.09375 -2.40625 1.46875 -2.78125 C 1.625 -2.9375 1.75 -3.0625 1.8125 -3.21875 C 1.8125 -3.21875 2.515625 -2.515625 2.515625 -2.515625 Z M 2.515625 -2.515625 "/>
</g>
<g id="glyph-19-1-3f8ea115">
<path d="M 2.71875 -7.4375 C 2.71875 -7.4375 -1.09375 -3.625 -1.09375 -3.625 C 0.109375 -2.453125 1.296875 -2.546875 2.15625 -3.40625 C 2.828125 -4.078125 3.015625 -4.796875 2.578125 -5.703125 C 2.578125 -5.703125 3.40625 -6.53125 3.40625 -6.53125 C 4.25 -5.28125 4.078125 -3.796875 2.890625 -2.609375 C 1.4375 -1.15625 -0.46875 -1.25 -2.171875 -2.953125 C -3.875 -4.65625 -4.015625 -6.671875 -2.578125 -8.109375 C -1.59375 -9.09375 -0.28125 -9.34375 0.90625 -8.84375 C 1.4375 -8.59375 1.96875 -8.1875 2.71875 -7.4375 Z M 1.109375 -7.296875 C 0.296875 -8.109375 -1.015625 -8.140625 -1.8125 -7.34375 C -2.640625 -6.515625 -2.609375 -5.296875 -1.75 -4.3125 C -1.75 -4.3125 1.15625 -7.21875 1.15625 -7.21875 C 1.15625 -7.25 1.109375 -7.296875 1.109375 -7.296875 Z M 1.109375 -7.296875 "/>
</g>
<g id="glyph-19-2-3f8ea115">
<path d="M 4.984375 -0.796875 C 4.984375 -0.796875 4.421875 -0.234375 4.421875 -0.234375 C 2.15625 -0.53125 -0.28125 -1.71875 -1.84375 -3.28125 C -3.40625 -4.84375 -4.578125 -7.265625 -4.890625 -9.546875 C -4.890625 -9.546875 -4.328125 -10.109375 -4.328125 -10.109375 C -3.796875 -7.828125 -2.609375 -5.671875 -1.03125 -4.09375 C 0.546875 -2.515625 2.703125 -1.328125 4.984375 -0.796875 Z M 4.984375 -0.796875 "/>
</g>
<g id="glyph-20-0-3f8ea115">
</g>
<g id="glyph-20-1-3f8ea115">
<path d="M 4.96875 -4.96875 C 4.96875 -4.96875 3.953125 -3.953125 3.953125 -3.953125 C 3.953125 -3.953125 -0.609375 -5.015625 -0.609375 -5.015625 C -0.609375 -5.015625 -0.625 -3.40625 -0.625 -3.40625 C -0.625 -3.40625 1.390625 -1.390625 1.390625 -1.390625 C 1.390625 -1.390625 0.578125 -0.578125 0.578125 -0.578125 C 0.578125 -0.578125 -6.640625 -7.796875 -6.640625 -7.796875 C -6.640625 -7.796875 -5.828125 -8.609375 -5.828125 -8.609375 C -5.828125 -8.609375 -1.609375 -4.390625 -1.609375 -4.390625 C -1.609375 -4.390625 -1.59375 -8.78125 -1.59375 -8.78125 C -1.59375 -8.78125 -0.53125 -9.84375 -0.53125 -9.84375 C -0.53125 -9.84375 -0.546875 -6.234375 -0.546875 -6.234375 C -0.546875 -6.234375 4.96875 -4.96875 4.96875 -4.96875 Z M 4.96875 -4.96875 "/>
</g>
<g id="glyph-21-0-3f8ea115">
<path d="M 2.515625 -2.515625 C 2.28125 -2.1875 2.109375 -1.984375 1.90625 -1.78125 C 1.25 -1.125 0.609375 -1.078125 0.09375 -1.59375 C 0.09375 -1.59375 -3.671875 -5.359375 -3.671875 -5.359375 C -3.671875 -5.359375 -4.375 -4.65625 -4.375 -4.65625 C -4.375 -4.65625 -5.046875 -5.328125 -5.046875 -5.328125 C -5.046875 -5.328125 -4.34375 -6.03125 -4.34375 -6.03125 C -4.34375 -6.03125 -5.78125 -7.46875 -5.78125 -7.46875 C -5.78125 -7.46875 -4.953125 -8.296875 -4.953125 -8.296875 C -4.953125 -8.296875 -3.515625 -6.859375 -3.515625 -6.859375 C -3.515625 -6.859375 -2.671875 -7.703125 -2.671875 -7.703125 C -2.671875 -7.703125 -2 -7.03125 -2 -7.03125 C -2 -7.03125 -2.84375 -6.1875 -2.84375 -6.1875 C -2.84375 -6.1875 0.5625 -2.78125 0.5625 -2.78125 C 0.921875 -2.421875 1.09375 -2.40625 1.46875 -2.78125 C 1.625 -2.9375 1.75 -3.0625 1.8125 -3.21875 C 1.8125 -3.21875 2.515625 -2.515625 2.515625 -2.515625 Z M 2.515625 -2.515625 "/>
</g>
<g id="glyph-22-0-3f8ea115">
<path d="M -0.375 -10 C -0.375 -10 2.8125 -2.8125 2.8125 -2.8125 C 2.8125 -2.8125 1.921875 -1.921875 1.921875 -1.921875 C 1.921875 -1.921875 -5.09375 -5.28125 -5.09375 -5.28125 C -5.09375 -5.28125 -4.15625 -6.21875 -4.15625 -6.21875 C -4.15625 -6.21875 1.4375 -3.40625 1.4375 -3.40625 C 1.4375 -3.40625 -1.3125 -9.0625 -1.3125 -9.0625 C -1.3125 -9.0625 -0.375 -10 -0.375 -10 Z M -0.375 -10 "/>
</g>
<g id="glyph-23-0-3f8ea115">
<path d="M -0.015625 -5.078125 C 1.53125 -3.53125 2.71875 -1.09375 3.015625 1.171875 C 3.015625 1.171875 2.46875 1.71875 2.46875 1.71875 C 1.953125 -0.546875 0.75 -2.71875 -0.8125 -4.28125 C -2.40625 -5.875 -4.546875 -7.046875 -6.84375 -7.59375 C -6.84375 -7.59375 -6.296875 -8.140625 -6.296875 -8.140625 C -4.015625 -7.828125 -1.59375 -6.65625 -0.015625 -5.078125 Z M -0.015625 -5.078125 "/>
</g>
<g id="glyph-24-0-3f8ea115">
<path d="M -2.796875 -8.6875 C -0.984375 -8.6875 0.25 -7.296875 0.25 -4.703125 C 0.25 -2.296875 -0.90625 -0.671875 -3.3125 -0.671875 C -3.3125 -0.671875 -3.3125 -1.90625 -3.3125 -1.90625 C -1.859375 -1.90625 -0.890625 -2.859375 -0.890625 -4.78125 C -0.890625 -6.546875 -1.546875 -7.390625 -2.671875 -7.390625 C -3.46875 -7.390625 -3.984375 -6.796875 -4.328125 -5.515625 C -4.328125 -5.515625 -5 -2.984375 -5 -2.984375 C -5.34375 -1.640625 -6.125 -0.984375 -7.375 -0.984375 C -9.21875 -0.984375 -10.453125 -2.359375 -10.453125 -4.609375 C -10.453125 -6.953125 -9.296875 -8.34375 -7.296875 -8.34375 C -7.296875 -8.34375 -7.296875 -7.109375 -7.296875 -7.109375 C -8.625 -7.109375 -9.359375 -6.1875 -9.359375 -4.5625 C -9.359375 -3.1875 -8.59375 -2.28125 -7.5625 -2.28125 C -6.78125 -2.28125 -6.375 -2.734375 -6.046875 -3.96875 C -6.046875 -3.96875 -5.359375 -6.53125 -5.359375 -6.53125 C -4.984375 -7.90625 -4.0625 -8.6875 -2.796875 -8.6875 Z M -2.796875 -8.6875 "/>
</g>
<g id="glyph-24-1-3f8ea115">
<path d="M 0 -6.8125 C 0 -6.8125 0 -5.65625 0 -5.65625 C 0 -5.65625 -5.078125 -5.65625 -5.078125 -5.65625 C -5.96875 -5.65625 -6.53125 -5.0625 -6.53125 -4.140625 C -6.53125 -2.953125 -5.546875 -2.140625 -4.046875 -2.140625 C -4.046875 -2.140625 0 -2.140625 0 -2.140625 C 0 -2.140625 0 -0.984375 0 -0.984375 C 0 -0.984375 -7.34375 -0.984375 -7.34375 -0.984375 C -7.34375 -0.984375 -7.34375 -2.0625 -7.34375 -2.0625 C -7.34375 -2.0625 -6.109375 -2.0625 -6.109375 -2.0625 C -7.125 -2.703125 -7.546875 -3.40625 -7.546875 -4.5 C -7.546875 -5.90625 -6.765625 -6.8125 -5.546875 -6.8125 C -5.546875 -6.8125 0 -6.8125 0 -6.8125 Z M 0 -6.8125 "/>
</g>
<g id="glyph-24-2-3f8ea115">
<path d="M 0 -2.140625 C 0 -2.140625 0 -0.984375 0 -0.984375 C 0 -0.984375 -7.34375 -0.984375 -7.34375 -0.984375 C -7.34375 -0.984375 -7.34375 -2.140625 -7.34375 -2.140625 C -7.34375 -2.140625 0 -2.140625 0 -2.140625 Z M -8.4375 -2.296875 C -8.4375 -2.296875 -8.4375 -0.84375 -8.4375 -0.84375 C -8.4375 -0.84375 -9.890625 -0.84375 -9.890625 -0.84375 C -9.890625 -0.84375 -9.890625 -2.296875 -9.890625 -2.296875 C -9.890625 -2.296875 -8.4375 -2.296875 -8.4375 -2.296875 Z M -8.4375 -2.296875 "/>
</g>
<g id="glyph-25-0-3f8ea115">
<path d="M -3.328125 -7.1875 C -3.328125 -7.1875 -3.328125 -1.78125 -3.328125 -1.78125 C -1.65625 -1.8125 -0.875 -2.71875 -0.875 -3.9375 C -0.875 -4.875 -1.265625 -5.53125 -2.21875 -5.859375 C -2.21875 -5.859375 -2.21875 -7.03125 -2.21875 -7.03125 C -0.734375 -6.734375 0.203125 -5.578125 0.203125 -3.890625 C 0.203125 -1.828125 -1.21875 -0.5625 -3.625 -0.5625 C -6.03125 -0.5625 -7.546875 -1.875 -7.546875 -3.921875 C -7.546875 -5.296875 -6.8125 -6.40625 -5.609375 -6.890625 C -5.0625 -7.09375 -4.390625 -7.1875 -3.328125 -7.1875 Z M -4.375 -5.9375 C -5.515625 -5.9375 -6.46875 -5.046875 -6.46875 -3.90625 C -6.46875 -2.734375 -5.59375 -1.90625 -4.28125 -1.8125 C -4.28125 -1.8125 -4.28125 -5.921875 -4.28125 -5.921875 C -4.3125 -5.9375 -4.375 -5.9375 -4.375 -5.9375 Z M -4.375 -5.9375 "/>
</g>
<g id="glyph-25-1-3f8ea115">
<path d="M 0 -2.140625 C 0 -2.140625 0 -0.984375 0 -0.984375 C 0 -0.984375 -7.34375 -0.984375 -7.34375 -0.984375 C -7.34375 -0.984375 -7.34375 -2.140625 -7.34375 -2.140625 C -7.34375 -2.140625 0 -2.140625 0 -2.140625 Z M -8.4375 -2.296875 C -8.4375 -2.296875 -8.4375 -0.84375 -8.4375 -0.84375 C -8.4375 -0.84375 -9.890625 -0.84375 -9.890625 -0.84375 C -9.890625 -0.84375 -9.890625 -2.296875 -9.890625 -2.296875 C -9.890625 -2.296875 -8.4375 -2.296875 -8.4375 -2.296875 Z M -8.4375 -2.296875 "/>
</g>
<g id="glyph-25-2-3f8ea115">
<path d="M -7.34375 -6.6875 C -7.34375 -6.6875 1.546875 -3.4375 1.546875 -3.4375 C 2.59375 -3.03125 3.046875 -2.359375 3.046875 -1.546875 C 3.046875 -1.234375 3 -1 2.875 -0.75 C 2.875 -0.75 1.8125 -0.75 1.8125 -0.75 C 1.875 -1.015625 1.90625 -1.203125 1.90625 -1.375 C 1.90625 -1.875 1.703125 -2.109375 1.1875 -2.3125 C 1.1875 -2.3125 0.03125 -2.765625 0.03125 -2.765625 C 0.03125 -2.765625 -7.34375 -0.28125 -7.34375 -0.28125 C -7.34375 -0.28125 -7.34375 -1.53125 -7.34375 -1.53125 C -7.34375 -1.53125 -1.625 -3.40625 -1.625 -3.40625 C -1.625 -3.40625 -7.34375 -5.4375 -7.34375 -5.4375 C -7.34375 -5.4375 -7.34375 -6.6875 -7.34375 -6.6875 Z M -7.34375 -6.6875 "/>
</g>
<g id="glyph-26-0-3f8ea115">
<path d="M -2.0625 -6.421875 C -0.640625 -6.421875 0.203125 -5.25 0.203125 -3.40625 C 0.203125 -1.484375 -0.546875 -0.53125 -2.234375 -0.46875 C -2.234375 -0.46875 -2.234375 -1.703125 -2.234375 -1.703125 C -1.125 -1.859375 -0.875 -2.453125 -0.875 -3.5 C -0.875 -4.515625 -1.28125 -5.203125 -1.953125 -5.203125 C -2.484375 -5.203125 -2.734375 -4.890625 -2.921875 -4.078125 C -2.921875 -4.078125 -3.1875 -2.984375 -3.1875 -2.984375 C -3.609375 -1.25 -4.15625 -0.65625 -5.3125 -0.65625 C -6.65625 -0.65625 -7.546875 -1.765625 -7.546875 -3.46875 C -7.546875 -5.171875 -6.734375 -6.125 -5.296875 -6.125 C -5.296875 -6.125 -5.296875 -4.90625 -5.296875 -4.90625 C -6.0625 -4.875 -6.46875 -4.375 -6.46875 -3.4375 C -6.46875 -2.484375 -6.03125 -1.875 -5.359375 -1.875 C -4.84375 -1.875 -4.53125 -2.28125 -4.3125 -3.234375 C -4.3125 -3.234375 -4.046875 -4.359375 -4.046875 -4.359375 C -3.703125 -5.8125 -3.15625 -6.421875 -2.0625 -6.421875 Z M -2.0625 -6.421875 "/>
</g>
<g id="glyph-27-0-3f8ea115">
<path d="M 0 -3.5625 C 0.0625 -3.15625 0.09375 -2.890625 0.09375 -2.609375 C 0.09375 -1.6875 -0.328125 -1.1875 -1.0625 -1.1875 C -1.0625 -1.1875 -6.390625 -1.1875 -6.390625 -1.1875 C -6.390625 -1.1875 -6.390625 -0.203125 -6.390625 -0.203125 C -6.390625 -0.203125 -7.34375 -0.203125 -7.34375 -0.203125 C -7.34375 -0.203125 -7.34375 -1.1875 -7.34375 -1.1875 C -7.34375 -1.1875 -9.359375 -1.1875 -9.359375 -1.1875 C -9.359375 -1.1875 -9.359375 -2.359375 -9.359375 -2.359375 C -9.359375 -2.359375 -7.34375 -2.359375 -7.34375 -2.359375 C -7.34375 -2.359375 -7.34375 -3.5625 -7.34375 -3.5625 C -7.34375 -3.5625 -6.390625 -3.5625 -6.390625 -3.5625 C -6.390625 -3.5625 -6.390625 -2.359375 -6.390625 -2.359375 C -6.390625 -2.359375 -1.578125 -2.359375 -1.578125 -2.359375 C -1.0625 -2.359375 -0.921875 -2.484375 -0.921875 -3 C -0.921875 -3.21875 -0.9375 -3.40625 -0.984375 -3.5625 C -0.984375 -3.5625 0 -3.5625 0 -3.5625 Z M 0 -3.5625 "/>
</g>
<g id="glyph-27-1-3f8ea115">
<path d="M -7.34375 -6.796875 C -7.34375 -6.796875 0 -3.984375 0 -3.984375 C 0 -3.984375 0 -2.71875 0 -2.71875 C 0 -2.71875 -7.34375 -0.140625 -7.34375 -0.140625 C -7.34375 -0.140625 -7.34375 -1.453125 -7.34375 -1.453125 C -7.34375 -1.453125 -1.390625 -3.421875 -1.390625 -3.421875 C -1.390625 -3.421875 -7.34375 -5.484375 -7.34375 -5.484375 C -7.34375 -5.484375 -7.34375 -6.796875 -7.34375 -6.796875 Z M -7.34375 -6.796875 "/>
</g>
<g id="glyph-28-0-3f8ea115">
<path d="M 0 -2.140625 C 0 -2.140625 0 -0.984375 0 -0.984375 C 0 -0.984375 -7.34375 -0.984375 -7.34375 -0.984375 C -7.34375 -0.984375 -7.34375 -2.140625 -7.34375 -2.140625 C -7.34375 -2.140625 0 -2.140625 0 -2.140625 Z M -8.4375 -2.296875 C -8.4375 -2.296875 -8.4375 -0.84375 -8.4375 -0.84375 C -8.4375 -0.84375 -9.890625 -0.84375 -9.890625 -0.84375 C -9.890625 -0.84375 -9.890625 -2.296875 -9.890625 -2.296875 C -9.890625 -2.296875 -8.4375 -2.296875 -8.4375 -2.296875 Z M -8.4375 -2.296875 "/>
</g>
<g id="glyph-29-0-3f8ea115">
<path d="M 0 -3.5625 C 0.0625 -3.15625 0.09375 -2.890625 0.09375 -2.609375 C 0.09375 -1.6875 -0.328125 -1.1875 -1.0625 -1.1875 C -1.0625 -1.1875 -6.390625 -1.1875 -6.390625 -1.1875 C -6.390625 -1.1875 -6.390625 -0.203125 -6.390625 -0.203125 C -6.390625 -0.203125 -7.34375 -0.203125 -7.34375 -0.203125 C -7.34375 -0.203125 -7.34375 -1.1875 -7.34375 -1.1875 C -7.34375 -1.1875 -9.359375 -1.1875 -9.359375 -1.1875 C -9.359375 -1.1875 -9.359375 -2.359375 -9.359375 -2.359375 C -9.359375 -2.359375 -7.34375 -2.359375 -7.34375 -2.359375 C -7.34375 -2.359375 -7.34375 -3.5625 -7.34375 -3.5625 C -7.34375 -3.5625 -6.390625 -3.5625 -6.390625 -3.5625 C -6.390625 -3.5625 -6.390625 -2.359375 -6.390625 -2.359375 C -6.390625 -2.359375 -1.578125 -2.359375 -1.578125 -2.359375 C -1.0625 -2.359375 -0.921875 -2.484375 -0.921875 -3 C -0.921875 -3.21875 -0.9375 -3.40625 -0.984375 -3.5625 C -0.984375 -3.5625 0 -3.5625 0 -3.5625 Z M 0 -3.5625 "/>
</g>
<g id="glyph-30-0-3f8ea115">
<path d="M 8.375 -8.453125 C 8.375 -8.453125 5.390625 -8.453125 5.390625 -8.453125 C 5.390625 -8.453125 5.390625 0 5.390625 0 C 5.390625 0 3.296875 0 3.296875 0 C 3.296875 0 3.296875 -8.453125 3.296875 -8.453125 C 3.296875 -8.453125 0.203125 -8.453125 0.203125 -8.453125 C 0.203125 -8.453125 0.203125 -10.203125 0.203125 -10.203125 C 0.203125 -10.203125 8.375 -10.203125 8.375 -10.203125 C 8.375 -10.203125 8.375 -8.453125 8.375 -8.453125 Z M 8.375 -8.453125 "/>
</g>
<g id="glyph-30-1-3f8ea115">
<path d="M 7.53125 -7.5625 C 7.53125 -7.5625 4.421875 1.390625 4.421875 1.390625 C 3.90625 2.828125 3.21875 3.0625 1.90625 3.0625 C 1.671875 3.0625 1.5 3.046875 1.203125 3.015625 C 1.203125 3.015625 1.203125 1.546875 1.203125 1.546875 C 1.453125 1.609375 1.5625 1.625 1.71875 1.625 C 2.40625 1.625 2.9375 1.078125 2.9375 0.359375 C 2.9375 0.359375 2.9375 0.328125 2.9375 0.328125 C 2.9375 0.328125 0.125 -7.5625 0.125 -7.5625 C 0.125 -7.5625 2.28125 -7.5625 2.28125 -7.5625 C 2.28125 -7.5625 3.953125 -2.0625 3.953125 -2.0625 C 3.953125 -2.0625 5.515625 -7.5625 5.515625 -7.5625 C 5.515625 -7.5625 7.53125 -7.5625 7.53125 -7.5625 Z M 7.53125 -7.5625 "/>
</g>
<g id="glyph-30-2-3f8ea115">
<path d="M 8.03125 -3.78125 C 8.03125 -1.484375 6.6875 0.125 4.875 0.125 C 3.921875 0.125 3.25 -0.171875 2.765625 -1.015625 C 2.765625 -1.015625 2.765625 3.046875 2.765625 3.046875 C 2.765625 3.046875 0.8125 3.046875 0.8125 3.046875 C 0.8125 3.046875 0.8125 -7.5625 0.8125 -7.5625 C 0.8125 -7.5625 2.765625 -7.5625 2.765625 -7.5625 C 2.765625 -7.5625 2.765625 -6.4375 2.765625 -6.4375 C 3.25 -7.28125 3.921875 -7.6875 4.875 -7.6875 C 6.84375 -7.6875 8.03125 -6.015625 8.03125 -3.78125 Z M 6.078125 -3.75 C 6.078125 -5.1875 5.421875 -6.046875 4.421875 -6.046875 C 3.4375 -6.046875 2.765625 -5.1875 2.765625 -3.78125 C 2.765625 -2.359375 3.4375 -1.515625 4.421875 -1.515625 C 5.390625 -1.515625 6.078125 -2.375 6.078125 -3.75 Z M 6.078125 -3.75 "/>
</g>
<g id="glyph-30-3-3f8ea115">
<path d="M 7.34375 -3.5 C 7.34375 -3.5 7.34375 -3.265625 7.34375 -3.265625 C 7.34375 -3.265625 2.265625 -3.265625 2.265625 -3.265625 C 2.328125 -1.796875 2.90625 -1.375 3.84375 -1.375 C 4.546875 -1.375 5.171875 -1.578125 5.328125 -2.125 C 5.328125 -2.125 7.265625 -2.125 7.265625 -2.125 C 6.828125 -0.640625 5.453125 0.125 3.765625 0.125 C 1.625 0.125 0.3125 -1.265625 0.3125 -3.6875 C 0.3125 -6.21875 1.640625 -7.6875 3.8125 -7.6875 C 6.03125 -7.6875 7.34375 -6.109375 7.34375 -3.5 Z M 5.3125 -4.5625 C 5.203125 -5.640625 4.625 -6.1875 3.78125 -6.1875 C 2.90625 -6.1875 2.421875 -5.609375 2.296875 -4.5625 C 2.296875 -4.5625 5.3125 -4.5625 5.3125 -4.5625 Z M 5.3125 -4.5625 "/>
</g>
<g id="glyph-30-4-3f8ea115">
<path d="M 2.984375 0 C 2.984375 0 0.875 0 0.875 0 C 0.875 0 0.875 -10.203125 0.875 -10.203125 C 0.875 -10.203125 2.984375 -10.203125 2.984375 -10.203125 C 2.984375 -10.203125 2.984375 0 2.984375 0 Z M 2.984375 0 "/>
</g>
<g id="glyph-30-5-3f8ea115">
<path d="M 11.53125 0 C 11.53125 0 9.578125 0 9.578125 0 C 9.578125 0 9.578125 -5.046875 9.578125 -5.046875 C 9.578125 -5.640625 9.171875 -6.015625 8.515625 -6.015625 C 7.671875 -6.015625 7.171875 -5.453125 7.171875 -4.53125 C 7.171875 -4.53125 7.171875 0 7.171875 0 C 7.171875 0 5.203125 0 5.203125 0 C 5.203125 0 5.203125 -5.046875 5.203125 -5.046875 C 5.203125 -5.640625 4.796875 -6.015625 4.140625 -6.015625 C 3.296875 -6.015625 2.796875 -5.453125 2.796875 -4.53125 C 2.796875 -4.53125 2.796875 0 2.796875 0 C 2.796875 0 0.84375 0 0.84375 0 C 0.84375 0 0.84375 -7.5625 0.84375 -7.5625 C 0.84375 -7.5625 2.78125 -7.5625 2.78125 -7.5625 C 2.78125 -7.5625 2.78125 -6.625 2.78125 -6.625 C 3.4375 -7.390625 3.984375 -7.6875 4.859375 -7.6875 C 5.796875 -7.6875 6.546875 -7.28125 6.921875 -6.5625 C 7.5 -7.34375 8.171875 -7.6875 9.125 -7.6875 C 10.640625 -7.6875 11.53125 -6.8125 11.53125 -5.34375 C 11.53125 -5.34375 11.53125 0 11.53125 0 Z M 11.53125 0 "/>
</g>
<g id="glyph-30-6-3f8ea115">
<path d="M 7.96875 -3.71875 C 7.96875 -1.296875 6.53125 0.125 4.234375 0.125 C 1.90625 0.125 0.484375 -1.28125 0.484375 -3.78125 C 0.484375 -6.265625 1.90625 -7.6875 4.21875 -7.6875 C 6.578125 -7.6875 7.96875 -6.28125 7.96875 -3.71875 Z M 6 -3.75 C 6 -5.234375 5.3125 -6.109375 4.234375 -6.109375 C 3.15625 -6.109375 2.453125 -5.21875 2.453125 -3.78125 C 2.453125 -2.34375 3.15625 -1.453125 4.234375 -1.453125 C 5.28125 -1.453125 6 -2.34375 6 -3.75 Z M 6 -3.75 "/>
</g>
<g id="glyph-30-7-3f8ea115">
<path d="M 5.1875 -5.6875 C 4.90625 -5.71875 4.78125 -5.734375 4.5625 -5.734375 C 3.421875 -5.734375 2.84375 -5.171875 2.84375 -4.015625 C 2.84375 -4.015625 2.84375 0 2.84375 0 C 2.84375 0 0.875 0 0.875 0 C 0.875 0 0.875 -7.5625 0.875 -7.5625 C 0.875 -7.5625 2.84375 -7.5625 2.84375 -7.5625 C 2.84375 -7.5625 2.84375 -6.078125 2.84375 -6.078125 C 3.265625 -7.09375 4.046875 -7.6875 4.9375 -7.6875 C 5 -7.6875 5.0625 -7.6875 5.1875 -7.671875 C 5.1875 -7.671875 5.1875 -5.6875 5.1875 -5.6875 Z M 5.1875 -5.6875 "/>
</g>
<g id="glyph-30-8-3f8ea115">
<path d="M 4.21875 0 C 3.859375 0.015625 3.515625 0.0625 3.078125 0.0625 C 1.796875 0.0625 1.15625 -0.4375 1.15625 -1.625 C 1.15625 -1.625 1.15625 -6.109375 1.15625 -6.109375 C 1.15625 -6.109375 0.203125 -6.109375 0.203125 -6.109375 C 0.203125 -6.109375 0.203125 -7.40625 0.203125 -7.40625 C 0.203125 -7.40625 1.15625 -7.40625 1.15625 -7.40625 C 1.15625 -7.40625 1.15625 -9.4375 1.15625 -9.4375 C 1.15625 -9.4375 3.125 -9.4375 3.125 -9.4375 C 3.125 -9.4375 3.125 -7.40625 3.125 -7.40625 C 3.125 -7.40625 4.21875 -7.40625 4.21875 -7.40625 C 4.21875 -7.40625 4.21875 -6.109375 4.21875 -6.109375 C 4.21875 -6.109375 3.125 -6.109375 3.125 -6.109375 C 3.125 -6.109375 3.125 -2.15625 3.125 -2.15625 C 3.125 -1.484375 3.25 -1.328125 3.765625 -1.328125 C 3.90625 -1.328125 4.015625 -1.34375 4.21875 -1.375 C 4.21875 -1.375 4.21875 0 4.21875 0 Z M 4.21875 0 "/>
</g>
<g id="glyph-30-9-3f8ea115">
<path d="M 7.34375 0 C 7.34375 0 5.203125 0 5.203125 0 C 5.03125 -0.21875 4.984375 -0.5625 4.984375 -0.953125 C 4.296875 -0.234375 3.53125 0.125 2.6875 0.125 C 1.421875 0.125 0.390625 -0.578125 0.390625 -2.046875 C 0.390625 -3.421875 1.125 -4.0625 2.625 -4.328125 C 2.625 -4.328125 3.40625 -4.46875 3.40625 -4.46875 C 4.375 -4.640625 4.96875 -4.546875 4.96875 -5.34375 C 4.96875 -5.859375 4.59375 -6.109375 3.84375 -6.109375 C 2.875 -6.109375 2.546875 -5.859375 2.453125 -5.0625 C 2.453125 -5.0625 0.5625 -5.0625 0.5625 -5.0625 C 0.6875 -6.8125 1.75 -7.6875 3.796875 -7.6875 C 5.84375 -7.6875 6.890625 -6.90625 6.890625 -5.359375 C 6.890625 -5.359375 6.890625 -1.15625 6.890625 -1.15625 C 6.890625 -0.765625 6.984375 -0.5625 7.34375 -0.234375 C 7.34375 -0.234375 7.34375 0 7.34375 0 Z M 4.96875 -3.234375 C 4.96875 -3.234375 4.96875 -3.5625 4.96875 -3.5625 C 4.75 -3.453125 4.65625 -3.4375 4.140625 -3.328125 C 4.140625 -3.328125 3.46875 -3.203125 3.46875 -3.203125 C 2.65625 -3.046875 2.359375 -2.84375 2.359375 -2.265625 C 2.359375 -1.703125 2.765625 -1.453125 3.421875 -1.453125 C 4.40625 -1.453125 4.96875 -2.09375 4.96875 -3.234375 Z M 4.96875 -3.234375 "/>
</g>
<g id="glyph-30-10-3f8ea115">
<path d="M 7.640625 0 C 7.640625 0 5.6875 0 5.6875 0 C 5.6875 0 5.6875 -4.65625 5.6875 -4.65625 C 5.6875 -5.5625 5.265625 -6.015625 4.421875 -6.015625 C 3.46875 -6.015625 2.84375 -5.4375 2.84375 -4.53125 C 2.84375 -4.53125 2.84375 0 2.84375 0 C 2.84375 0 0.875 0 0.875 0 C 0.875 0 0.875 -7.5625 0.875 -7.5625 C 0.875 -7.5625 2.84375 -7.5625 2.84375 -7.5625 C 2.84375 -7.5625 2.84375 -6.46875 2.84375 -6.46875 C 3.40625 -7.3125 4.09375 -7.6875 5.109375 -7.6875 C 6.71875 -7.6875 7.640625 -6.734375 7.640625 -5.0625 C 7.640625 -5.0625 7.640625 0 7.640625 0 Z M 7.640625 0 "/>
</g>
<g id="glyph-30-11-3f8ea115">
<path d="M 7.3125 -2.625 C 7.125 -1.015625 5.859375 0.125 4.015625 0.125 C 1.78125 0.125 0.46875 -1.234375 0.46875 -3.71875 C 0.46875 -6.296875 1.796875 -7.6875 4.046875 -7.6875 C 5.9375 -7.6875 7.171875 -6.578125 7.3125 -4.734375 C 7.3125 -4.734375 5.4375 -4.734375 5.4375 -4.734375 C 5.203125 -5.71875 4.828125 -6.109375 4.03125 -6.109375 C 2.796875 -6.109375 2.4375 -5.109375 2.4375 -3.71875 C 2.4375 -2.25 3.03125 -1.453125 4.03125 -1.453125 C 4.78125 -1.453125 5.1875 -1.828125 5.4375 -2.625 C 5.4375 -2.625 7.3125 -2.625 7.3125 -2.625 Z M 7.3125 -2.625 "/>
</g>
<g id="glyph-30-12-3f8ea115">
</g>
<g id="glyph-30-13-3f8ea115">
<path d="M 7.578125 0 C 7.578125 0 5.609375 0 5.609375 0 C 5.609375 0 5.609375 -4.625 5.609375 -4.625 C 5.609375 -5.640625 5.109375 -6.015625 4.40625 -6.015625 C 3.53125 -6.015625 2.890625 -5.40625 2.890625 -4.53125 C 2.890625 -4.53125 2.890625 0 2.890625 0 C 2.890625 0 0.9375 0 0.9375 0 C 0.9375 0 0.9375 -10.203125 0.9375 -10.203125 C 0.9375 -10.203125 2.890625 -10.203125 2.890625 -10.203125 C 2.890625 -10.203125 2.890625 -6.46875 2.890625 -6.46875 C 3.4375 -7.296875 4.140625 -7.6875 5.109375 -7.6875 C 6.53125 -7.6875 7.578125 -6.828125 7.578125 -5.0625 C 7.578125 -5.0625 7.578125 0 7.578125 0 Z M 7.578125 0 "/>
</g>
<g id="glyph-30-14-3f8ea115">
<path d="M 7.28125 -2.234375 C 7.28125 -0.71875 6.109375 0.125 3.96875 0.125 C 1.6875 0.125 0.46875 -0.734375 0.40625 -2.390625 C 0.40625 -2.390625 2.328125 -2.390625 2.328125 -2.390625 C 2.484375 -1.578125 2.96875 -1.40625 3.859375 -1.40625 C 4.78125 -1.40625 5.3125 -1.59375 5.3125 -2.0625 C 5.3125 -2.265625 5.15625 -2.421875 4.65625 -2.578125 C 4.65625 -2.578125 2.328125 -3.296875 2.328125 -3.296875 C 0.921875 -3.734375 0.671875 -4.234375 0.671875 -5.171875 C 0.671875 -6.71875 1.859375 -7.6875 3.78125 -7.6875 C 5.8125 -7.6875 7.046875 -6.71875 7.0625 -5.125 C 7.0625 -5.125 5.1875 -5.125 5.1875 -5.125 C 5.171875 -5.8125 4.703125 -6.140625 3.765625 -6.140625 C 3.078125 -6.140625 2.625 -5.859375 2.625 -5.453125 C 2.625 -5.140625 2.765625 -5.015625 3.3125 -4.859375 C 3.3125 -4.859375 5.796875 -4.140625 5.796875 -4.140625 C 6.796875 -3.84375 7.28125 -3.203125 7.28125 -2.34375 C 7.28125 -2.34375 7.28125 -2.234375 7.28125 -2.234375 Z M 7.28125 -2.234375 "/>
</g>
<g id="glyph-30-15-3f8ea115">
<path d="M 2.890625 0 C 2.890625 0 0.9375 0 0.9375 0 C 0.9375 0 0.9375 -10.203125 0.9375 -10.203125 C 0.9375 -10.203125 2.890625 -10.203125 2.890625 -10.203125 C 2.890625 -10.203125 2.890625 0 2.890625 0 Z M 2.890625 0 "/>
</g>
<g id="glyph-30-16-3f8ea115">
<path d="M 7.625 0 C 7.625 0 5.671875 0 5.671875 0 C 5.671875 0 5.671875 -0.875 5.671875 -0.875 C 5.1875 -0.21875 4.515625 0.125 3.578125 0.125 C 1.578125 0.125 0.40625 -1.625 0.40625 -3.765625 C 0.40625 -6.046875 1.78125 -7.6875 3.578125 -7.6875 C 4.515625 -7.6875 5.1875 -7.34375 5.671875 -6.578125 C 5.671875 -6.578125 5.671875 -10.203125 5.671875 -10.203125 C 5.671875 -10.203125 7.625 -10.203125 7.625 -10.203125 C 7.625 -10.203125 7.625 0 7.625 0 Z M 5.671875 -3.734375 C 5.671875 -5.1875 5.015625 -6.046875 4.015625 -6.046875 C 3.03125 -6.046875 2.359375 -5.171875 2.359375 -3.765625 C 2.359375 -2.375 3.03125 -1.515625 4.015625 -1.515625 C 5 -1.515625 5.671875 -2.359375 5.671875 -3.734375 Z M 5.671875 -3.734375 "/>
</g>
<g id="glyph-31-0-3f8ea115">
<path d="M 0.828125 -4.296875 L 1.625 -4.296875 L 1.625 0 L 0.828125 0 Z M 0.828125 -5.953125 L 1.625 -5.953125 L 1.625 -5.0625 L 0.828125 -5.0625 Z M 0.828125 -5.953125 "/>
</g>
<g id="glyph-31-1-3f8ea115">
<path d="M 1.609375 -5.5 L 1.609375 -4.296875 L 3.25 -4.296875 L 3.25 -3.75 L 1.609375 -3.75 L 1.609375 -1.421875 C 1.609375 -1.066406 1.660156 -0.835938 1.765625 -0.734375 C 1.878906 -0.640625 2.101562 -0.59375 2.4375 -0.59375 L 3.25 -0.59375 L 3.25 0 L 2.4375 0 C 1.820312 0 1.398438 -0.101562 1.171875 -0.3125 C 0.941406 -0.507812 0.828125 -0.878906 0.828125 -1.421875 L 0.828125 -3.75 L 0.234375 -3.75 L 0.234375 -4.296875 L 0.828125 -4.296875 L 0.828125 -5.5 Z M 1.609375 -5.5 "/>
</g>
</g>
<clipPath id="clip-0-3f8ea115">
<path clip-rule="nonzero" d="M 66 301 L 752 301 L 752 304 L 66 304 Z M 66 301 "/>
</clipPath>
</defs>
<rect x="-76.8" y="-57.6" width="921.6" height="691.2" fill="rgb(100%, 100%, 100%)" fill-opacity="1"/>
<path fill-rule="nonzero" fill="rgb(100%, 100%, 100%)" fill-opacity="1" d="M 66 354 L 752 354 L 752 16 L 66 16 Z M 66 354 "/>
<path fill="none" stroke-width="1" stroke-linecap="butt" stroke-linejoin="miter" stroke="rgb(0%, 0%, 0%)" stroke-opacity="0.12" stroke-miterlimit="1.154701" d="M 201.121094 354 L 201.121094 16 "/>
<path fill="none" stroke-width="1" stroke-linecap="butt" stroke-linejoin="miter" stroke="rgb(0%, 0%, 0%)" stroke-opacity="0.12" stroke-miterlimit="1.154701" d="M 409 354 L 409 16 "/>
<path fill="none" stroke-width="1" stroke-linecap="butt" stroke-linejoin="miter" stroke="rgb(0%, 0%, 0%)" stroke-opacity="0.12" stroke-miterlimit="1.154701" d="M 616.878906 354 L 616.878906 16 "/>
<path fill="none" stroke-width="1" stroke-linecap="butt" stroke-linejoin="miter" stroke="rgb(0%, 0%, 0%)" stroke-opacity="0.12" stroke-miterlimit="1.154701" d="M 66 338.636719 L 752 338.636719 "/>
<path fill="none" stroke-width="1" stroke-linecap="butt" stroke-linejoin="miter" stroke="rgb(0%, 0%, 0%)" stroke-opacity="0.12" stroke-miterlimit="1.154701" d="M 66 266.070312 L 752 266.070312 "/>
<path fill="none" stroke-width="1" stroke-linecap="butt" stroke-linejoin="miter" stroke="rgb(0%, 0%, 0%)" stroke-opacity="0.12" stroke-miterlimit="1.154701" d="M 66 193.503906 L 752 193.503906 "/>
<path fill="none" stroke-width="1" stroke-linecap="butt" stroke-linejoin="miter" stroke="rgb(0%, 0%, 0%)" stroke-opacity="0.12" stroke-miterlimit="1.154701" d="M 66 120.9375 L 752 120.9375 "/>
<path fill="none" stroke-width="1" stroke-linecap="butt" stroke-linejoin="miter" stroke="rgb(0%, 0%, 0%)" stroke-opacity="0.12" stroke-miterlimit="1.154701" d="M 66 48.371094 L 752 48.371094 "/>
<g fill="rgb(0%, 0%, 0%)" fill-opacity="1">
<use xlink:href="#glyph-0-0-3f8ea115" x="376.324013" y="483.311436"/>
</g>
<g fill="rgb(0%, 0%, 0%)" fill-opacity="1">
<use xlink:href="#glyph-0-1-3f8ea115" x="385.662014" y="483.311436"/>
</g>
<g fill="rgb(0%, 0%, 0%)" fill-opacity="1">
<use xlink:href="#glyph-0-2-3f8ea115" x="393.446013" y="483.311436"/>
</g>
<g fill="rgb(0%, 0%, 0%)" fill-opacity="1">
<use xlink:href="#glyph-0-1-3f8ea115" x="398.108014" y="483.311436"/>
</g>
<g fill="rgb(0%, 0%, 0%)" fill-opacity="1">
<use xlink:href="#glyph-0-3-3f8ea115" x="405.892014" y="483.311436"/>
</g>
<g fill="rgb(0%, 0%, 0%)" fill-opacity="1">
<use xlink:href="#glyph-0-4-3f8ea115" x="417.554013" y="483.311436"/>
</g>
<g fill="rgb(0%, 0%, 0%)" fill-opacity="1">
<use xlink:href="#glyph-0-5-3f8ea115" x="425.338014" y="483.311436"/>
</g>
<g fill="rgb(0%, 0%, 0%)" fill-opacity="1">
<use xlink:href="#glyph-0-4-3f8ea115" x="429.230012" y="483.311436"/>
</g>
<g fill="rgb(0%, 0%, 0%)" fill-opacity="1">
<use xlink:href="#glyph-0-2-3f8ea115" x="437.014013" y="483.311436"/>
</g>
<g fill="rgb(0%, 0%, 0%)" fill-opacity="1">
<use xlink:href="#glyph-1-0-3f8ea115" x="116.975528" y="464.895339"/>
</g>
<g fill="rgb(0%, 0%, 0%)" fill-opacity="1">
<use xlink:href="#glyph-2-0-3f8ea115" x="121.925274" y="459.945586"/>
</g>
<g fill="rgb(0%, 0%, 0%)" fill-opacity="1">
<use xlink:href="#glyph-2-1-3f8ea115" x="127.429394" y="454.441474"/>
</g>
<g fill="rgb(0%, 0%, 0%)" fill-opacity="1">
<use xlink:href="#glyph-2-2-3f8ea115" x="132.933514" y="448.937346"/>
</g>
<g fill="rgb(0%, 0%, 0%)" fill-opacity="1">
<use xlink:href="#glyph-2-3-3f8ea115" x="137.883259" y="443.987601"/>
</g>
<g fill="rgb(0%, 0%, 0%)" fill-opacity="1">
<use xlink:href="#glyph-2-4-3f8ea115" x="140.080952" y="441.789916"/>
</g>
<g fill="rgb(0%, 0%, 0%)" fill-opacity="1">
<use xlink:href="#glyph-2-3-3f8ea115" x="142.833008" y="439.037856"/>
</g>
<g fill="rgb(0%, 0%, 0%)" fill-opacity="1">
<use xlink:href="#glyph-2-5-3f8ea115" x="145.030697" y="436.840163"/>
</g>
<g fill="rgb(0%, 0%, 0%)" fill-opacity="1">
<use xlink:href="#glyph-2-0-3f8ea115" x="149.980447" y="431.890418"/>
</g>
<g fill="rgb(0%, 0%, 0%)" fill-opacity="1">
<use xlink:href="#glyph-2-6-3f8ea115" x="155.484567" y="426.386298"/>
</g>
<g fill="rgb(0%, 0%, 0%)" fill-opacity="1">
<use xlink:href="#glyph-2-7-3f8ea115" x="158.236627" y="423.634238"/>
</g>
<g fill="rgb(0%, 0%, 0%)" fill-opacity="1">
<use xlink:href="#glyph-2-8-3f8ea115" x="160.988683" y="420.882178"/>
</g>
<g fill="rgb(0%, 0%, 0%)" fill-opacity="1">
<use xlink:href="#glyph-3-0-3f8ea115" x="164.285215" y="417.58565"/>
</g>
<g fill="rgb(0%, 0%, 0%)" fill-opacity="1">
<use xlink:href="#glyph-2-9-3f8ea115" x="169.789331" y="412.081534"/>
</g>
<g fill="rgb(0%, 0%, 0%)" fill-opacity="1">
<use xlink:href="#glyph-4-0-3f8ea115" x="174.739078" y="407.131785"/>
</g>
<g fill="rgb(0%, 0%, 0%)" fill-opacity="1">
<use xlink:href="#glyph-2-3-3f8ea115" x="177.491136" y="404.379729"/>
</g>
<g fill="rgb(0%, 0%, 0%)" fill-opacity="1">
<use xlink:href="#glyph-3-1-3f8ea115" x="179.688825" y="402.18204"/>
</g>
<g fill="rgb(0%, 0%, 0%)" fill-opacity="1">
<use xlink:href="#glyph-5-0-3f8ea115" x="185.192942" y="396.677924"/>
</g>
<g fill="rgb(0%, 0%, 0%)" fill-opacity="1">
<use xlink:href="#glyph-5-1-3f8ea115" x="190.697059" y="391.173806"/>
</g>
<g fill="rgb(0%, 0%, 0%)" fill-opacity="1">
<use xlink:href="#glyph-6-0-3f8ea115" x="193.449117" y="388.421746"/>
</g>
<g fill="rgb(0%, 0%, 0%)" fill-opacity="1">
<use xlink:href="#glyph-2-4-3f8ea115" x="196.745651" y="385.125212"/>
</g>
<g fill="rgb(0%, 0%, 0%)" fill-opacity="1">
<use xlink:href="#glyph-7-0-3f8ea115" x="199.49771" y="382.373154"/>
</g>
<g fill="rgb(0%, 0%, 0%)" fill-opacity="1">
<use xlink:href="#glyph-8-0-3f8ea115" x="204.447457" y="377.423407"/>
</g>
<g fill="rgb(0%, 0%, 0%)" fill-opacity="1">
<use xlink:href="#glyph-5-2-3f8ea115" x="207.199516" y="374.671349"/>
</g>
<g fill="rgb(0%, 0%, 0%)" fill-opacity="1">
<use xlink:href="#glyph-9-0-3f8ea115" x="346.306517" y="443.443137"/>
</g>
<g fill="rgb(0%, 0%, 0%)" fill-opacity="1">
<use xlink:href="#glyph-9-1-3f8ea115" x="351.810634" y="437.939017"/>
</g>
<g fill="rgb(0%, 0%, 0%)" fill-opacity="1">
<use xlink:href="#glyph-9-2-3f8ea115" x="355.107165" y="434.642486"/>
</g>
<g fill="rgb(0%, 0%, 0%)" fill-opacity="1">
<use xlink:href="#glyph-9-3-3f8ea115" x="360.611289" y="429.138366"/>
</g>
<g fill="rgb(0%, 0%, 0%)" fill-opacity="1">
<use xlink:href="#glyph-9-4-3f8ea115" x="367.75872" y="421.990935"/>
</g>
<g fill="rgb(0%, 0%, 0%)" fill-opacity="1">
<use xlink:href="#glyph-10-0-3f8ea115" x="370.510784" y="419.238871"/>
</g>
<g fill="rgb(0%, 0%, 0%)" fill-opacity="1">
<use xlink:href="#glyph-11-0-3f8ea115" x="376.0149" y="413.734751"/>
</g>
<g fill="rgb(0%, 0%, 0%)" fill-opacity="1">
<use xlink:href="#glyph-12-0-3f8ea115" x="378.76696" y="410.982695"/>
</g>
<g fill="rgb(0%, 0%, 0%)" fill-opacity="1">
<use xlink:href="#glyph-13-0-3f8ea115" x="382.06349" y="407.686164"/>
</g>
<g fill="rgb(0%, 0%, 0%)" fill-opacity="1">
<use xlink:href="#glyph-13-1-3f8ea115" x="387.56761" y="402.182044"/>
</g>
<g fill="rgb(0%, 0%, 0%)" fill-opacity="1">
<use xlink:href="#glyph-11-1-3f8ea115" x="390.319668" y="399.429988"/>
</g>
<g fill="rgb(0%, 0%, 0%)" fill-opacity="1">
<use xlink:href="#glyph-14-0-3f8ea115" x="395.823785" y="393.92587"/>
</g>
<g fill="rgb(0%, 0%, 0%)" fill-opacity="1">
<use xlink:href="#glyph-12-1-3f8ea115" x="398.575844" y="391.17381"/>
</g>
<g fill="rgb(0%, 0%, 0%)" fill-opacity="1">
<use xlink:href="#glyph-15-0-3f8ea115" x="401.872378" y="387.877276"/>
</g>
<g fill="rgb(0%, 0%, 0%)" fill-opacity="1">
<use xlink:href="#glyph-12-2-3f8ea115" x="404.624436" y="385.125218"/>
</g>
<g fill="rgb(0%, 0%, 0%)" fill-opacity="1">
<use xlink:href="#glyph-16-0-3f8ea115" x="409.574184" y="380.175471"/>
</g>
<g fill="rgb(0%, 0%, 0%)" fill-opacity="1">
<use xlink:href="#glyph-17-0-3f8ea115" x="415.078301" y="374.671354"/>
</g>
<g fill="rgb(0%, 0%, 0%)" fill-opacity="1">
<use xlink:href="#glyph-12-3-3f8ea115" x="559.679517" y="437.948928"/>
</g>
<g fill="rgb(0%, 0%, 0%)" fill-opacity="1">
<use xlink:href="#glyph-12-4-3f8ea115" x="565.183633" y="432.444808"/>
</g>
<g fill="rgb(0%, 0%, 0%)" fill-opacity="1">
<use xlink:href="#glyph-12-5-3f8ea115" x="570.687757" y="426.940688"/>
</g>
<g fill="rgb(0%, 0%, 0%)" fill-opacity="1">
<use xlink:href="#glyph-12-6-3f8ea115" x="576.191874" y="421.436568"/>
</g>
<g fill="rgb(0%, 0%, 0%)" fill-opacity="1">
<use xlink:href="#glyph-18-0-3f8ea115" x="578.943934" y="418.684512"/>
</g>
<g fill="rgb(0%, 0%, 0%)" fill-opacity="1">
<use xlink:href="#glyph-12-7-3f8ea115" x="584.448054" y="413.180388"/>
</g>
<g fill="rgb(0%, 0%, 0%)" fill-opacity="1">
<use xlink:href="#glyph-18-1-3f8ea115" x="587.200114" y="410.428332"/>
</g>
<g fill="rgb(0%, 0%, 0%)" fill-opacity="1">
<use xlink:href="#glyph-11-2-3f8ea115" x="590.496645" y="407.1318"/>
</g>
<g fill="rgb(0%, 0%, 0%)" fill-opacity="1">
<use xlink:href="#glyph-19-0-3f8ea115" x="596.000764" y="401.62768"/>
</g>
<g fill="rgb(0%, 0%, 0%)" fill-opacity="1">
<use xlink:href="#glyph-19-1-3f8ea115" x="598.752824" y="398.87562"/>
</g>
<g fill="rgb(0%, 0%, 0%)" fill-opacity="1">
<use xlink:href="#glyph-20-0-3f8ea115" x="604.256943" y="393.371502"/>
</g>
<g fill="rgb(0%, 0%, 0%)" fill-opacity="1">
<use xlink:href="#glyph-19-2-3f8ea115" x="607.009004" y="390.619441"/>
</g>
<g fill="rgb(0%, 0%, 0%)" fill-opacity="1">
<use xlink:href="#glyph-21-0-3f8ea115" x="610.305537" y="387.322907"/>
</g>
<g fill="rgb(0%, 0%, 0%)" fill-opacity="1">
<use xlink:href="#glyph-22-0-3f8ea115" x="613.057596" y="384.570849"/>
</g>
<g fill="rgb(0%, 0%, 0%)" fill-opacity="1">
<use xlink:href="#glyph-20-1-3f8ea115" x="618.007343" y="379.621102"/>
</g>
<g fill="rgb(0%, 0%, 0%)" fill-opacity="1">
<use xlink:href="#glyph-23-0-3f8ea115" x="622.957091" y="374.671354"/>
</g>
<g fill="rgb(0%, 0%, 0%)" fill-opacity="1">
<use xlink:href="#glyph-24-0-3f8ea115" x="28.488" y="216.506995"/>
</g>
<g fill="rgb(0%, 0%, 0%)" fill-opacity="1">
<use xlink:href="#glyph-25-0-3f8ea115" x="28.488001" y="207.168994"/>
</g>
<g fill="rgb(0%, 0%, 0%)" fill-opacity="1">
<use xlink:href="#glyph-24-1-3f8ea115" x="28.488001" y="199.384996"/>
</g>
<g fill="rgb(0%, 0%, 0%)" fill-opacity="1">
<use xlink:href="#glyph-26-0-3f8ea115" x="28.488001" y="191.600996"/>
</g>
<g fill="rgb(0%, 0%, 0%)" fill-opacity="1">
<use xlink:href="#glyph-24-2-3f8ea115" x="28.488002" y="184.600997"/>
</g>
<g fill="rgb(0%, 0%, 0%)" fill-opacity="1">
<use xlink:href="#glyph-27-0-3f8ea115" x="28.488002" y="181.492997"/>
</g>
<g fill="rgb(0%, 0%, 0%)" fill-opacity="1">
<use xlink:href="#glyph-25-1-3f8ea115" x="28.488002" y="177.600999"/>
</g>
<g fill="rgb(0%, 0%, 0%)" fill-opacity="1">
<use xlink:href="#glyph-27-1-3f8ea115" x="28.488003" y="174.492998"/>
</g>
<g fill="rgb(0%, 0%, 0%)" fill-opacity="1">
<use xlink:href="#glyph-28-0-3f8ea115" x="28.488003" y="167.492999"/>
</g>
<g fill="rgb(0%, 0%, 0%)" fill-opacity="1">
<use xlink:href="#glyph-29-0-3f8ea115" x="28.488003" y="164.384997"/>
</g>
<g fill="rgb(0%, 0%, 0%)" fill-opacity="1">
<use xlink:href="#glyph-25-2-3f8ea115" x="28.488003" y="160.492999"/>
</g>
<g fill="rgb(0%, 0%, 0%)" fill-opacity="1">
<use xlink:href="#glyph-0-6-3f8ea115" x="36.540002" y="343.739366"/>
</g>
<g fill="rgb(0%, 0%, 0%)" fill-opacity="1">
<use xlink:href="#glyph-0-7-3f8ea115" x="44.324003" y="343.739366"/>
</g>
<g fill="rgb(0%, 0%, 0%)" fill-opacity="1">
<use xlink:href="#glyph-0-6-3f8ea115" x="48.216002" y="343.739366"/>
</g>
<g fill="rgb(0%, 0%, 0%)" fill-opacity="1">
<use xlink:href="#glyph-0-6-3f8ea115" x="36.540002" y="271.172944"/>
</g>
<g fill="rgb(0%, 0%, 0%)" fill-opacity="1">
<use xlink:href="#glyph-0-7-3f8ea115" x="44.324003" y="271.172944"/>
</g>
<g fill="rgb(0%, 0%, 0%)" fill-opacity="1">
<use xlink:href="#glyph-0-8-3f8ea115" x="48.216002" y="271.172944"/>
</g>
<g fill="rgb(0%, 0%, 0%)" fill-opacity="1">
<use xlink:href="#glyph-0-6-3f8ea115" x="36.540002" y="198.606507"/>
</g>
<g fill="rgb(0%, 0%, 0%)" fill-opacity="1">
<use xlink:href="#glyph-0-7-3f8ea115" x="44.324003" y="198.606507"/>
</g>
<g fill="rgb(0%, 0%, 0%)" fill-opacity="1">
<use xlink:href="#glyph-0-9-3f8ea115" x="48.216002" y="198.606507"/>
</g>
<g fill="rgb(0%, 0%, 0%)" fill-opacity="1">
<use xlink:href="#glyph-0-6-3f8ea115" x="36.540002" y="126.04007"/>
</g>
<g fill="rgb(0%, 0%, 0%)" fill-opacity="1">
<use xlink:href="#glyph-0-7-3f8ea115" x="44.324003" y="126.04007"/>
</g>
<g fill="rgb(0%, 0%, 0%)" fill-opacity="1">
<use xlink:href="#glyph-0-10-3f8ea115" x="48.216002" y="126.04007"/>
</g>
<g fill="rgb(0%, 0%, 0%)" fill-opacity="1">
<use xlink:href="#glyph-0-6-3f8ea115" x="36.540002" y="53.473663"/>
</g>
<g fill="rgb(0%, 0%, 0%)" fill-opacity="1">
<use xlink:href="#glyph-0-7-3f8ea115" x="44.324003" y="53.473663"/>
</g>
<g fill="rgb(0%, 0%, 0%)" fill-opacity="1">
<use xlink:href="#glyph-0-11-3f8ea115" x="48.216002" y="53.473663"/>
</g>
<path fill-rule="nonzero" fill="rgb(0%, 44.705883%, 69.803923%)" fill-opacity="1" d="M 117.96875 338.636719 L 284.273438 338.636719 L 284.273438 46.242188 L 117.96875 46.242188 Z M 117.96875 338.636719 "/>
<path fill-rule="nonzero" fill="rgb(90.196079%, 62.352943%, 0%)" fill-opacity="1" d="M 117.96875 46.242188 L 284.273438 46.242188 L 284.273438 31.363281 L 117.96875 31.363281 Z M 117.96875 46.242188 "/>
<path fill-rule="nonzero" fill="rgb(0%, 44.705883%, 69.803923%)" fill-opacity="1" d="M 325.847656 338.636719 L 492.152344 338.636719 L 492.152344 303.164062 L 325.847656 303.164062 Z M 325.847656 338.636719 "/>
<path fill-rule="nonzero" fill="rgb(90.196079%, 62.352943%, 0%)" fill-opacity="1" d="M 325.847656 303.164062 L 492.152344 303.164062 L 492.152344 294.523438 L 325.847656 294.523438 Z M 325.847656 303.164062 "/>
<path fill-rule="nonzero" fill="rgb(0%, 44.705883%, 69.803923%)" fill-opacity="1" d="M 533.726562 338.636719 L 700.03125 338.636719 L 700.03125 317.496094 L 533.726562 317.496094 Z M 533.726562 338.636719 "/>
<path fill-rule="nonzero" fill="rgb(90.196079%, 62.352943%, 0%)" fill-opacity="1" d="M 533.726562 317.496094 L 700.03125 317.496094 L 700.03125 311.730469 L 533.726562 311.730469 Z M 533.726562 317.496094 "/>
<g clip-path="url(#clip-0-3f8ea115)">
<path fill="none" stroke-width="1.5" stroke-linecap="butt" stroke-linejoin="miter" stroke="rgb(100%, 0%, 0%)" stroke-opacity="1" stroke-dasharray="4.5 4.5" stroke-miterlimit="1.154701" d="M 66 302.351562 L 752 302.351562 "/>
</g>
<path fill-rule="nonzero" fill="rgb(100%, 100%, 100%)" fill-opacity="1" stroke-width="1" stroke-linecap="butt" stroke-linejoin="miter" stroke="rgb(0%, 0%, 0%)" stroke-opacity="1" stroke-miterlimit="2" d="M 186 560 L 632 560 L 632 504 L 186 504 Z M 186 560 "/>
<path fill="none" stroke-width="1" stroke-linecap="butt" stroke-linejoin="miter" stroke="rgb(0%, 0%, 0%)" stroke-opacity="1" stroke-miterlimit="1.154701" d="M 201.121094 354.5 L 201.121094 359.5 "/>
<path fill="none" stroke-width="1" stroke-linecap="butt" stroke-linejoin="miter" stroke="rgb(0%, 0%, 0%)" stroke-opacity="1" stroke-miterlimit="1.154701" d="M 409 354.5 L 409 359.5 "/>
<path fill="none" stroke-width="1" stroke-linecap="butt" stroke-linejoin="miter" stroke="rgb(0%, 0%, 0%)" stroke-opacity="1" stroke-miterlimit="1.154701" d="M 616.878906 354.5 L 616.878906 359.5 "/>
<path fill="none" stroke-width="1" stroke-linecap="butt" stroke-linejoin="miter" stroke="rgb(0%, 0%, 0%)" stroke-opacity="1" stroke-miterlimit="1.154701" d="M 65.5 338.636719 L 60.5 338.636719 "/>
<path fill="none" stroke-width="1" stroke-linecap="butt" stroke-linejoin="miter" stroke="rgb(0%, 0%, 0%)" stroke-opacity="1" stroke-miterlimit="1.154701" d="M 65.5 266.070312 L 60.5 266.070312 "/>
<path fill="none" stroke-width="1" stroke-linecap="butt" stroke-linejoin="miter" stroke="rgb(0%, 0%, 0%)" stroke-opacity="1" stroke-miterlimit="1.154701" d="M 65.5 193.503906 L 60.5 193.503906 "/>
<path fill="none" stroke-width="1" stroke-linecap="butt" stroke-linejoin="miter" stroke="rgb(0%, 0%, 0%)" stroke-opacity="1" stroke-miterlimit="1.154701" d="M 65.5 120.9375 L 60.5 120.9375 "/>
<path fill="none" stroke-width="1" stroke-linecap="butt" stroke-linejoin="miter" stroke="rgb(0%, 0%, 0%)" stroke-opacity="1" stroke-miterlimit="1.154701" d="M 65.5 48.371094 L 60.5 48.371094 "/>
<path fill-rule="nonzero" fill="rgb(0%, 44.705883%, 69.803923%)" fill-opacity="1" d="M 192.207031 554.15625 L 212.207031 554.15625 L 212.207031 534.15625 L 192.207031 534.15625 Z M 192.207031 554.15625 "/>
<path fill-rule="nonzero" fill="rgb(90.196079%, 62.352943%, 0%)" fill-opacity="1" d="M 322.820312 554.15625 L 342.820312 554.15625 L 342.820312 534.15625 L 322.820312 534.15625 Z M 322.820312 554.15625 "/>
<path fill="none" stroke-width="1.5" stroke-linecap="butt" stroke-linejoin="miter" stroke="rgb(100%, 0%, 0%)" stroke-opacity="1" stroke-dasharray="4.5 4.5" stroke-miterlimit="2" d="M 516.027344 544.15625 L 536.027344 544.15625 "/>
<g fill="rgb(0%, 0%, 0%)" fill-opacity="1">
<use xlink:href="#glyph-30-0-3f8ea115" x="313.094017" y="523.103"/>
</g>
<g fill="rgb(0%, 0%, 0%)" fill-opacity="1">
<use xlink:href="#glyph-30-1-3f8ea115" x="321.648017" y="523.103"/>
</g>
<g fill="rgb(0%, 0%, 0%)" fill-opacity="1">
<use xlink:href="#glyph-30-2-3f8ea115" x="329.432017" y="523.103"/>
</g>
<g fill="rgb(0%, 0%, 0%)" fill-opacity="1">
<use xlink:href="#glyph-30-3-3f8ea115" x="337.986016" y="523.103"/>
</g>
<g fill="rgb(0%, 0%, 0%)" fill-opacity="1">
<use xlink:href="#glyph-0-12-3f8ea115" x="217.20864" y="549.13312"/>
</g>
<g fill="rgb(0%, 0%, 0%)" fill-opacity="1">
<use xlink:href="#glyph-0-13-3f8ea115" x="225.762641" y="549.13312"/>
</g>
<g fill="rgb(0%, 0%, 0%)" fill-opacity="1">
<use xlink:href="#glyph-0-2-3f8ea115" x="228.870639" y="549.13312"/>
</g>
<g fill="rgb(0%, 0%, 0%)" fill-opacity="1">
<use xlink:href="#glyph-0-14-3f8ea115" x="233.53264" y="549.13312"/>
</g>
<g fill="rgb(0%, 0%, 0%)" fill-opacity="1">
<use xlink:href="#glyph-0-5-3f8ea115" x="240.53264" y="549.13312"/>
</g>
<g fill="rgb(0%, 0%, 0%)" fill-opacity="1">
<use xlink:href="#glyph-0-15-3f8ea115" x="244.42464" y="549.13312"/>
</g>
<g fill="rgb(0%, 0%, 0%)" fill-opacity="1">
<use xlink:href="#glyph-0-16-3f8ea115" x="249.086641" y="549.13312"/>
</g>
<g fill="rgb(0%, 0%, 0%)" fill-opacity="1">
<use xlink:href="#glyph-0-2-3f8ea115" x="256.87064" y="549.13312"/>
</g>
<g fill="rgb(0%, 0%, 0%)" fill-opacity="1">
<use xlink:href="#glyph-0-17-3f8ea115" x="261.532639" y="549.13312"/>
</g>
<g fill="rgb(0%, 0%, 0%)" fill-opacity="1">
<use xlink:href="#glyph-0-4-3f8ea115" x="269.316639" y="549.13312"/>
</g>
<g fill="rgb(0%, 0%, 0%)" fill-opacity="1">
<use xlink:href="#glyph-0-2-3f8ea115" x="277.10064" y="549.13312"/>
</g>
<g fill="rgb(0%, 0%, 0%)" fill-opacity="1">
<use xlink:href="#glyph-0-18-3f8ea115" x="281.762643" y="549.13312"/>
</g>
<g fill="rgb(0%, 0%, 0%)" fill-opacity="1">
<use xlink:href="#glyph-0-19-3f8ea115" x="285.654641" y="549.13312"/>
</g>
<g fill="rgb(0%, 0%, 0%)" fill-opacity="1">
<use xlink:href="#glyph-0-20-3f8ea115" x="290.316644" y="549.13312"/>
</g>
<g fill="rgb(0%, 0%, 0%)" fill-opacity="1">
<use xlink:href="#glyph-31-0-3f8ea115" x="299.654641" y="549.13312"/>
</g>
<g fill="rgb(0%, 0%, 0%)" fill-opacity="1">
<use xlink:href="#glyph-0-21-3f8ea115" x="302.156595" y="549.13312"/>
</g>
<g fill="rgb(0%, 0%, 0%)" fill-opacity="1">
<use xlink:href="#glyph-0-22-3f8ea115" x="347.818576" y="549.13312"/>
</g>
<g fill="rgb(0%, 0%, 0%)" fill-opacity="1">
<use xlink:href="#glyph-0-23-3f8ea115" x="351.710574" y="549.13312"/>
</g>
<g fill="rgb(0%, 0%, 0%)" fill-opacity="1">
<use xlink:href="#glyph-0-5-3f8ea115" x="359.494575" y="549.13312"/>
</g>
<g fill="rgb(0%, 0%, 0%)" fill-opacity="1">
<use xlink:href="#glyph-0-4-3f8ea115" x="363.386577" y="549.13312"/>
</g>
<g fill="rgb(0%, 0%, 0%)" fill-opacity="1">
<use xlink:href="#glyph-0-2-3f8ea115" x="371.170574" y="549.13312"/>
</g>
<g fill="rgb(0%, 0%, 0%)" fill-opacity="1">
<use xlink:href="#glyph-0-1-3f8ea115" x="375.832577" y="549.13312"/>
</g>
<g fill="rgb(0%, 0%, 0%)" fill-opacity="1">
<use xlink:href="#glyph-0-24-3f8ea115" x="383.616577" y="549.13312"/>
</g>
<g fill="rgb(0%, 0%, 0%)" fill-opacity="1">
<use xlink:href="#glyph-0-5-3f8ea115" x="390.616577" y="549.13312"/>
</g>
<g fill="rgb(0%, 0%, 0%)" fill-opacity="1">
<use xlink:href="#glyph-0-13-3f8ea115" x="394.508576" y="549.13312"/>
</g>
<g fill="rgb(0%, 0%, 0%)" fill-opacity="1">
<use xlink:href="#glyph-0-16-3f8ea115" x="397.616578" y="549.13312"/>
</g>
<g fill="rgb(0%, 0%, 0%)" fill-opacity="1">
<use xlink:href="#glyph-0-23-3f8ea115" x="405.400578" y="549.13312"/>
</g>
<g fill="rgb(0%, 0%, 0%)" fill-opacity="1">
<use xlink:href="#glyph-0-18-3f8ea115" x="413.184575" y="549.13312"/>
</g>
<g fill="rgb(0%, 0%, 0%)" fill-opacity="1">
<use xlink:href="#glyph-0-19-3f8ea115" x="417.076573" y="549.13312"/>
</g>
<g fill="rgb(0%, 0%, 0%)" fill-opacity="1">
<use xlink:href="#glyph-0-20-3f8ea115" x="421.738576" y="549.13312"/>
</g>
<g fill="rgb(0%, 0%, 0%)" fill-opacity="1">
<use xlink:href="#glyph-31-1-3f8ea115" x="431.076574" y="549.13312"/>
</g>
<g fill="rgb(0%, 0%, 0%)" fill-opacity="1">
<use xlink:href="#glyph-31-0-3f8ea115" x="435.20548" y="549.13312"/>
</g>
<g fill="rgb(0%, 0%, 0%)" fill-opacity="1">
<use xlink:href="#glyph-0-18-3f8ea115" x="437.707433" y="549.13312"/>
</g>
<g fill="rgb(0%, 0%, 0%)" fill-opacity="1">
<use xlink:href="#glyph-0-15-3f8ea115" x="441.599432" y="549.13312"/>
</g>
<g fill="rgb(0%, 0%, 0%)" fill-opacity="1">
<use xlink:href="#glyph-0-18-3f8ea115" x="446.261435" y="549.13312"/>
</g>
<g fill="rgb(0%, 0%, 0%)" fill-opacity="1">
<use xlink:href="#glyph-0-20-3f8ea115" x="450.153433" y="549.13312"/>
</g>
<g fill="rgb(0%, 0%, 0%)" fill-opacity="1">
<use xlink:href="#glyph-31-0-3f8ea115" x="459.491431" y="549.13312"/>
</g>
<g fill="rgb(0%, 0%, 0%)" fill-opacity="1">
<use xlink:href="#glyph-0-21-3f8ea115" x="461.993384" y="549.13312"/>
</g>
<g fill="rgb(0%, 0%, 0%)" fill-opacity="1">
<use xlink:href="#glyph-30-4-3f8ea115" x="482.65541" y="523.103"/>
</g>
<g fill="rgb(0%, 0%, 0%)" fill-opacity="1">
<use xlink:href="#glyph-30-5-3f8ea115" x="486.547408" y="523.103"/>
</g>
<g fill="rgb(0%, 0%, 0%)" fill-opacity="1">
<use xlink:href="#glyph-30-2-3f8ea115" x="498.993408" y="523.103"/>
</g>
<g fill="rgb(0%, 0%, 0%)" fill-opacity="1">
<use xlink:href="#glyph-30-6-3f8ea115" x="507.547409" y="523.103"/>
</g>
<g fill="rgb(0%, 0%, 0%)" fill-opacity="1">
<use xlink:href="#glyph-30-7-3f8ea115" x="516.10141" y="523.103"/>
</g>
<g fill="rgb(0%, 0%, 0%)" fill-opacity="1">
<use xlink:href="#glyph-30-8-3f8ea115" x="521.547409" y="523.103"/>
</g>
<g fill="rgb(0%, 0%, 0%)" fill-opacity="1">
<use xlink:href="#glyph-30-9-3f8ea115" x="526.209408" y="523.103"/>
</g>
<g fill="rgb(0%, 0%, 0%)" fill-opacity="1">
<use xlink:href="#glyph-30-10-3f8ea115" x="533.993409" y="523.103"/>
</g>
<g fill="rgb(0%, 0%, 0%)" fill-opacity="1">
<use xlink:href="#glyph-30-11-3f8ea115" x="542.54741" y="523.103"/>
</g>
<g fill="rgb(0%, 0%, 0%)" fill-opacity="1">
<use xlink:href="#glyph-30-3-3f8ea115" x="550.331407" y="523.103"/>
</g>
<g fill="rgb(0%, 0%, 0%)" fill-opacity="1">
<use xlink:href="#glyph-30-12-3f8ea115" x="558.115404" y="523.103"/>
</g>
<g fill="rgb(0%, 0%, 0%)" fill-opacity="1">
<use xlink:href="#glyph-30-8-3f8ea115" x="562.007402" y="523.103"/>
</g>
<g fill="rgb(0%, 0%, 0%)" fill-opacity="1">
<use xlink:href="#glyph-30-13-3f8ea115" x="566.669405" y="523.103"/>
</g>
<g fill="rgb(0%, 0%, 0%)" fill-opacity="1">
<use xlink:href="#glyph-30-7-3f8ea115" x="575.223406" y="523.103"/>
</g>
<g fill="rgb(0%, 0%, 0%)" fill-opacity="1">
<use xlink:href="#glyph-30-3-3f8ea115" x="580.669405" y="523.103"/>
</g>
<g fill="rgb(0%, 0%, 0%)" fill-opacity="1">
<use xlink:href="#glyph-30-14-3f8ea115" x="588.453402" y="523.103"/>
</g>
<g fill="rgb(0%, 0%, 0%)" fill-opacity="1">
<use xlink:href="#glyph-30-13-3f8ea115" x="596.237399" y="523.103"/>
</g>
<g fill="rgb(0%, 0%, 0%)" fill-opacity="1">
<use xlink:href="#glyph-30-6-3f8ea115" x="604.7914" y="523.103"/>
</g>
<g fill="rgb(0%, 0%, 0%)" fill-opacity="1">
<use xlink:href="#glyph-30-15-3f8ea115" x="613.345401" y="523.103"/>
</g>
<g fill="rgb(0%, 0%, 0%)" fill-opacity="1">
<use xlink:href="#glyph-30-16-3f8ea115" x="617.237399" y="523.103"/>
</g>
<g fill="rgb(0%, 0%, 0%)" fill-opacity="1">
<use xlink:href="#glyph-0-20-3f8ea115" x="541.028977" y="549.13312"/>
</g>
<g fill="rgb(0%, 0%, 0%)" fill-opacity="1">
<use xlink:href="#glyph-31-1-3f8ea115" x="550.366979" y="549.13312"/>
</g>
<g fill="rgb(0%, 0%, 0%)" fill-opacity="1">
<use xlink:href="#glyph-31-0-3f8ea115" x="554.495884" y="549.13312"/>
</g>
<g fill="rgb(0%, 0%, 0%)" fill-opacity="1">
<use xlink:href="#glyph-0-18-3f8ea115" x="556.997837" y="549.13312"/>
</g>
<g fill="rgb(0%, 0%, 0%)" fill-opacity="1">
<use xlink:href="#glyph-0-25-3f8ea115" x="560.889837" y="549.13312"/>
</g>
<g fill="rgb(0%, 0%, 0%)" fill-opacity="1">
<use xlink:href="#glyph-0-18-3f8ea115" x="569.065836" y="549.13312"/>
</g>
<g fill="rgb(0%, 0%, 0%)" fill-opacity="1">
<use xlink:href="#glyph-0-6-3f8ea115" x="572.957836" y="549.13312"/>
</g>
<g fill="rgb(0%, 0%, 0%)" fill-opacity="1">
<use xlink:href="#glyph-0-7-3f8ea115" x="580.741835" y="549.13312"/>
</g>
<g fill="rgb(0%, 0%, 0%)" fill-opacity="1">
<use xlink:href="#glyph-0-26-3f8ea115" x="584.633833" y="549.13312"/>
</g>
<path fill="none" stroke-width="1" stroke-linecap="butt" stroke-linejoin="miter" stroke="rgb(0%, 0%, 0%)" stroke-opacity="1" stroke-miterlimit="1.154701" d="M 65.5 354 L 752.5 354 "/>
<path fill="none" stroke-width="1" stroke-linecap="butt" stroke-linejoin="miter" stroke="rgb(0%, 0%, 0%)" stroke-opacity="1" stroke-miterlimit="1.154701" d="M 66 354.5 L 66 15.5 "/>
<path fill="none" stroke-width="1" stroke-linecap="butt" stroke-linejoin="miter" stroke="rgb(0%, 0%, 0%)" stroke-opacity="1" stroke-miterlimit="1.154701" d="M 65.5 16 L 752.5 16 "/>
<path fill="none" stroke-width="1" stroke-linecap="butt" stroke-linejoin="miter" stroke="rgb(0%, 0%, 0%)" stroke-opacity="1" stroke-miterlimit="1.154701" d="M 752 354.5 L 752 15.5 "/>
</svg>
