<?xml version="1.0" encoding="UTF-8"?>
<svg xmlns="http://www.w3.org/2000/svg" xmlns:xlink="http://www.w3.org/1999/xlink" width="768" height="576" viewBox="0 0 768 576">
<defs>
<g>
<g id="glyph-0-0-9e9176d7">
<path d="M 8.109375 -9.0625 C 8.109375 -9.0625 2.5625 -9.0625 2.5625 -9.0625 C 2.5625 -9.0625 2.5625 -5.796875 2.5625 -5.796875 C 2.5625 -5.796875 7.4375 -5.796875 7.4375 -5.796875 C 7.4375 -5.796875 7.4375 -4.640625 7.4375 -4.640625 C 7.4375 -4.640625 2.5625 -4.640625 2.5625 -4.640625 C 2.5625 -4.640625 2.5625 0 2.5625 0 C 2.5625 0 1.265625 0 1.265625 0 C 1.265625 0 1.265625 -10.203125 1.265625 -10.203125 C 1.265625 -10.203125 8.109375 -10.203125 8.109375 -10.203125 C 8.109375 -10.203125 8.109375 -9.0625 8.109375 -9.0625 Z M 8.109375 -9.0625 "/>
</g>
<g id="glyph-0-1-9e9176d7">
<path d="M 2.140625 0 C 2.140625 0 0.984375 0 0.984375 0 C 0.984375 0 0.984375 -7.34375 0.984375 -7.34375 C 0.984375 -7.34375 2.140625 -7.34375 2.140625 -7.34375 C 2.140625 -7.34375 2.140625 0 2.140625 0 Z M 2.296875 -8.4375 C 2.296875 -8.4375 0.84375 -8.4375 0.84375 -8.4375 C 0.84375 -8.4375 0.84375 -9.890625 0.84375 -9.890625 C 0.84375 -9.890625 2.296875 -9.890625 2.296875 -9.890625 C 2.296875 -9.890625 2.296875 -8.4375 2.296875 -8.4375 Z M 2.296875 -8.4375 "/>
</g>
<g id="glyph-0-2-9e9176d7">
<path d="M 4.5 -6.3125 C 2.6875 -6.28125 2.140625 -5.453125 2.140625 -3.8125 C 2.140625 -3.8125 2.140625 0 2.140625 0 C 2.140625 0 0.984375 0 0.984375 0 C 0.984375 0 0.984375 -7.34375 0.984375 -7.34375 C 0.984375 -7.34375 2.046875 -7.34375 2.046875 -7.34375 C 2.046875 -7.34375 2.046875 -6 2.046875 -6 C 2.71875 -7.09375 3.296875 -7.546875 4.046875 -7.546875 C 4.203125 -7.546875 4.296875 -7.53125 4.5 -7.5 C 4.5 -7.5 4.5 -6.3125 4.5 -6.3125 Z M 4.5 -6.3125 "/>
</g>
<g id="glyph-0-3-9e9176d7">
<path d="M 6.421875 -2.0625 C 6.421875 -0.640625 5.25 0.203125 3.40625 0.203125 C 1.484375 0.203125 0.53125 -0.546875 0.46875 -2.234375 C 0.46875 -2.234375 1.703125 -2.234375 1.703125 -2.234375 C 1.859375 -1.125 2.453125 -0.875 3.5 -0.875 C 4.515625 -0.875 5.203125 -1.28125 5.203125 -1.953125 C 5.203125 -2.484375 4.890625 -2.734375 4.078125 -2.921875 C 4.078125 -2.921875 2.984375 -3.1875 2.984375 -3.1875 C 1.25 -3.609375 0.65625 -4.15625 0.65625 -5.3125 C 0.65625 -6.65625 1.765625 -7.546875 3.46875 -7.546875 C 5.171875 -7.546875 6.125 -6.734375 6.125 -5.296875 C 6.125 -5.296875 4.90625 -5.296875 4.90625 -5.296875 C 4.875 -6.0625 4.375 -6.46875 3.4375 -6.46875 C 2.484375 -6.46875 1.875 -6.03125 1.875 -5.359375 C 1.875 -4.84375 2.28125 -4.53125 3.234375 -4.3125 C 3.234375 -4.3125 4.359375 -4.046875 4.359375 -4.046875 C 5.8125 -3.703125 6.421875 -3.15625 6.421875 -2.0625 Z M 6.421875 -2.0625 "/>
</g>
<g id="glyph-0-4-9e9176d7">
<path d="M 3.5625 0 C 3.15625 0.0625 2.890625 0.09375 2.609375 0.09375 C 1.6875 0.09375 1.1875 -0.328125 1.1875 -1.0625 C 1.1875 -1.0625 1.1875 -6.390625 1.1875 -6.390625 C 1.1875 -6.390625 0.203125 -6.390625 0.203125 -6.390625 C 0.203125 -6.390625 0.203125 -7.34375 0.203125 -7.34375 C 0.203125 -7.34375 1.1875 -7.34375 1.1875 -7.34375 C 1.1875 -7.34375 1.1875 -9.359375 1.1875 -9.359375 C 1.1875 -9.359375 2.359375 -9.359375 2.359375 -9.359375 C 2.359375 -9.359375 2.359375 -7.34375 2.359375 -7.34375 C 2.359375 -7.34375 3.5625 -7.34375 3.5625 -7.34375 C 3.5625 -7.34375 3.5625 -6.390625 3.5625 -6.390625 C 3.5625 -6.390625 2.359375 -6.390625 2.359375 -6.390625 C 2.359375 -6.390625 2.359375 -1.578125 2.359375 -1.578125 C 2.359375 -1.0625 2.484375 -0.921875 3 -0.921875 C 3.21875 -0.921875 3.40625 -0.9375 3.5625 -0.984375 C 3.5625 -0.984375 3.5625 0 3.5625 0 Z M 3.5625 0 "/>
</g>
<g id="glyph-0-5-9e9176d7">
<path d="M 3.96875 -3.359375 C 3.96875 -3.359375 0.640625 -3.359375 0.640625 -3.359375 C 0.640625 -3.359375 0.640625 -4.375 0.640625 -4.375 C 0.640625 -4.375 3.96875 -4.375 3.96875 -4.375 C 3.96875 -4.375 3.96875 -3.359375 3.96875 -3.359375 Z M 3.96875 -3.359375 "/>
</g>
<g id="glyph-0-6-9e9176d7">
<path d="M 7.140625 -3.609375 C 7.140625 -1.203125 5.875 0.203125 3.828125 0.203125 C 1.734375 0.203125 0.5 -1.203125 0.5 -3.671875 C 0.5 -6.125 1.75 -7.546875 3.8125 -7.546875 C 5.921875 -7.546875 7.140625 -6.140625 7.140625 -3.609375 Z M 5.921875 -3.625 C 5.921875 -5.453125 5.140625 -6.46875 3.828125 -6.46875 C 2.515625 -6.46875 1.71875 -5.4375 1.71875 -3.671875 C 1.71875 -1.890625 2.515625 -0.875 3.828125 -0.875 C 5.109375 -0.875 5.921875 -1.90625 5.921875 -3.625 Z M 5.921875 -3.625 "/>
</g>
<g id="glyph-0-7-9e9176d7">
<path d="M 6.9375 0 C 6.9375 0 5.890625 0 5.890625 0 C 5.890625 0 5.890625 -1.078125 5.890625 -1.078125 C 5.265625 -0.171875 4.5625 0.203125 3.5625 0.203125 C 1.578125 0.203125 0.359375 -1.265625 0.359375 -3.734375 C 0.359375 -6.078125 1.609375 -7.546875 3.515625 -7.546875 C 4.5 -7.546875 5.28125 -7.15625 5.765625 -6.40625 C 5.765625 -6.40625 5.765625 -10.203125 5.765625 -10.203125 C 5.765625 -10.203125 6.9375 -10.203125 6.9375 -10.203125 C 6.9375 -10.203125 6.9375 0 6.9375 0 Z M 5.765625 -3.640625 C 5.765625 -5.328125 4.96875 -6.453125 3.703125 -6.453125 C 2.4375 -6.453125 1.578125 -5.375 1.578125 -3.671875 C 1.578125 -1.953125 2.4375 -0.875 3.71875 -0.875 C 4.953125 -0.875 5.765625 -1.953125 5.765625 -3.640625 Z M 5.765625 -3.640625 "/>
</g>
<g id="glyph-0-8-9e9176d7">
<path d="M 7.1875 -3.328125 C 7.1875 -3.328125 1.78125 -3.328125 1.78125 -3.328125 C 1.8125 -1.65625 2.71875 -0.875 3.9375 -0.875 C 4.875 -0.875 5.53125 -1.265625 5.859375 -2.21875 C 5.859375 -2.21875 7.03125 -2.21875 7.03125 -2.21875 C 6.734375 -0.734375 5.578125 0.203125 3.890625 0.203125 C 1.828125 0.203125 0.5625 -1.21875 0.5625 -3.625 C 0.5625 -6.03125 1.875 -7.546875 3.921875 -7.546875 C 5.296875 -7.546875 6.40625 -6.8125 6.890625 -5.609375 C 7.09375 -5.0625 7.1875 -4.390625 7.1875 -3.328125 Z M 5.9375 -4.375 C 5.9375 -5.515625 5.046875 -6.46875 3.90625 -6.46875 C 2.734375 -6.46875 1.90625 -5.59375 1.8125 -4.28125 C 1.8125 -4.28125 5.921875 -4.28125 5.921875 -4.28125 C 5.9375 -4.3125 5.9375 -4.375 5.9375 -4.375 Z M 5.9375 -4.375 "/>
</g>
<g id="glyph-0-9-9e9176d7">
</g>
<g id="glyph-0-10-9e9176d7">
<path d="M 6.8125 0 C 6.8125 0 5.65625 0 5.65625 0 C 5.65625 0 5.65625 -5.078125 5.65625 -5.078125 C 5.65625 -5.96875 5.0625 -6.53125 4.140625 -6.53125 C 2.953125 -6.53125 2.140625 -5.546875 2.140625 -4.046875 C 2.140625 -4.046875 2.140625 0 2.140625 0 C 2.140625 0 0.984375 0 0.984375 0 C 0.984375 0 0.984375 -7.34375 0.984375 -7.34375 C 0.984375 -7.34375 2.0625 -7.34375 2.0625 -7.34375 C 2.0625 -7.34375 2.0625 -6.109375 2.0625 -6.109375 C 2.703125 -7.125 3.40625 -7.546875 4.5 -7.546875 C 5.90625 -7.546875 6.8125 -6.765625 6.8125 -5.546875 C 6.8125 -5.546875 6.8125 0 6.8125 0 Z M 6.8125 0 "/>
</g>
<g id="glyph-0-11-9e9176d7">
<path d="M 6.625 0 C 6.625 0 5.265625 0 5.265625 0 C 5.265625 0 3.4375 -2.8125 3.4375 -2.8125 C 3.4375 -2.8125 1.5625 0 1.5625 0 C 1.5625 0 0.234375 0 0.234375 0 C 0.234375 0 2.828125 -3.734375 2.828125 -3.734375 C 2.828125 -3.734375 0.375 -7.34375 0.375 -7.34375 C 0.375 -7.34375 1.703125 -7.34375 1.703125 -7.34375 C 1.703125 -7.34375 3.46875 -4.671875 3.46875 -4.671875 C 3.46875 -4.671875 5.234375 -7.34375 5.234375 -7.34375 C 5.234375 -7.34375 6.546875 -7.34375 6.546875 -7.34375 C 6.546875 -7.34375 4.09375 -3.796875 4.09375 -3.796875 C 4.09375 -3.796875 6.625 0 6.625 0 Z M 6.625 0 "/>
</g>
<g id="glyph-0-12-9e9176d7">
<path d="M 4.078125 2.96875 C 4.078125 2.96875 3.296875 2.96875 3.296875 2.96875 C 1.90625 1.140625 1.015625 -1.40625 1.015625 -3.625 C 1.015625 -5.828125 1.90625 -8.375 3.296875 -10.203125 C 3.296875 -10.203125 4.078125 -10.203125 4.078125 -10.203125 C 2.84375 -8.21875 2.15625 -5.859375 2.15625 -3.625 C 2.15625 -1.390625 2.84375 0.96875 4.078125 2.96875 Z M 4.078125 2.96875 "/>
</g>
<g id="glyph-0-13-9e9176d7">
<path d="M 8.6875 -2.796875 C 8.6875 -0.984375 7.296875 0.25 4.703125 0.25 C 2.296875 0.25 0.671875 -0.90625 0.671875 -3.3125 C 0.671875 -3.3125 1.90625 -3.3125 1.90625 -3.3125 C 1.90625 -1.859375 2.859375 -0.890625 4.78125 -0.890625 C 6.546875 -0.890625 7.390625 -1.546875 7.390625 -2.671875 C 7.390625 -3.46875 6.796875 -3.984375 5.515625 -4.328125 C 5.515625 -4.328125 2.984375 -5 2.984375 -5 C 1.640625 -5.34375 0.984375 -6.125 0.984375 -7.375 C 0.984375 -9.21875 2.359375 -10.453125 4.609375 -10.453125 C 6.953125 -10.453125 8.34375 -9.296875 8.34375 -7.296875 C 8.34375 -7.296875 7.109375 -7.296875 7.109375 -7.296875 C 7.109375 -8.625 6.1875 -9.359375 4.5625 -9.359375 C 3.1875 -9.359375 2.28125 -8.59375 2.28125 -7.5625 C 2.28125 -6.78125 2.734375 -6.375 3.96875 -6.046875 C 3.96875 -6.046875 6.53125 -5.359375 6.53125 -5.359375 C 7.90625 -4.984375 8.6875 -4.0625 8.6875 -2.796875 Z M 8.6875 -2.796875 "/>
</g>
<g id="glyph-0-14-9e9176d7">
<path d="M 3.578125 -3.609375 C 3.578125 -1.40625 2.703125 1.140625 1.296875 2.96875 C 1.296875 2.96875 0.53125 2.96875 0.53125 2.96875 C 1.765625 0.984375 2.453125 -1.390625 2.453125 -3.609375 C 2.453125 -5.859375 1.765625 -8.203125 0.53125 -10.203125 C 0.53125 -10.203125 1.296875 -10.203125 1.296875 -10.203125 C 2.703125 -8.375 3.578125 -5.828125 3.578125 -3.609375 Z M 3.578125 -3.609375 "/>
</g>
<g id="glyph-0-15-9e9176d7">
<path d="M 7.09375 -4.78125 C 7.09375 -1.515625 5.953125 0.203125 3.84375 0.203125 C 1.71875 0.203125 0.609375 -1.515625 0.609375 -4.859375 C 0.609375 -8.1875 1.703125 -9.921875 3.84375 -9.921875 C 6 -9.921875 7.09375 -8.21875 7.09375 -4.78125 Z M 5.84375 -4.890625 C 5.84375 -7.546875 5.1875 -8.828125 3.84375 -8.828125 C 2.515625 -8.828125 1.859375 -7.5625 1.859375 -4.84375 C 1.859375 -2.125 2.515625 -0.8125 3.828125 -0.8125 C 5.1875 -0.8125 5.84375 -2.078125 5.84375 -4.890625 Z M 5.84375 -4.890625 "/>
</g>
<g id="glyph-0-16-9e9176d7">
<path d="M 2.671875 0 C 2.671875 0 1.21875 0 1.21875 0 C 1.21875 0 1.21875 -1.453125 1.21875 -1.453125 C 1.21875 -1.453125 2.671875 -1.453125 2.671875 -1.453125 C 2.671875 -1.453125 2.671875 0 2.671875 0 Z M 2.671875 0 "/>
</g>
<g id="glyph-0-17-9e9176d7">
<path d="M 7.1875 -3.296875 C 7.1875 -1.1875 5.78125 0.203125 3.78125 0.203125 C 2.015625 0.203125 0.890625 -0.578125 0.484375 -2.546875 C 0.484375 -2.546875 1.71875 -2.546875 1.71875 -2.546875 C 2.015625 -1.421875 2.671875 -0.875 3.75 -0.875 C 5.09375 -0.875 5.921875 -1.6875 5.921875 -3.125 C 5.921875 -4.59375 5.078125 -5.453125 3.75 -5.453125 C 2.984375 -5.453125 2.5 -5.203125 1.9375 -4.515625 C 1.9375 -4.515625 0.796875 -4.515625 0.796875 -4.515625 C 0.796875 -4.515625 1.546875 -9.71875 1.546875 -9.71875 C 1.546875 -9.71875 6.65625 -9.71875 6.65625 -9.71875 C 6.65625 -9.71875 6.65625 -8.5 6.65625 -8.5 C 6.65625 -8.5 2.53125 -8.5 2.53125 -8.5 C 2.53125 -8.5 2.140625 -5.9375 2.140625 -5.9375 C 2.71875 -6.359375 3.28125 -6.53125 3.96875 -6.53125 C 5.875 -6.53125 7.1875 -5.25 7.1875 -3.296875 Z M 7.1875 -3.296875 "/>
</g>
<g id="glyph-0-18-9e9176d7">
<path d="M 4.859375 0 C 4.859375 0 3.625 0 3.625 0 C 3.625 0 3.625 -7.0625 3.625 -7.0625 C 3.625 -7.0625 1.421875 -7.0625 1.421875 -7.0625 C 1.421875 -7.0625 1.421875 -7.953125 1.421875 -7.953125 C 3.328125 -8.1875 3.609375 -8.40625 4.046875 -9.921875 C 4.046875 -9.921875 4.859375 -9.921875 4.859375 -9.921875 C 4.859375 -9.921875 4.859375 0 4.859375 0 Z M 4.859375 0 "/>
</g>
<g id="glyph-0-19-9e9176d7">
<path d="M 6.796875 -7.34375 C 6.796875 -7.34375 3.984375 0 3.984375 0 C 3.984375 0 2.71875 0 2.71875 0 C 2.71875 0 0.140625 -7.34375 0.140625 -7.34375 C 0.140625 -7.34375 1.453125 -7.34375 1.453125 -7.34375 C 1.453125 -7.34375 3.421875 -1.390625 3.421875 -1.390625 C 3.421875 -1.390625 5.484375 -7.34375 5.484375 -7.34375 C 5.484375 -7.34375 6.796875 -7.34375 6.796875 -7.34375 Z M 6.796875 -7.34375 "/>
</g>
<g id="glyph-0-20-9e9176d7">
<path d="M 3.609375 -6.390625 C 3.609375 -6.390625 2.390625 -6.390625 2.390625 -6.390625 C 2.390625 -6.390625 2.390625 0 2.390625 0 C 2.390625 0 1.234375 0 1.234375 0 C 1.234375 0 1.234375 -6.390625 1.234375 -6.390625 C 1.234375 -6.390625 0.25 -6.390625 0.25 -6.390625 C 0.25 -6.390625 0.25 -7.34375 0.25 -7.34375 C 0.25 -7.34375 1.234375 -7.34375 1.234375 -7.34375 C 1.234375 -7.34375 1.234375 -8.578125 1.234375 -8.578125 C 1.234375 -9.625 1.875 -10.25 2.953125 -10.25 C 3.1875 -10.25 3.34375 -10.234375 3.609375 -10.171875 C 3.609375 -10.171875 3.609375 -9.21875 3.609375 -9.21875 C 3.34375 -9.21875 3.296875 -9.21875 3.203125 -9.21875 C 2.671875 -9.21875 2.390625 -8.96875 2.390625 -8.484375 C 2.390625 -8.484375 2.390625 -7.34375 2.390625 -7.34375 C 2.390625 -7.34375 3.609375 -7.34375 3.609375 -7.34375 C 3.609375 -7.34375 3.609375 -6.390625 3.609375 -6.390625 Z M 3.609375 -6.390625 "/>
</g>
<g id="glyph-0-21-9e9176d7">
<path d="M 7.484375 -0.03125 C 7.109375 0.0625 6.9375 0.09375 6.6875 0.09375 C 6.125 0.09375 5.609375 -0.3125 5.484375 -0.875 C 4.84375 -0.1875 3.9375 0.203125 3 0.203125 C 1.515625 0.203125 0.59375 -0.578125 0.59375 -1.90625 C 0.59375 -2.796875 1.015625 -3.453125 1.875 -3.8125 C 2.328125 -3.984375 2.578125 -4.046875 4.234375 -4.25 C 5.15625 -4.375 5.453125 -4.578125 5.453125 -5.0625 C 5.453125 -5.0625 5.453125 -5.375 5.453125 -5.375 C 5.453125 -6.078125 4.859375 -6.46875 3.8125 -6.46875 C 2.71875 -6.46875 2.1875 -6.0625 2.09375 -5.171875 C 2.09375 -5.171875 0.90625 -5.171875 0.90625 -5.171875 C 0.984375 -6.859375 2.078125 -7.546875 3.84375 -7.546875 C 5.65625 -7.546875 6.609375 -6.84375 6.609375 -5.546875 C 6.609375 -5.546875 6.609375 -1.453125 6.609375 -1.453125 C 6.609375 -1.09375 6.828125 -0.875 7.234375 -0.875 C 7.3125 -0.875 7.359375 -0.875 7.484375 -0.90625 C 7.484375 -0.90625 7.484375 -0.03125 7.484375 -0.03125 Z M 5.453125 -2.53125 C 5.453125 -2.53125 5.453125 -3.625 5.453125 -3.625 C 5.046875 -3.4375 4.796875 -3.390625 3.5625 -3.21875 C 2.328125 -3.03125 1.8125 -2.703125 1.8125 -1.9375 C 1.8125 -1.140625 2.34375 -0.8125 3.25 -0.8125 C 4.375 -0.8125 5.453125 -1.484375 5.453125 -2.53125 Z M 5.453125 -2.53125 "/>
</g>
<g id="glyph-0-22-9e9176d7">
<path d="M 6.671875 -2.515625 C 6.53125 -0.84375 5.4375 0.203125 3.6875 0.203125 C 1.6875 0.203125 0.4375 -1.234375 0.4375 -3.59375 C 0.4375 -6.03125 1.71875 -7.546875 3.703125 -7.546875 C 5.328125 -7.546875 6.453125 -6.65625 6.59375 -4.875 C 6.59375 -4.875 5.421875 -4.875 5.421875 -4.875 C 5.28125 -5.890625 4.65625 -6.46875 3.6875 -6.46875 C 2.40625 -6.46875 1.65625 -5.4375 1.65625 -3.59375 C 1.65625 -1.859375 2.421875 -0.875 3.703125 -0.875 C 4.703125 -0.875 5.3125 -1.34375 5.5 -2.515625 C 5.5 -2.515625 6.671875 -2.515625 6.671875 -2.515625 Z M 6.671875 -2.515625 "/>
</g>
<g id="glyph-0-23-9e9176d7">
<path d="M 6.84375 -1.203125 C 6.84375 2.03125 5.859375 3.046875 3.5625 3.046875 C 1.84375 3.046875 0.765625 2.21875 0.640625 0.84375 C 0.640625 0.84375 1.828125 0.84375 1.828125 0.84375 C 1.96875 1.734375 2.6875 2.078125 3.609375 2.078125 C 4.96875 2.078125 5.765625 1.328125 5.765625 -0.609375 C 5.765625 -0.609375 5.765625 -1.109375 5.765625 -1.109375 C 5 -0.1875 4.359375 0.203125 3.4375 0.203125 C 1.703125 0.203125 0.40625 -1.28125 0.40625 -3.59375 C 0.40625 -5.984375 1.671875 -7.546875 3.53125 -7.546875 C 4.46875 -7.546875 5.1875 -7.140625 5.765625 -6.265625 C 5.765625 -6.265625 5.765625 -7.34375 5.765625 -7.34375 C 5.765625 -7.34375 6.84375 -7.34375 6.84375 -7.34375 C 6.84375 -7.34375 6.84375 -1.203125 6.84375 -1.203125 Z M 5.65625 -3.625 C 5.65625 -5.40625 4.90625 -6.46875 3.65625 -6.46875 C 2.40625 -6.46875 1.625 -5.4375 1.625 -3.671875 C 1.625 -1.890625 2.390625 -0.875 3.671875 -0.875 C 4.90625 -0.875 5.65625 -1.875 5.65625 -3.625 Z M 5.65625 -3.625 "/>
</g>
<g id="glyph-0-24-9e9176d7">
<path d="M 9.90625 -7.34375 C 9.90625 -7.34375 7.75 0 7.75 0 C 7.75 0 6.421875 0 6.421875 0 C 6.421875 0 4.9375 -5.75 4.9375 -5.75 C 4.9375 -5.75 3.53125 0 3.53125 0 C 3.53125 0 2.21875 0 2.21875 0 C 2.21875 0 0.078125 -7.34375 0.078125 -7.34375 C 0.078125 -7.34375 1.375 -7.34375 1.375 -7.34375 C 1.375 -7.34375 2.875 -1.625 2.875 -1.625 C 2.875 -1.625 4.265625 -7.34375 4.265625 -7.34375 C 4.265625 -7.34375 5.703125 -7.34375 5.703125 -7.34375 C 5.703125 -7.34375 7.140625 -1.625 7.140625 -1.625 C 7.140625 -1.625 8.59375 -7.34375 8.59375 -7.34375 C 8.59375 -7.34375 9.90625 -7.34375 9.90625 -7.34375 Z M 9.90625 -7.34375 "/>
</g>
<g id="glyph-0-25-9e9176d7">
<path d="M 6.796875 0 C 6.796875 0 5.640625 0 5.640625 0 C 5.640625 0 5.640625 -5.078125 5.640625 -5.078125 C 5.640625 -6.046875 4.953125 -6.53125 4.125 -6.53125 C 2.921875 -6.53125 2.140625 -5.546875 2.140625 -4.046875 C 2.140625 -4.046875 2.140625 0 2.140625 0 C 2.140625 0 0.984375 0 0.984375 0 C 0.984375 0 0.984375 -10.203125 0.984375 -10.203125 C 0.984375 -10.203125 2.140625 -10.203125 2.140625 -10.203125 C 2.140625 -10.203125 2.140625 -6.328125 2.140625 -6.328125 C 2.828125 -7.21875 3.453125 -7.546875 4.5 -7.546875 C 5.921875 -7.546875 6.796875 -6.78125 6.796875 -5.546875 C 6.796875 -5.546875 6.796875 0 6.796875 0 Z M 6.796875 0 "/>
</g>
<g id="glyph-0-26-9e9176d7">
<path d="M 7.03125 0 C 7.03125 0 5.59375 0 5.59375 0 C 5.59375 0 3.109375 -3.96875 3.109375 -3.96875 C 3.109375 -3.96875 1.96875 -2.859375 1.96875 -2.859375 C 1.96875 -2.859375 1.96875 0 1.96875 0 C 1.96875 0 0.8125 0 0.8125 0 C 0.8125 0 0.8125 -10.203125 0.8125 -10.203125 C 0.8125 -10.203125 1.96875 -10.203125 1.96875 -10.203125 C 1.96875 -10.203125 1.96875 -4.234375 1.96875 -4.234375 C 1.96875 -4.234375 5.078125 -7.34375 5.078125 -7.34375 C 5.078125 -7.34375 6.578125 -7.34375 6.578125 -7.34375 C 6.578125 -7.34375 4.03125 -4.796875 4.03125 -4.796875 C 4.03125 -4.796875 7.03125 0 7.03125 0 Z M 7.03125 0 "/>
</g>
<g id="glyph-1-0-9e9176d7">
<path d="M 1.0625 -0.75 L 2.46875 -0.75 L 2.46875 -4.9375 L 0.9375 -4.65625 L 0.9375 -5.453125 L 2.515625 -5.71875 L 3.453125 -5.71875 L 3.453125 -0.75 L 4.84375 -0.75 L 4.84375 0 L 1.0625 0 Z M 1.0625 -0.75 "/>
</g>
<g id="glyph-2-0-9e9176d7">
<path d="M -9.0625 -8.296875 C -9.0625 -8.296875 -9.0625 -4.953125 -9.0625 -4.953125 C -9.0625 -4.953125 0 -4.953125 0 -4.953125 C 0 -4.953125 0 -3.65625 0 -3.65625 C 0 -3.65625 -9.0625 -3.65625 -9.0625 -3.65625 C -9.0625 -3.65625 -9.0625 -0.296875 -9.0625 -0.296875 C -9.0625 -0.296875 -10.203125 -0.296875 -10.203125 -0.296875 C -10.203125 -0.296875 -10.203125 -8.296875 -10.203125 -8.296875 C -10.203125 -8.296875 -9.0625 -8.296875 -9.0625 -8.296875 Z M -9.0625 -8.296875 "/>
</g>
<g id="glyph-2-1-9e9176d7">
<path d="M -3.359375 -3.96875 C -3.359375 -3.96875 -3.359375 -0.640625 -3.359375 -0.640625 C -3.359375 -0.640625 -4.375 -0.640625 -4.375 -0.640625 C -4.375 -0.640625 -4.375 -3.96875 -4.375 -3.96875 C -4.375 -3.96875 -3.359375 -3.96875 -3.359375 -3.96875 Z M -3.359375 -3.96875 "/>
</g>
<g id="glyph-2-2-9e9176d7">
<path d="M 0 -6.9375 C 0 -6.9375 0 -5.890625 0 -5.890625 C 0 -5.890625 -1.078125 -5.890625 -1.078125 -5.890625 C -0.171875 -5.265625 0.203125 -4.5625 0.203125 -3.5625 C 0.203125 -1.578125 -1.265625 -0.359375 -3.734375 -0.359375 C -6.078125 -0.359375 -7.546875 -1.609375 -7.546875 -3.515625 C -7.546875 -4.5 -7.15625 -5.28125 -6.40625 -5.765625 C -6.40625 -5.765625 -10.203125 -5.765625 -10.203125 -5.765625 C -10.203125 -5.765625 -10.203125 -6.9375 -10.203125 -6.9375 C -10.203125 -6.9375 0 -6.9375 0 -6.9375 Z M -3.640625 -5.765625 C -5.328125 -5.765625 -6.453125 -4.96875 -6.453125 -3.703125 C -6.453125 -2.4375 -5.375 -1.578125 -3.671875 -1.578125 C -1.953125 -1.578125 -0.875 -2.4375 -0.875 -3.71875 C -0.875 -4.953125 -1.953125 -5.765625 -3.640625 -5.765625 Z M -3.640625 -5.765625 "/>
</g>
<g id="glyph-2-3-9e9176d7">
<path d="M -3.328125 -7.1875 C -3.328125 -7.1875 -3.328125 -1.78125 -3.328125 -1.78125 C -1.65625 -1.8125 -0.875 -2.71875 -0.875 -3.9375 C -0.875 -4.875 -1.265625 -5.53125 -2.21875 -5.859375 C -2.21875 -5.859375 -2.21875 -7.03125 -2.21875 -7.03125 C -0.734375 -6.734375 0.203125 -5.578125 0.203125 -3.890625 C 0.203125 -1.828125 -1.21875 -0.5625 -3.625 -0.5625 C -6.03125 -0.5625 -7.546875 -1.875 -7.546875 -3.921875 C -7.546875 -5.296875 -6.8125 -6.40625 -5.609375 -6.890625 C -5.0625 -7.09375 -4.390625 -7.1875 -3.328125 -7.1875 Z M -4.375 -5.9375 C -5.515625 -5.9375 -6.46875 -5.046875 -6.46875 -3.90625 C -6.46875 -2.734375 -5.59375 -1.90625 -4.28125 -1.8125 C -4.28125 -1.8125 -4.28125 -5.921875 -4.28125 -5.921875 C -4.3125 -5.9375 -4.375 -5.9375 -4.375 -5.9375 Z M -4.375 -5.9375 "/>
</g>
<g id="glyph-2-4-9e9176d7">
</g>
<g id="glyph-3-0-9e9176d7">
<path d="M -3.609375 -7.140625 C -1.203125 -7.140625 0.203125 -5.875 0.203125 -3.828125 C 0.203125 -1.734375 -1.203125 -0.5 -3.671875 -0.5 C -6.125 -0.5 -7.546875 -1.75 -7.546875 -3.8125 C -7.546875 -5.921875 -6.140625 -7.140625 -3.609375 -7.140625 Z M -3.625 -5.921875 C -5.453125 -5.921875 -6.46875 -5.140625 -6.46875 -3.828125 C -6.46875 -2.515625 -5.4375 -1.71875 -3.671875 -1.71875 C -1.890625 -1.71875 -0.875 -2.515625 -0.875 -3.828125 C -0.875 -5.109375 -1.90625 -5.921875 -3.625 -5.921875 Z M -3.625 -5.921875 "/>
</g>
<g id="glyph-4-0-9e9176d7">
<path d="M 0 -3.5625 C 0.0625 -3.15625 0.09375 -2.890625 0.09375 -2.609375 C 0.09375 -1.6875 -0.328125 -1.1875 -1.0625 -1.1875 C -1.0625 -1.1875 -6.390625 -1.1875 -6.390625 -1.1875 C -6.390625 -1.1875 -6.390625 -0.203125 -6.390625 -0.203125 C -6.390625 -0.203125 -7.34375 -0.203125 -7.34375 -0.203125 C -7.34375 -0.203125 -7.34375 -1.1875 -7.34375 -1.1875 C -7.34375 -1.1875 -9.359375 -1.1875 -9.359375 -1.1875 C -9.359375 -1.1875 -9.359375 -2.359375 -9.359375 -2.359375 C -9.359375 -2.359375 -7.34375 -2.359375 -7.34375 -2.359375 C -7.34375 -2.359375 -7.34375 -3.5625 -7.34375 -3.5625 C -7.34375 -3.5625 -6.390625 -3.5625 -6.390625 -3.5625 C -6.390625 -3.5625 -6.390625 -2.359375 -6.390625 -2.359375 C -6.390625 -2.359375 -1.578125 -2.359375 -1.578125 -2.359375 C -1.0625 -2.359375 -0.921875 -2.484375 -0.921875 -3 C -0.921875 -3.21875 -0.9375 -3.40625 -0.984375 -3.5625 C -0.984375 -3.5625 0 -3.5625 0 -3.5625 Z M 0 -3.5625 "/>
</g>
<g id="glyph-5-0-9e9176d7">
<path d="M -0.03125 -7.484375 C 0.0625 -7.109375 0.09375 -6.9375 0.09375 -6.6875 C 0.09375 -6.125 -0.3125 -5.609375 -0.875 -5.484375 C -0.1875 -4.84375 0.203125 -3.9375 0.203125 -3 C 0.203125 -1.515625 -0.578125 -0.59375 -1.90625 -0.59375 C -2.796875 -0.59375 -3.453125 -1.015625 -3.8125 -1.875 C -3.984375 -2.328125 -4.046875 -2.578125 -4.25 -4.234375 C -4.375 -5.15625 -4.578125 -5.453125 -5.0625 -5.453125 C -5.0625 -5.453125 -5.375 -5.453125 -5.375 -5.453125 C -6.078125 -5.453125 -6.46875 -4.859375 -6.46875 -3.8125 C -6.46875 -2.71875 -6.0625 -2.1875 -5.171875 -2.09375 C -5.171875 -2.09375 -5.171875 -0.90625 -5.171875 -0.90625 C -6.859375 -0.984375 -7.546875 -2.078125 -7.546875 -3.84375 C -7.546875 -5.65625 -6.84375 -6.609375 -5.546875 -6.609375 C -5.546875 -6.609375 -1.453125 -6.609375 -1.453125 -6.609375 C -1.09375 -6.609375 -0.875 -6.828125 -0.875 -7.234375 C -0.875 -7.3125 -0.875 -7.359375 -0.90625 -7.484375 C -0.90625 -7.484375 -0.03125 -7.484375 -0.03125 -7.484375 Z M -2.53125 -5.453125 C -2.53125 -5.453125 -3.625 -5.453125 -3.625 -5.453125 C -3.4375 -5.046875 -3.390625 -4.796875 -3.21875 -3.5625 C -3.03125 -2.328125 -2.703125 -1.8125 -1.9375 -1.8125 C -1.140625 -1.8125 -0.8125 -2.34375 -0.8125 -3.25 C -0.8125 -4.375 -1.484375 -5.453125 -2.53125 -5.453125 Z M -2.53125 -5.453125 "/>
</g>
<g id="glyph-5-1-9e9176d7">
<path d="M -3.609375 -7.140625 C -1.203125 -7.140625 0.203125 -5.875 0.203125 -3.828125 C 0.203125 -1.734375 -1.203125 -0.5 -3.671875 -0.5 C -6.125 -0.5 -7.546875 -1.75 -7.546875 -3.8125 C -7.546875 -5.921875 -6.140625 -7.140625 -3.609375 -7.140625 Z M -3.625 -5.921875 C -5.453125 -5.921875 -6.46875 -5.140625 -6.46875 -3.828125 C -6.46875 -2.515625 -5.4375 -1.71875 -3.671875 -1.71875 C -1.890625 -1.71875 -0.875 -2.515625 -0.875 -3.828125 C -0.875 -5.109375 -1.90625 -5.921875 -3.625 -5.921875 Z M -3.625 -5.921875 "/>
</g>
<g id="glyph-6-0-9e9176d7">
<path d="M 0 -2.109375 C 0 -2.109375 0 -0.953125 0 -0.953125 C 0 -0.953125 -10.203125 -0.953125 -10.203125 -0.953125 C -10.203125 -0.953125 -10.203125 -2.109375 -10.203125 -2.109375 C -10.203125 -2.109375 0 -2.109375 0 -2.109375 Z M 0 -2.109375 "/>
</g>
<g id="glyph-6-1-9e9176d7">
<path d="M -6.3125 -4.5 C -6.28125 -2.6875 -5.453125 -2.140625 -3.8125 -2.140625 C -3.8125 -2.140625 0 -2.140625 0 -2.140625 C 0 -2.140625 0 -0.984375 0 -0.984375 C 0 -0.984375 -7.34375 -0.984375 -7.34375 -0.984375 C -7.34375 -0.984375 -7.34375 -2.046875 -7.34375 -2.046875 C -7.34375 -2.046875 -6 -2.046875 -6 -2.046875 C -7.09375 -2.71875 -7.546875 -3.296875 -7.546875 -4.046875 C -7.546875 -4.203125 -7.53125 -4.296875 -7.5 -4.5 C -7.5 -4.5 -6.3125 -4.5 -6.3125 -4.5 Z M -6.3125 -4.5 "/>
</g>
<g id="glyph-6-2-9e9176d7">
<path d="M 0 -2.140625 C 0 -2.140625 0 -0.984375 0 -0.984375 C 0 -0.984375 -7.34375 -0.984375 -7.34375 -0.984375 C -7.34375 -0.984375 -7.34375 -2.140625 -7.34375 -2.140625 C -7.34375 -2.140625 0 -2.140625 0 -2.140625 Z M -8.4375 -2.296875 C -8.4375 -2.296875 -8.4375 -0.84375 -8.4375 -0.84375 C -8.4375 -0.84375 -9.890625 -0.84375 -9.890625 -0.84375 C -9.890625 -0.84375 -9.890625 -2.296875 -9.890625 -2.296875 C -9.890625 -2.296875 -8.4375 -2.296875 -8.4375 -2.296875 Z M -8.4375 -2.296875 "/>
</g>
<g id="glyph-7-0-9e9176d7">
<path d="M -6.3125 -4.5 C -6.28125 -2.6875 -5.453125 -2.140625 -3.8125 -2.140625 C -3.8125 -2.140625 0 -2.140625 0 -2.140625 C 0 -2.140625 0 -0.984375 0 -0.984375 C 0 -0.984375 -7.34375 -0.984375 -7.34375 -0.984375 C -7.34375 -0.984375 -7.34375 -2.046875 -7.34375 -2.046875 C -7.34375 -2.046875 -6 -2.046875 -6 -2.046875 C -7.09375 -2.71875 -7.546875 -3.296875 -7.546875 -4.046875 C -7.546875 -4.203125 -7.53125 -4.296875 -7.5 -4.5 C -7.5 -4.5 -6.3125 -4.5 -6.3125 -4.5 Z M -6.3125 -4.5 "/>
</g>
<g id="glyph-8-0-9e9176d7">
<path d="M 0 -6.8125 C 0 -6.8125 0 -5.65625 0 -5.65625 C 0 -5.65625 -5.078125 -5.65625 -5.078125 -5.65625 C -5.96875 -5.65625 -6.53125 -5.0625 -6.53125 -4.140625 C -6.53125 -2.953125 -5.546875 -2.140625 -4.046875 -2.140625 C -4.046875 -2.140625 0 -2.140625 0 -2.140625 C 0 -2.140625 0 -0.984375 0 -0.984375 C 0 -0.984375 -7.34375 -0.984375 -7.34375 -0.984375 C -7.34375 -0.984375 -7.34375 -2.0625 -7.34375 -2.0625 C -7.34375 -2.0625 -6.109375 -2.0625 -6.109375 -2.0625 C -7.125 -2.703125 -7.546875 -3.40625 -7.546875 -4.5 C -7.546875 -5.90625 -6.765625 -6.8125 -5.546875 -6.8125 C -5.546875 -6.8125 0 -6.8125 0 -6.8125 Z M 0 -6.8125 "/>
</g>
<g id="glyph-9-0-9e9176d7">
<path d="M 0 -6.9375 C 0 -6.9375 0 -5.890625 0 -5.890625 C 0 -5.890625 -1.078125 -5.890625 -1.078125 -5.890625 C -0.171875 -5.265625 0.203125 -4.5625 0.203125 -3.5625 C 0.203125 -1.578125 -1.265625 -0.359375 -3.734375 -0.359375 C -6.078125 -0.359375 -7.546875 -1.609375 -7.546875 -3.515625 C -7.546875 -4.5 -7.15625 -5.28125 -6.40625 -5.765625 C -6.40625 -5.765625 -10.203125 -5.765625 -10.203125 -5.765625 C -10.203125 -5.765625 -10.203125 -6.9375 -10.203125 -6.9375 C -10.203125 -6.9375 0 -6.9375 0 -6.9375 Z M -3.640625 -5.765625 C -5.328125 -5.765625 -6.453125 -4.96875 -6.453125 -3.703125 C -6.453125 -2.4375 -5.375 -1.578125 -3.671875 -1.578125 C -1.953125 -1.578125 -0.875 -2.4375 -0.875 -3.71875 C -0.875 -4.953125 -1.953125 -5.765625 -3.640625 -5.765625 Z M -3.640625 -5.765625 "/>
</g>
<g id="glyph-9-1-9e9176d7">
<path d="M 0 -6.625 C 0 -6.625 0 -5.265625 0 -5.265625 C 0 -5.265625 -2.8125 -3.4375 -2.8125 -3.4375 C -2.8125 -3.4375 0 -1.5625 0 -1.5625 C 0 -1.5625 0 -0.234375 0 -0.234375 C 0 -0.234375 -3.734375 -2.828125 -3.734375 -2.828125 C -3.734375 -2.828125 -7.34375 -0.375 -7.34375 -0.375 C -7.34375 -0.375 -7.34375 -1.703125 -7.34375 -1.703125 C -7.34375 -1.703125 -4.671875 -3.46875 -4.671875 -3.46875 C -4.671875 -3.46875 -7.34375 -5.234375 -7.34375 -5.234375 C -7.34375 -5.234375 -7.34375 -6.546875 -7.34375 -6.546875 C -7.34375 -6.546875 -3.796875 -4.09375 -3.796875 -4.09375 C -3.796875 -4.09375 0 -6.625 0 -6.625 Z M 0 -6.625 "/>
</g>
<g id="glyph-9-2-9e9176d7">
<path d="M -2.796875 -8.6875 C -0.984375 -8.6875 0.25 -7.296875 0.25 -4.703125 C 0.25 -2.296875 -0.90625 -0.671875 -3.3125 -0.671875 C -3.3125 -0.671875 -3.3125 -1.90625 -3.3125 -1.90625 C -1.859375 -1.90625 -0.890625 -2.859375 -0.890625 -4.78125 C -0.890625 -6.546875 -1.546875 -7.390625 -2.671875 -7.390625 C -3.46875 -7.390625 -3.984375 -6.796875 -4.328125 -5.515625 C -4.328125 -5.515625 -5 -2.984375 -5 -2.984375 C -5.34375 -1.640625 -6.125 -0.984375 -7.375 -0.984375 C -9.21875 -0.984375 -10.453125 -2.359375 -10.453125 -4.609375 C -10.453125 -6.953125 -9.296875 -8.34375 -7.296875 -8.34375 C -7.296875 -8.34375 -7.296875 -7.109375 -7.296875 -7.109375 C -8.625 -7.109375 -9.359375 -6.1875 -9.359375 -4.5625 C -9.359375 -3.1875 -8.59375 -2.28125 -7.5625 -2.28125 C -6.78125 -2.28125 -6.375 -2.734375 -6.046875 -3.96875 C -6.046875 -3.96875 -5.359375 -6.53125 -5.359375 -6.53125 C -4.984375 -7.90625 -4.0625 -8.6875 -2.796875 -8.6875 Z M -2.796875 -8.6875 "/>
</g>
<g id="glyph-10-0-9e9176d7">
<path d="M -3.328125 -7.1875 C -3.328125 -7.1875 -3.328125 -1.78125 -3.328125 -1.78125 C -1.65625 -1.8125 -0.875 -2.71875 -0.875 -3.9375 C -0.875 -4.875 -1.265625 -5.53125 -2.21875 -5.859375 C -2.21875 -5.859375 -2.21875 -7.03125 -2.21875 -7.03125 C -0.734375 -6.734375 0.203125 -5.578125 0.203125 -3.890625 C 0.203125 -1.828125 -1.21875 -0.5625 -3.625 -0.5625 C -6.03125 -0.5625 -7.546875 -1.875 -7.546875 -3.921875 C -7.546875 -5.296875 -6.8125 -6.40625 -5.609375 -6.890625 C -5.0625 -7.09375 -4.390625 -7.1875 -3.328125 -7.1875 Z M -4.375 -5.9375 C -5.515625 -5.9375 -6.46875 -5.046875 -6.46875 -3.90625 C -6.46875 -2.734375 -5.59375 -1.90625 -4.28125 -1.8125 C -4.28125 -1.8125 -4.28125 -5.921875 -4.28125 -5.921875 C -4.3125 -5.9375 -4.375 -5.9375 -4.375 -5.9375 Z M -4.375 -5.9375 "/>
</g>
<g id="glyph-10-1-9e9176d7">
</g>
<g id="glyph-11-0-9e9176d7">
<path d="M 2.96875 -4.078125 C 2.96875 -4.078125 2.96875 -3.296875 2.96875 -3.296875 C 1.140625 -1.90625 -1.40625 -1.015625 -3.625 -1.015625 C -5.828125 -1.015625 -8.375 -1.90625 -10.203125 -3.296875 C -10.203125 -3.296875 -10.203125 -4.078125 -10.203125 -4.078125 C -8.21875 -2.84375 -5.859375 -2.15625 -3.625 -2.15625 C -1.390625 -2.15625 0.96875 -2.84375 2.96875 -4.078125 Z M 2.96875 -4.078125 "/>
</g>
<g id="glyph-11-1-9e9176d7">
<path d="M -3.609375 -3.578125 C -1.40625 -3.578125 1.140625 -2.703125 2.96875 -1.296875 C 2.96875 -1.296875 2.96875 -0.53125 2.96875 -0.53125 C 0.984375 -1.765625 -1.390625 -2.453125 -3.609375 -2.453125 C -5.859375 -2.453125 -8.203125 -1.765625 -10.203125 -0.53125 C -10.203125 -0.53125 -10.203125 -1.296875 -10.203125 -1.296875 C -8.375 -2.703125 -5.828125 -3.578125 -3.609375 -3.578125 Z M -3.609375 -3.578125 "/>
</g>
<g id="glyph-12-0-9e9176d7">
<path d="M -5.5 -1.609375 L -4.296875 -1.609375 L -4.296875 -3.25 L -3.75 -3.25 L -3.75 -1.609375 L -1.421875 -1.609375 C -1.066406 -1.609375 -0.835938 -1.660156 -0.734375 -1.765625 C -0.640625 -1.878906 -0.59375 -2.101562 -0.59375 -2.4375 L -0.59375 -3.25 L 0 -3.25 L 0 -2.4375 C 0 -1.820312 -0.101562 -1.398438 -0.3125 -1.171875 C -0.507812 -0.941406 -0.878906 -0.828125 -1.421875 -0.828125 L -3.75 -0.828125 L -3.75 -0.234375 L -4.296875 -0.234375 L -4.296875 -0.828125 L -5.5 -0.828125 Z M -5.5 -1.609375 "/>
</g>
<g id="glyph-13-0-9e9176d7">
<path d="M 8.859375 -7.046875 C 8.859375 -4.96875 7.65625 -3.640625 5.78125 -3.640625 C 5.78125 -3.640625 3.15625 -3.640625 3.15625 -3.640625 C 3.15625 -3.640625 3.15625 0 3.15625 0 C 3.15625 0 1.0625 0 1.0625 0 C 1.0625 0 1.0625 -10.203125 1.0625 -10.203125 C 1.0625 -10.203125 5.578125 -10.203125 5.578125 -10.203125 C 7.703125 -10.203125 8.859375 -9.09375 8.859375 -7.046875 Z M 6.765625 -6.921875 C 6.765625 -7.96875 6.25 -8.453125 5.125 -8.453125 C 5.125 -8.453125 3.15625 -8.453125 3.15625 -8.453125 C 3.15625 -8.453125 3.15625 -5.390625 3.15625 -5.390625 C 3.15625 -5.390625 5.125 -5.390625 5.125 -5.390625 C 6.25 -5.390625 6.765625 -5.875 6.765625 -6.921875 Z M 6.765625 -6.921875 "/>
</g>
<g id="glyph-13-1-9e9176d7">
<path d="M 7.34375 0 C 7.34375 0 5.203125 0 5.203125 0 C 5.03125 -0.21875 4.984375 -0.5625 4.984375 -0.953125 C 4.296875 -0.234375 3.53125 0.125 2.6875 0.125 C 1.421875 0.125 0.390625 -0.578125 0.390625 -2.046875 C 0.390625 -3.421875 1.125 -4.0625 2.625 -4.328125 C 2.625 -4.328125 3.40625 -4.46875 3.40625 -4.46875 C 4.375 -4.640625 4.96875 -4.546875 4.96875 -5.34375 C 4.96875 -5.859375 4.59375 -6.109375 3.84375 -6.109375 C 2.875 -6.109375 2.546875 -5.859375 2.453125 -5.0625 C 2.453125 -5.0625 0.5625 -5.0625 0.5625 -5.0625 C 0.6875 -6.8125 1.75 -7.6875 3.796875 -7.6875 C 5.84375 -7.6875 6.890625 -6.90625 6.890625 -5.359375 C 6.890625 -5.359375 6.890625 -1.15625 6.890625 -1.15625 C 6.890625 -0.765625 6.984375 -0.5625 7.34375 -0.234375 C 7.34375 -0.234375 7.34375 0 7.34375 0 Z M 4.96875 -3.234375 C 4.96875 -3.234375 4.96875 -3.5625 4.96875 -3.5625 C 4.75 -3.453125 4.65625 -3.4375 4.140625 -3.328125 C 4.140625 -3.328125 3.46875 -3.203125 3.46875 -3.203125 C 2.65625 -3.046875 2.359375 -2.84375 2.359375 -2.265625 C 2.359375 -1.703125 2.765625 -1.453125 3.421875 -1.453125 C 4.40625 -1.453125 4.96875 -2.09375 4.96875 -3.234375 Z M 4.96875 -3.234375 "/>
</g>
<g id="glyph-13-2-9e9176d7">
<path d="M 5.1875 -5.6875 C 4.90625 -5.71875 4.78125 -5.734375 4.5625 -5.734375 C 3.421875 -5.734375 2.84375 -5.171875 2.84375 -4.015625 C 2.84375 -4.015625 2.84375 0 2.84375 0 C 2.84375 0 0.875 0 0.875 0 C 0.875 0 0.875 -7.5625 0.875 -7.5625 C 0.875 -7.5625 2.84375 -7.5625 2.84375 -7.5625 C 2.84375 -7.5625 2.84375 -6.078125 2.84375 -6.078125 C 3.265625 -7.09375 4.046875 -7.6875 4.9375 -7.6875 C 5 -7.6875 5.0625 -7.6875 5.1875 -7.671875 C 5.1875 -7.671875 5.1875 -5.6875 5.1875 -5.6875 Z M 5.1875 -5.6875 "/>
</g>
<g id="glyph-13-3-9e9176d7">
<path d="M 11.53125 0 C 11.53125 0 9.578125 0 9.578125 0 C 9.578125 0 9.578125 -5.046875 9.578125 -5.046875 C 9.578125 -5.640625 9.171875 -6.015625 8.515625 -6.015625 C 7.671875 -6.015625 7.171875 -5.453125 7.171875 -4.53125 C 7.171875 -4.53125 7.171875 0 7.171875 0 C 7.171875 0 5.203125 0 5.203125 0 C 5.203125 0 5.203125 -5.046875 5.203125 -5.046875 C 5.203125 -5.640625 4.796875 -6.015625 4.140625 -6.015625 C 3.296875 -6.015625 2.796875 -5.453125 2.796875 -4.53125 C 2.796875 -4.53125 2.796875 0 2.796875 0 C 2.796875 0 0.84375 0 0.84375 0 C 0.84375 0 0.84375 -7.5625 0.84375 -7.5625 C 0.84375 -7.5625 2.78125 -7.5625 2.78125 -7.5625 C 2.78125 -7.5625 2.78125 -6.625 2.78125 -6.625 C 3.4375 -7.390625 3.984375 -7.6875 4.859375 -7.6875 C 5.796875 -7.6875 6.546875 -7.28125 6.921875 -6.5625 C 7.5 -7.34375 8.171875 -7.6875 9.125 -7.6875 C 10.640625 -7.6875 11.53125 -6.8125 11.53125 -5.34375 C 11.53125 -5.34375 11.53125 0 11.53125 0 Z M 11.53125 0 "/>
</g>
<g id="glyph-13-4-9e9176d7">
<path d="M 7.34375 -3.5 C 7.34375 -3.5 7.34375 -3.265625 7.34375 -3.265625 C 7.34375 -3.265625 2.265625 -3.265625 2.265625 -3.265625 C 2.328125 -1.796875 2.90625 -1.375 3.84375 -1.375 C 4.546875 -1.375 5.171875 -1.578125 5.328125 -2.125 C 5.328125 -2.125 7.265625 -2.125 7.265625 -2.125 C 6.828125 -0.640625 5.453125 0.125 3.765625 0.125 C 1.625 0.125 0.3125 -1.265625 0.3125 -3.6875 C 0.3125 -6.21875 1.640625 -7.6875 3.8125 -7.6875 C 6.03125 -7.6875 7.34375 -6.109375 7.34375 -3.5 Z M 5.3125 -4.5625 C 5.203125 -5.640625 4.625 -6.1875 3.78125 -6.1875 C 2.90625 -6.1875 2.421875 -5.609375 2.296875 -4.5625 C 2.296875 -4.5625 5.3125 -4.5625 5.3125 -4.5625 Z M 5.3125 -4.5625 "/>
</g>
<g id="glyph-13-5-9e9176d7">
<path d="M 4.21875 0 C 3.859375 0.015625 3.515625 0.0625 3.078125 0.0625 C 1.796875 0.0625 1.15625 -0.4375 1.15625 -1.625 C 1.15625 -1.625 1.15625 -6.109375 1.15625 -6.109375 C 1.15625 -6.109375 0.203125 -6.109375 0.203125 -6.109375 C 0.203125 -6.109375 0.203125 -7.40625 0.203125 -7.40625 C 0.203125 -7.40625 1.15625 -7.40625 1.15625 -7.40625 C 1.15625 -7.40625 1.15625 -9.4375 1.15625 -9.4375 C 1.15625 -9.4375 3.125 -9.4375 3.125 -9.4375 C 3.125 -9.4375 3.125 -7.40625 3.125 -7.40625 C 3.125 -7.40625 4.21875 -7.40625 4.21875 -7.40625 C 4.21875 -7.40625 4.21875 -6.109375 4.21875 -6.109375 C 4.21875 -6.109375 3.125 -6.109375 3.125 -6.109375 C 3.125 -6.109375 3.125 -2.15625 3.125 -2.15625 C 3.125 -1.484375 3.25 -1.328125 3.765625 -1.328125 C 3.90625 -1.328125 4.015625 -1.34375 4.21875 -1.375 C 4.21875 -1.375 4.21875 0 4.21875 0 Z M 4.21875 0 "/>
</g>
</g>
<clipPath id="clip-0-9e9176d7">
<path clip-rule="nonzero" d="M 66 17 L 565 17 L 565 516 L 66 516 Z M 66 17 "/>
</clipPath>
</defs>
<rect x="-76.8" y="-57.6" width="921.6" height="691.2" fill="rgb(100%, 100%, 100%)" fill-opacity="1"/>
<path fill-rule="nonzero" fill="rgb(100%, 100%, 100%)" fill-opacity="1" d="M 66 516 L 565 516 L 565 17 L 66 17 Z M 66 516 "/>
<path fill="none" stroke-width="1" stroke-linecap="butt" stroke-linejoin="miter" stroke="rgb(0%, 0%, 0%)" stroke-opacity="0.12" stroke-miterlimit="1.154701" d="M 66 516 L 66 17 "/>
<path fill="none" stroke-width="1" stroke-linecap="butt" stroke-linejoin="miter" stroke="rgb(0%, 0%, 0%)" stroke-opacity="0.12" stroke-miterlimit="1.154701" d="M 315.5 516 L 315.5 17 "/>
<path fill="none" stroke-width="1" stroke-linecap="butt" stroke-linejoin="miter" stroke="rgb(0%, 0%, 0%)" stroke-opacity="0.12" stroke-miterlimit="1.154701" d="M 565 516 L 565 17 "/>
<path fill="none" stroke-width="1" stroke-linecap="butt" stroke-linejoin="miter" stroke="rgb(0%, 0%, 0%)" stroke-opacity="0.12" stroke-miterlimit="1.154701" d="M 66 516 L 565 516 "/>
<path fill="none" stroke-width="1" stroke-linecap="butt" stroke-linejoin="miter" stroke="rgb(0%, 0%, 0%)" stroke-opacity="0.12" stroke-miterlimit="1.154701" d="M 66 266.5 L 565 266.5 "/>
<path fill="none" stroke-width="1" stroke-linecap="butt" stroke-linejoin="miter" stroke="rgb(0%, 0%, 0%)" stroke-opacity="0.12" stroke-miterlimit="1.154701" d="M 66 17 L 565 17 "/>
<g fill="rgb(0%, 0%, 0%)" fill-opacity="1">
<use xlink:href="#glyph-0-0-9e9176d7" x="250.463859" y="556.567998"/>
</g>
<g fill="rgb(0%, 0%, 0%)" fill-opacity="1">
<use xlink:href="#glyph-0-1-9e9176d7" x="259.017861" y="556.567998"/>
</g>
<g fill="rgb(0%, 0%, 0%)" fill-opacity="1">
<use xlink:href="#glyph-0-2-9e9176d7" x="262.125858" y="556.567998"/>
</g>
<g fill="rgb(0%, 0%, 0%)" fill-opacity="1">
<use xlink:href="#glyph-0-3-9e9176d7" x="266.787857" y="556.567998"/>
</g>
<g fill="rgb(0%, 0%, 0%)" fill-opacity="1">
<use xlink:href="#glyph-0-4-9e9176d7" x="273.787858" y="556.567998"/>
</g>
<g fill="rgb(0%, 0%, 0%)" fill-opacity="1">
<use xlink:href="#glyph-0-5-9e9176d7" x="277.67986" y="556.567998"/>
</g>
<g fill="rgb(0%, 0%, 0%)" fill-opacity="1">
<use xlink:href="#glyph-0-6-9e9176d7" x="282.341859" y="556.567998"/>
</g>
<g fill="rgb(0%, 0%, 0%)" fill-opacity="1">
<use xlink:href="#glyph-0-2-9e9176d7" x="290.125859" y="556.567998"/>
</g>
<g fill="rgb(0%, 0%, 0%)" fill-opacity="1">
<use xlink:href="#glyph-0-7-9e9176d7" x="294.787858" y="556.567998"/>
</g>
<g fill="rgb(0%, 0%, 0%)" fill-opacity="1">
<use xlink:href="#glyph-0-8-9e9176d7" x="302.571859" y="556.567998"/>
</g>
<g fill="rgb(0%, 0%, 0%)" fill-opacity="1">
<use xlink:href="#glyph-0-2-9e9176d7" x="310.355859" y="556.567998"/>
</g>
<g fill="rgb(0%, 0%, 0%)" fill-opacity="1">
<use xlink:href="#glyph-0-9-9e9176d7" x="315.017862" y="556.567998"/>
</g>
<g fill="rgb(0%, 0%, 0%)" fill-opacity="1">
<use xlink:href="#glyph-0-1-9e9176d7" x="318.909861" y="556.567998"/>
</g>
<g fill="rgb(0%, 0%, 0%)" fill-opacity="1">
<use xlink:href="#glyph-0-10-9e9176d7" x="322.017862" y="556.567998"/>
</g>
<g fill="rgb(0%, 0%, 0%)" fill-opacity="1">
<use xlink:href="#glyph-0-7-9e9176d7" x="329.801859" y="556.567998"/>
</g>
<g fill="rgb(0%, 0%, 0%)" fill-opacity="1">
<use xlink:href="#glyph-0-8-9e9176d7" x="337.585856" y="556.567998"/>
</g>
<g fill="rgb(0%, 0%, 0%)" fill-opacity="1">
<use xlink:href="#glyph-0-11-9e9176d7" x="345.369853" y="556.567998"/>
</g>
<g fill="rgb(0%, 0%, 0%)" fill-opacity="1">
<use xlink:href="#glyph-0-9-9e9176d7" x="352.369853" y="556.567998"/>
</g>
<g fill="rgb(0%, 0%, 0%)" fill-opacity="1">
<use xlink:href="#glyph-0-12-9e9176d7" x="356.261851" y="556.567998"/>
</g>
<g fill="rgb(0%, 0%, 0%)" fill-opacity="1">
<use xlink:href="#glyph-0-13-9e9176d7" x="360.923854" y="556.567998"/>
</g>
<g fill="rgb(0%, 0%, 0%)" fill-opacity="1">
<use xlink:href="#glyph-1-0-9e9176d7" x="370.261852" y="556.567998"/>
</g>
<g fill="rgb(0%, 0%, 0%)" fill-opacity="1">
<use xlink:href="#glyph-0-14-9e9176d7" x="375.874157" y="556.567998"/>
</g>
<g fill="rgb(0%, 0%, 0%)" fill-opacity="1">
<use xlink:href="#glyph-0-15-9e9176d7" x="56.270002" y="537.258"/>
</g>
<g fill="rgb(0%, 0%, 0%)" fill-opacity="1">
<use xlink:href="#glyph-0-16-9e9176d7" x="64.054002" y="537.258"/>
</g>
<g fill="rgb(0%, 0%, 0%)" fill-opacity="1">
<use xlink:href="#glyph-0-15-9e9176d7" x="67.946002" y="537.258"/>
</g>
<g fill="rgb(0%, 0%, 0%)" fill-opacity="1">
<use xlink:href="#glyph-0-15-9e9176d7" x="305.77001" y="537.258"/>
</g>
<g fill="rgb(0%, 0%, 0%)" fill-opacity="1">
<use xlink:href="#glyph-0-16-9e9176d7" x="313.55401" y="537.258"/>
</g>
<g fill="rgb(0%, 0%, 0%)" fill-opacity="1">
<use xlink:href="#glyph-0-17-9e9176d7" x="317.44601" y="537.258"/>
</g>
<g fill="rgb(0%, 0%, 0%)" fill-opacity="1">
<use xlink:href="#glyph-0-18-9e9176d7" x="555.270017" y="537.258"/>
</g>
<g fill="rgb(0%, 0%, 0%)" fill-opacity="1">
<use xlink:href="#glyph-0-16-9e9176d7" x="563.054017" y="537.258"/>
</g>
<g fill="rgb(0%, 0%, 0%)" fill-opacity="1">
<use xlink:href="#glyph-0-15-9e9176d7" x="566.946017" y="537.258"/>
</g>
<g fill="rgb(0%, 0%, 0%)" fill-opacity="1">
<use xlink:href="#glyph-2-0-9e9176d7" x="28.23824" y="332.747435"/>
</g>
<g fill="rgb(0%, 0%, 0%)" fill-opacity="1">
<use xlink:href="#glyph-3-0-9e9176d7" x="28.238241" y="324.193438"/>
</g>
<g fill="rgb(0%, 0%, 0%)" fill-opacity="1">
<use xlink:href="#glyph-4-0-9e9176d7" x="28.238241" y="316.409441"/>
</g>
<g fill="rgb(0%, 0%, 0%)" fill-opacity="1">
<use xlink:href="#glyph-5-0-9e9176d7" x="28.238241" y="312.517439"/>
</g>
<g fill="rgb(0%, 0%, 0%)" fill-opacity="1">
<use xlink:href="#glyph-6-0-9e9176d7" x="28.238242" y="304.733438"/>
</g>
<g fill="rgb(0%, 0%, 0%)" fill-opacity="1">
<use xlink:href="#glyph-2-1-9e9176d7" x="28.238242" y="301.625437"/>
</g>
<g fill="rgb(0%, 0%, 0%)" fill-opacity="1">
<use xlink:href="#glyph-5-1-9e9176d7" x="28.238242" y="296.96344"/>
</g>
<g fill="rgb(0%, 0%, 0%)" fill-opacity="1">
<use xlink:href="#glyph-6-1-9e9176d7" x="28.238243" y="289.179439"/>
</g>
<g fill="rgb(0%, 0%, 0%)" fill-opacity="1">
<use xlink:href="#glyph-2-2-9e9176d7" x="28.238243" y="284.517441"/>
</g>
<g fill="rgb(0%, 0%, 0%)" fill-opacity="1">
<use xlink:href="#glyph-2-3-9e9176d7" x="28.238243" y="276.733441"/>
</g>
<g fill="rgb(0%, 0%, 0%)" fill-opacity="1">
<use xlink:href="#glyph-7-0-9e9176d7" x="28.238244" y="268.949441"/>
</g>
<g fill="rgb(0%, 0%, 0%)" fill-opacity="1">
<use xlink:href="#glyph-2-4-9e9176d7" x="28.238244" y="264.287443"/>
</g>
<g fill="rgb(0%, 0%, 0%)" fill-opacity="1">
<use xlink:href="#glyph-6-2-9e9176d7" x="28.238245" y="260.395445"/>
</g>
<g fill="rgb(0%, 0%, 0%)" fill-opacity="1">
<use xlink:href="#glyph-8-0-9e9176d7" x="28.238245" y="257.287444"/>
</g>
<g fill="rgb(0%, 0%, 0%)" fill-opacity="1">
<use xlink:href="#glyph-9-0-9e9176d7" x="28.238245" y="249.503448"/>
</g>
<g fill="rgb(0%, 0%, 0%)" fill-opacity="1">
<use xlink:href="#glyph-10-0-9e9176d7" x="28.238246" y="241.719451"/>
</g>
<g fill="rgb(0%, 0%, 0%)" fill-opacity="1">
<use xlink:href="#glyph-9-1-9e9176d7" x="28.238246" y="233.935457"/>
</g>
<g fill="rgb(0%, 0%, 0%)" fill-opacity="1">
<use xlink:href="#glyph-10-1-9e9176d7" x="28.238247" y="226.935457"/>
</g>
<g fill="rgb(0%, 0%, 0%)" fill-opacity="1">
<use xlink:href="#glyph-11-0-9e9176d7" x="28.238247" y="223.043458"/>
</g>
<g fill="rgb(0%, 0%, 0%)" fill-opacity="1">
<use xlink:href="#glyph-9-2-9e9176d7" x="28.238247" y="218.381456"/>
</g>
<g fill="rgb(0%, 0%, 0%)" fill-opacity="1">
<use xlink:href="#glyph-12-0-9e9176d7" x="28.238248" y="209.043458"/>
</g>
<g fill="rgb(0%, 0%, 0%)" fill-opacity="1">
<use xlink:href="#glyph-11-1-9e9176d7" x="28.238248" y="204.914552"/>
</g>
<g fill="rgb(0%, 0%, 0%)" fill-opacity="1">
<use xlink:href="#glyph-0-15-9e9176d7" x="36.540002" y="521.103"/>
</g>
<g fill="rgb(0%, 0%, 0%)" fill-opacity="1">
<use xlink:href="#glyph-0-16-9e9176d7" x="44.324003" y="521.103"/>
</g>
<g fill="rgb(0%, 0%, 0%)" fill-opacity="1">
<use xlink:href="#glyph-0-15-9e9176d7" x="48.216002" y="521.103"/>
</g>
<g fill="rgb(0%, 0%, 0%)" fill-opacity="1">
<use xlink:href="#glyph-0-15-9e9176d7" x="36.540002" y="271.602998"/>
</g>
<g fill="rgb(0%, 0%, 0%)" fill-opacity="1">
<use xlink:href="#glyph-0-16-9e9176d7" x="44.324003" y="271.602998"/>
</g>
<g fill="rgb(0%, 0%, 0%)" fill-opacity="1">
<use xlink:href="#glyph-0-17-9e9176d7" x="48.216002" y="271.602998"/>
</g>
<g fill="rgb(0%, 0%, 0%)" fill-opacity="1">
<use xlink:href="#glyph-0-18-9e9176d7" x="36.540002" y="22.102996"/>
</g>
<g fill="rgb(0%, 0%, 0%)" fill-opacity="1">
<use xlink:href="#glyph-0-16-9e9176d7" x="44.324003" y="22.102996"/>
</g>
<g fill="rgb(0%, 0%, 0%)" fill-opacity="1">
<use xlink:href="#glyph-0-15-9e9176d7" x="48.216002" y="22.102996"/>
</g>
<path fill-rule="nonzero" fill="rgb(0%, 44.705883%, 69.803923%)" fill-opacity="1" d="M 471.300781 93.410156 C 471.300781 89.179688 464.953125 89.179688 464.953125 93.410156 C 464.953125 97.640625 471.300781 97.640625 471.300781 93.410156 Z M 471.300781 93.410156 "/>
<path fill-rule="nonzero" fill="rgb(90.196079%, 62.352943%, 0%)" fill-opacity="1" d="M 117.957031 455.335938 C 117.957031 451.105469 111.613281 451.105469 111.613281 455.335938 C 111.613281 459.5625 117.957031 459.5625 117.957031 455.335938 Z M 117.957031 455.335938 "/>
<path fill-rule="nonzero" fill="rgb(0%, 61.960787%, 45.09804%)" fill-opacity="1" d="M 98.246094 478.996094 C 98.246094 474.765625 91.898438 474.765625 91.898438 478.996094 C 91.898438 483.226562 98.246094 483.226562 98.246094 478.996094 Z M 98.246094 478.996094 "/>
<g clip-path="url(#clip-0-9e9176d7)">
<path fill="none" stroke-width="1.5" stroke-linecap="butt" stroke-linejoin="miter" stroke="rgb(0%, 0%, 0%)" stroke-opacity="1" stroke-miterlimit="1.154701" d="M 66 516 L 565 17 "/>
</g>
<path fill-rule="nonzero" fill="rgb(100%, 100%, 100%)" fill-opacity="1" stroke-width="1" stroke-linecap="butt" stroke-linejoin="miter" stroke="rgb(0%, 0%, 0%)" stroke-opacity="1" stroke-miterlimit="2" d="M 583 318 L 752 318 L 752 215 L 583 215 Z M 583 318 "/>
<path fill="none" stroke-width="1" stroke-linecap="butt" stroke-linejoin="miter" stroke="rgb(0%, 0%, 0%)" stroke-opacity="1" stroke-miterlimit="1.154701" d="M 66 516.5 L 66 521.5 "/>
<path fill="none" stroke-width="1" stroke-linecap="butt" stroke-linejoin="miter" stroke="rgb(0%, 0%, 0%)" stroke-opacity="1" stroke-miterlimit="1.154701" d="M 315.5 516.5 L 315.5 521.5 "/>
<path fill="none" stroke-width="1" stroke-linecap="butt" stroke-linejoin="miter" stroke="rgb(0%, 0%, 0%)" stroke-opacity="1" stroke-miterlimit="1.154701" d="M 565 516.5 L 565 521.5 "/>
<path fill="none" stroke-width="1" stroke-linecap="butt" stroke-linejoin="miter" stroke="rgb(0%, 0%, 0%)" stroke-opacity="1" stroke-miterlimit="1.154701" d="M 65.5 516 L 60.5 516 "/>
<path fill="none" stroke-width="1" stroke-linecap="butt" stroke-linejoin="miter" stroke="rgb(0%, 0%, 0%)" stroke-opacity="1" stroke-miterlimit="1.154701" d="M 65.5 266.5 L 60.5 266.5 "/>
<path fill="none" stroke-width="1" stroke-linecap="butt" stroke-linejoin="miter" stroke="rgb(0%, 0%, 0%)" stroke-opacity="1" stroke-miterlimit="1.154701" d="M 65.5 17 L 60.5 17 "/>
<path fill-rule="nonzero" fill="rgb(0%, 44.705883%, 69.803923%)" fill-opacity="1" d="M 602.042969 255.65625 C 602.042969 251.425781 595.699219 251.425781 595.699219 255.65625 C 595.699219 259.886719 602.042969 259.886719 602.042969 255.65625 Z M 602.042969 255.65625 "/>
<path fill-rule="nonzero" fill="rgb(90.196079%, 62.352943%, 0%)" fill-opacity="1" d="M 602.042969 278.65625 C 602.042969 274.425781 595.699219 274.425781 595.699219 278.65625 C 595.699219 282.886719 602.042969 282.886719 602.042969 278.65625 Z M 602.042969 278.65625 "/>
<path fill-rule="nonzero" fill="rgb(0%, 61.960787%, 45.09804%)" fill-opacity="1" d="M 602.042969 301.65625 C 602.042969 297.425781 595.699219 297.425781 595.699219 301.65625 C 595.699219 305.886719 602.042969 305.886719 602.042969 301.65625 Z M 602.042969 301.65625 "/>
<g fill="rgb(0%, 0%, 0%)" fill-opacity="1">
<use xlink:href="#glyph-13-0-9e9176d7" x="633.26308" y="234.602998"/>
</g>
<g fill="rgb(0%, 0%, 0%)" fill-opacity="1">
<use xlink:href="#glyph-13-1-9e9176d7" x="642.601082" y="234.602998"/>
</g>
<g fill="rgb(0%, 0%, 0%)" fill-opacity="1">
<use xlink:href="#glyph-13-2-9e9176d7" x="650.385081" y="234.602998"/>
</g>
<g fill="rgb(0%, 0%, 0%)" fill-opacity="1">
<use xlink:href="#glyph-13-1-9e9176d7" x="655.831082" y="234.602998"/>
</g>
<g fill="rgb(0%, 0%, 0%)" fill-opacity="1">
<use xlink:href="#glyph-13-3-9e9176d7" x="663.615082" y="234.602998"/>
</g>
<g fill="rgb(0%, 0%, 0%)" fill-opacity="1">
<use xlink:href="#glyph-13-4-9e9176d7" x="676.061082" y="234.602998"/>
</g>
<g fill="rgb(0%, 0%, 0%)" fill-opacity="1">
<use xlink:href="#glyph-13-5-9e9176d7" x="683.845083" y="234.602998"/>
</g>
<g fill="rgb(0%, 0%, 0%)" fill-opacity="1">
<use xlink:href="#glyph-13-4-9e9176d7" x="688.507082" y="234.602998"/>
</g>
<g fill="rgb(0%, 0%, 0%)" fill-opacity="1">
<use xlink:href="#glyph-13-2-9e9176d7" x="696.291082" y="234.602998"/>
</g>
<g fill="rgb(0%, 0%, 0%)" fill-opacity="1">
<use xlink:href="#glyph-0-3-9e9176d7" x="613.871028" y="260.757997"/>
</g>
<g fill="rgb(0%, 0%, 0%)" fill-opacity="1">
<use xlink:href="#glyph-0-8-9e9176d7" x="620.871028" y="260.757997"/>
</g>
<g fill="rgb(0%, 0%, 0%)" fill-opacity="1">
<use xlink:href="#glyph-0-10-9e9176d7" x="628.655029" y="260.757997"/>
</g>
<g fill="rgb(0%, 0%, 0%)" fill-opacity="1">
<use xlink:href="#glyph-0-3-9e9176d7" x="636.43903" y="260.757997"/>
</g>
<g fill="rgb(0%, 0%, 0%)" fill-opacity="1">
<use xlink:href="#glyph-0-1-9e9176d7" x="643.43903" y="260.757997"/>
</g>
<g fill="rgb(0%, 0%, 0%)" fill-opacity="1">
<use xlink:href="#glyph-0-4-9e9176d7" x="646.547032" y="260.757997"/>
</g>
<g fill="rgb(0%, 0%, 0%)" fill-opacity="1">
<use xlink:href="#glyph-0-1-9e9176d7" x="650.43903" y="260.757997"/>
</g>
<g fill="rgb(0%, 0%, 0%)" fill-opacity="1">
<use xlink:href="#glyph-0-19-9e9176d7" x="653.547032" y="260.757997"/>
</g>
<g fill="rgb(0%, 0%, 0%)" fill-opacity="1">
<use xlink:href="#glyph-0-8-9e9176d7" x="660.547032" y="260.757997"/>
</g>
<g fill="rgb(0%, 0%, 0%)" fill-opacity="1">
<use xlink:href="#glyph-0-9-9e9176d7" x="668.331033" y="260.757997"/>
</g>
<g fill="rgb(0%, 0%, 0%)" fill-opacity="1">
<use xlink:href="#glyph-0-20-9e9176d7" x="672.223031" y="260.757997"/>
</g>
<g fill="rgb(0%, 0%, 0%)" fill-opacity="1">
<use xlink:href="#glyph-0-2-9e9176d7" x="676.115029" y="260.757997"/>
</g>
<g fill="rgb(0%, 0%, 0%)" fill-opacity="1">
<use xlink:href="#glyph-0-21-9e9176d7" x="680.777028" y="260.757997"/>
</g>
<g fill="rgb(0%, 0%, 0%)" fill-opacity="1">
<use xlink:href="#glyph-0-22-9e9176d7" x="688.561025" y="260.757997"/>
</g>
<g fill="rgb(0%, 0%, 0%)" fill-opacity="1">
<use xlink:href="#glyph-0-4-9e9176d7" x="695.561025" y="260.757997"/>
</g>
<g fill="rgb(0%, 0%, 0%)" fill-opacity="1">
<use xlink:href="#glyph-0-1-9e9176d7" x="699.453024" y="260.757997"/>
</g>
<g fill="rgb(0%, 0%, 0%)" fill-opacity="1">
<use xlink:href="#glyph-0-6-9e9176d7" x="702.561026" y="260.757997"/>
</g>
<g fill="rgb(0%, 0%, 0%)" fill-opacity="1">
<use xlink:href="#glyph-0-10-9e9176d7" x="710.345022" y="260.757997"/>
</g>
<g fill="rgb(0%, 0%, 0%)" fill-opacity="1">
<use xlink:href="#glyph-0-9-9e9176d7" x="718.129019" y="260.757997"/>
</g>
<g fill="rgb(0%, 0%, 0%)" fill-opacity="1">
<use xlink:href="#glyph-0-12-9e9176d7" x="722.021018" y="260.757997"/>
</g>
<g fill="rgb(0%, 0%, 0%)" fill-opacity="1">
<use xlink:href="#glyph-0-4-9e9176d7" x="726.68302" y="260.757997"/>
</g>
<g fill="rgb(0%, 0%, 0%)" fill-opacity="1">
<use xlink:href="#glyph-0-19-9e9176d7" x="730.575019" y="260.757997"/>
</g>
<g fill="rgb(0%, 0%, 0%)" fill-opacity="1">
<use xlink:href="#glyph-0-20-9e9176d7" x="737.575019" y="260.757997"/>
</g>
<g fill="rgb(0%, 0%, 0%)" fill-opacity="1">
<use xlink:href="#glyph-0-14-9e9176d7" x="741.467017" y="260.757997"/>
</g>
<g fill="rgb(0%, 0%, 0%)" fill-opacity="1">
<use xlink:href="#glyph-0-23-9e9176d7" x="613.871078" y="283.757997"/>
</g>
<g fill="rgb(0%, 0%, 0%)" fill-opacity="1">
<use xlink:href="#glyph-0-2-9e9176d7" x="621.655078" y="283.757997"/>
</g>
<g fill="rgb(0%, 0%, 0%)" fill-opacity="1">
<use xlink:href="#glyph-0-6-9e9176d7" x="626.317077" y="283.757997"/>
</g>
<g fill="rgb(0%, 0%, 0%)" fill-opacity="1">
<use xlink:href="#glyph-0-24-9e9176d7" x="634.101078" y="283.757997"/>
</g>
<g fill="rgb(0%, 0%, 0%)" fill-opacity="1">
<use xlink:href="#glyph-0-4-9e9176d7" x="644.209078" y="283.757997"/>
</g>
<g fill="rgb(0%, 0%, 0%)" fill-opacity="1">
<use xlink:href="#glyph-0-25-9e9176d7" x="648.101078" y="283.757997"/>
</g>
<g fill="rgb(0%, 0%, 0%)" fill-opacity="1">
<use xlink:href="#glyph-0-9-9e9176d7" x="655.885079" y="283.757997"/>
</g>
<g fill="rgb(0%, 0%, 0%)" fill-opacity="1">
<use xlink:href="#glyph-0-2-9e9176d7" x="659.777077" y="283.757997"/>
</g>
<g fill="rgb(0%, 0%, 0%)" fill-opacity="1">
<use xlink:href="#glyph-0-21-9e9176d7" x="664.439076" y="283.757997"/>
</g>
<g fill="rgb(0%, 0%, 0%)" fill-opacity="1">
<use xlink:href="#glyph-0-4-9e9176d7" x="672.223077" y="283.757997"/>
</g>
<g fill="rgb(0%, 0%, 0%)" fill-opacity="1">
<use xlink:href="#glyph-0-8-9e9176d7" x="676.115075" y="283.757997"/>
</g>
<g fill="rgb(0%, 0%, 0%)" fill-opacity="1">
<use xlink:href="#glyph-0-9-9e9176d7" x="683.899072" y="283.757997"/>
</g>
<g fill="rgb(0%, 0%, 0%)" fill-opacity="1">
<use xlink:href="#glyph-0-12-9e9176d7" x="687.79107" y="283.757997"/>
</g>
<g fill="rgb(0%, 0%, 0%)" fill-opacity="1">
<use xlink:href="#glyph-0-4-9e9176d7" x="692.453073" y="283.757997"/>
</g>
<g fill="rgb(0%, 0%, 0%)" fill-opacity="1">
<use xlink:href="#glyph-0-19-9e9176d7" x="696.345072" y="283.757997"/>
</g>
<g fill="rgb(0%, 0%, 0%)" fill-opacity="1">
<use xlink:href="#glyph-0-23-9e9176d7" x="703.345072" y="283.757997"/>
</g>
<g fill="rgb(0%, 0%, 0%)" fill-opacity="1">
<use xlink:href="#glyph-0-14-9e9176d7" x="711.129069" y="283.757997"/>
</g>
<g fill="rgb(0%, 0%, 0%)" fill-opacity="1">
<use xlink:href="#glyph-0-7-9e9176d7" x="613.871062" y="306.757997"/>
</g>
<g fill="rgb(0%, 0%, 0%)" fill-opacity="1">
<use xlink:href="#glyph-0-8-9e9176d7" x="621.655063" y="306.757997"/>
</g>
<g fill="rgb(0%, 0%, 0%)" fill-opacity="1">
<use xlink:href="#glyph-0-21-9e9176d7" x="629.439064" y="306.757997"/>
</g>
<g fill="rgb(0%, 0%, 0%)" fill-opacity="1">
<use xlink:href="#glyph-0-4-9e9176d7" x="637.223062" y="306.757997"/>
</g>
<g fill="rgb(0%, 0%, 0%)" fill-opacity="1">
<use xlink:href="#glyph-0-25-9e9176d7" x="641.115063" y="306.757997"/>
</g>
<g fill="rgb(0%, 0%, 0%)" fill-opacity="1">
<use xlink:href="#glyph-0-9-9e9176d7" x="648.899063" y="306.757997"/>
</g>
<g fill="rgb(0%, 0%, 0%)" fill-opacity="1">
<use xlink:href="#glyph-0-2-9e9176d7" x="652.791062" y="306.757997"/>
</g>
<g fill="rgb(0%, 0%, 0%)" fill-opacity="1">
<use xlink:href="#glyph-0-21-9e9176d7" x="657.453061" y="306.757997"/>
</g>
<g fill="rgb(0%, 0%, 0%)" fill-opacity="1">
<use xlink:href="#glyph-0-4-9e9176d7" x="665.237061" y="306.757997"/>
</g>
<g fill="rgb(0%, 0%, 0%)" fill-opacity="1">
<use xlink:href="#glyph-0-8-9e9176d7" x="669.12906" y="306.757997"/>
</g>
<g fill="rgb(0%, 0%, 0%)" fill-opacity="1">
<use xlink:href="#glyph-0-9-9e9176d7" x="676.91306" y="306.757997"/>
</g>
<g fill="rgb(0%, 0%, 0%)" fill-opacity="1">
<use xlink:href="#glyph-0-12-9e9176d7" x="680.805063" y="306.757997"/>
</g>
<g fill="rgb(0%, 0%, 0%)" fill-opacity="1">
<use xlink:href="#glyph-0-4-9e9176d7" x="685.467065" y="306.757997"/>
</g>
<g fill="rgb(0%, 0%, 0%)" fill-opacity="1">
<use xlink:href="#glyph-0-19-9e9176d7" x="689.359064" y="306.757997"/>
</g>
<g fill="rgb(0%, 0%, 0%)" fill-opacity="1">
<use xlink:href="#glyph-0-26-9e9176d7" x="696.359064" y="306.757997"/>
</g>
<g fill="rgb(0%, 0%, 0%)" fill-opacity="1">
<use xlink:href="#glyph-0-14-9e9176d7" x="703.359064" y="306.757997"/>
</g>
<path fill="none" stroke-width="1" stroke-linecap="butt" stroke-linejoin="miter" stroke="rgb(0%, 0%, 0%)" stroke-opacity="1" stroke-miterlimit="1.154701" d="M 65.5 516 L 565.5 516 "/>
<path fill="none" stroke-width="1" stroke-linecap="butt" stroke-linejoin="miter" stroke="rgb(0%, 0%, 0%)" stroke-opacity="1" stroke-miterlimit="1.154701" d="M 66 516.5 L 66 16.5 "/>
<path fill="none" stroke-width="1" stroke-linecap="butt" stroke-linejoin="miter" stroke="rgb(0%, 0%, 0%)" stroke-opacity="1" stroke-miterlimit="1.154701" d="M 65.5 17 L 565.5 17 "/>
<path fill="none" stroke-width="1" stroke-linecap="butt" stroke-linejoin="miter" stroke="rgb(0%, 0%, 0%)" stroke-opacity="1" stroke-miterlimit="1.154701" d="M 565 516.5 L 565 16.5 "/>
</svg>
