<?xml version="1.0" encoding="UTF-8"?>
<svg xmlns="http://www.w3.org/2000/svg" xmlns:xlink="http://www.w3.org/1999/xlink" width="768" height="576" viewBox="0 0 768 576">
<defs>
<g>
<g id="glyph-0-0-5889fd5c">
<path d="M 8.296875 -9.0625 C 8.296875 -9.0625 4.953125 -9.0625 4.953125 -9.0625 C 4.953125 -9.0625 4.953125 0 4.953125 0 C 4.953125 0 3.65625 0 3.65625 0 C 3.65625 0 3.65625 -9.0625 3.65625 -9.0625 C 3.65625 -9.0625 0.296875 -9.0625 0.296875 -9.0625 C 0.296875 -9.0625 0.296875 -10.203125 0.296875 -10.203125 C 0.296875 -10.203125 8.296875 -10.203125 8.296875 -10.203125 C 8.296875 -10.203125 8.296875 -9.0625 8.296875 -9.0625 Z M 8.296875 -9.0625 "/>
</g>
<g id="glyph-0-1-5889fd5c">
<path d="M 2.140625 0 C 2.140625 0 0.984375 0 0.984375 0 C 0.984375 0 0.984375 -7.34375 0.984375 -7.34375 C 0.984375 -7.34375 2.140625 -7.34375 2.140625 -7.34375 C 2.140625 -7.34375 2.140625 0 2.140625 0 Z M 2.296875 -8.4375 C 2.296875 -8.4375 0.84375 -8.4375 0.84375 -8.4375 C 0.84375 -8.4375 0.84375 -9.890625 0.84375 -9.890625 C 0.84375 -9.890625 2.296875 -9.890625 2.296875 -9.890625 C 2.296875 -9.890625 2.296875 -8.4375 2.296875 -8.4375 Z M 2.296875 -8.4375 "/>
</g>
<g id="glyph-0-2-5889fd5c">
<path d="M 10.640625 0 C 10.640625 0 9.484375 0 9.484375 0 C 9.484375 0 9.484375 -5.046875 9.484375 -5.046875 C 9.484375 -5.984375 8.984375 -6.53125 8.140625 -6.53125 C 7.1875 -6.53125 6.390625 -5.671875 6.390625 -4.609375 C 6.390625 -4.609375 6.390625 0 6.390625 0 C 6.390625 0 5.234375 0 5.234375 0 C 5.234375 0 5.234375 -5.046875 5.234375 -5.046875 C 5.234375 -5.984375 4.75 -6.53125 3.875 -6.53125 C 2.921875 -6.53125 2.15625 -5.671875 2.15625 -4.609375 C 2.15625 -4.609375 2.15625 0 2.15625 0 C 2.15625 0 1 0 1 0 C 1 0 1 -7.34375 1 -7.34375 C 1 -7.34375 2.0625 -7.34375 2.0625 -7.34375 C 2.0625 -7.34375 2.0625 -6.296875 2.0625 -6.296875 C 2.6875 -7.1875 3.328125 -7.546875 4.3125 -7.546875 C 5.265625 -7.546875 5.859375 -7.203125 6.28125 -6.421875 C 6.96875 -7.25 7.5625 -7.546875 8.546875 -7.546875 C 9.90625 -7.546875 10.640625 -6.8125 10.640625 -5.5 C 10.640625 -5.5 10.640625 0 10.640625 0 Z M 10.640625 0 "/>
</g>
<g id="glyph-0-3-5889fd5c">
<path d="M 7.1875 -3.328125 C 7.1875 -3.328125 1.78125 -3.328125 1.78125 -3.328125 C 1.8125 -1.65625 2.71875 -0.875 3.9375 -0.875 C 4.875 -0.875 5.53125 -1.265625 5.859375 -2.21875 C 5.859375 -2.21875 7.03125 -2.21875 7.03125 -2.21875 C 6.734375 -0.734375 5.578125 0.203125 3.890625 0.203125 C 1.828125 0.203125 0.5625 -1.21875 0.5625 -3.625 C 0.5625 -6.03125 1.875 -7.546875 3.921875 -7.546875 C 5.296875 -7.546875 6.40625 -6.8125 6.890625 -5.609375 C 7.09375 -5.0625 7.1875 -4.390625 7.1875 -3.328125 Z M 5.9375 -4.375 C 5.9375 -5.515625 5.046875 -6.46875 3.90625 -6.46875 C 2.734375 -6.46875 1.90625 -5.59375 1.8125 -4.28125 C 1.8125 -4.28125 5.921875 -4.28125 5.921875 -4.28125 C 5.9375 -4.3125 5.9375 -4.375 5.9375 -4.375 Z M 5.9375 -4.375 "/>
</g>
<g id="glyph-0-4-5889fd5c">
</g>
<g id="glyph-0-5-5889fd5c">
<path d="M 3.5 2.96875 C 3.5 2.96875 0.890625 2.96875 0.890625 2.96875 C 0.890625 2.96875 0.890625 -10.203125 0.890625 -10.203125 C 0.890625 -10.203125 3.5 -10.203125 3.5 -10.203125 C 3.5 -10.203125 3.5 -9.203125 3.5 -9.203125 C 3.5 -9.203125 2.0625 -9.203125 2.0625 -9.203125 C 2.0625 -9.203125 2.0625 1.953125 2.0625 1.953125 C 2.0625 1.953125 3.5 1.953125 3.5 1.953125 C 3.5 1.953125 3.5 2.96875 3.5 2.96875 Z M 3.5 2.96875 "/>
</g>
<g id="glyph-0-6-5889fd5c">
<path d="M 9.90625 -7.34375 C 9.90625 -7.34375 7.75 0 7.75 0 C 7.75 0 6.421875 0 6.421875 0 C 6.421875 0 4.9375 -5.75 4.9375 -5.75 C 4.9375 -5.75 3.53125 0 3.53125 0 C 3.53125 0 2.21875 0 2.21875 0 C 2.21875 0 0.078125 -7.34375 0.078125 -7.34375 C 0.078125 -7.34375 1.375 -7.34375 1.375 -7.34375 C 1.375 -7.34375 2.875 -1.625 2.875 -1.625 C 2.875 -1.625 4.265625 -7.34375 4.265625 -7.34375 C 4.265625 -7.34375 5.703125 -7.34375 5.703125 -7.34375 C 5.703125 -7.34375 7.140625 -1.625 7.140625 -1.625 C 7.140625 -1.625 8.59375 -7.34375 8.59375 -7.34375 C 8.59375 -7.34375 9.90625 -7.34375 9.90625 -7.34375 Z M 9.90625 -7.34375 "/>
</g>
<g id="glyph-0-7-5889fd5c">
<path d="M 7.03125 0 C 7.03125 0 5.59375 0 5.59375 0 C 5.59375 0 3.109375 -3.96875 3.109375 -3.96875 C 3.109375 -3.96875 1.96875 -2.859375 1.96875 -2.859375 C 1.96875 -2.859375 1.96875 0 1.96875 0 C 1.96875 0 0.8125 0 0.8125 0 C 0.8125 0 0.8125 -10.203125 0.8125 -10.203125 C 0.8125 -10.203125 1.96875 -10.203125 1.96875 -10.203125 C 1.96875 -10.203125 1.96875 -4.234375 1.96875 -4.234375 C 1.96875 -4.234375 5.078125 -7.34375 5.078125 -7.34375 C 5.078125 -7.34375 6.578125 -7.34375 6.578125 -7.34375 C 6.578125 -7.34375 4.03125 -4.796875 4.03125 -4.796875 C 4.03125 -4.796875 7.03125 0 7.03125 0 Z M 7.03125 0 "/>
</g>
<g id="glyph-0-8-5889fd5c">
<path d="M 2.921875 2.96875 C 2.921875 2.96875 0.328125 2.96875 0.328125 2.96875 C 0.328125 2.96875 0.328125 1.953125 0.328125 1.953125 C 0.328125 1.953125 1.765625 1.953125 1.765625 1.953125 C 1.765625 1.953125 1.765625 -9.203125 1.765625 -9.203125 C 1.765625 -9.203125 0.328125 -9.203125 0.328125 -9.203125 C 0.328125 -9.203125 0.328125 -10.203125 0.328125 -10.203125 C 0.328125 -10.203125 2.921875 -10.203125 2.921875 -10.203125 C 2.921875 -10.203125 2.921875 2.96875 2.921875 2.96875 Z M 2.921875 2.96875 "/>
</g>
<g id="glyph-0-9-5889fd5c">
<path d="M 7.09375 -4.78125 C 7.09375 -1.515625 5.953125 0.203125 3.84375 0.203125 C 1.71875 0.203125 0.609375 -1.515625 0.609375 -4.859375 C 0.609375 -8.1875 1.703125 -9.921875 3.84375 -9.921875 C 6 -9.921875 7.09375 -8.21875 7.09375 -4.78125 Z M 5.84375 -4.890625 C 5.84375 -7.546875 5.1875 -8.828125 3.84375 -8.828125 C 2.515625 -8.828125 1.859375 -7.5625 1.859375 -4.84375 C 1.859375 -2.125 2.515625 -0.8125 3.828125 -0.8125 C 5.1875 -0.8125 5.84375 -2.078125 5.84375 -4.890625 Z M 5.84375 -4.890625 "/>
</g>
<g id="glyph-0-10-5889fd5c">
<path d="M 7.1875 -3.296875 C 7.1875 -1.1875 5.78125 0.203125 3.78125 0.203125 C 2.015625 0.203125 0.890625 -0.578125 0.484375 -2.546875 C 0.484375 -2.546875 1.71875 -2.546875 1.71875 -2.546875 C 2.015625 -1.421875 2.671875 -0.875 3.75 -0.875 C 5.09375 -0.875 5.921875 -1.6875 5.921875 -3.125 C 5.921875 -4.59375 5.078125 -5.453125 3.75 -5.453125 C 2.984375 -5.453125 2.5 -5.203125 1.9375 -4.515625 C 1.9375 -4.515625 0.796875 -4.515625 0.796875 -4.515625 C 0.796875 -4.515625 1.546875 -9.71875 1.546875 -9.71875 C 1.546875 -9.71875 6.65625 -9.71875 6.65625 -9.71875 C 6.65625 -9.71875 6.65625 -8.5 6.65625 -8.5 C 6.65625 -8.5 2.53125 -8.5 2.53125 -8.5 C 2.53125 -8.5 2.140625 -5.9375 2.140625 -5.9375 C 2.71875 -6.359375 3.28125 -6.53125 3.96875 -6.53125 C 5.875 -6.53125 7.1875 -5.25 7.1875 -3.296875 Z M 7.1875 -3.296875 "/>
</g>
<g id="glyph-0-11-5889fd5c">
<path d="M 4.859375 0 C 4.859375 0 3.625 0 3.625 0 C 3.625 0 3.625 -7.0625 3.625 -7.0625 C 3.625 -7.0625 1.421875 -7.0625 1.421875 -7.0625 C 1.421875 -7.0625 1.421875 -7.953125 1.421875 -7.953125 C 3.328125 -8.1875 3.609375 -8.40625 4.046875 -9.921875 C 4.046875 -9.921875 4.859375 -9.921875 4.859375 -9.921875 C 4.859375 -9.921875 4.859375 0 4.859375 0 Z M 4.859375 0 "/>
</g>
<g id="glyph-0-12-5889fd5c">
<path d="M 2.671875 0 C 2.671875 0 1.21875 0 1.21875 0 C 1.21875 0 1.21875 -1.453125 1.21875 -1.453125 C 1.21875 -1.453125 2.671875 -1.453125 2.671875 -1.453125 C 2.671875 -1.453125 2.671875 0 2.671875 0 Z M 2.671875 0 "/>
</g>
<g id="glyph-0-13-5889fd5c">
<path d="M 7.15625 -7.015625 C 7.15625 -5.796875 6.4375 -4.765625 5.046875 -4.015625 C 5.046875 -4.015625 3.65625 -3.265625 3.65625 -3.265625 C 2.4375 -2.546875 1.984375 -2.03125 1.859375 -1.21875 C 1.859375 -1.21875 7.078125 -1.21875 7.078125 -1.21875 C 7.078125 -1.21875 7.078125 0 7.078125 0 C 7.078125 0 0.46875 0 0.46875 0 C 0.59375 -2.1875 1.1875 -3.125 3.265625 -4.296875 C 3.265625 -4.296875 4.546875 -5.03125 4.546875 -5.03125 C 5.4375 -5.53125 5.890625 -6.203125 5.890625 -6.984375 C 5.890625 -8.046875 5.046875 -8.84375 3.9375 -8.84375 C 2.71875 -8.84375 2.03125 -8.140625 1.9375 -6.484375 C 1.9375 -6.484375 0.703125 -6.484375 0.703125 -6.484375 C 0.765625 -8.890625 1.953125 -9.921875 3.96875 -9.921875 C 5.859375 -9.921875 7.15625 -8.6875 7.15625 -7.015625 Z M 7.15625 -7.015625 "/>
</g>
<g id="glyph-0-14-5889fd5c">
<path d="M 7.28125 -2.375 C 7.28125 -2.375 5.8125 -2.375 5.8125 -2.375 C 5.8125 -2.375 5.8125 0 5.8125 0 C 5.8125 0 4.578125 0 4.578125 0 C 4.578125 0 4.578125 -2.375 4.578125 -2.375 C 4.578125 -2.375 0.390625 -2.375 0.390625 -2.375 C 0.390625 -2.375 0.390625 -3.6875 0.390625 -3.6875 C 0.390625 -3.6875 4.90625 -9.921875 4.90625 -9.921875 C 4.90625 -9.921875 5.8125 -9.921875 5.8125 -9.921875 C 5.8125 -9.921875 5.8125 -3.484375 5.8125 -3.484375 C 5.8125 -3.484375 7.28125 -3.484375 7.28125 -3.484375 C 7.28125 -3.484375 7.28125 -2.375 7.28125 -2.375 Z M 4.578125 -3.484375 C 4.578125 -3.484375 4.578125 -7.828125 4.578125 -7.828125 C 4.578125 -7.828125 1.46875 -3.484375 1.46875 -3.484375 C 1.46875 -3.484375 4.578125 -3.484375 4.578125 -3.484375 Z M 4.578125 -3.484375 "/>
</g>
<g id="glyph-0-15-5889fd5c">
<path d="M 7.1875 -3.078125 C 7.1875 -1.140625 5.828125 0.203125 3.9375 0.203125 C 1.671875 0.203125 0.609375 -1.421875 0.609375 -4.515625 C 0.609375 -7.984375 1.84375 -9.921875 4.15625 -9.921875 C 5.671875 -9.921875 6.734375 -8.953125 6.96875 -7.34375 C 6.96875 -7.34375 5.734375 -7.34375 5.734375 -7.34375 C 5.546875 -8.28125 4.9375 -8.828125 4.078125 -8.828125 C 2.65625 -8.828125 1.875 -7.484375 1.859375 -5.0625 C 2.390625 -5.796875 3.15625 -6.171875 4.140625 -6.171875 C 5.921875 -6.171875 7.1875 -4.921875 7.1875 -3.078125 Z M 5.921875 -2.984375 C 5.921875 -4.3125 5.1875 -5.078125 3.984375 -5.078125 C 2.765625 -5.078125 1.9375 -4.28125 1.9375 -3.046875 C 1.9375 -1.78125 2.796875 -0.875 3.953125 -0.875 C 5.078125 -0.875 5.921875 -1.734375 5.921875 -2.984375 Z M 5.921875 -2.984375 "/>
</g>
<g id="glyph-0-16-5889fd5c">
<path d="M 7.1875 -2.796875 C 7.1875 -1 5.8125 0.203125 3.84375 0.203125 C 1.890625 0.203125 0.515625 -1 0.515625 -2.8125 C 0.515625 -3.90625 1.078125 -4.671875 2.21875 -5.21875 C 1.203125 -5.859375 0.875 -6.359375 0.875 -7.28125 C 0.875 -8.828125 2.09375 -9.921875 3.84375 -9.921875 C 5.609375 -9.921875 6.828125 -8.828125 6.828125 -7.28125 C 6.828125 -6.34375 6.5 -5.84375 5.46875 -5.21875 C 6.625 -4.671875 7.1875 -3.90625 7.1875 -2.796875 Z M 5.578125 -7.25 C 5.578125 -8.21875 4.90625 -8.828125 3.84375 -8.828125 C 2.8125 -8.828125 2.125 -8.21875 2.125 -7.265625 C 2.125 -6.328125 2.8125 -5.71875 3.84375 -5.71875 C 4.890625 -5.71875 5.578125 -6.328125 5.578125 -7.25 Z M 5.921875 -2.78125 C 5.921875 -3.953125 5.078125 -4.671875 3.84375 -4.671875 C 2.625 -4.671875 1.78125 -3.953125 1.78125 -2.78125 C 1.78125 -1.625 2.625 -0.875 3.828125 -0.875 C 5.078125 -0.875 5.921875 -1.609375 5.921875 -2.78125 Z M 5.921875 -2.78125 "/>
</g>
<g id="glyph-0-17-5889fd5c">
<path d="M 5.1875 -7.171875 C 5.1875 -5.875 4.109375 -4.796875 2.796875 -4.796875 C 1.484375 -4.796875 0.40625 -5.875 0.40625 -7.203125 C 0.40625 -8.515625 1.484375 -9.59375 2.78125 -9.59375 C 4.125 -9.59375 5.1875 -8.53125 5.1875 -7.171875 Z M 4.21875 -7.1875 C 4.21875 -7.984375 3.578125 -8.609375 2.78125 -8.609375 C 2.015625 -8.609375 1.375 -7.984375 1.375 -7.203125 C 1.375 -6.421875 2.015625 -5.78125 2.796875 -5.78125 C 3.5625 -5.78125 4.21875 -6.40625 4.21875 -7.1875 Z M 9.453125 -9.921875 C 9.453125 -9.921875 3.921875 0.28125 3.921875 0.28125 C 3.921875 0.28125 3 0.28125 3 0.28125 C 3 0.28125 8.53125 -9.921875 8.53125 -9.921875 C 8.53125 -9.921875 9.453125 -9.921875 9.453125 -9.921875 Z M 12.03125 -2.09375 C 12.03125 -0.8125 10.9375 0.265625 9.640625 0.265625 C 8.328125 0.265625 7.25 -0.8125 7.25 -2.125 C 7.25 -3.4375 8.328125 -4.515625 9.625 -4.515625 C 10.96875 -4.515625 12.03125 -3.4375 12.03125 -2.09375 Z M 11.0625 -2.09375 C 11.0625 -2.890625 10.4375 -3.53125 9.625 -3.53125 C 8.859375 -3.53125 8.21875 -2.890625 8.21875 -2.125 C 8.21875 -1.34375 8.859375 -0.71875 9.640625 -0.71875 C 10.421875 -0.71875 11.0625 -1.34375 11.0625 -2.09375 Z M 11.0625 -2.09375 "/>
</g>
<g id="glyph-0-18-5889fd5c">
<path d="M 7.28125 -8.6875 C 5.1875 -6.203125 3.796875 -3.203125 3.25 0 C 3.25 0 1.9375 0 1.9375 0 C 2.625 -3.109375 4.03125 -6 6 -8.5 C 6 -8.5 0.640625 -8.5 0.640625 -8.5 C 0.640625 -8.5 0.640625 -9.71875 0.640625 -9.71875 C 0.640625 -9.71875 7.28125 -9.71875 7.28125 -9.71875 C 7.28125 -9.71875 7.28125 -8.6875 7.28125 -8.6875 Z M 7.28125 -8.6875 "/>
</g>
<g id="glyph-0-19-5889fd5c">
<path d="M 8.71875 -2.90625 C 8.71875 -1.234375 7.546875 0 5.71875 0 C 5.71875 0 1.109375 0 1.109375 0 C 1.109375 0 1.109375 -10.203125 1.109375 -10.203125 C 1.109375 -10.203125 5.25 -10.203125 5.25 -10.203125 C 7.1875 -10.203125 8.28125 -9.09375 8.28125 -7.609375 C 8.28125 -6.578125 7.78125 -5.828125 6.859375 -5.390625 C 8.15625 -4.890625 8.71875 -4.140625 8.71875 -2.90625 Z M 6.96875 -7.4375 C 6.96875 -8.46875 6.375 -9.0625 4.921875 -9.0625 C 4.921875 -9.0625 2.40625 -9.0625 2.40625 -9.0625 C 2.40625 -9.0625 2.40625 -5.8125 2.40625 -5.8125 C 2.40625 -5.8125 4.921875 -5.8125 4.921875 -5.8125 C 6.375 -5.8125 6.96875 -6.390625 6.96875 -7.4375 Z M 7.421875 -2.890625 C 7.421875 -3.890625 6.8125 -4.65625 5.59375 -4.65625 C 5.59375 -4.65625 2.40625 -4.65625 2.40625 -4.65625 C 2.40625 -4.65625 2.40625 -1.140625 2.40625 -1.140625 C 2.40625 -1.140625 5.59375 -1.140625 5.59375 -1.140625 C 6.8125 -1.140625 7.421875 -1.921875 7.421875 -2.890625 Z M 7.421875 -2.890625 "/>
</g>
<g id="glyph-0-20-5889fd5c">
<path d="M 7.484375 -0.03125 C 7.109375 0.0625 6.9375 0.09375 6.6875 0.09375 C 6.125 0.09375 5.609375 -0.3125 5.484375 -0.875 C 4.84375 -0.1875 3.9375 0.203125 3 0.203125 C 1.515625 0.203125 0.59375 -0.578125 0.59375 -1.90625 C 0.59375 -2.796875 1.015625 -3.453125 1.875 -3.8125 C 2.328125 -3.984375 2.578125 -4.046875 4.234375 -4.25 C 5.15625 -4.375 5.453125 -4.578125 5.453125 -5.0625 C 5.453125 -5.0625 5.453125 -5.375 5.453125 -5.375 C 5.453125 -6.078125 4.859375 -6.46875 3.8125 -6.46875 C 2.71875 -6.46875 2.1875 -6.0625 2.09375 -5.171875 C 2.09375 -5.171875 0.90625 -5.171875 0.90625 -5.171875 C 0.984375 -6.859375 2.078125 -7.546875 3.84375 -7.546875 C 5.65625 -7.546875 6.609375 -6.84375 6.609375 -5.546875 C 6.609375 -5.546875 6.609375 -1.453125 6.609375 -1.453125 C 6.609375 -1.09375 6.828125 -0.875 7.234375 -0.875 C 7.3125 -0.875 7.359375 -0.875 7.484375 -0.90625 C 7.484375 -0.90625 7.484375 -0.03125 7.484375 -0.03125 Z M 5.453125 -2.53125 C 5.453125 -2.53125 5.453125 -3.625 5.453125 -3.625 C 5.046875 -3.4375 4.796875 -3.390625 3.5625 -3.21875 C 2.328125 -3.03125 1.8125 -2.703125 1.8125 -1.9375 C 1.8125 -1.140625 2.34375 -0.8125 3.25 -0.8125 C 4.375 -0.8125 5.453125 -1.484375 5.453125 -2.53125 Z M 5.453125 -2.53125 "/>
</g>
<g id="glyph-0-21-5889fd5c">
<path d="M 6.421875 -2.0625 C 6.421875 -0.640625 5.25 0.203125 3.40625 0.203125 C 1.484375 0.203125 0.53125 -0.546875 0.46875 -2.234375 C 0.46875 -2.234375 1.703125 -2.234375 1.703125 -2.234375 C 1.859375 -1.125 2.453125 -0.875 3.5 -0.875 C 4.515625 -0.875 5.203125 -1.28125 5.203125 -1.953125 C 5.203125 -2.484375 4.890625 -2.734375 4.078125 -2.921875 C 4.078125 -2.921875 2.984375 -3.1875 2.984375 -3.1875 C 1.25 -3.609375 0.65625 -4.15625 0.65625 -5.3125 C 0.65625 -6.65625 1.765625 -7.546875 3.46875 -7.546875 C 5.171875 -7.546875 6.125 -6.734375 6.125 -5.296875 C 6.125 -5.296875 4.90625 -5.296875 4.90625 -5.296875 C 4.875 -6.0625 4.375 -6.46875 3.4375 -6.46875 C 2.484375 -6.46875 1.875 -6.03125 1.875 -5.359375 C 1.875 -4.84375 2.28125 -4.53125 3.234375 -4.3125 C 3.234375 -4.3125 4.359375 -4.046875 4.359375 -4.046875 C 5.8125 -3.703125 6.421875 -3.15625 6.421875 -2.0625 Z M 6.421875 -2.0625 "/>
</g>
<g id="glyph-0-22-5889fd5c">
<path d="M 2.109375 0 C 2.109375 0 0.953125 0 0.953125 0 C 0.953125 0 0.953125 -10.203125 0.953125 -10.203125 C 0.953125 -10.203125 2.109375 -10.203125 2.109375 -10.203125 C 2.109375 -10.203125 2.109375 0 2.109375 0 Z M 2.109375 0 "/>
</g>
<g id="glyph-0-23-5889fd5c">
<path d="M 6.8125 0 C 6.8125 0 5.65625 0 5.65625 0 C 5.65625 0 5.65625 -5.078125 5.65625 -5.078125 C 5.65625 -5.96875 5.0625 -6.53125 4.140625 -6.53125 C 2.953125 -6.53125 2.140625 -5.546875 2.140625 -4.046875 C 2.140625 -4.046875 2.140625 0 2.140625 0 C 2.140625 0 0.984375 0 0.984375 0 C 0.984375 0 0.984375 -7.34375 0.984375 -7.34375 C 0.984375 -7.34375 2.0625 -7.34375 2.0625 -7.34375 C 2.0625 -7.34375 2.0625 -6.109375 2.0625 -6.109375 C 2.703125 -7.125 3.40625 -7.546875 4.5 -7.546875 C 5.90625 -7.546875 6.8125 -6.765625 6.8125 -5.546875 C 6.8125 -5.546875 6.8125 0 6.8125 0 Z M 6.8125 0 "/>
</g>
<g id="glyph-0-24-5889fd5c">
<path d="M 9.484375 -3.71875 C 9.171875 -1.0625 7.765625 0.25 5.28125 0.25 C 2.28125 0.25 0.671875 -2 0.671875 -4.984375 C 0.671875 -7.96875 2.234375 -10.453125 5.328125 -10.453125 C 7.578125 -10.453125 8.859375 -9.28125 9.265625 -7.046875 C 9.265625 -7.046875 7.9375 -7.046875 7.9375 -7.046875 C 7.609375 -8.59375 6.78125 -9.3125 5.1875 -9.3125 C 3.203125 -9.3125 1.96875 -7.609375 1.96875 -5 C 1.96875 -2.453125 3.265625 -0.890625 5.296875 -0.890625 C 7.015625 -0.890625 7.828125 -1.796875 8.140625 -3.71875 C 8.140625 -3.71875 9.484375 -3.71875 9.484375 -3.71875 Z M 9.484375 -3.71875 "/>
</g>
<g id="glyph-0-25-5889fd5c">
<path d="M 7.140625 -3.609375 C 7.140625 -1.203125 5.875 0.203125 3.828125 0.203125 C 1.734375 0.203125 0.5 -1.203125 0.5 -3.671875 C 0.5 -6.125 1.75 -7.546875 3.8125 -7.546875 C 5.921875 -7.546875 7.140625 -6.140625 7.140625 -3.609375 Z M 5.921875 -3.625 C 5.921875 -5.453125 5.140625 -6.46875 3.828125 -6.46875 C 2.515625 -6.46875 1.71875 -5.4375 1.71875 -3.671875 C 1.71875 -1.890625 2.515625 -0.875 3.828125 -0.875 C 5.109375 -0.875 5.921875 -1.90625 5.921875 -3.625 Z M 5.921875 -3.625 "/>
</g>
<g id="glyph-0-26-5889fd5c">
<path d="M 7.328125 -3.59375 C 7.328125 -1.265625 6.078125 0.203125 4.1875 0.203125 C 3.234375 0.203125 2.546875 -0.125 1.9375 -0.875 C 1.9375 -0.875 1.9375 3.046875 1.9375 3.046875 C 1.9375 3.046875 0.765625 3.046875 0.765625 3.046875 C 0.765625 3.046875 0.765625 -7.34375 0.765625 -7.34375 C 0.765625 -7.34375 1.828125 -7.34375 1.828125 -7.34375 C 1.828125 -7.34375 1.828125 -6.234375 1.828125 -6.234375 C 2.375 -7.09375 3.171875 -7.546875 4.171875 -7.546875 C 6.125 -7.546875 7.328125 -6.0625 7.328125 -3.59375 Z M 6.109375 -3.625 C 6.109375 -5.375 5.265625 -6.453125 3.96875 -6.453125 C 2.75 -6.453125 1.9375 -5.328125 1.9375 -3.609375 C 1.9375 -1.890625 2.75 -0.875 3.96875 -0.875 C 5.25 -0.875 6.109375 -1.953125 6.109375 -3.625 Z M 6.109375 -3.625 "/>
</g>
<g id="glyph-0-27-5889fd5c">
<path d="M 3.5625 0 C 3.15625 0.0625 2.890625 0.09375 2.609375 0.09375 C 1.6875 0.09375 1.1875 -0.328125 1.1875 -1.0625 C 1.1875 -1.0625 1.1875 -6.390625 1.1875 -6.390625 C 1.1875 -6.390625 0.203125 -6.390625 0.203125 -6.390625 C 0.203125 -6.390625 0.203125 -7.34375 0.203125 -7.34375 C 0.203125 -7.34375 1.1875 -7.34375 1.1875 -7.34375 C 1.1875 -7.34375 1.1875 -9.359375 1.1875 -9.359375 C 1.1875 -9.359375 2.359375 -9.359375 2.359375 -9.359375 C 2.359375 -9.359375 2.359375 -7.34375 2.359375 -7.34375 C 2.359375 -7.34375 3.5625 -7.34375 3.5625 -7.34375 C 3.5625 -7.34375 3.5625 -6.390625 3.5625 -6.390625 C 3.5625 -6.390625 2.359375 -6.390625 2.359375 -6.390625 C 2.359375 -6.390625 2.359375 -1.578125 2.359375 -1.578125 C 2.359375 -1.0625 2.484375 -0.921875 3 -0.921875 C 3.21875 -0.921875 3.40625 -0.9375 3.5625 -0.984375 C 3.5625 -0.984375 3.5625 0 3.5625 0 Z M 3.5625 0 "/>
</g>
<g id="glyph-0-28-5889fd5c">
<path d="M 4.5 -6.3125 C 2.6875 -6.28125 2.140625 -5.453125 2.140625 -3.8125 C 2.140625 -3.8125 2.140625 0 2.140625 0 C 2.140625 0 0.984375 0 0.984375 0 C 0.984375 0 0.984375 -7.34375 0.984375 -7.34375 C 0.984375 -7.34375 2.046875 -7.34375 2.046875 -7.34375 C 2.046875 -7.34375 2.046875 -6 2.046875 -6 C 2.71875 -7.09375 3.296875 -7.546875 4.046875 -7.546875 C 4.203125 -7.546875 4.296875 -7.53125 4.5 -7.5 C 4.5 -7.5 4.5 -6.3125 4.5 -6.3125 Z M 4.5 -6.3125 "/>
</g>
<g id="glyph-1-0-5889fd5c">
<path d="M 0 -9.046875 C 0 -9.046875 0 -7.578125 0 -7.578125 C 0 -7.578125 -8.28125 -2.296875 -8.28125 -2.296875 C -8.28125 -2.296875 0 -2.296875 0 -2.296875 C 0 -2.296875 0 -1.0625 0 -1.0625 C 0 -1.0625 -10.203125 -1.0625 -10.203125 -1.0625 C -10.203125 -1.0625 -10.203125 -2.484375 -10.203125 -2.484375 C -10.203125 -2.484375 -1.859375 -7.8125 -1.859375 -7.8125 C -1.859375 -7.8125 -10.203125 -7.8125 -10.203125 -7.8125 C -10.203125 -7.8125 -10.203125 -9.046875 -10.203125 -9.046875 C -10.203125 -9.046875 0 -9.046875 0 -9.046875 Z M 0 -9.046875 "/>
</g>
<g id="glyph-1-1-5889fd5c">
<path d="M -3.609375 -7.140625 C -1.203125 -7.140625 0.203125 -5.875 0.203125 -3.828125 C 0.203125 -1.734375 -1.203125 -0.5 -3.671875 -0.5 C -6.125 -0.5 -7.546875 -1.75 -7.546875 -3.8125 C -7.546875 -5.921875 -6.140625 -7.140625 -3.609375 -7.140625 Z M -3.625 -5.921875 C -5.453125 -5.921875 -6.46875 -5.140625 -6.46875 -3.828125 C -6.46875 -2.515625 -5.4375 -1.71875 -3.671875 -1.71875 C -1.890625 -1.71875 -0.875 -2.515625 -0.875 -3.828125 C -0.875 -5.109375 -1.90625 -5.921875 -3.625 -5.921875 Z M -3.625 -5.921875 "/>
</g>
<g id="glyph-1-2-5889fd5c">
<path d="M -6.3125 -4.5 C -6.28125 -2.6875 -5.453125 -2.140625 -3.8125 -2.140625 C -3.8125 -2.140625 0 -2.140625 0 -2.140625 C 0 -2.140625 0 -0.984375 0 -0.984375 C 0 -0.984375 -7.34375 -0.984375 -7.34375 -0.984375 C -7.34375 -0.984375 -7.34375 -2.046875 -7.34375 -2.046875 C -7.34375 -2.046875 -6 -2.046875 -6 -2.046875 C -7.09375 -2.71875 -7.546875 -3.296875 -7.546875 -4.046875 C -7.546875 -4.203125 -7.53125 -4.296875 -7.5 -4.5 C -7.5 -4.5 -6.3125 -4.5 -6.3125 -4.5 Z M -6.3125 -4.5 "/>
</g>
<g id="glyph-1-3-5889fd5c">
<path d="M -0.03125 -7.484375 C 0.0625 -7.109375 0.09375 -6.9375 0.09375 -6.6875 C 0.09375 -6.125 -0.3125 -5.609375 -0.875 -5.484375 C -0.1875 -4.84375 0.203125 -3.9375 0.203125 -3 C 0.203125 -1.515625 -0.578125 -0.59375 -1.90625 -0.59375 C -2.796875 -0.59375 -3.453125 -1.015625 -3.8125 -1.875 C -3.984375 -2.328125 -4.046875 -2.578125 -4.25 -4.234375 C -4.375 -5.15625 -4.578125 -5.453125 -5.0625 -5.453125 C -5.0625 -5.453125 -5.375 -5.453125 -5.375 -5.453125 C -6.078125 -5.453125 -6.46875 -4.859375 -6.46875 -3.8125 C -6.46875 -2.71875 -6.0625 -2.1875 -5.171875 -2.09375 C -5.171875 -2.09375 -5.171875 -0.90625 -5.171875 -0.90625 C -6.859375 -0.984375 -7.546875 -2.078125 -7.546875 -3.84375 C -7.546875 -5.65625 -6.84375 -6.609375 -5.546875 -6.609375 C -5.546875 -6.609375 -1.453125 -6.609375 -1.453125 -6.609375 C -1.09375 -6.609375 -0.875 -6.828125 -0.875 -7.234375 C -0.875 -7.3125 -0.875 -7.359375 -0.90625 -7.484375 C -0.90625 -7.484375 -0.03125 -7.484375 -0.03125 -7.484375 Z M -2.53125 -5.453125 C -2.53125 -5.453125 -3.625 -5.453125 -3.625 -5.453125 C -3.4375 -5.046875 -3.390625 -4.796875 -3.21875 -3.5625 C -3.03125 -2.328125 -2.703125 -1.8125 -1.9375 -1.8125 C -1.140625 -1.8125 -0.8125 -2.34375 -0.8125 -3.25 C -0.8125 -4.375 -1.484375 -5.453125 -2.53125 -5.453125 Z M -2.53125 -5.453125 "/>
</g>
<g id="glyph-1-4-5889fd5c">
<path d="M 0 -2.109375 C 0 -2.109375 0 -0.953125 0 -0.953125 C 0 -0.953125 -10.203125 -0.953125 -10.203125 -0.953125 C -10.203125 -0.953125 -10.203125 -2.109375 -10.203125 -2.109375 C -10.203125 -2.109375 0 -2.109375 0 -2.109375 Z M 0 -2.109375 "/>
</g>
<g id="glyph-1-5-5889fd5c">
<path d="M 0 -6.390625 C 0 -6.390625 0 -0.4375 0 -0.4375 C 0 -0.4375 -1.046875 -0.4375 -1.046875 -0.4375 C -1.046875 -0.4375 -6.3125 -4.8125 -6.3125 -4.8125 C -6.3125 -4.8125 -6.3125 -0.734375 -6.3125 -0.734375 C -6.3125 -0.734375 -7.34375 -0.734375 -7.34375 -0.734375 C -7.34375 -0.734375 -7.34375 -6.203125 -7.34375 -6.203125 C -7.34375 -6.203125 -6.296875 -6.203125 -6.296875 -6.203125 C -6.296875 -6.203125 -1.015625 -1.84375 -1.015625 -1.84375 C -1.015625 -1.84375 -1.015625 -6.390625 -1.015625 -6.390625 C -1.015625 -6.390625 0 -6.390625 0 -6.390625 Z M 0 -6.390625 "/>
</g>
<g id="glyph-2-0-5889fd5c">
<path d="M 0 -10.640625 C 0 -10.640625 0 -9.484375 0 -9.484375 C 0 -9.484375 -5.046875 -9.484375 -5.046875 -9.484375 C -5.984375 -9.484375 -6.53125 -8.984375 -6.53125 -8.140625 C -6.53125 -7.1875 -5.671875 -6.390625 -4.609375 -6.390625 C -4.609375 -6.390625 0 -6.390625 0 -6.390625 C 0 -6.390625 0 -5.234375 0 -5.234375 C 0 -5.234375 -5.046875 -5.234375 -5.046875 -5.234375 C -5.984375 -5.234375 -6.53125 -4.75 -6.53125 -3.875 C -6.53125 -2.921875 -5.671875 -2.15625 -4.609375 -2.15625 C -4.609375 -2.15625 0 -2.15625 0 -2.15625 C 0 -2.15625 0 -1 0 -1 C 0 -1 -7.34375 -1 -7.34375 -1 C -7.34375 -1 -7.34375 -2.0625 -7.34375 -2.0625 C -7.34375 -2.0625 -6.296875 -2.0625 -6.296875 -2.0625 C -7.1875 -2.6875 -7.546875 -3.328125 -7.546875 -4.3125 C -7.546875 -5.265625 -7.203125 -5.859375 -6.421875 -6.28125 C -7.25 -6.96875 -7.546875 -7.5625 -7.546875 -8.546875 C -7.546875 -9.90625 -6.8125 -10.640625 -5.5 -10.640625 C -5.5 -10.640625 0 -10.640625 0 -10.640625 Z M 0 -10.640625 "/>
</g>
<g id="glyph-2-1-5889fd5c">
<path d="M -3.328125 -7.1875 C -3.328125 -7.1875 -3.328125 -1.78125 -3.328125 -1.78125 C -1.65625 -1.8125 -0.875 -2.71875 -0.875 -3.9375 C -0.875 -4.875 -1.265625 -5.53125 -2.21875 -5.859375 C -2.21875 -5.859375 -2.21875 -7.03125 -2.21875 -7.03125 C -0.734375 -6.734375 0.203125 -5.578125 0.203125 -3.890625 C 0.203125 -1.828125 -1.21875 -0.5625 -3.625 -0.5625 C -6.03125 -0.5625 -7.546875 -1.875 -7.546875 -3.921875 C -7.546875 -5.296875 -6.8125 -6.40625 -5.609375 -6.890625 C -5.0625 -7.09375 -4.390625 -7.1875 -3.328125 -7.1875 Z M -4.375 -5.9375 C -5.515625 -5.9375 -6.46875 -5.046875 -6.46875 -3.90625 C -6.46875 -2.734375 -5.59375 -1.90625 -4.28125 -1.8125 C -4.28125 -1.8125 -4.28125 -5.921875 -4.28125 -5.921875 C -4.3125 -5.9375 -4.375 -5.9375 -4.375 -5.9375 Z M -4.375 -5.9375 "/>
</g>
<g id="glyph-3-0-5889fd5c">
<path d="M 0 -2.140625 C 0 -2.140625 0 -0.984375 0 -0.984375 C 0 -0.984375 -7.34375 -0.984375 -7.34375 -0.984375 C -7.34375 -0.984375 -7.34375 -2.140625 -7.34375 -2.140625 C -7.34375 -2.140625 0 -2.140625 0 -2.140625 Z M -8.4375 -2.296875 C -8.4375 -2.296875 -8.4375 -0.84375 -8.4375 -0.84375 C -8.4375 -0.84375 -9.890625 -0.84375 -9.890625 -0.84375 C -9.890625 -0.84375 -9.890625 -2.296875 -9.890625 -2.296875 C -9.890625 -2.296875 -8.4375 -2.296875 -8.4375 -2.296875 Z M -8.4375 -2.296875 "/>
</g>
<g id="glyph-4-0-5889fd5c">
<path d="M 0 -6.9375 C 0 -6.9375 0 -5.890625 0 -5.890625 C 0 -5.890625 -1.078125 -5.890625 -1.078125 -5.890625 C -0.171875 -5.265625 0.203125 -4.5625 0.203125 -3.5625 C 0.203125 -1.578125 -1.265625 -0.359375 -3.734375 -0.359375 C -6.078125 -0.359375 -7.546875 -1.609375 -7.546875 -3.515625 C -7.546875 -4.5 -7.15625 -5.28125 -6.40625 -5.765625 C -6.40625 -5.765625 -10.203125 -5.765625 -10.203125 -5.765625 C -10.203125 -5.765625 -10.203125 -6.9375 -10.203125 -6.9375 C -10.203125 -6.9375 0 -6.9375 0 -6.9375 Z M -3.640625 -5.765625 C -5.328125 -5.765625 -6.453125 -4.96875 -6.453125 -3.703125 C -6.453125 -2.4375 -5.375 -1.578125 -3.671875 -1.578125 C -1.953125 -1.578125 -0.875 -2.4375 -0.875 -3.71875 C -0.875 -4.953125 -1.953125 -5.765625 -3.640625 -5.765625 Z M -3.640625 -5.765625 "/>
</g>
<g id="glyph-5-0-5889fd5c">
</g>
<g id="glyph-6-0-5889fd5c">
<path d="M 0 -3.5625 C 0.0625 -3.15625 0.09375 -2.890625 0.09375 -2.609375 C 0.09375 -1.6875 -0.328125 -1.1875 -1.0625 -1.1875 C -1.0625 -1.1875 -6.390625 -1.1875 -6.390625 -1.1875 C -6.390625 -1.1875 -6.390625 -0.203125 -6.390625 -0.203125 C -6.390625 -0.203125 -7.34375 -0.203125 -7.34375 -0.203125 C -7.34375 -0.203125 -7.34375 -1.1875 -7.34375 -1.1875 C -7.34375 -1.1875 -9.359375 -1.1875 -9.359375 -1.1875 C -9.359375 -1.1875 -9.359375 -2.359375 -9.359375 -2.359375 C -9.359375 -2.359375 -7.34375 -2.359375 -7.34375 -2.359375 C -7.34375 -2.359375 -7.34375 -3.5625 -7.34375 -3.5625 C -7.34375 -3.5625 -6.390625 -3.5625 -6.390625 -3.5625 C -6.390625 -3.5625 -6.390625 -2.359375 -6.390625 -2.359375 C -6.390625 -2.359375 -1.578125 -2.359375 -1.578125 -2.359375 C -1.0625 -2.359375 -0.921875 -2.484375 -0.921875 -3 C -0.921875 -3.21875 -0.9375 -3.40625 -0.984375 -3.5625 C -0.984375 -3.5625 0 -3.5625 0 -3.5625 Z M 0 -3.5625 "/>
</g>
<g id="glyph-7-0-5889fd5c">
<path d="M 0 -6.75 C 0 -6.75 0 -5.703125 0 -5.703125 C 0 -5.703125 -1.140625 -5.703125 -1.140625 -5.703125 C -0.171875 -5.015625 0.203125 -4.328125 0.203125 -3.25 C 0.203125 -1.8125 -0.578125 -0.90625 -1.796875 -0.90625 C -1.796875 -0.90625 -7.34375 -0.90625 -7.34375 -0.90625 C -7.34375 -0.90625 -7.34375 -2.078125 -7.34375 -2.078125 C -7.34375 -2.078125 -2.25 -2.078125 -2.25 -2.078125 C -1.375 -2.078125 -0.8125 -2.65625 -0.8125 -3.578125 C -0.8125 -4.796875 -1.796875 -5.59375 -3.296875 -5.59375 C -3.296875 -5.59375 -7.34375 -5.59375 -7.34375 -5.59375 C -7.34375 -5.59375 -7.34375 -6.75 -7.34375 -6.75 C -7.34375 -6.75 0 -6.75 0 -6.75 Z M 0 -6.75 "/>
</g>
<g id="glyph-8-0-5889fd5c">
<path d="M 0 -10.640625 C 0 -10.640625 0 -9.484375 0 -9.484375 C 0 -9.484375 -5.046875 -9.484375 -5.046875 -9.484375 C -5.984375 -9.484375 -6.53125 -8.984375 -6.53125 -8.140625 C -6.53125 -7.1875 -5.671875 -6.390625 -4.609375 -6.390625 C -4.609375 -6.390625 0 -6.390625 0 -6.390625 C 0 -6.390625 0 -5.234375 0 -5.234375 C 0 -5.234375 -5.046875 -5.234375 -5.046875 -5.234375 C -5.984375 -5.234375 -6.53125 -4.75 -6.53125 -3.875 C -6.53125 -2.921875 -5.671875 -2.15625 -4.609375 -2.15625 C -4.609375 -2.15625 0 -2.15625 0 -2.15625 C 0 -2.15625 0 -1 0 -1 C 0 -1 -7.34375 -1 -7.34375 -1 C -7.34375 -1 -7.34375 -2.0625 -7.34375 -2.0625 C -7.34375 -2.0625 -6.296875 -2.0625 -6.296875 -2.0625 C -7.1875 -2.6875 -7.546875 -3.328125 -7.546875 -4.3125 C -7.546875 -5.265625 -7.203125 -5.859375 -6.421875 -6.28125 C -7.25 -6.96875 -7.546875 -7.5625 -7.546875 -8.546875 C -7.546875 -9.90625 -6.8125 -10.640625 -5.5 -10.640625 C -5.5 -10.640625 0 -10.640625 0 -10.640625 Z M 0 -10.640625 "/>
</g>
<g id="glyph-9-0-5889fd5c">
<path d="M -3.609375 -7.140625 C -1.203125 -7.140625 0.203125 -5.875 0.203125 -3.828125 C 0.203125 -1.734375 -1.203125 -0.5 -3.671875 -0.5 C -6.125 -0.5 -7.546875 -1.75 -7.546875 -3.8125 C -7.546875 -5.921875 -6.140625 -7.140625 -3.609375 -7.140625 Z M -3.625 -5.921875 C -5.453125 -5.921875 -6.46875 -5.140625 -6.46875 -3.828125 C -6.46875 -2.515625 -5.4375 -1.71875 -3.671875 -1.71875 C -1.890625 -1.71875 -0.875 -2.515625 -0.875 -3.828125 C -0.875 -5.109375 -1.90625 -5.921875 -3.625 -5.921875 Z M -3.625 -5.921875 "/>
</g>
<g id="glyph-9-1-5889fd5c">
<path d="M -6.3125 -4.5 C -6.28125 -2.6875 -5.453125 -2.140625 -3.8125 -2.140625 C -3.8125 -2.140625 0 -2.140625 0 -2.140625 C 0 -2.140625 0 -0.984375 0 -0.984375 C 0 -0.984375 -7.34375 -0.984375 -7.34375 -0.984375 C -7.34375 -0.984375 -7.34375 -2.046875 -7.34375 -2.046875 C -7.34375 -2.046875 -6 -2.046875 -6 -2.046875 C -7.09375 -2.71875 -7.546875 -3.296875 -7.546875 -4.046875 C -7.546875 -4.203125 -7.53125 -4.296875 -7.5 -4.5 C -7.5 -4.5 -6.3125 -4.5 -6.3125 -4.5 Z M -6.3125 -4.5 "/>
</g>
<g id="glyph-9-2-5889fd5c">
<path d="M -2.0625 -6.421875 C -0.640625 -6.421875 0.203125 -5.25 0.203125 -3.40625 C 0.203125 -1.484375 -0.546875 -0.53125 -2.234375 -0.46875 C -2.234375 -0.46875 -2.234375 -1.703125 -2.234375 -1.703125 C -1.125 -1.859375 -0.875 -2.453125 -0.875 -3.5 C -0.875 -4.515625 -1.28125 -5.203125 -1.953125 -5.203125 C -2.484375 -5.203125 -2.734375 -4.890625 -2.921875 -4.078125 C -2.921875 -4.078125 -3.1875 -2.984375 -3.1875 -2.984375 C -3.609375 -1.25 -4.15625 -0.65625 -5.3125 -0.65625 C -6.65625 -0.65625 -7.546875 -1.765625 -7.546875 -3.46875 C -7.546875 -5.171875 -6.734375 -6.125 -5.296875 -6.125 C -5.296875 -6.125 -5.296875 -4.90625 -5.296875 -4.90625 C -6.0625 -4.875 -6.46875 -4.375 -6.46875 -3.4375 C -6.46875 -2.484375 -6.03125 -1.875 -5.359375 -1.875 C -4.84375 -1.875 -4.53125 -2.28125 -4.3125 -3.234375 C -4.3125 -3.234375 -4.046875 -4.359375 -4.046875 -4.359375 C -3.703125 -5.8125 -3.15625 -6.421875 -2.0625 -6.421875 Z M -2.0625 -6.421875 "/>
</g>
<g id="glyph-9-3-5889fd5c">
<path d="M 0 -2.140625 C 0 -2.140625 0 -0.984375 0 -0.984375 C 0 -0.984375 -7.34375 -0.984375 -7.34375 -0.984375 C -7.34375 -0.984375 -7.34375 -2.140625 -7.34375 -2.140625 C -7.34375 -2.140625 0 -2.140625 0 -2.140625 Z M -8.4375 -2.296875 C -8.4375 -2.296875 -8.4375 -0.84375 -8.4375 -0.84375 C -8.4375 -0.84375 -9.890625 -0.84375 -9.890625 -0.84375 C -9.890625 -0.84375 -9.890625 -2.296875 -9.890625 -2.296875 C -9.890625 -2.296875 -8.4375 -2.296875 -8.4375 -2.296875 Z M -8.4375 -2.296875 "/>
</g>
<g id="glyph-9-4-5889fd5c">
<path d="M -3.328125 -7.1875 C -3.328125 -7.1875 -3.328125 -1.78125 -3.328125 -1.78125 C -1.65625 -1.8125 -0.875 -2.71875 -0.875 -3.9375 C -0.875 -4.875 -1.265625 -5.53125 -2.21875 -5.859375 C -2.21875 -5.859375 -2.21875 -7.03125 -2.21875 -7.03125 C -0.734375 -6.734375 0.203125 -5.578125 0.203125 -3.890625 C 0.203125 -1.828125 -1.21875 -0.5625 -3.625 -0.5625 C -6.03125 -0.5625 -7.546875 -1.875 -7.546875 -3.921875 C -7.546875 -5.296875 -6.8125 -6.40625 -5.609375 -6.890625 C -5.0625 -7.09375 -4.390625 -7.1875 -3.328125 -7.1875 Z M -4.375 -5.9375 C -5.515625 -5.9375 -6.46875 -5.046875 -6.46875 -3.90625 C -6.46875 -2.734375 -5.59375 -1.90625 -4.28125 -1.8125 C -4.28125 -1.8125 -4.28125 -5.921875 -4.28125 -5.921875 C -4.3125 -5.9375 -4.375 -5.9375 -4.375 -5.9375 Z M -4.375 -5.9375 "/>
</g>
<g id="glyph-10-0-5889fd5c">
</g>
<g id="glyph-10-1-5889fd5c">
<path d="M 0 -6.390625 C 0 -6.390625 0 -0.4375 0 -0.4375 C 0 -0.4375 -1.046875 -0.4375 -1.046875 -0.4375 C -1.046875 -0.4375 -6.3125 -4.8125 -6.3125 -4.8125 C -6.3125 -4.8125 -6.3125 -0.734375 -6.3125 -0.734375 C -6.3125 -0.734375 -7.34375 -0.734375 -7.34375 -0.734375 C -7.34375 -0.734375 -7.34375 -6.203125 -7.34375 -6.203125 C -7.34375 -6.203125 -6.296875 -6.203125 -6.296875 -6.203125 C -6.296875 -6.203125 -1.015625 -1.84375 -1.015625 -1.84375 C -1.015625 -1.84375 -1.015625 -6.390625 -1.015625 -6.390625 C -1.015625 -6.390625 0 -6.390625 0 -6.390625 Z M 0 -6.390625 "/>
</g>
<g id="glyph-11-0-5889fd5c">
<path d="M 8.859375 -3.0625 C 8.859375 -1 7.3125 0.171875 4.671875 0.171875 C 2.078125 0.171875 0.453125 -1.015625 0.453125 -3.203125 C 0.453125 -3.203125 2.484375 -3.203125 2.484375 -3.203125 C 2.484375 -2.109375 3.359375 -1.515625 4.78125 -1.515625 C 6.0625 -1.515625 6.84375 -1.953125 6.84375 -2.8125 C 6.84375 -3.640625 6.328125 -3.9375 4.921875 -4.21875 C 4.921875 -4.21875 3.5 -4.5 3.5 -4.5 C 1.421875 -4.90625 0.625 -5.640625 0.625 -7.234375 C 0.625 -9.21875 2.046875 -10.375 4.5 -10.375 C 6.984375 -10.375 8.5 -9.25 8.5 -7.09375 C 8.5 -7.09375 6.53125 -7.09375 6.53125 -7.09375 C 6.53125 -8.140625 5.71875 -8.6875 4.390625 -8.6875 C 3.3125 -8.6875 2.625 -8.203125 2.625 -7.4375 C 2.625 -6.6875 3.0625 -6.390625 4.5625 -6.109375 C 4.5625 -6.109375 6.15625 -5.796875 6.15625 -5.796875 C 8.046875 -5.4375 8.859375 -4.671875 8.859375 -3.0625 Z M 8.859375 -3.0625 "/>
</g>
<g id="glyph-11-1-5889fd5c">
<path d="M 7.34375 -3.5 C 7.34375 -3.5 7.34375 -3.265625 7.34375 -3.265625 C 7.34375 -3.265625 2.265625 -3.265625 2.265625 -3.265625 C 2.328125 -1.796875 2.90625 -1.375 3.84375 -1.375 C 4.546875 -1.375 5.171875 -1.578125 5.328125 -2.125 C 5.328125 -2.125 7.265625 -2.125 7.265625 -2.125 C 6.828125 -0.640625 5.453125 0.125 3.765625 0.125 C 1.625 0.125 0.3125 -1.265625 0.3125 -3.6875 C 0.3125 -6.21875 1.640625 -7.6875 3.8125 -7.6875 C 6.03125 -7.6875 7.34375 -6.109375 7.34375 -3.5 Z M 5.3125 -4.5625 C 5.203125 -5.640625 4.625 -6.1875 3.78125 -6.1875 C 2.90625 -6.1875 2.421875 -5.609375 2.296875 -4.5625 C 2.296875 -4.5625 5.3125 -4.5625 5.3125 -4.5625 Z M 5.3125 -4.5625 "/>
</g>
<g id="glyph-11-2-5889fd5c">
<path d="M 7.640625 0 C 7.640625 0 5.6875 0 5.6875 0 C 5.6875 0 5.6875 -4.65625 5.6875 -4.65625 C 5.6875 -5.5625 5.265625 -6.015625 4.421875 -6.015625 C 3.46875 -6.015625 2.84375 -5.4375 2.84375 -4.53125 C 2.84375 -4.53125 2.84375 0 2.84375 0 C 2.84375 0 0.875 0 0.875 0 C 0.875 0 0.875 -7.5625 0.875 -7.5625 C 0.875 -7.5625 2.84375 -7.5625 2.84375 -7.5625 C 2.84375 -7.5625 2.84375 -6.46875 2.84375 -6.46875 C 3.40625 -7.3125 4.09375 -7.6875 5.109375 -7.6875 C 6.71875 -7.6875 7.640625 -6.734375 7.640625 -5.0625 C 7.640625 -5.0625 7.640625 0 7.640625 0 Z M 7.640625 0 "/>
</g>
<g id="glyph-11-3-5889fd5c">
<path d="M 7.28125 -2.234375 C 7.28125 -0.71875 6.109375 0.125 3.96875 0.125 C 1.6875 0.125 0.46875 -0.734375 0.40625 -2.390625 C 0.40625 -2.390625 2.328125 -2.390625 2.328125 -2.390625 C 2.484375 -1.578125 2.96875 -1.40625 3.859375 -1.40625 C 4.78125 -1.40625 5.3125 -1.59375 5.3125 -2.0625 C 5.3125 -2.265625 5.15625 -2.421875 4.65625 -2.578125 C 4.65625 -2.578125 2.328125 -3.296875 2.328125 -3.296875 C 0.921875 -3.734375 0.671875 -4.234375 0.671875 -5.171875 C 0.671875 -6.71875 1.859375 -7.6875 3.78125 -7.6875 C 5.8125 -7.6875 7.046875 -6.71875 7.0625 -5.125 C 7.0625 -5.125 5.1875 -5.125 5.1875 -5.125 C 5.171875 -5.8125 4.703125 -6.140625 3.765625 -6.140625 C 3.078125 -6.140625 2.625 -5.859375 2.625 -5.453125 C 2.625 -5.140625 2.765625 -5.015625 3.3125 -4.859375 C 3.3125 -4.859375 5.796875 -4.140625 5.796875 -4.140625 C 6.796875 -3.84375 7.28125 -3.203125 7.28125 -2.34375 C 7.28125 -2.34375 7.28125 -2.234375 7.28125 -2.234375 Z M 7.28125 -2.234375 "/>
</g>
<g id="glyph-11-4-5889fd5c">
<path d="M 2.890625 0 C 2.890625 0 0.9375 0 0.9375 0 C 0.9375 0 0.9375 -7.5625 0.9375 -7.5625 C 0.9375 -7.5625 2.890625 -7.5625 2.890625 -7.5625 C 2.890625 -7.5625 2.890625 0 2.890625 0 Z M 2.921875 -8.46875 C 2.921875 -8.46875 0.96875 -8.46875 0.96875 -8.46875 C 0.96875 -8.46875 0.96875 -10.4375 0.96875 -10.4375 C 0.96875 -10.4375 2.921875 -10.4375 2.921875 -10.4375 C 2.921875 -10.4375 2.921875 -8.46875 2.921875 -8.46875 Z M 2.921875 -8.46875 "/>
</g>
<g id="glyph-11-5-5889fd5c">
<path d="M 4.21875 0 C 3.859375 0.015625 3.515625 0.0625 3.078125 0.0625 C 1.796875 0.0625 1.15625 -0.4375 1.15625 -1.625 C 1.15625 -1.625 1.15625 -6.109375 1.15625 -6.109375 C 1.15625 -6.109375 0.203125 -6.109375 0.203125 -6.109375 C 0.203125 -6.109375 0.203125 -7.40625 0.203125 -7.40625 C 0.203125 -7.40625 1.15625 -7.40625 1.15625 -7.40625 C 1.15625 -7.40625 1.15625 -9.4375 1.15625 -9.4375 C 1.15625 -9.4375 3.125 -9.4375 3.125 -9.4375 C 3.125 -9.4375 3.125 -7.40625 3.125 -7.40625 C 3.125 -7.40625 4.21875 -7.40625 4.21875 -7.40625 C 4.21875 -7.40625 4.21875 -6.109375 4.21875 -6.109375 C 4.21875 -6.109375 3.125 -6.109375 3.125 -6.109375 C 3.125 -6.109375 3.125 -2.15625 3.125 -2.15625 C 3.125 -1.484375 3.25 -1.328125 3.765625 -1.328125 C 3.90625 -1.328125 4.015625 -1.34375 4.21875 -1.375 C 4.21875 -1.375 4.21875 0 4.21875 0 Z M 4.21875 0 "/>
</g>
<g id="glyph-11-6-5889fd5c">
<path d="M 7.5 -7.5625 C 7.5 -7.5625 4.90625 0 4.90625 0 C 4.90625 0 2.84375 0 2.84375 0 C 2.84375 0 0.203125 -7.5625 0.203125 -7.5625 C 0.203125 -7.5625 2.265625 -7.5625 2.265625 -7.5625 C 2.265625 -7.5625 3.90625 -2.03125 3.90625 -2.03125 C 3.90625 -2.03125 5.4375 -7.5625 5.4375 -7.5625 C 5.4375 -7.5625 7.5 -7.5625 7.5 -7.5625 Z M 7.5 -7.5625 "/>
</g>
<g id="glyph-11-7-5889fd5c">
</g>
<g id="glyph-11-8-5889fd5c">
<path d="M 4.375 -6.109375 C 4.375 -6.109375 3.21875 -6.109375 3.21875 -6.109375 C 3.21875 -6.109375 3.21875 0 3.21875 0 C 3.21875 0 1.265625 0 1.265625 0 C 1.265625 0 1.265625 -6.109375 1.265625 -6.109375 C 1.265625 -6.109375 0.203125 -6.109375 0.203125 -6.109375 C 0.203125 -6.109375 0.203125 -7.40625 0.203125 -7.40625 C 0.203125 -7.40625 1.265625 -7.40625 1.265625 -7.40625 C 1.265625 -7.40625 1.265625 -8.3125 1.265625 -8.3125 C 1.265625 -9.59375 1.890625 -10.203125 3.1875 -10.203125 C 3.453125 -10.203125 3.953125 -10.1875 4.3125 -10.15625 C 4.3125 -10.15625 4.3125 -8.6875 4.3125 -8.6875 C 4.140625 -8.71875 3.921875 -8.734375 3.75 -8.734375 C 3.390625 -8.734375 3.21875 -8.546875 3.21875 -8.140625 C 3.21875 -8.140625 3.21875 -7.40625 3.21875 -7.40625 C 3.21875 -7.40625 4.375 -7.40625 4.375 -7.40625 C 4.375 -7.40625 4.375 -6.109375 4.375 -6.109375 Z M 4.375 -6.109375 "/>
</g>
<g id="glyph-11-9-5889fd5c">
<path d="M 5.1875 -5.6875 C 4.90625 -5.71875 4.78125 -5.734375 4.5625 -5.734375 C 3.421875 -5.734375 2.84375 -5.171875 2.84375 -4.015625 C 2.84375 -4.015625 2.84375 0 2.84375 0 C 2.84375 0 0.875 0 0.875 0 C 0.875 0 0.875 -7.5625 0.875 -7.5625 C 0.875 -7.5625 2.84375 -7.5625 2.84375 -7.5625 C 2.84375 -7.5625 2.84375 -6.078125 2.84375 -6.078125 C 3.265625 -7.09375 4.046875 -7.6875 4.9375 -7.6875 C 5 -7.6875 5.0625 -7.6875 5.1875 -7.671875 C 5.1875 -7.671875 5.1875 -5.6875 5.1875 -5.6875 Z M 5.1875 -5.6875 "/>
</g>
<g id="glyph-11-10-5889fd5c">
<path d="M 7.34375 0 C 7.34375 0 5.203125 0 5.203125 0 C 5.03125 -0.21875 4.984375 -0.5625 4.984375 -0.953125 C 4.296875 -0.234375 3.53125 0.125 2.6875 0.125 C 1.421875 0.125 0.390625 -0.578125 0.390625 -2.046875 C 0.390625 -3.421875 1.125 -4.0625 2.625 -4.328125 C 2.625 -4.328125 3.40625 -4.46875 3.40625 -4.46875 C 4.375 -4.640625 4.96875 -4.546875 4.96875 -5.34375 C 4.96875 -5.859375 4.59375 -6.109375 3.84375 -6.109375 C 2.875 -6.109375 2.546875 -5.859375 2.453125 -5.0625 C 2.453125 -5.0625 0.5625 -5.0625 0.5625 -5.0625 C 0.6875 -6.8125 1.75 -7.6875 3.796875 -7.6875 C 5.84375 -7.6875 6.890625 -6.90625 6.890625 -5.359375 C 6.890625 -5.359375 6.890625 -1.15625 6.890625 -1.15625 C 6.890625 -0.765625 6.984375 -0.5625 7.34375 -0.234375 C 7.34375 -0.234375 7.34375 0 7.34375 0 Z M 4.96875 -3.234375 C 4.96875 -3.234375 4.96875 -3.5625 4.96875 -3.5625 C 4.75 -3.453125 4.65625 -3.4375 4.140625 -3.328125 C 4.140625 -3.328125 3.46875 -3.203125 3.46875 -3.203125 C 2.65625 -3.046875 2.359375 -2.84375 2.359375 -2.265625 C 2.359375 -1.703125 2.765625 -1.453125 3.421875 -1.453125 C 4.40625 -1.453125 4.96875 -2.09375 4.96875 -3.234375 Z M 4.96875 -3.234375 "/>
</g>
<g id="glyph-11-11-5889fd5c">
<path d="M 7.3125 -2.625 C 7.125 -1.015625 5.859375 0.125 4.015625 0.125 C 1.78125 0.125 0.46875 -1.234375 0.46875 -3.71875 C 0.46875 -6.296875 1.796875 -7.6875 4.046875 -7.6875 C 5.9375 -7.6875 7.171875 -6.578125 7.3125 -4.734375 C 7.3125 -4.734375 5.4375 -4.734375 5.4375 -4.734375 C 5.203125 -5.71875 4.828125 -6.109375 4.03125 -6.109375 C 2.796875 -6.109375 2.4375 -5.109375 2.4375 -3.71875 C 2.4375 -2.25 3.03125 -1.453125 4.03125 -1.453125 C 4.78125 -1.453125 5.1875 -1.828125 5.4375 -2.625 C 5.4375 -2.625 7.3125 -2.625 7.3125 -2.625 Z M 7.3125 -2.625 "/>
</g>
<g id="glyph-11-12-5889fd5c">
<path d="M 7.96875 -3.71875 C 7.96875 -1.296875 6.53125 0.125 4.234375 0.125 C 1.90625 0.125 0.484375 -1.28125 0.484375 -3.78125 C 0.484375 -6.265625 1.90625 -7.6875 4.21875 -7.6875 C 6.578125 -7.6875 7.96875 -6.28125 7.96875 -3.71875 Z M 6 -3.75 C 6 -5.234375 5.3125 -6.109375 4.234375 -6.109375 C 3.15625 -6.109375 2.453125 -5.21875 2.453125 -3.78125 C 2.453125 -2.34375 3.15625 -1.453125 4.234375 -1.453125 C 5.28125 -1.453125 6 -2.34375 6 -3.75 Z M 6 -3.75 "/>
</g>
<g id="glyph-11-13-5889fd5c">
<path d="M 9.484375 0 C 9.484375 0 7.21875 0 7.21875 0 C 6.953125 -0.484375 6.90625 -0.796875 6.90625 -1.75 C 6.90625 -1.75 6.9375 -2.828125 6.9375 -2.828125 C 6.9375 -3.6875 6.53125 -4.046875 5.625 -4.046875 C 5.625 -4.046875 3.21875 -4.046875 3.21875 -4.046875 C 3.21875 -4.046875 3.21875 0 3.21875 0 C 3.21875 0 1.125 0 1.125 0 C 1.125 0 1.125 -10.203125 1.125 -10.203125 C 1.125 -10.203125 6.59375 -10.203125 6.59375 -10.203125 C 8.40625 -10.203125 9.34375 -9.03125 9.34375 -7.453125 C 9.34375 -6.203125 8.765625 -5.375 7.609375 -4.921875 C 8.921875 -4.375 8.96875 -4.234375 9.03125 -1.21875 C 9.03125 -0.765625 9.15625 -0.5625 9.484375 -0.375 C 9.484375 -0.375 9.484375 0 9.484375 0 Z M 7.234375 -7.15625 C 7.234375 -8.03125 6.90625 -8.453125 5.75 -8.453125 C 5.75 -8.453125 3.21875 -8.453125 3.21875 -8.453125 C 3.21875 -8.453125 3.21875 -5.796875 3.21875 -5.796875 C 3.21875 -5.796875 5.75 -5.796875 5.75 -5.796875 C 6.9375 -5.796875 7.234375 -6.25 7.234375 -7.15625 Z M 7.234375 -7.15625 "/>
</g>
</g>
<clipPath id="clip-0-5889fd5c">
<path clip-rule="nonzero" d="M 66 82 L 576 82 L 576 84 L 66 84 Z M 66 82 "/>
</clipPath>
<clipPath id="clip-1-5889fd5c">
<path clip-rule="nonzero" d="M 66 493 L 576 493 L 576 495 L 66 495 Z M 66 493 "/>
</clipPath>
</defs>
<rect x="-76.8" y="-57.6" width="921.6" height="691.2" fill="rgb(100%, 100%, 100%)" fill-opacity="1"/>
<path fill-rule="nonzero" fill="rgb(100%, 100%, 100%)" fill-opacity="1" d="M 66 517 L 576 517 L 576 16 L 66 16 Z M 66 517 "/>
<path fill="none" stroke-width="1" stroke-linecap="butt" stroke-linejoin="miter" stroke="rgb(0%, 0%, 0%)" stroke-opacity="0.12" stroke-miterlimit="1.154701" d="M 89.183594 517 L 89.183594 16 "/>
<path fill="none" stroke-width="1" stroke-linecap="butt" stroke-linejoin="miter" stroke="rgb(0%, 0%, 0%)" stroke-opacity="0.12" stroke-miterlimit="1.154701" d="M 217.96875 517 L 217.96875 16 "/>
<path fill="none" stroke-width="1" stroke-linecap="butt" stroke-linejoin="miter" stroke="rgb(0%, 0%, 0%)" stroke-opacity="0.12" stroke-miterlimit="1.154701" d="M 346.757812 517 L 346.757812 16 "/>
<path fill="none" stroke-width="1" stroke-linecap="butt" stroke-linejoin="miter" stroke="rgb(0%, 0%, 0%)" stroke-opacity="0.12" stroke-miterlimit="1.154701" d="M 475.546875 517 L 475.546875 16 "/>
<path fill="none" stroke-width="1" stroke-linecap="butt" stroke-linejoin="miter" stroke="rgb(0%, 0%, 0%)" stroke-opacity="0.12" stroke-miterlimit="1.154701" d="M 66 465.519531 L 576 465.519531 "/>
<path fill="none" stroke-width="1" stroke-linecap="butt" stroke-linejoin="miter" stroke="rgb(0%, 0%, 0%)" stroke-opacity="0.12" stroke-miterlimit="1.154701" d="M 66 369.832031 L 576 369.832031 "/>
<path fill="none" stroke-width="1" stroke-linecap="butt" stroke-linejoin="miter" stroke="rgb(0%, 0%, 0%)" stroke-opacity="0.12" stroke-miterlimit="1.154701" d="M 66 274.144531 L 576 274.144531 "/>
<path fill="none" stroke-width="1" stroke-linecap="butt" stroke-linejoin="miter" stroke="rgb(0%, 0%, 0%)" stroke-opacity="0.12" stroke-miterlimit="1.154701" d="M 66 178.457031 L 576 178.457031 "/>
<path fill="none" stroke-width="1" stroke-linecap="butt" stroke-linejoin="miter" stroke="rgb(0%, 0%, 0%)" stroke-opacity="0.12" stroke-miterlimit="1.154701" d="M 66 82.765625 L 576 82.765625 "/>
<g fill="rgb(0%, 0%, 0%)" fill-opacity="1">
<use xlink:href="#glyph-0-0-5889fd5c" x="283.270009" y="557.568"/>
</g>
<g fill="rgb(0%, 0%, 0%)" fill-opacity="1">
<use xlink:href="#glyph-0-1-5889fd5c" x="291.82401" y="557.568"/>
</g>
<g fill="rgb(0%, 0%, 0%)" fill-opacity="1">
<use xlink:href="#glyph-0-2-5889fd5c" x="294.932008" y="557.568"/>
</g>
<g fill="rgb(0%, 0%, 0%)" fill-opacity="1">
<use xlink:href="#glyph-0-3-5889fd5c" x="306.594009" y="557.568"/>
</g>
<g fill="rgb(0%, 0%, 0%)" fill-opacity="1">
<use xlink:href="#glyph-0-4-5889fd5c" x="314.37801" y="557.568"/>
</g>
<g fill="rgb(0%, 0%, 0%)" fill-opacity="1">
<use xlink:href="#glyph-0-5-5889fd5c" x="318.27001" y="557.568"/>
</g>
<g fill="rgb(0%, 0%, 0%)" fill-opacity="1">
<use xlink:href="#glyph-0-6-5889fd5c" x="322.162008" y="557.568"/>
</g>
<g fill="rgb(0%, 0%, 0%)" fill-opacity="1">
<use xlink:href="#glyph-0-3-5889fd5c" x="332.27001" y="557.568"/>
</g>
<g fill="rgb(0%, 0%, 0%)" fill-opacity="1">
<use xlink:href="#glyph-0-3-5889fd5c" x="340.054011" y="557.568"/>
</g>
<g fill="rgb(0%, 0%, 0%)" fill-opacity="1">
<use xlink:href="#glyph-0-7-5889fd5c" x="347.838012" y="557.568"/>
</g>
<g fill="rgb(0%, 0%, 0%)" fill-opacity="1">
<use xlink:href="#glyph-0-8-5889fd5c" x="354.838012" y="557.568"/>
</g>
<g fill="rgb(0%, 0%, 0%)" fill-opacity="1">
<use xlink:href="#glyph-0-9-5889fd5c" x="85.289819" y="538.258"/>
</g>
<g fill="rgb(0%, 0%, 0%)" fill-opacity="1">
<use xlink:href="#glyph-0-10-5889fd5c" x="214.077702" y="538.258"/>
</g>
<g fill="rgb(0%, 0%, 0%)" fill-opacity="1">
<use xlink:href="#glyph-0-11-5889fd5c" x="338.973579" y="538.258"/>
</g>
<g fill="rgb(0%, 0%, 0%)" fill-opacity="1">
<use xlink:href="#glyph-0-9-5889fd5c" x="346.757579" y="538.258"/>
</g>
<g fill="rgb(0%, 0%, 0%)" fill-opacity="1">
<use xlink:href="#glyph-0-11-5889fd5c" x="467.761455" y="538.258"/>
</g>
<g fill="rgb(0%, 0%, 0%)" fill-opacity="1">
<use xlink:href="#glyph-0-10-5889fd5c" x="475.545455" y="538.258"/>
</g>
<g fill="rgb(0%, 0%, 0%)" fill-opacity="1">
<use xlink:href="#glyph-1-0-5889fd5c" x="28.487998" y="336.121985"/>
</g>
<g fill="rgb(0%, 0%, 0%)" fill-opacity="1">
<use xlink:href="#glyph-1-1-5889fd5c" x="28.487998" y="326.013987"/>
</g>
<g fill="rgb(0%, 0%, 0%)" fill-opacity="1">
<use xlink:href="#glyph-1-2-5889fd5c" x="28.487999" y="318.22999"/>
</g>
<g fill="rgb(0%, 0%, 0%)" fill-opacity="1">
<use xlink:href="#glyph-2-0-5889fd5c" x="28.487999" y="313.567987"/>
</g>
<g fill="rgb(0%, 0%, 0%)" fill-opacity="1">
<use xlink:href="#glyph-1-3-5889fd5c" x="28.488" y="301.905989"/>
</g>
<g fill="rgb(0%, 0%, 0%)" fill-opacity="1">
<use xlink:href="#glyph-1-4-5889fd5c" x="28.488" y="294.12199"/>
</g>
<g fill="rgb(0%, 0%, 0%)" fill-opacity="1">
<use xlink:href="#glyph-3-0-5889fd5c" x="28.488001" y="291.013988"/>
</g>
<g fill="rgb(0%, 0%, 0%)" fill-opacity="1">
<use xlink:href="#glyph-1-5-5889fd5c" x="28.488001" y="287.905987"/>
</g>
<g fill="rgb(0%, 0%, 0%)" fill-opacity="1">
<use xlink:href="#glyph-2-1-5889fd5c" x="28.488001" y="280.905987"/>
</g>
<g fill="rgb(0%, 0%, 0%)" fill-opacity="1">
<use xlink:href="#glyph-4-0-5889fd5c" x="28.488001" y="273.121987"/>
</g>
<g fill="rgb(0%, 0%, 0%)" fill-opacity="1">
<use xlink:href="#glyph-5-0-5889fd5c" x="28.488002" y="265.337987"/>
</g>
<g fill="rgb(0%, 0%, 0%)" fill-opacity="1">
<use xlink:href="#glyph-6-0-5889fd5c" x="28.488002" y="261.44599"/>
</g>
<g fill="rgb(0%, 0%, 0%)" fill-opacity="1">
<use xlink:href="#glyph-7-0-5889fd5c" x="28.488002" y="257.553992"/>
</g>
<g fill="rgb(0%, 0%, 0%)" fill-opacity="1">
<use xlink:href="#glyph-8-0-5889fd5c" x="28.488003" y="249.769996"/>
</g>
<g fill="rgb(0%, 0%, 0%)" fill-opacity="1">
<use xlink:href="#glyph-9-0-5889fd5c" x="28.488004" y="238.107993"/>
</g>
<g fill="rgb(0%, 0%, 0%)" fill-opacity="1">
<use xlink:href="#glyph-9-1-5889fd5c" x="28.488004" y="230.323999"/>
</g>
<g fill="rgb(0%, 0%, 0%)" fill-opacity="1">
<use xlink:href="#glyph-10-0-5889fd5c" x="28.488004" y="225.661996"/>
</g>
<g fill="rgb(0%, 0%, 0%)" fill-opacity="1">
<use xlink:href="#glyph-9-2-5889fd5c" x="28.488005" y="221.769998"/>
</g>
<g fill="rgb(0%, 0%, 0%)" fill-opacity="1">
<use xlink:href="#glyph-9-3-5889fd5c" x="28.488005" y="214.769998"/>
</g>
<g fill="rgb(0%, 0%, 0%)" fill-opacity="1">
<use xlink:href="#glyph-10-1-5889fd5c" x="28.488005" y="211.661996"/>
</g>
<g fill="rgb(0%, 0%, 0%)" fill-opacity="1">
<use xlink:href="#glyph-9-4-5889fd5c" x="28.488006" y="204.662004"/>
</g>
<g fill="rgb(0%, 0%, 0%)" fill-opacity="1">
<use xlink:href="#glyph-0-9-5889fd5c" x="36.540002" y="470.623713"/>
</g>
<g fill="rgb(0%, 0%, 0%)" fill-opacity="1">
<use xlink:href="#glyph-0-12-5889fd5c" x="44.324003" y="470.623713"/>
</g>
<g fill="rgb(0%, 0%, 0%)" fill-opacity="1">
<use xlink:href="#glyph-0-13-5889fd5c" x="48.216002" y="470.623713"/>
</g>
<g fill="rgb(0%, 0%, 0%)" fill-opacity="1">
<use xlink:href="#glyph-0-9-5889fd5c" x="36.540002" y="374.935198"/>
</g>
<g fill="rgb(0%, 0%, 0%)" fill-opacity="1">
<use xlink:href="#glyph-0-12-5889fd5c" x="44.324003" y="374.935198"/>
</g>
<g fill="rgb(0%, 0%, 0%)" fill-opacity="1">
<use xlink:href="#glyph-0-14-5889fd5c" x="48.216002" y="374.935198"/>
</g>
<g fill="rgb(0%, 0%, 0%)" fill-opacity="1">
<use xlink:href="#glyph-0-9-5889fd5c" x="36.540002" y="279.246675"/>
</g>
<g fill="rgb(0%, 0%, 0%)" fill-opacity="1">
<use xlink:href="#glyph-0-12-5889fd5c" x="44.324003" y="279.246675"/>
</g>
<g fill="rgb(0%, 0%, 0%)" fill-opacity="1">
<use xlink:href="#glyph-0-15-5889fd5c" x="48.216002" y="279.246675"/>
</g>
<g fill="rgb(0%, 0%, 0%)" fill-opacity="1">
<use xlink:href="#glyph-0-9-5889fd5c" x="36.540002" y="183.558167"/>
</g>
<g fill="rgb(0%, 0%, 0%)" fill-opacity="1">
<use xlink:href="#glyph-0-12-5889fd5c" x="44.324003" y="183.558167"/>
</g>
<g fill="rgb(0%, 0%, 0%)" fill-opacity="1">
<use xlink:href="#glyph-0-16-5889fd5c" x="48.216002" y="183.558167"/>
</g>
<g fill="rgb(0%, 0%, 0%)" fill-opacity="1">
<use xlink:href="#glyph-0-11-5889fd5c" x="36.540002" y="87.869629"/>
</g>
<g fill="rgb(0%, 0%, 0%)" fill-opacity="1">
<use xlink:href="#glyph-0-12-5889fd5c" x="44.324003" y="87.869629"/>
</g>
<g fill="rgb(0%, 0%, 0%)" fill-opacity="1">
<use xlink:href="#glyph-0-9-5889fd5c" x="48.216002" y="87.869629"/>
</g>
<path fill="none" stroke-width="1.5" stroke-linecap="butt" stroke-linejoin="miter" stroke="rgb(0%, 44.705883%, 69.803923%)" stroke-opacity="1" stroke-miterlimit="2" d="M 89.183594 82.765625 L 114.9375 81.78125 L 140.695312 80.582031 L 166.453125 79.171875 L 192.210938 77.566406 L 217.96875 75.773438 L 243.726562 73.800781 L 269.484375 71.65625 L 295.242188 69.351562 L 321 66.890625 L 346.757812 64.285156 L 372.515625 61.535156 L 398.273438 58.648438 L 424.03125 55.632812 L 449.789062 52.492188 L 475.546875 49.230469 L 501.304688 45.855469 L 527.0625 42.367188 L 552.816406 38.773438 "/>
<path fill="none" stroke-width="1.5" stroke-linecap="butt" stroke-linejoin="miter" stroke="rgb(90.196079%, 62.352943%, 0%)" stroke-opacity="1" stroke-miterlimit="2" d="M 89.183594 82.765625 L 114.9375 87.546875 L 140.695312 91.804688 L 166.453125 95.570312 L 192.210938 98.875 L 217.96875 101.742188 L 243.726562 104.199219 L 269.484375 106.265625 L 295.242188 107.96875 L 321 109.324219 L 346.757812 110.351562 L 372.515625 111.070312 L 398.273438 111.5 L 424.03125 111.648438 L 449.789062 111.539062 L 475.546875 111.179688 L 501.304688 110.585938 L 527.0625 109.769531 L 552.816406 108.742188 "/>
<path fill="none" stroke-width="1.5" stroke-linecap="butt" stroke-linejoin="miter" stroke="rgb(0%, 61.960787%, 45.09804%)" stroke-opacity="1" stroke-miterlimit="2" d="M 89.183594 82.765625 L 114.9375 95.34375 L 140.695312 106.988281 L 166.453125 117.757812 L 192.210938 127.707031 L 217.96875 136.882812 L 243.726562 145.328125 L 269.484375 153.09375 L 295.242188 160.214844 L 321 166.730469 L 346.757812 172.679688 L 372.515625 178.089844 L 398.273438 183 L 424.03125 187.433594 L 449.789062 191.421875 L 475.546875 194.992188 L 501.304688 198.164062 L 527.0625 200.960938 L 552.816406 203.40625 "/>
<path fill="none" stroke-width="1.5" stroke-linecap="butt" stroke-linejoin="miter" stroke="rgb(80.000001%, 47.450981%, 65.490198%)" stroke-opacity="1" stroke-miterlimit="2" d="M 89.183594 82.765625 L 114.9375 105.511719 L 140.695312 126.792969 L 166.453125 146.699219 L 192.210938 165.3125 L 217.96875 182.710938 L 243.726562 198.976562 L 269.484375 214.167969 L 295.242188 228.359375 L 321 241.609375 L 346.757812 253.976562 L 372.515625 265.507812 L 398.273438 276.265625 L 424.03125 286.285156 L 449.789062 295.621094 L 475.546875 304.3125 L 501.304688 312.394531 L 527.0625 319.90625 L 552.816406 326.882812 "/>
<g clip-path="url(#clip-0-5889fd5c)">
<path fill="none" stroke-width="1.5" stroke-linecap="butt" stroke-linejoin="miter" stroke="rgb(0%, 0%, 0%)" stroke-opacity="1" stroke-dasharray="4.5 4.5" stroke-miterlimit="1.154701" d="M 66 82.765625 L 576 82.765625 "/>
</g>
<g clip-path="url(#clip-1-5889fd5c)">
<path fill="none" stroke-width="1.5" stroke-linecap="butt" stroke-linejoin="miter" stroke="rgb(0%, 0%, 0%)" stroke-opacity="1" stroke-dasharray="1.5 3" stroke-miterlimit="1.154701" d="M 66 494.226562 L 576 494.226562 "/>
</g>
<path fill-rule="nonzero" fill="rgb(100%, 100%, 100%)" fill-opacity="1" stroke-width="1" stroke-linecap="butt" stroke-linejoin="miter" stroke="rgb(0%, 0%, 0%)" stroke-opacity="1" stroke-miterlimit="2" d="M 594 371 L 752 371 L 752 162 L 594 162 Z M 594 371 "/>
<path fill="none" stroke-width="1" stroke-linecap="butt" stroke-linejoin="miter" stroke="rgb(0%, 0%, 0%)" stroke-opacity="1" stroke-miterlimit="1.154701" d="M 89.183594 517.5 L 89.183594 522.5 "/>
<path fill="none" stroke-width="1" stroke-linecap="butt" stroke-linejoin="miter" stroke="rgb(0%, 0%, 0%)" stroke-opacity="1" stroke-miterlimit="1.154701" d="M 217.96875 517.5 L 217.96875 522.5 "/>
<path fill="none" stroke-width="1" stroke-linecap="butt" stroke-linejoin="miter" stroke="rgb(0%, 0%, 0%)" stroke-opacity="1" stroke-miterlimit="1.154701" d="M 346.757812 517.5 L 346.757812 522.5 "/>
<path fill="none" stroke-width="1" stroke-linecap="butt" stroke-linejoin="miter" stroke="rgb(0%, 0%, 0%)" stroke-opacity="1" stroke-miterlimit="1.154701" d="M 475.546875 517.5 L 475.546875 522.5 "/>
<path fill="none" stroke-width="1" stroke-linecap="butt" stroke-linejoin="miter" stroke="rgb(0%, 0%, 0%)" stroke-opacity="1" stroke-miterlimit="1.154701" d="M 65.5 465.519531 L 60.5 465.519531 "/>
<path fill="none" stroke-width="1" stroke-linecap="butt" stroke-linejoin="miter" stroke="rgb(0%, 0%, 0%)" stroke-opacity="1" stroke-miterlimit="1.154701" d="M 65.5 369.832031 L 60.5 369.832031 "/>
<path fill="none" stroke-width="1" stroke-linecap="butt" stroke-linejoin="miter" stroke="rgb(0%, 0%, 0%)" stroke-opacity="1" stroke-miterlimit="1.154701" d="M 65.5 274.144531 L 60.5 274.144531 "/>
<path fill="none" stroke-width="1" stroke-linecap="butt" stroke-linejoin="miter" stroke="rgb(0%, 0%, 0%)" stroke-opacity="1" stroke-miterlimit="1.154701" d="M 65.5 178.457031 L 60.5 178.457031 "/>
<path fill="none" stroke-width="1" stroke-linecap="butt" stroke-linejoin="miter" stroke="rgb(0%, 0%, 0%)" stroke-opacity="1" stroke-miterlimit="1.154701" d="M 65.5 82.765625 L 60.5 82.765625 "/>
<path fill="none" stroke-width="1.5" stroke-linecap="butt" stroke-linejoin="miter" stroke="rgb(0%, 44.705883%, 69.803923%)" stroke-opacity="1" stroke-miterlimit="2" d="M 638.710938 202.5 L 658.710938 202.5 "/>
<path fill="none" stroke-width="1.5" stroke-linecap="butt" stroke-linejoin="miter" stroke="rgb(90.196079%, 62.352943%, 0%)" stroke-opacity="1" stroke-miterlimit="2" d="M 638.710938 225.5 L 658.710938 225.5 "/>
<path fill="none" stroke-width="1.5" stroke-linecap="butt" stroke-linejoin="miter" stroke="rgb(0%, 61.960787%, 45.09804%)" stroke-opacity="1" stroke-miterlimit="2" d="M 638.710938 248.5 L 658.710938 248.5 "/>
<path fill="none" stroke-width="1.5" stroke-linecap="butt" stroke-linejoin="miter" stroke="rgb(80.000001%, 47.450981%, 65.490198%)" stroke-opacity="1" stroke-miterlimit="2" d="M 638.710938 271.5 L 658.710938 271.5 "/>
<path fill="none" stroke-width="1.5" stroke-linecap="butt" stroke-linejoin="miter" stroke="rgb(0%, 0%, 0%)" stroke-opacity="1" stroke-dasharray="4.5 4.5" stroke-miterlimit="2" d="M 599.808594 331.808594 L 619.808594 331.808594 "/>
<path fill="none" stroke-width="1.5" stroke-linecap="butt" stroke-linejoin="miter" stroke="rgb(0%, 0%, 0%)" stroke-opacity="1" stroke-dasharray="1.5 3" stroke-miterlimit="2" d="M 599.808594 354.808594 L 619.808594 354.808594 "/>
<g fill="rgb(0%, 0%, 0%)" fill-opacity="1">
<use xlink:href="#glyph-11-0-5889fd5c" x="614.64796" y="181.447998"/>
</g>
<g fill="rgb(0%, 0%, 0%)" fill-opacity="1">
<use xlink:href="#glyph-11-1-5889fd5c" x="623.985961" y="181.447998"/>
</g>
<g fill="rgb(0%, 0%, 0%)" fill-opacity="1">
<use xlink:href="#glyph-11-2-5889fd5c" x="631.769962" y="181.447998"/>
</g>
<g fill="rgb(0%, 0%, 0%)" fill-opacity="1">
<use xlink:href="#glyph-11-3-5889fd5c" x="640.323959" y="181.447998"/>
</g>
<g fill="rgb(0%, 0%, 0%)" fill-opacity="1">
<use xlink:href="#glyph-11-4-5889fd5c" x="648.10796" y="181.447998"/>
</g>
<g fill="rgb(0%, 0%, 0%)" fill-opacity="1">
<use xlink:href="#glyph-11-5-5889fd5c" x="651.999958" y="181.447998"/>
</g>
<g fill="rgb(0%, 0%, 0%)" fill-opacity="1">
<use xlink:href="#glyph-11-4-5889fd5c" x="656.661957" y="181.447998"/>
</g>
<g fill="rgb(0%, 0%, 0%)" fill-opacity="1">
<use xlink:href="#glyph-11-6-5889fd5c" x="660.553956" y="181.447998"/>
</g>
<g fill="rgb(0%, 0%, 0%)" fill-opacity="1">
<use xlink:href="#glyph-11-1-5889fd5c" x="668.337956" y="181.447998"/>
</g>
<g fill="rgb(0%, 0%, 0%)" fill-opacity="1">
<use xlink:href="#glyph-11-7-5889fd5c" x="676.121957" y="181.447998"/>
</g>
<g fill="rgb(0%, 0%, 0%)" fill-opacity="1">
<use xlink:href="#glyph-11-8-5889fd5c" x="680.013959" y="181.447998"/>
</g>
<g fill="rgb(0%, 0%, 0%)" fill-opacity="1">
<use xlink:href="#glyph-11-9-5889fd5c" x="684.675962" y="181.447998"/>
</g>
<g fill="rgb(0%, 0%, 0%)" fill-opacity="1">
<use xlink:href="#glyph-11-10-5889fd5c" x="690.121961" y="181.447998"/>
</g>
<g fill="rgb(0%, 0%, 0%)" fill-opacity="1">
<use xlink:href="#glyph-11-11-5889fd5c" x="697.905958" y="181.447998"/>
</g>
<g fill="rgb(0%, 0%, 0%)" fill-opacity="1">
<use xlink:href="#glyph-11-5-5889fd5c" x="705.689955" y="181.447998"/>
</g>
<g fill="rgb(0%, 0%, 0%)" fill-opacity="1">
<use xlink:href="#glyph-11-4-5889fd5c" x="710.351958" y="181.447998"/>
</g>
<g fill="rgb(0%, 0%, 0%)" fill-opacity="1">
<use xlink:href="#glyph-11-12-5889fd5c" x="714.243956" y="181.447998"/>
</g>
<g fill="rgb(0%, 0%, 0%)" fill-opacity="1">
<use xlink:href="#glyph-11-2-5889fd5c" x="722.797957" y="181.447998"/>
</g>
<g fill="rgb(0%, 0%, 0%)" fill-opacity="1">
<use xlink:href="#glyph-0-11-5889fd5c" x="663.709019" y="207.602997"/>
</g>
<g fill="rgb(0%, 0%, 0%)" fill-opacity="1">
<use xlink:href="#glyph-0-9-5889fd5c" x="671.49302" y="207.602997"/>
</g>
<g fill="rgb(0%, 0%, 0%)" fill-opacity="1">
<use xlink:href="#glyph-0-12-5889fd5c" x="679.27702" y="207.602997"/>
</g>
<g fill="rgb(0%, 0%, 0%)" fill-opacity="1">
<use xlink:href="#glyph-0-9-5889fd5c" x="683.169019" y="207.602997"/>
</g>
<g fill="rgb(0%, 0%, 0%)" fill-opacity="1">
<use xlink:href="#glyph-0-4-5889fd5c" x="690.95302" y="207.602997"/>
</g>
<g fill="rgb(0%, 0%, 0%)" fill-opacity="1">
<use xlink:href="#glyph-0-17-5889fd5c" x="694.84502" y="207.602997"/>
</g>
<g fill="rgb(0%, 0%, 0%)" fill-opacity="1">
<use xlink:href="#glyph-0-13-5889fd5c" x="663.709019" y="230.602998"/>
</g>
<g fill="rgb(0%, 0%, 0%)" fill-opacity="1">
<use xlink:href="#glyph-0-18-5889fd5c" x="671.49302" y="230.602998"/>
</g>
<g fill="rgb(0%, 0%, 0%)" fill-opacity="1">
<use xlink:href="#glyph-0-12-5889fd5c" x="679.27702" y="230.602998"/>
</g>
<g fill="rgb(0%, 0%, 0%)" fill-opacity="1">
<use xlink:href="#glyph-0-9-5889fd5c" x="683.169019" y="230.602998"/>
</g>
<g fill="rgb(0%, 0%, 0%)" fill-opacity="1">
<use xlink:href="#glyph-0-4-5889fd5c" x="690.95302" y="230.602998"/>
</g>
<g fill="rgb(0%, 0%, 0%)" fill-opacity="1">
<use xlink:href="#glyph-0-17-5889fd5c" x="694.84502" y="230.602998"/>
</g>
<g fill="rgb(0%, 0%, 0%)" fill-opacity="1">
<use xlink:href="#glyph-0-10-5889fd5c" x="663.709019" y="253.602998"/>
</g>
<g fill="rgb(0%, 0%, 0%)" fill-opacity="1">
<use xlink:href="#glyph-0-9-5889fd5c" x="671.49302" y="253.602998"/>
</g>
<g fill="rgb(0%, 0%, 0%)" fill-opacity="1">
<use xlink:href="#glyph-0-12-5889fd5c" x="679.27702" y="253.602998"/>
</g>
<g fill="rgb(0%, 0%, 0%)" fill-opacity="1">
<use xlink:href="#glyph-0-9-5889fd5c" x="683.169019" y="253.602998"/>
</g>
<g fill="rgb(0%, 0%, 0%)" fill-opacity="1">
<use xlink:href="#glyph-0-4-5889fd5c" x="690.95302" y="253.602998"/>
</g>
<g fill="rgb(0%, 0%, 0%)" fill-opacity="1">
<use xlink:href="#glyph-0-17-5889fd5c" x="694.84502" y="253.602998"/>
</g>
<g fill="rgb(0%, 0%, 0%)" fill-opacity="1">
<use xlink:href="#glyph-0-16-5889fd5c" x="663.709019" y="276.602998"/>
</g>
<g fill="rgb(0%, 0%, 0%)" fill-opacity="1">
<use xlink:href="#glyph-0-9-5889fd5c" x="671.49302" y="276.602998"/>
</g>
<g fill="rgb(0%, 0%, 0%)" fill-opacity="1">
<use xlink:href="#glyph-0-12-5889fd5c" x="679.27702" y="276.602998"/>
</g>
<g fill="rgb(0%, 0%, 0%)" fill-opacity="1">
<use xlink:href="#glyph-0-9-5889fd5c" x="683.169019" y="276.602998"/>
</g>
<g fill="rgb(0%, 0%, 0%)" fill-opacity="1">
<use xlink:href="#glyph-0-4-5889fd5c" x="690.95302" y="276.602998"/>
</g>
<g fill="rgb(0%, 0%, 0%)" fill-opacity="1">
<use xlink:href="#glyph-0-17-5889fd5c" x="694.84502" y="276.602998"/>
</g>
<g fill="rgb(0%, 0%, 0%)" fill-opacity="1">
<use xlink:href="#glyph-11-13-5889fd5c" x="639.155018" y="310.757997"/>
</g>
<g fill="rgb(0%, 0%, 0%)" fill-opacity="1">
<use xlink:href="#glyph-11-1-5889fd5c" x="649.263018" y="310.757997"/>
</g>
<g fill="rgb(0%, 0%, 0%)" fill-opacity="1">
<use xlink:href="#glyph-11-8-5889fd5c" x="657.047019" y="310.757997"/>
</g>
<g fill="rgb(0%, 0%, 0%)" fill-opacity="1">
<use xlink:href="#glyph-11-1-5889fd5c" x="661.709019" y="310.757997"/>
</g>
<g fill="rgb(0%, 0%, 0%)" fill-opacity="1">
<use xlink:href="#glyph-11-9-5889fd5c" x="669.49302" y="310.757997"/>
</g>
<g fill="rgb(0%, 0%, 0%)" fill-opacity="1">
<use xlink:href="#glyph-11-1-5889fd5c" x="674.939019" y="310.757997"/>
</g>
<g fill="rgb(0%, 0%, 0%)" fill-opacity="1">
<use xlink:href="#glyph-11-2-5889fd5c" x="682.72302" y="310.757997"/>
</g>
<g fill="rgb(0%, 0%, 0%)" fill-opacity="1">
<use xlink:href="#glyph-11-11-5889fd5c" x="691.277021" y="310.757997"/>
</g>
<g fill="rgb(0%, 0%, 0%)" fill-opacity="1">
<use xlink:href="#glyph-11-1-5889fd5c" x="699.061022" y="310.757997"/>
</g>
<g fill="rgb(0%, 0%, 0%)" fill-opacity="1">
<use xlink:href="#glyph-0-19-5889fd5c" x="624.810047" y="336.912996"/>
</g>
<g fill="rgb(0%, 0%, 0%)" fill-opacity="1">
<use xlink:href="#glyph-0-20-5889fd5c" x="634.148048" y="336.912996"/>
</g>
<g fill="rgb(0%, 0%, 0%)" fill-opacity="1">
<use xlink:href="#glyph-0-21-5889fd5c" x="641.932047" y="336.912996"/>
</g>
<g fill="rgb(0%, 0%, 0%)" fill-opacity="1">
<use xlink:href="#glyph-0-3-5889fd5c" x="648.932047" y="336.912996"/>
</g>
<g fill="rgb(0%, 0%, 0%)" fill-opacity="1">
<use xlink:href="#glyph-0-22-5889fd5c" x="656.716048" y="336.912996"/>
</g>
<g fill="rgb(0%, 0%, 0%)" fill-opacity="1">
<use xlink:href="#glyph-0-1-5889fd5c" x="659.824048" y="336.912996"/>
</g>
<g fill="rgb(0%, 0%, 0%)" fill-opacity="1">
<use xlink:href="#glyph-0-23-5889fd5c" x="662.932049" y="336.912996"/>
</g>
<g fill="rgb(0%, 0%, 0%)" fill-opacity="1">
<use xlink:href="#glyph-0-3-5889fd5c" x="670.71605" y="336.912996"/>
</g>
<g fill="rgb(0%, 0%, 0%)" fill-opacity="1">
<use xlink:href="#glyph-0-24-5889fd5c" x="624.810028" y="359.912996"/>
</g>
<g fill="rgb(0%, 0%, 0%)" fill-opacity="1">
<use xlink:href="#glyph-0-25-5889fd5c" x="634.918026" y="359.912996"/>
</g>
<g fill="rgb(0%, 0%, 0%)" fill-opacity="1">
<use xlink:href="#glyph-0-2-5889fd5c" x="642.70203" y="359.912996"/>
</g>
<g fill="rgb(0%, 0%, 0%)" fill-opacity="1">
<use xlink:href="#glyph-0-26-5889fd5c" x="654.364029" y="359.912996"/>
</g>
<g fill="rgb(0%, 0%, 0%)" fill-opacity="1">
<use xlink:href="#glyph-0-22-5889fd5c" x="662.14803" y="359.912996"/>
</g>
<g fill="rgb(0%, 0%, 0%)" fill-opacity="1">
<use xlink:href="#glyph-0-3-5889fd5c" x="665.256032" y="359.912996"/>
</g>
<g fill="rgb(0%, 0%, 0%)" fill-opacity="1">
<use xlink:href="#glyph-0-27-5889fd5c" x="673.040032" y="359.912996"/>
</g>
<g fill="rgb(0%, 0%, 0%)" fill-opacity="1">
<use xlink:href="#glyph-0-3-5889fd5c" x="676.932031" y="359.912996"/>
</g>
<g fill="rgb(0%, 0%, 0%)" fill-opacity="1">
<use xlink:href="#glyph-0-4-5889fd5c" x="684.716031" y="359.912996"/>
</g>
<g fill="rgb(0%, 0%, 0%)" fill-opacity="1">
<use xlink:href="#glyph-0-28-5889fd5c" x="688.60803" y="359.912996"/>
</g>
<g fill="rgb(0%, 0%, 0%)" fill-opacity="1">
<use xlink:href="#glyph-0-3-5889fd5c" x="693.270029" y="359.912996"/>
</g>
<g fill="rgb(0%, 0%, 0%)" fill-opacity="1">
<use xlink:href="#glyph-0-21-5889fd5c" x="701.054026" y="359.912996"/>
</g>
<g fill="rgb(0%, 0%, 0%)" fill-opacity="1">
<use xlink:href="#glyph-0-26-5889fd5c" x="708.054026" y="359.912996"/>
</g>
<g fill="rgb(0%, 0%, 0%)" fill-opacity="1">
<use xlink:href="#glyph-0-25-5889fd5c" x="715.838023" y="359.912996"/>
</g>
<g fill="rgb(0%, 0%, 0%)" fill-opacity="1">
<use xlink:href="#glyph-0-23-5889fd5c" x="723.622019" y="359.912996"/>
</g>
<g fill="rgb(0%, 0%, 0%)" fill-opacity="1">
<use xlink:href="#glyph-0-21-5889fd5c" x="731.406016" y="359.912996"/>
</g>
<g fill="rgb(0%, 0%, 0%)" fill-opacity="1">
<use xlink:href="#glyph-0-3-5889fd5c" x="738.406016" y="359.912996"/>
</g>
<path fill="none" stroke-width="1" stroke-linecap="butt" stroke-linejoin="miter" stroke="rgb(0%, 0%, 0%)" stroke-opacity="1" stroke-miterlimit="1.154701" d="M 65.5 517 L 576.5 517 "/>
<path fill="none" stroke-width="1" stroke-linecap="butt" stroke-linejoin="miter" stroke="rgb(0%, 0%, 0%)" stroke-opacity="1" stroke-miterlimit="1.154701" d="M 66 517.5 L 66 15.5 "/>
<path fill="none" stroke-width="1" stroke-linecap="butt" stroke-linejoin="miter" stroke="rgb(0%, 0%, 0%)" stroke-opacity="1" stroke-miterlimit="1.154701" d="M 65.5 16 L 576.5 16 "/>
<path fill="none" stroke-width="1" stroke-linecap="butt" stroke-linejoin="miter" stroke="rgb(0%, 0%, 0%)" stroke-opacity="1" stroke-miterlimit="1.154701" d="M 576 517.5 L 576 15.5 "/>
</svg>
