<?xml version="1.0" encoding="UTF-8"?>
<svg xmlns="http://www.w3.org/2000/svg" xmlns:xlink="http://www.w3.org/1999/xlink" width="768" height="576" viewBox="0 0 768 576">
<defs>
<g>
<g id="glyph-0-0-4f8f58b4">
<path d="M 9.34375 -5.109375 C 9.34375 -1.9375 7.75 0 5.1875 0 C 5.1875 0 1.25 0 1.25 0 C 1.25 0 1.25 -10.203125 1.25 -10.203125 C 1.25 -10.203125 5.1875 -10.203125 5.1875 -10.203125 C 7.765625 -10.203125 9.34375 -8.28125 9.34375 -5.109375 Z M 8.03125 -5.09375 C 8.03125 -7.703125 6.96875 -9.0625 4.953125 -9.0625 C 4.953125 -9.0625 2.546875 -9.0625 2.546875 -9.0625 C 2.546875 -9.0625 2.546875 -1.140625 2.546875 -1.140625 C 2.546875 -1.140625 4.953125 -1.140625 4.953125 -1.140625 C 6.96875 -1.140625 8.03125 -2.515625 8.03125 -5.09375 Z M 8.03125 -5.09375 "/>
</g>
<g id="glyph-0-1-4f8f58b4">
<path d="M 2.140625 0 C 2.140625 0 0.984375 0 0.984375 0 C 0.984375 0 0.984375 -7.34375 0.984375 -7.34375 C 0.984375 -7.34375 2.140625 -7.34375 2.140625 -7.34375 C 2.140625 -7.34375 2.140625 0 2.140625 0 Z M 2.296875 -8.4375 C 2.296875 -8.4375 0.84375 -8.4375 0.84375 -8.4375 C 0.84375 -8.4375 0.84375 -9.890625 0.84375 -9.890625 C 0.84375 -9.890625 2.296875 -9.890625 2.296875 -9.890625 C 2.296875 -9.890625 2.296875 -8.4375 2.296875 -8.4375 Z M 2.296875 -8.4375 "/>
</g>
<g id="glyph-0-2-4f8f58b4">
<path d="M 6.421875 -2.0625 C 6.421875 -0.640625 5.25 0.203125 3.40625 0.203125 C 1.484375 0.203125 0.53125 -0.546875 0.46875 -2.234375 C 0.46875 -2.234375 1.703125 -2.234375 1.703125 -2.234375 C 1.859375 -1.125 2.453125 -0.875 3.5 -0.875 C 4.515625 -0.875 5.203125 -1.28125 5.203125 -1.953125 C 5.203125 -2.484375 4.890625 -2.734375 4.078125 -2.921875 C 4.078125 -2.921875 2.984375 -3.1875 2.984375 -3.1875 C 1.25 -3.609375 0.65625 -4.15625 0.65625 -5.3125 C 0.65625 -6.65625 1.765625 -7.546875 3.46875 -7.546875 C 5.171875 -7.546875 6.125 -6.734375 6.125 -5.296875 C 6.125 -5.296875 4.90625 -5.296875 4.90625 -5.296875 C 4.875 -6.0625 4.375 -6.46875 3.4375 -6.46875 C 2.484375 -6.46875 1.875 -6.03125 1.875 -5.359375 C 1.875 -4.84375 2.28125 -4.53125 3.234375 -4.3125 C 3.234375 -4.3125 4.359375 -4.046875 4.359375 -4.046875 C 5.8125 -3.703125 6.421875 -3.15625 6.421875 -2.0625 Z M 6.421875 -2.0625 "/>
</g>
<g id="glyph-0-3-4f8f58b4">
<path d="M 3.5625 0 C 3.15625 0.0625 2.890625 0.09375 2.609375 0.09375 C 1.6875 0.09375 1.1875 -0.328125 1.1875 -1.0625 C 1.1875 -1.0625 1.1875 -6.390625 1.1875 -6.390625 C 1.1875 -6.390625 0.203125 -6.390625 0.203125 -6.390625 C 0.203125 -6.390625 0.203125 -7.34375 0.203125 -7.34375 C 0.203125 -7.34375 1.1875 -7.34375 1.1875 -7.34375 C 1.1875 -7.34375 1.1875 -9.359375 1.1875 -9.359375 C 1.1875 -9.359375 2.359375 -9.359375 2.359375 -9.359375 C 2.359375 -9.359375 2.359375 -7.34375 2.359375 -7.34375 C 2.359375 -7.34375 3.5625 -7.34375 3.5625 -7.34375 C 3.5625 -7.34375 3.5625 -6.390625 3.5625 -6.390625 C 3.5625 -6.390625 2.359375 -6.390625 2.359375 -6.390625 C 2.359375 -6.390625 2.359375 -1.578125 2.359375 -1.578125 C 2.359375 -1.0625 2.484375 -0.921875 3 -0.921875 C 3.21875 -0.921875 3.40625 -0.9375 3.5625 -0.984375 C 3.5625 -0.984375 3.5625 0 3.5625 0 Z M 3.5625 0 "/>
</g>
<g id="glyph-0-4-4f8f58b4">
<path d="M 4.5 -6.3125 C 2.6875 -6.28125 2.140625 -5.453125 2.140625 -3.8125 C 2.140625 -3.8125 2.140625 0 2.140625 0 C 2.140625 0 0.984375 0 0.984375 0 C 0.984375 0 0.984375 -7.34375 0.984375 -7.34375 C 0.984375 -7.34375 2.046875 -7.34375 2.046875 -7.34375 C 2.046875 -7.34375 2.046875 -6 2.046875 -6 C 2.71875 -7.09375 3.296875 -7.546875 4.046875 -7.546875 C 4.203125 -7.546875 4.296875 -7.53125 4.5 -7.5 C 4.5 -7.5 4.5 -6.3125 4.5 -6.3125 Z M 4.5 -6.3125 "/>
</g>
<g id="glyph-0-5-4f8f58b4">
<path d="M 7.328125 -3.75 C 7.328125 -1.375 6.0625 0.203125 4.125 0.203125 C 3.109375 0.203125 2.359375 -0.203125 1.8125 -1.046875 C 1.8125 -1.046875 1.8125 0 1.8125 0 C 1.8125 0 0.75 0 0.75 0 C 0.75 0 0.75 -10.203125 0.75 -10.203125 C 0.75 -10.203125 1.921875 -10.203125 1.921875 -10.203125 C 1.921875 -10.203125 1.921875 -6.34375 1.921875 -6.34375 C 2.46875 -7.171875 3.171875 -7.546875 4.1875 -7.546875 C 6.125 -7.546875 7.328125 -6.125 7.328125 -3.75 Z M 6.109375 -3.6875 C 6.109375 -5.3125 5.265625 -6.453125 3.96875 -6.453125 C 2.734375 -6.515625 1.921875 -5.390625 1.921875 -3.671875 C 1.921875 -2 2.734375 -0.875 3.96875 -0.875 C 5.234375 -0.875 6.109375 -2.015625 6.109375 -3.6875 Z M 6.109375 -3.6875 "/>
</g>
<g id="glyph-0-6-4f8f58b4">
<path d="M 6.75 0 C 6.75 0 5.703125 0 5.703125 0 C 5.703125 0 5.703125 -1.140625 5.703125 -1.140625 C 5.015625 -0.171875 4.328125 0.203125 3.25 0.203125 C 1.8125 0.203125 0.90625 -0.578125 0.90625 -1.796875 C 0.90625 -1.796875 0.90625 -7.34375 0.90625 -7.34375 C 0.90625 -7.34375 2.078125 -7.34375 2.078125 -7.34375 C 2.078125 -7.34375 2.078125 -2.25 2.078125 -2.25 C 2.078125 -1.375 2.65625 -0.8125 3.578125 -0.8125 C 4.796875 -0.8125 5.59375 -1.796875 5.59375 -3.296875 C 5.59375 -3.296875 5.59375 -7.34375 5.59375 -7.34375 C 5.59375 -7.34375 6.75 -7.34375 6.75 -7.34375 C 6.75 -7.34375 6.75 0 6.75 0 Z M 6.75 0 "/>
</g>
<g id="glyph-0-7-4f8f58b4">
<path d="M 7.140625 -3.609375 C 7.140625 -1.203125 5.875 0.203125 3.828125 0.203125 C 1.734375 0.203125 0.5 -1.203125 0.5 -3.671875 C 0.5 -6.125 1.75 -7.546875 3.8125 -7.546875 C 5.921875 -7.546875 7.140625 -6.140625 7.140625 -3.609375 Z M 5.921875 -3.625 C 5.921875 -5.453125 5.140625 -6.46875 3.828125 -6.46875 C 2.515625 -6.46875 1.71875 -5.4375 1.71875 -3.671875 C 1.71875 -1.890625 2.515625 -0.875 3.828125 -0.875 C 5.109375 -0.875 5.921875 -1.90625 5.921875 -3.625 Z M 5.921875 -3.625 "/>
</g>
<g id="glyph-0-8-4f8f58b4">
<path d="M 6.8125 0 C 6.8125 0 5.65625 0 5.65625 0 C 5.65625 0 5.65625 -5.078125 5.65625 -5.078125 C 5.65625 -5.96875 5.0625 -6.53125 4.140625 -6.53125 C 2.953125 -6.53125 2.140625 -5.546875 2.140625 -4.046875 C 2.140625 -4.046875 2.140625 0 2.140625 0 C 2.140625 0 0.984375 0 0.984375 0 C 0.984375 0 0.984375 -7.34375 0.984375 -7.34375 C 0.984375 -7.34375 2.0625 -7.34375 2.0625 -7.34375 C 2.0625 -7.34375 2.0625 -6.109375 2.0625 -6.109375 C 2.703125 -7.125 3.40625 -7.546875 4.5 -7.546875 C 5.90625 -7.546875 6.8125 -6.765625 6.8125 -5.546875 C 6.8125 -5.546875 6.8125 0 6.8125 0 Z M 6.8125 0 "/>
</g>
<g id="glyph-0-9-4f8f58b4">
</g>
<g id="glyph-0-10-4f8f58b4">
<path d="M 8.578125 0 C 8.578125 0 1.265625 0 1.265625 0 C 1.265625 0 1.265625 -10.203125 1.265625 -10.203125 C 1.265625 -10.203125 8.328125 -10.203125 8.328125 -10.203125 C 8.328125 -10.203125 8.328125 -9.0625 8.328125 -9.0625 C 8.328125 -9.0625 2.5625 -9.0625 2.5625 -9.0625 C 2.5625 -9.0625 2.5625 -5.796875 2.5625 -5.796875 C 2.5625 -5.796875 8.125 -5.796875 8.125 -5.796875 C 8.125 -5.796875 8.125 -4.640625 8.125 -4.640625 C 8.125 -4.640625 2.5625 -4.640625 2.5625 -4.640625 C 2.5625 -4.640625 2.5625 -1.140625 2.5625 -1.140625 C 2.5625 -1.140625 8.578125 -1.140625 8.578125 -1.140625 C 8.578125 -1.140625 8.578125 0 8.578125 0 Z M 8.578125 0 "/>
</g>
<g id="glyph-0-11-4f8f58b4">
<path d="M 7.09375 -4.78125 C 7.09375 -1.515625 5.953125 0.203125 3.84375 0.203125 C 1.71875 0.203125 0.609375 -1.515625 0.609375 -4.859375 C 0.609375 -8.1875 1.703125 -9.921875 3.84375 -9.921875 C 6 -9.921875 7.09375 -8.21875 7.09375 -4.78125 Z M 5.84375 -4.890625 C 5.84375 -7.546875 5.1875 -8.828125 3.84375 -8.828125 C 2.515625 -8.828125 1.859375 -7.5625 1.859375 -4.84375 C 1.859375 -2.125 2.515625 -0.8125 3.828125 -0.8125 C 5.1875 -0.8125 5.84375 -2.078125 5.84375 -4.890625 Z M 5.84375 -4.890625 "/>
</g>
<g id="glyph-0-12-4f8f58b4">
<path d="M 2.671875 0 C 2.671875 0 1.21875 0 1.21875 0 C 1.21875 0 1.21875 -1.453125 1.21875 -1.453125 C 1.21875 -1.453125 2.671875 -1.453125 2.671875 -1.453125 C 2.671875 -1.453125 2.671875 0 2.671875 0 Z M 2.671875 0 "/>
</g>
<g id="glyph-0-13-4f8f58b4">
<path d="M 4.859375 0 C 4.859375 0 3.625 0 3.625 0 C 3.625 0 3.625 -7.0625 3.625 -7.0625 C 3.625 -7.0625 1.421875 -7.0625 1.421875 -7.0625 C 1.421875 -7.0625 1.421875 -7.953125 1.421875 -7.953125 C 3.328125 -8.1875 3.609375 -8.40625 4.046875 -9.921875 C 4.046875 -9.921875 4.859375 -9.921875 4.859375 -9.921875 C 4.859375 -9.921875 4.859375 0 4.859375 0 Z M 4.859375 0 "/>
</g>
<g id="glyph-0-14-4f8f58b4">
<path d="M 7.15625 -7.015625 C 7.15625 -5.796875 6.4375 -4.765625 5.046875 -4.015625 C 5.046875 -4.015625 3.65625 -3.265625 3.65625 -3.265625 C 2.4375 -2.546875 1.984375 -2.03125 1.859375 -1.21875 C 1.859375 -1.21875 7.078125 -1.21875 7.078125 -1.21875 C 7.078125 -1.21875 7.078125 0 7.078125 0 C 7.078125 0 0.46875 0 0.46875 0 C 0.59375 -2.1875 1.1875 -3.125 3.265625 -4.296875 C 3.265625 -4.296875 4.546875 -5.03125 4.546875 -5.03125 C 5.4375 -5.53125 5.890625 -6.203125 5.890625 -6.984375 C 5.890625 -8.046875 5.046875 -8.84375 3.9375 -8.84375 C 2.71875 -8.84375 2.03125 -8.140625 1.9375 -6.484375 C 1.9375 -6.484375 0.703125 -6.484375 0.703125 -6.484375 C 0.765625 -8.890625 1.953125 -9.921875 3.96875 -9.921875 C 5.859375 -9.921875 7.15625 -8.6875 7.15625 -7.015625 Z M 7.15625 -7.015625 "/>
</g>
<g id="glyph-0-15-4f8f58b4">
<path d="M 7.078125 -2.890625 C 7.078125 -1.015625 5.765625 0.203125 3.71875 0.203125 C 1.6875 0.203125 0.609375 -0.78125 0.453125 -3 C 0.453125 -3 1.6875 -3 1.6875 -3 C 1.765625 -1.546875 2.421875 -0.875 3.765625 -0.875 C 5.046875 -0.875 5.828125 -1.625 5.828125 -2.875 C 5.828125 -3.96875 5.125 -4.625 3.765625 -4.625 C 3.765625 -4.625 3.09375 -4.625 3.09375 -4.625 C 3.09375 -4.625 3.09375 -5.65625 3.09375 -5.65625 C 5.0625 -5.65625 5.53125 -6.09375 5.53125 -7.15625 C 5.53125 -8.203125 4.875 -8.84375 3.78125 -8.84375 C 2.515625 -8.84375 1.921875 -8.1875 1.890625 -6.71875 C 1.890625 -6.71875 0.65625 -6.71875 0.65625 -6.71875 C 0.703125 -8.828125 1.765625 -9.921875 3.765625 -9.921875 C 5.65625 -9.921875 6.796875 -8.90625 6.796875 -7.203125 C 6.796875 -6.203125 6.328125 -5.5625 5.40625 -5.1875 C 6.59375 -4.78125 7.078125 -4.09375 7.078125 -2.890625 Z M 7.078125 -2.890625 "/>
</g>
<g id="glyph-0-16-4f8f58b4">
<path d="M 7.28125 -2.375 C 7.28125 -2.375 5.8125 -2.375 5.8125 -2.375 C 5.8125 -2.375 5.8125 0 5.8125 0 C 5.8125 0 4.578125 0 4.578125 0 C 4.578125 0 4.578125 -2.375 4.578125 -2.375 C 4.578125 -2.375 0.390625 -2.375 0.390625 -2.375 C 0.390625 -2.375 0.390625 -3.6875 0.390625 -3.6875 C 0.390625 -3.6875 4.90625 -9.921875 4.90625 -9.921875 C 4.90625 -9.921875 5.8125 -9.921875 5.8125 -9.921875 C 5.8125 -9.921875 5.8125 -3.484375 5.8125 -3.484375 C 5.8125 -3.484375 7.28125 -3.484375 7.28125 -3.484375 C 7.28125 -3.484375 7.28125 -2.375 7.28125 -2.375 Z M 4.578125 -3.484375 C 4.578125 -3.484375 4.578125 -7.828125 4.578125 -7.828125 C 4.578125 -7.828125 1.46875 -3.484375 1.46875 -3.484375 C 1.46875 -3.484375 4.578125 -3.484375 4.578125 -3.484375 Z M 4.578125 -3.484375 "/>
</g>
<g id="glyph-0-17-4f8f58b4">
<path d="M 7.1875 -3.296875 C 7.1875 -1.1875 5.78125 0.203125 3.78125 0.203125 C 2.015625 0.203125 0.890625 -0.578125 0.484375 -2.546875 C 0.484375 -2.546875 1.71875 -2.546875 1.71875 -2.546875 C 2.015625 -1.421875 2.671875 -0.875 3.75 -0.875 C 5.09375 -0.875 5.921875 -1.6875 5.921875 -3.125 C 5.921875 -4.59375 5.078125 -5.453125 3.75 -5.453125 C 2.984375 -5.453125 2.5 -5.203125 1.9375 -4.515625 C 1.9375 -4.515625 0.796875 -4.515625 0.796875 -4.515625 C 0.796875 -4.515625 1.546875 -9.71875 1.546875 -9.71875 C 1.546875 -9.71875 6.65625 -9.71875 6.65625 -9.71875 C 6.65625 -9.71875 6.65625 -8.5 6.65625 -8.5 C 6.65625 -8.5 2.53125 -8.5 2.53125 -8.5 C 2.53125 -8.5 2.140625 -5.9375 2.140625 -5.9375 C 2.71875 -6.359375 3.28125 -6.53125 3.96875 -6.53125 C 5.875 -6.53125 7.1875 -5.25 7.1875 -3.296875 Z M 7.1875 -3.296875 "/>
</g>
<g id="glyph-1-0-4f8f58b4">
<path d="M -6.0625 -7.59375 C -6.0625 -7.59375 -6.0625 -6.109375 -6.0625 -6.109375 C -6.0625 -6.109375 -3.625 -5.671875 -3.625 -5.671875 C -3.625 -5.671875 -3.625 -7.140625 -3.625 -7.140625 C -3.625 -7.140625 -2.671875 -7.140625 -2.671875 -7.140625 C -2.671875 -7.140625 -2.671875 -5.5 -2.671875 -5.5 C -2.671875 -5.5 0.28125 -4.953125 0.28125 -4.953125 C 0.28125 -4.953125 0.28125 -3.890625 0.28125 -3.890625 C 0.28125 -3.890625 -2.671875 -4.421875 -2.671875 -4.421875 C -2.671875 -4.421875 -2.671875 -2.6875 -2.671875 -2.6875 C -2.671875 -2.6875 0.28125 -2.140625 0.28125 -2.140625 C 0.28125 -2.140625 0.28125 -1.078125 0.28125 -1.078125 C 0.28125 -1.078125 -2.671875 -1.609375 -2.671875 -1.609375 C -2.671875 -1.609375 -2.671875 -0.203125 -2.671875 -0.203125 C -2.671875 -0.203125 -3.625 -0.203125 -3.625 -0.203125 C -3.625 -0.203125 -3.625 -1.796875 -3.625 -1.796875 C -3.625 -1.796875 -6.0625 -2.21875 -6.0625 -2.21875 C -6.0625 -2.21875 -6.0625 -0.71875 -6.0625 -0.71875 C -6.0625 -0.71875 -7.015625 -0.71875 -7.015625 -0.71875 C -7.015625 -0.71875 -7.015625 -2.40625 -7.015625 -2.40625 C -7.015625 -2.40625 -9.765625 -2.90625 -9.765625 -2.90625 C -9.765625 -2.90625 -9.765625 -3.96875 -9.765625 -3.96875 C -9.765625 -3.96875 -7.015625 -3.46875 -7.015625 -3.46875 C -7.015625 -3.46875 -7.015625 -5.21875 -7.015625 -5.21875 C -7.015625 -5.21875 -9.765625 -5.71875 -9.765625 -5.71875 C -9.765625 -5.71875 -9.765625 -6.796875 -9.765625 -6.796875 C -9.765625 -6.796875 -7.015625 -6.28125 -7.015625 -6.28125 C -7.015625 -6.28125 -7.015625 -7.59375 -7.015625 -7.59375 C -7.015625 -7.59375 -6.0625 -7.59375 -6.0625 -7.59375 Z M -6.0625 -5.046875 C -6.0625 -5.046875 -6.0625 -3.296875 -6.0625 -3.296875 C -6.0625 -3.296875 -3.625 -2.859375 -3.625 -2.859375 C -3.625 -2.859375 -3.625 -4.609375 -3.625 -4.609375 C -3.625 -4.609375 -6.0625 -5.046875 -6.0625 -5.046875 Z M -6.0625 -5.046875 "/>
</g>
<g id="glyph-1-1-4f8f58b4">
<path d="M -3.328125 -7.1875 C -3.328125 -7.1875 -3.328125 -1.78125 -3.328125 -1.78125 C -1.65625 -1.8125 -0.875 -2.71875 -0.875 -3.9375 C -0.875 -4.875 -1.265625 -5.53125 -2.21875 -5.859375 C -2.21875 -5.859375 -2.21875 -7.03125 -2.21875 -7.03125 C -0.734375 -6.734375 0.203125 -5.578125 0.203125 -3.890625 C 0.203125 -1.828125 -1.21875 -0.5625 -3.625 -0.5625 C -6.03125 -0.5625 -7.546875 -1.875 -7.546875 -3.921875 C -7.546875 -5.296875 -6.8125 -6.40625 -5.609375 -6.890625 C -5.0625 -7.09375 -4.390625 -7.1875 -3.328125 -7.1875 Z M -4.375 -5.9375 C -5.515625 -5.9375 -6.46875 -5.046875 -6.46875 -3.90625 C -6.46875 -2.734375 -5.59375 -1.90625 -4.28125 -1.8125 C -4.28125 -1.8125 -4.28125 -5.921875 -4.28125 -5.921875 C -4.3125 -5.9375 -4.375 -5.9375 -4.375 -5.9375 Z M -4.375 -5.9375 "/>
</g>
<g id="glyph-2-0-4f8f58b4">
</g>
<g id="glyph-3-0-4f8f58b4">
<path d="M -2.796875 -8.6875 C -0.984375 -8.6875 0.25 -7.296875 0.25 -4.703125 C 0.25 -2.296875 -0.90625 -0.671875 -3.3125 -0.671875 C -3.3125 -0.671875 -3.3125 -1.90625 -3.3125 -1.90625 C -1.859375 -1.90625 -0.890625 -2.859375 -0.890625 -4.78125 C -0.890625 -6.546875 -1.546875 -7.390625 -2.671875 -7.390625 C -3.46875 -7.390625 -3.984375 -6.796875 -4.328125 -5.515625 C -4.328125 -5.515625 -5 -2.984375 -5 -2.984375 C -5.34375 -1.640625 -6.125 -0.984375 -7.375 -0.984375 C -9.21875 -0.984375 -10.453125 -2.359375 -10.453125 -4.609375 C -10.453125 -6.953125 -9.296875 -8.34375 -7.296875 -8.34375 C -7.296875 -8.34375 -7.296875 -7.109375 -7.296875 -7.109375 C -8.625 -7.109375 -9.359375 -6.1875 -9.359375 -4.5625 C -9.359375 -3.1875 -8.59375 -2.28125 -7.5625 -2.28125 C -6.78125 -2.28125 -6.375 -2.734375 -6.046875 -3.96875 C -6.046875 -3.96875 -5.359375 -6.53125 -5.359375 -6.53125 C -4.984375 -7.90625 -4.0625 -8.6875 -2.796875 -8.6875 Z M -2.796875 -8.6875 "/>
</g>
<g id="glyph-3-1-4f8f58b4">
<path d="M -3.328125 -7.1875 C -3.328125 -7.1875 -3.328125 -1.78125 -3.328125 -1.78125 C -1.65625 -1.8125 -0.875 -2.71875 -0.875 -3.9375 C -0.875 -4.875 -1.265625 -5.53125 -2.21875 -5.859375 C -2.21875 -5.859375 -2.21875 -7.03125 -2.21875 -7.03125 C -0.734375 -6.734375 0.203125 -5.578125 0.203125 -3.890625 C 0.203125 -1.828125 -1.21875 -0.5625 -3.625 -0.5625 C -6.03125 -0.5625 -7.546875 -1.875 -7.546875 -3.921875 C -7.546875 -5.296875 -6.8125 -6.40625 -5.609375 -6.890625 C -5.0625 -7.09375 -4.390625 -7.1875 -3.328125 -7.1875 Z M -4.375 -5.9375 C -5.515625 -5.9375 -6.46875 -5.046875 -6.46875 -3.90625 C -6.46875 -2.734375 -5.59375 -1.90625 -4.28125 -1.8125 C -4.28125 -1.8125 -4.28125 -5.921875 -4.28125 -5.921875 C -4.3125 -5.9375 -4.375 -5.9375 -4.375 -5.9375 Z M -4.375 -5.9375 "/>
</g>
<g id="glyph-3-2-4f8f58b4">
<path d="M 0 -2.109375 C 0 -2.109375 0 -0.953125 0 -0.953125 C 0 -0.953125 -10.203125 -0.953125 -10.203125 -0.953125 C -10.203125 -0.953125 -10.203125 -2.109375 -10.203125 -2.109375 C -10.203125 -2.109375 0 -2.109375 0 -2.109375 Z M 0 -2.109375 "/>
</g>
<g id="glyph-4-0-4f8f58b4">
<path d="M -2.515625 -6.671875 C -0.84375 -6.53125 0.203125 -5.4375 0.203125 -3.6875 C 0.203125 -1.6875 -1.234375 -0.4375 -3.59375 -0.4375 C -6.03125 -0.4375 -7.546875 -1.71875 -7.546875 -3.703125 C -7.546875 -5.328125 -6.65625 -6.453125 -4.875 -6.59375 C -4.875 -6.59375 -4.875 -5.421875 -4.875 -5.421875 C -5.890625 -5.28125 -6.46875 -4.65625 -6.46875 -3.6875 C -6.46875 -2.40625 -5.4375 -1.65625 -3.59375 -1.65625 C -1.859375 -1.65625 -0.875 -2.421875 -0.875 -3.703125 C -0.875 -4.703125 -1.34375 -5.3125 -2.515625 -5.5 C -2.515625 -5.5 -2.515625 -6.671875 -2.515625 -6.671875 Z M -2.515625 -6.671875 "/>
</g>
<g id="glyph-5-0-4f8f58b4">
<path d="M 0 -3.5625 C 0.0625 -3.15625 0.09375 -2.890625 0.09375 -2.609375 C 0.09375 -1.6875 -0.328125 -1.1875 -1.0625 -1.1875 C -1.0625 -1.1875 -6.390625 -1.1875 -6.390625 -1.1875 C -6.390625 -1.1875 -6.390625 -0.203125 -6.390625 -0.203125 C -6.390625 -0.203125 -7.34375 -0.203125 -7.34375 -0.203125 C -7.34375 -0.203125 -7.34375 -1.1875 -7.34375 -1.1875 C -7.34375 -1.1875 -9.359375 -1.1875 -9.359375 -1.1875 C -9.359375 -1.1875 -9.359375 -2.359375 -9.359375 -2.359375 C -9.359375 -2.359375 -7.34375 -2.359375 -7.34375 -2.359375 C -7.34375 -2.359375 -7.34375 -3.5625 -7.34375 -3.5625 C -7.34375 -3.5625 -6.390625 -3.5625 -6.390625 -3.5625 C -6.390625 -3.5625 -6.390625 -2.359375 -6.390625 -2.359375 C -6.390625 -2.359375 -1.578125 -2.359375 -1.578125 -2.359375 C -1.0625 -2.359375 -0.921875 -2.484375 -0.921875 -3 C -0.921875 -3.21875 -0.9375 -3.40625 -0.984375 -3.5625 C -0.984375 -3.5625 0 -3.5625 0 -3.5625 Z M 0 -3.5625 "/>
</g>
<g id="glyph-6-0-4f8f58b4">
<path d="M -3.328125 -7.1875 C -3.328125 -7.1875 -3.328125 -1.78125 -3.328125 -1.78125 C -1.65625 -1.8125 -0.875 -2.71875 -0.875 -3.9375 C -0.875 -4.875 -1.265625 -5.53125 -2.21875 -5.859375 C -2.21875 -5.859375 -2.21875 -7.03125 -2.21875 -7.03125 C -0.734375 -6.734375 0.203125 -5.578125 0.203125 -3.890625 C 0.203125 -1.828125 -1.21875 -0.5625 -3.625 -0.5625 C -6.03125 -0.5625 -7.546875 -1.875 -7.546875 -3.921875 C -7.546875 -5.296875 -6.8125 -6.40625 -5.609375 -6.890625 C -5.0625 -7.09375 -4.390625 -7.1875 -3.328125 -7.1875 Z M -4.375 -5.9375 C -5.515625 -5.9375 -6.46875 -5.046875 -6.46875 -3.90625 C -6.46875 -2.734375 -5.59375 -1.90625 -4.28125 -1.8125 C -4.28125 -1.8125 -4.28125 -5.921875 -4.28125 -5.921875 C -4.3125 -5.9375 -4.375 -5.9375 -4.375 -5.9375 Z M -4.375 -5.9375 "/>
</g>
<g id="glyph-7-0-4f8f58b4">
<path d="M 0 -6.9375 C 0 -6.9375 0 -5.890625 0 -5.890625 C 0 -5.890625 -1.078125 -5.890625 -1.078125 -5.890625 C -0.171875 -5.265625 0.203125 -4.5625 0.203125 -3.5625 C 0.203125 -1.578125 -1.265625 -0.359375 -3.734375 -0.359375 C -6.078125 -0.359375 -7.546875 -1.609375 -7.546875 -3.515625 C -7.546875 -4.5 -7.15625 -5.28125 -6.40625 -5.765625 C -6.40625 -5.765625 -10.203125 -5.765625 -10.203125 -5.765625 C -10.203125 -5.765625 -10.203125 -6.9375 -10.203125 -6.9375 C -10.203125 -6.9375 0 -6.9375 0 -6.9375 Z M -3.640625 -5.765625 C -5.328125 -5.765625 -6.453125 -4.96875 -6.453125 -3.703125 C -6.453125 -2.4375 -5.375 -1.578125 -3.671875 -1.578125 C -1.953125 -1.578125 -0.875 -2.4375 -0.875 -3.71875 C -0.875 -4.953125 -1.953125 -5.765625 -3.640625 -5.765625 Z M -3.640625 -5.765625 "/>
</g>
<g id="glyph-7-1-4f8f58b4">
</g>
<g id="glyph-8-0-4f8f58b4">
<path d="M -10.203125 -9.03125 C -10.203125 -9.03125 0 -5.484375 0 -5.484375 C 0 -5.484375 0 -4.09375 0 -4.09375 C 0 -4.09375 -10.203125 -0.421875 -10.203125 -0.421875 C -10.203125 -0.421875 -10.203125 -1.8125 -10.203125 -1.8125 C -10.203125 -1.8125 -1.5625 -4.8125 -1.5625 -4.8125 C -1.5625 -4.8125 -10.203125 -7.640625 -10.203125 -7.640625 C -10.203125 -7.640625 -10.203125 -9.03125 -10.203125 -9.03125 Z M -10.203125 -9.03125 "/>
</g>
<g id="glyph-8-1-4f8f58b4">
<path d="M -2.0625 -6.421875 C -0.640625 -6.421875 0.203125 -5.25 0.203125 -3.40625 C 0.203125 -1.484375 -0.546875 -0.53125 -2.234375 -0.46875 C -2.234375 -0.46875 -2.234375 -1.703125 -2.234375 -1.703125 C -1.125 -1.859375 -0.875 -2.453125 -0.875 -3.5 C -0.875 -4.515625 -1.28125 -5.203125 -1.953125 -5.203125 C -2.484375 -5.203125 -2.734375 -4.890625 -2.921875 -4.078125 C -2.921875 -4.078125 -3.1875 -2.984375 -3.1875 -2.984375 C -3.609375 -1.25 -4.15625 -0.65625 -5.3125 -0.65625 C -6.65625 -0.65625 -7.546875 -1.765625 -7.546875 -3.46875 C -7.546875 -5.171875 -6.734375 -6.125 -5.296875 -6.125 C -5.296875 -6.125 -5.296875 -4.90625 -5.296875 -4.90625 C -6.0625 -4.875 -6.46875 -4.375 -6.46875 -3.4375 C -6.46875 -2.484375 -6.03125 -1.875 -5.359375 -1.875 C -4.84375 -1.875 -4.53125 -2.28125 -4.3125 -3.234375 C -4.3125 -3.234375 -4.046875 -4.359375 -4.046875 -4.359375 C -3.703125 -5.8125 -3.15625 -6.421875 -2.0625 -6.421875 Z M -2.0625 -6.421875 "/>
</g>
<g id="glyph-9-0-4f8f58b4">
<path d="M -7.203125 -8.640625 C -5.515625 -8.640625 -4.328125 -7.46875 -4.328125 -5.78125 C -4.328125 -5.78125 -4.328125 -2.578125 -4.328125 -2.578125 C -4.328125 -2.578125 0 -2.578125 0 -2.578125 C 0 -2.578125 0 -1.28125 0 -1.28125 C 0 -1.28125 -10.203125 -1.28125 -10.203125 -1.28125 C -10.203125 -1.28125 -10.203125 -5.484375 -10.203125 -5.484375 C -10.203125 -7.5 -9.125 -8.640625 -7.203125 -8.640625 Z M -7.265625 -7.28125 C -8.390625 -7.28125 -9.0625 -6.53125 -9.0625 -5.296875 C -9.0625 -5.296875 -9.0625 -2.578125 -9.0625 -2.578125 C -9.0625 -2.578125 -5.46875 -2.578125 -5.46875 -2.578125 C -5.46875 -2.578125 -5.46875 -5.296875 -5.46875 -5.296875 C -5.46875 -6.53125 -6.140625 -7.28125 -7.265625 -7.28125 Z M -7.265625 -7.28125 "/>
</g>
</g>
</defs>
<rect x="-76.8" y="-57.6" width="921.6" height="691.2" fill="rgb(100%, 100%, 100%)" fill-opacity="1"/>
<path fill-rule="nonzero" fill="rgb(100%, 100%, 100%)" fill-opacity="1" d="M 77 517 L 752 517 L 752 16 L 77 16 Z M 77 517 "/>
<path fill="none" stroke-width="1" stroke-linecap="butt" stroke-linejoin="miter" stroke="rgb(0%, 0%, 0%)" stroke-opacity="0.12" stroke-miterlimit="1.154701" d="M 107.683594 517 L 107.683594 16 "/>
<path fill="none" stroke-width="1" stroke-linecap="butt" stroke-linejoin="miter" stroke="rgb(0%, 0%, 0%)" stroke-opacity="0.12" stroke-miterlimit="1.154701" d="M 272.328125 517 L 272.328125 16 "/>
<path fill="none" stroke-width="1" stroke-linecap="butt" stroke-linejoin="miter" stroke="rgb(0%, 0%, 0%)" stroke-opacity="0.12" stroke-miterlimit="1.154701" d="M 436.972656 517 L 436.972656 16 "/>
<path fill="none" stroke-width="1" stroke-linecap="butt" stroke-linejoin="miter" stroke="rgb(0%, 0%, 0%)" stroke-opacity="0.12" stroke-miterlimit="1.154701" d="M 601.621094 517 L 601.621094 16 "/>
<path fill="none" stroke-width="1" stroke-linecap="butt" stroke-linejoin="miter" stroke="rgb(0%, 0%, 0%)" stroke-opacity="0.12" stroke-miterlimit="1.154701" d="M 77 494.226562 L 752 494.226562 "/>
<path fill="none" stroke-width="1" stroke-linecap="butt" stroke-linejoin="miter" stroke="rgb(0%, 0%, 0%)" stroke-opacity="0.12" stroke-miterlimit="1.154701" d="M 77 380.363281 L 752 380.363281 "/>
<path fill="none" stroke-width="1" stroke-linecap="butt" stroke-linejoin="miter" stroke="rgb(0%, 0%, 0%)" stroke-opacity="0.12" stroke-miterlimit="1.154701" d="M 77 266.5 L 752 266.5 "/>
<path fill="none" stroke-width="1" stroke-linecap="butt" stroke-linejoin="miter" stroke="rgb(0%, 0%, 0%)" stroke-opacity="0.12" stroke-miterlimit="1.154701" d="M 77 152.636719 L 752 152.636719 "/>
<path fill="none" stroke-width="1" stroke-linecap="butt" stroke-linejoin="miter" stroke="rgb(0%, 0%, 0%)" stroke-opacity="0.12" stroke-miterlimit="1.154701" d="M 77 38.773438 L 752 38.773438 "/>
<g fill="rgb(0%, 0%, 0%)" fill-opacity="1">
<use xlink:href="#glyph-0-0-4f8f58b4" x="361.993011" y="557.568"/>
</g>
<g fill="rgb(0%, 0%, 0%)" fill-opacity="1">
<use xlink:href="#glyph-0-1-4f8f58b4" x="372.101009" y="557.568"/>
</g>
<g fill="rgb(0%, 0%, 0%)" fill-opacity="1">
<use xlink:href="#glyph-0-2-4f8f58b4" x="375.209011" y="557.568"/>
</g>
<g fill="rgb(0%, 0%, 0%)" fill-opacity="1">
<use xlink:href="#glyph-0-3-4f8f58b4" x="382.209011" y="557.568"/>
</g>
<g fill="rgb(0%, 0%, 0%)" fill-opacity="1">
<use xlink:href="#glyph-0-4-4f8f58b4" x="386.101011" y="557.568"/>
</g>
<g fill="rgb(0%, 0%, 0%)" fill-opacity="1">
<use xlink:href="#glyph-0-1-4f8f58b4" x="390.763012" y="557.568"/>
</g>
<g fill="rgb(0%, 0%, 0%)" fill-opacity="1">
<use xlink:href="#glyph-0-5-4f8f58b4" x="393.871012" y="557.568"/>
</g>
<g fill="rgb(0%, 0%, 0%)" fill-opacity="1">
<use xlink:href="#glyph-0-6-4f8f58b4" x="401.655011" y="557.568"/>
</g>
<g fill="rgb(0%, 0%, 0%)" fill-opacity="1">
<use xlink:href="#glyph-0-3-4f8f58b4" x="409.439011" y="557.568"/>
</g>
<g fill="rgb(0%, 0%, 0%)" fill-opacity="1">
<use xlink:href="#glyph-0-1-4f8f58b4" x="413.33101" y="557.568"/>
</g>
<g fill="rgb(0%, 0%, 0%)" fill-opacity="1">
<use xlink:href="#glyph-0-7-4f8f58b4" x="416.439012" y="557.568"/>
</g>
<g fill="rgb(0%, 0%, 0%)" fill-opacity="1">
<use xlink:href="#glyph-0-8-4f8f58b4" x="424.223012" y="557.568"/>
</g>
<g fill="rgb(0%, 0%, 0%)" fill-opacity="1">
<use xlink:href="#glyph-0-9-4f8f58b4" x="432.007013" y="557.568"/>
</g>
<g fill="rgb(0%, 0%, 0%)" fill-opacity="1">
<use xlink:href="#glyph-0-10-4f8f58b4" x="435.899011" y="557.568"/>
</g>
<g fill="rgb(0%, 0%, 0%)" fill-opacity="1">
<use xlink:href="#glyph-0-4-4f8f58b4" x="445.237009" y="557.568"/>
</g>
<g fill="rgb(0%, 0%, 0%)" fill-opacity="1">
<use xlink:href="#glyph-0-4-4f8f58b4" x="449.899012" y="557.568"/>
</g>
<g fill="rgb(0%, 0%, 0%)" fill-opacity="1">
<use xlink:href="#glyph-0-7-4f8f58b4" x="454.561014" y="557.568"/>
</g>
<g fill="rgb(0%, 0%, 0%)" fill-opacity="1">
<use xlink:href="#glyph-0-4-4f8f58b4" x="462.345011" y="557.568"/>
</g>
<g fill="rgb(0%, 0%, 0%)" fill-opacity="1">
<use xlink:href="#glyph-0-11-4f8f58b4" x="97.951819" y="538.258"/>
</g>
<g fill="rgb(0%, 0%, 0%)" fill-opacity="1">
<use xlink:href="#glyph-0-12-4f8f58b4" x="105.73582" y="538.258"/>
</g>
<g fill="rgb(0%, 0%, 0%)" fill-opacity="1">
<use xlink:href="#glyph-0-11-4f8f58b4" x="109.627819" y="538.258"/>
</g>
<g fill="rgb(0%, 0%, 0%)" fill-opacity="1">
<use xlink:href="#glyph-0-11-4f8f58b4" x="262.598011" y="538.258"/>
</g>
<g fill="rgb(0%, 0%, 0%)" fill-opacity="1">
<use xlink:href="#glyph-0-12-4f8f58b4" x="270.382011" y="538.258"/>
</g>
<g fill="rgb(0%, 0%, 0%)" fill-opacity="1">
<use xlink:href="#glyph-0-13-4f8f58b4" x="274.274011" y="538.258"/>
</g>
<g fill="rgb(0%, 0%, 0%)" fill-opacity="1">
<use xlink:href="#glyph-0-11-4f8f58b4" x="427.244226" y="538.258"/>
</g>
<g fill="rgb(0%, 0%, 0%)" fill-opacity="1">
<use xlink:href="#glyph-0-12-4f8f58b4" x="435.028226" y="538.258"/>
</g>
<g fill="rgb(0%, 0%, 0%)" fill-opacity="1">
<use xlink:href="#glyph-0-14-4f8f58b4" x="438.920226" y="538.258"/>
</g>
<g fill="rgb(0%, 0%, 0%)" fill-opacity="1">
<use xlink:href="#glyph-0-11-4f8f58b4" x="591.89044" y="538.258"/>
</g>
<g fill="rgb(0%, 0%, 0%)" fill-opacity="1">
<use xlink:href="#glyph-0-12-4f8f58b4" x="599.674441" y="538.258"/>
</g>
<g fill="rgb(0%, 0%, 0%)" fill-opacity="1">
<use xlink:href="#glyph-0-15-4f8f58b4" x="603.56644" y="538.258"/>
</g>
<g fill="rgb(0%, 0%, 0%)" fill-opacity="1">
<use xlink:href="#glyph-1-0-4f8f58b4" x="27.811997" y="314.358988"/>
</g>
<g fill="rgb(0%, 0%, 0%)" fill-opacity="1">
<use xlink:href="#glyph-2-0-4f8f58b4" x="27.811997" y="306.574987"/>
</g>
<g fill="rgb(0%, 0%, 0%)" fill-opacity="1">
<use xlink:href="#glyph-3-0-4f8f58b4" x="27.811997" y="302.682989"/>
</g>
<g fill="rgb(0%, 0%, 0%)" fill-opacity="1">
<use xlink:href="#glyph-3-1-4f8f58b4" x="27.811998" y="293.34499"/>
</g>
<g fill="rgb(0%, 0%, 0%)" fill-opacity="1">
<use xlink:href="#glyph-3-2-4f8f58b4" x="27.811998" y="285.560989"/>
</g>
<g fill="rgb(0%, 0%, 0%)" fill-opacity="1">
<use xlink:href="#glyph-1-1-4f8f58b4" x="27.811998" y="282.45299"/>
</g>
<g fill="rgb(0%, 0%, 0%)" fill-opacity="1">
<use xlink:href="#glyph-4-0-4f8f58b4" x="27.811999" y="274.668992"/>
</g>
<g fill="rgb(0%, 0%, 0%)" fill-opacity="1">
<use xlink:href="#glyph-5-0-4f8f58b4" x="27.811999" y="267.668992"/>
</g>
<g fill="rgb(0%, 0%, 0%)" fill-opacity="1">
<use xlink:href="#glyph-6-0-4f8f58b4" x="27.812" y="263.776994"/>
</g>
<g fill="rgb(0%, 0%, 0%)" fill-opacity="1">
<use xlink:href="#glyph-7-0-4f8f58b4" x="27.812" y="255.992995"/>
</g>
<g fill="rgb(0%, 0%, 0%)" fill-opacity="1">
<use xlink:href="#glyph-7-1-4f8f58b4" x="27.812001" y="248.208999"/>
</g>
<g fill="rgb(0%, 0%, 0%)" fill-opacity="1">
<use xlink:href="#glyph-8-0-4f8f58b4" x="27.812001" y="244.317001"/>
</g>
<g fill="rgb(0%, 0%, 0%)" fill-opacity="1">
<use xlink:href="#glyph-9-0-4f8f58b4" x="27.812001" y="234.979003"/>
</g>
<g fill="rgb(0%, 0%, 0%)" fill-opacity="1">
<use xlink:href="#glyph-8-1-4f8f58b4" x="27.812002" y="225.641008"/>
</g>
<g fill="rgb(0%, 0%, 0%)" fill-opacity="1">
<use xlink:href="#glyph-0-13-4f8f58b4" x="35.864001" y="499.330272"/>
</g>
<g fill="rgb(0%, 0%, 0%)" fill-opacity="1">
<use xlink:href="#glyph-0-11-4f8f58b4" x="43.648002" y="499.330272"/>
</g>
<g fill="rgb(0%, 0%, 0%)" fill-opacity="1">
<use xlink:href="#glyph-0-11-4f8f58b4" x="51.432002" y="499.330272"/>
</g>
<g fill="rgb(0%, 0%, 0%)" fill-opacity="1">
<use xlink:href="#glyph-0-11-4f8f58b4" x="59.216001" y="499.330272"/>
</g>
<g fill="rgb(0%, 0%, 0%)" fill-opacity="1">
<use xlink:href="#glyph-0-14-4f8f58b4" x="35.864001" y="385.466631"/>
</g>
<g fill="rgb(0%, 0%, 0%)" fill-opacity="1">
<use xlink:href="#glyph-0-11-4f8f58b4" x="43.648002" y="385.466631"/>
</g>
<g fill="rgb(0%, 0%, 0%)" fill-opacity="1">
<use xlink:href="#glyph-0-11-4f8f58b4" x="51.432002" y="385.466631"/>
</g>
<g fill="rgb(0%, 0%, 0%)" fill-opacity="1">
<use xlink:href="#glyph-0-11-4f8f58b4" x="59.216001" y="385.466631"/>
</g>
<g fill="rgb(0%, 0%, 0%)" fill-opacity="1">
<use xlink:href="#glyph-0-15-4f8f58b4" x="35.864001" y="271.602998"/>
</g>
<g fill="rgb(0%, 0%, 0%)" fill-opacity="1">
<use xlink:href="#glyph-0-11-4f8f58b4" x="43.648002" y="271.602998"/>
</g>
<g fill="rgb(0%, 0%, 0%)" fill-opacity="1">
<use xlink:href="#glyph-0-11-4f8f58b4" x="51.432002" y="271.602998"/>
</g>
<g fill="rgb(0%, 0%, 0%)" fill-opacity="1">
<use xlink:href="#glyph-0-11-4f8f58b4" x="59.216001" y="271.602998"/>
</g>
<g fill="rgb(0%, 0%, 0%)" fill-opacity="1">
<use xlink:href="#glyph-0-16-4f8f58b4" x="35.864001" y="157.73935"/>
</g>
<g fill="rgb(0%, 0%, 0%)" fill-opacity="1">
<use xlink:href="#glyph-0-11-4f8f58b4" x="43.648002" y="157.73935"/>
</g>
<g fill="rgb(0%, 0%, 0%)" fill-opacity="1">
<use xlink:href="#glyph-0-11-4f8f58b4" x="51.432002" y="157.73935"/>
</g>
<g fill="rgb(0%, 0%, 0%)" fill-opacity="1">
<use xlink:href="#glyph-0-11-4f8f58b4" x="59.216001" y="157.73935"/>
</g>
<g fill="rgb(0%, 0%, 0%)" fill-opacity="1">
<use xlink:href="#glyph-0-17-4f8f58b4" x="35.864001" y="43.875701"/>
</g>
<g fill="rgb(0%, 0%, 0%)" fill-opacity="1">
<use xlink:href="#glyph-0-11-4f8f58b4" x="43.648002" y="43.875701"/>
</g>
<g fill="rgb(0%, 0%, 0%)" fill-opacity="1">
<use xlink:href="#glyph-0-11-4f8f58b4" x="51.432002" y="43.875701"/>
</g>
<g fill="rgb(0%, 0%, 0%)" fill-opacity="1">
<use xlink:href="#glyph-0-11-4f8f58b4" x="59.216001" y="43.875701"/>
</g>
<path fill-rule="nonzero" fill="rgb(0%, 0%, 0%)" fill-opacity="1" d="M 724.492188 38.773438 C 724.492188 34.542969 718.144531 34.542969 718.144531 38.773438 C 718.144531 43.003906 724.492188 43.003906 724.492188 38.773438 Z M 724.492188 38.773438 "/>
<path fill-rule="nonzero" fill="rgb(0%, 0%, 0%)" fill-opacity="1" d="M 721.929688 40.480469 C 721.929688 36.25 715.582031 36.25 715.582031 40.480469 C 715.582031 44.710938 721.929688 44.710938 721.929688 40.480469 Z M 721.929688 40.480469 "/>
<path fill-rule="nonzero" fill="rgb(0%, 0%, 0%)" fill-opacity="1" d="M 707.640625 49.816406 C 707.640625 45.585938 701.296875 45.585938 701.296875 49.816406 C 701.296875 54.046875 707.640625 54.046875 707.640625 49.816406 Z M 707.640625 49.816406 "/>
<path fill-rule="nonzero" fill="rgb(0%, 0%, 0%)" fill-opacity="1" d="M 692.867188 59.15625 C 692.867188 54.925781 686.523438 54.925781 686.523438 59.15625 C 686.523438 63.382812 692.867188 63.382812 692.867188 59.15625 Z M 692.867188 59.15625 "/>
<path fill-rule="nonzero" fill="rgb(0%, 0%, 0%)" fill-opacity="1" d="M 677.582031 68.492188 C 677.582031 64.261719 671.238281 64.261719 671.238281 68.492188 C 671.238281 72.722656 677.582031 72.722656 677.582031 68.492188 Z M 677.582031 68.492188 "/>
<path fill-rule="nonzero" fill="rgb(0%, 0%, 0%)" fill-opacity="1" d="M 661.757812 77.828125 C 661.757812 73.597656 655.414062 73.597656 655.414062 77.828125 C 655.414062 82.058594 661.757812 82.058594 661.757812 77.828125 Z M 661.757812 77.828125 "/>
<path fill-rule="nonzero" fill="rgb(0%, 0%, 0%)" fill-opacity="1" d="M 645.371094 87.164062 C 645.371094 82.933594 639.023438 82.933594 639.023438 87.164062 C 639.023438 91.394531 645.371094 91.394531 645.371094 87.164062 Z M 645.371094 87.164062 "/>
<path fill-rule="nonzero" fill="rgb(0%, 0%, 0%)" fill-opacity="1" d="M 628.382812 96.5 C 628.382812 92.273438 622.035156 92.273438 622.035156 96.5 C 622.035156 100.730469 628.382812 100.730469 628.382812 96.5 Z M 628.382812 96.5 "/>
<path fill-rule="nonzero" fill="rgb(0%, 0%, 0%)" fill-opacity="1" d="M 610.761719 105.839844 C 610.761719 101.609375 604.417969 101.609375 604.417969 105.839844 C 604.417969 110.070312 610.761719 110.070312 610.761719 105.839844 Z M 610.761719 105.839844 "/>
<path fill-rule="nonzero" fill="rgb(0%, 0%, 0%)" fill-opacity="1" d="M 592.472656 115.175781 C 592.472656 110.945312 586.128906 110.945312 586.128906 115.175781 C 586.128906 119.40625 592.472656 119.40625 592.472656 115.175781 Z M 592.472656 115.175781 "/>
<path fill-rule="nonzero" fill="rgb(0%, 0%, 0%)" fill-opacity="1" d="M 573.480469 124.511719 C 573.480469 120.28125 567.136719 120.28125 567.136719 124.511719 C 567.136719 128.742188 573.480469 128.742188 573.480469 124.511719 Z M 573.480469 124.511719 "/>
<path fill-rule="nonzero" fill="rgb(0%, 0%, 0%)" fill-opacity="1" d="M 553.738281 133.847656 C 553.738281 129.617188 547.394531 129.617188 547.394531 133.847656 C 547.394531 138.078125 553.738281 138.078125 553.738281 133.847656 Z M 553.738281 133.847656 "/>
<path fill-rule="nonzero" fill="rgb(0%, 0%, 0%)" fill-opacity="1" d="M 534.265625 143.1875 C 534.265625 138.957031 527.917969 138.957031 527.917969 143.1875 C 527.917969 147.414062 534.265625 147.414062 534.265625 143.1875 Z M 534.265625 143.1875 "/>
<path fill-rule="nonzero" fill="rgb(0%, 0%, 0%)" fill-opacity="1" d="M 527.921875 152.523438 C 527.921875 148.292969 521.578125 148.292969 521.578125 152.523438 C 521.578125 156.753906 527.921875 156.753906 527.921875 152.523438 Z M 527.921875 152.523438 "/>
<path fill-rule="nonzero" fill="rgb(0%, 0%, 0%)" fill-opacity="1" d="M 521.316406 161.859375 C 521.316406 157.628906 514.96875 157.628906 514.96875 161.859375 C 514.96875 166.089844 521.316406 166.089844 521.316406 161.859375 Z M 521.316406 161.859375 "/>
<path fill-rule="nonzero" fill="rgb(0%, 0%, 0%)" fill-opacity="1" d="M 514.425781 171.195312 C 514.425781 166.964844 508.078125 166.964844 508.078125 171.195312 C 508.078125 175.425781 514.425781 175.425781 514.425781 171.195312 Z M 514.425781 171.195312 "/>
<path fill-rule="nonzero" fill="rgb(0%, 0%, 0%)" fill-opacity="1" d="M 507.234375 180.53125 C 507.234375 176.304688 500.886719 176.304688 500.886719 180.53125 C 500.886719 184.761719 507.234375 184.761719 507.234375 180.53125 Z M 507.234375 180.53125 "/>
<path fill-rule="nonzero" fill="rgb(0%, 0%, 0%)" fill-opacity="1" d="M 499.71875 189.871094 C 499.71875 185.640625 493.375 185.640625 493.375 189.871094 C 493.375 194.101562 499.71875 194.101562 499.71875 189.871094 Z M 499.71875 189.871094 "/>
<path fill-rule="nonzero" fill="rgb(0%, 0%, 0%)" fill-opacity="1" d="M 491.863281 199.207031 C 491.863281 194.976562 485.519531 194.976562 485.519531 199.207031 C 485.519531 203.4375 491.863281 203.4375 491.863281 199.207031 Z M 491.863281 199.207031 "/>
<path fill-rule="nonzero" fill="rgb(0%, 0%, 0%)" fill-opacity="1" d="M 483.648438 208.542969 C 483.648438 204.3125 477.300781 204.3125 477.300781 208.542969 C 477.300781 212.773438 483.648438 212.773438 483.648438 208.542969 Z M 483.648438 208.542969 "/>
<path fill-rule="nonzero" fill="rgb(0%, 0%, 0%)" fill-opacity="1" d="M 475.039062 217.878906 C 475.039062 213.648438 468.695312 213.648438 468.695312 217.878906 C 468.695312 222.109375 475.039062 222.109375 475.039062 217.878906 Z M 475.039062 217.878906 "/>
<path fill-rule="nonzero" fill="rgb(0%, 0%, 0%)" fill-opacity="1" d="M 466.011719 227.21875 C 466.011719 222.988281 459.667969 222.988281 459.667969 227.21875 C 459.667969 231.445312 466.011719 231.445312 466.011719 227.21875 Z M 466.011719 227.21875 "/>
<path fill-rule="nonzero" fill="rgb(0%, 0%, 0%)" fill-opacity="1" d="M 456.53125 236.554688 C 456.53125 232.324219 450.1875 232.324219 450.1875 236.554688 C 450.1875 240.785156 456.53125 240.785156 456.53125 236.554688 Z M 456.53125 236.554688 "/>
<path fill-rule="nonzero" fill="rgb(0%, 0%, 0%)" fill-opacity="1" d="M 446.558594 245.890625 C 446.558594 241.660156 440.214844 241.660156 440.214844 245.890625 C 440.214844 250.121094 446.558594 250.121094 446.558594 245.890625 Z M 446.558594 245.890625 "/>
<path fill-rule="nonzero" fill="rgb(0%, 0%, 0%)" fill-opacity="1" d="M 436.0625 255.226562 C 436.0625 250.996094 429.714844 250.996094 429.714844 255.226562 C 429.714844 259.457031 436.0625 259.457031 436.0625 255.226562 Z M 436.0625 255.226562 "/>
<path fill-rule="nonzero" fill="rgb(0%, 0%, 0%)" fill-opacity="1" d="M 424.992188 264.5625 C 424.992188 260.335938 418.648438 260.335938 418.648438 264.5625 C 418.648438 268.792969 424.992188 268.792969 424.992188 264.5625 Z M 424.992188 264.5625 "/>
<path fill-rule="nonzero" fill="rgb(0%, 0%, 0%)" fill-opacity="1" d="M 413.304688 273.902344 C 413.304688 269.671875 406.960938 269.671875 406.960938 273.902344 C 406.960938 278.132812 413.304688 278.132812 413.304688 273.902344 Z M 413.304688 273.902344 "/>
<path fill-rule="nonzero" fill="rgb(0%, 0%, 0%)" fill-opacity="1" d="M 400.945312 283.238281 C 400.945312 279.007812 394.597656 279.007812 394.597656 283.238281 C 394.597656 287.46875 400.945312 287.46875 400.945312 283.238281 Z M 400.945312 283.238281 "/>
<path fill-rule="nonzero" fill="rgb(0%, 0%, 0%)" fill-opacity="1" d="M 387.851562 292.574219 C 387.851562 288.34375 381.507812 288.34375 381.507812 292.574219 C 381.507812 296.804688 387.851562 296.804688 387.851562 292.574219 Z M 387.851562 292.574219 "/>
<path fill-rule="nonzero" fill="rgb(0%, 0%, 0%)" fill-opacity="1" d="M 373.964844 301.910156 C 373.964844 297.679688 367.617188 297.679688 367.617188 301.910156 C 367.617188 306.140625 373.964844 306.140625 373.964844 301.910156 Z M 373.964844 301.910156 "/>
<path fill-rule="nonzero" fill="rgb(0%, 0%, 0%)" fill-opacity="1" d="M 359.199219 311.25 C 359.199219 307.019531 352.855469 307.019531 352.855469 311.25 C 352.855469 315.476562 359.199219 315.476562 359.199219 311.25 Z M 359.199219 311.25 "/>
<path fill-rule="nonzero" fill="rgb(0%, 0%, 0%)" fill-opacity="1" d="M 343.476562 320.585938 C 343.476562 316.355469 337.132812 316.355469 337.132812 320.585938 C 337.132812 324.816406 343.476562 324.816406 343.476562 320.585938 Z M 343.476562 320.585938 "/>
<path fill-rule="nonzero" fill="rgb(0%, 0%, 0%)" fill-opacity="1" d="M 326.699219 329.921875 C 326.699219 325.691406 320.355469 325.691406 320.355469 329.921875 C 320.355469 334.152344 326.699219 334.152344 326.699219 329.921875 Z M 326.699219 329.921875 "/>
<path fill-rule="nonzero" fill="rgb(0%, 0%, 0%)" fill-opacity="1" d="M 308.757812 339.257812 C 308.757812 335.027344 302.414062 335.027344 302.414062 339.257812 C 302.414062 343.488281 308.757812 343.488281 308.757812 339.257812 Z M 308.757812 339.257812 "/>
<path fill-rule="nonzero" fill="rgb(0%, 0%, 0%)" fill-opacity="1" d="M 289.523438 348.59375 C 289.523438 344.367188 283.179688 344.367188 283.179688 348.59375 C 283.179688 352.824219 289.523438 352.824219 289.523438 348.59375 Z M 289.523438 348.59375 "/>
<path fill-rule="nonzero" fill="rgb(0%, 0%, 0%)" fill-opacity="1" d="M 268.851562 357.933594 C 268.851562 353.703125 262.507812 353.703125 262.507812 357.933594 C 262.507812 362.164062 268.851562 362.164062 268.851562 357.933594 Z M 268.851562 357.933594 "/>
<path fill-rule="nonzero" fill="rgb(0%, 0%, 0%)" fill-opacity="1" d="M 247.386719 367.269531 C 247.386719 363.039062 241.042969 363.039062 241.042969 367.269531 C 241.042969 371.5 247.386719 371.5 247.386719 367.269531 Z M 247.386719 367.269531 "/>
<path fill-rule="nonzero" fill="rgb(0%, 0%, 0%)" fill-opacity="1" d="M 229.800781 376.605469 C 229.800781 372.375 223.453125 372.375 223.453125 376.605469 C 223.453125 380.835938 229.800781 380.835938 229.800781 376.605469 Z M 229.800781 376.605469 "/>
<path fill-rule="nonzero" fill="rgb(0%, 0%, 0%)" fill-opacity="1" d="M 210.644531 385.941406 C 210.644531 381.714844 204.300781 381.714844 204.300781 385.941406 C 204.300781 390.171875 210.644531 390.171875 210.644531 385.941406 Z M 210.644531 385.941406 "/>
<path fill-rule="nonzero" fill="rgb(0%, 0%, 0%)" fill-opacity="1" d="M 189.636719 395.28125 C 189.636719 391.050781 183.292969 391.050781 183.292969 395.28125 C 183.292969 399.511719 189.636719 399.511719 189.636719 395.28125 Z M 189.636719 395.28125 "/>
<path fill-rule="nonzero" fill="rgb(0%, 0%, 0%)" fill-opacity="1" d="M 169.035156 404.617188 C 169.035156 400.386719 162.691406 400.386719 162.691406 404.617188 C 162.691406 408.847656 169.035156 408.847656 169.035156 404.617188 Z M 169.035156 404.617188 "/>
<path fill-rule="nonzero" fill="rgb(0%, 0%, 0%)" fill-opacity="1" d="M 148.46875 413.953125 C 148.46875 409.722656 142.121094 409.722656 142.121094 413.953125 C 142.121094 418.183594 148.46875 418.183594 148.46875 413.953125 Z M 148.46875 413.953125 "/>
<path fill-rule="nonzero" fill="rgb(0%, 0%, 0%)" fill-opacity="1" d="M 131.777344 423.289062 C 131.777344 419.058594 125.433594 419.058594 125.433594 423.289062 C 125.433594 427.519531 131.777344 427.519531 131.777344 423.289062 Z M 131.777344 423.289062 "/>
<path fill-rule="nonzero" fill="rgb(0%, 0%, 0%)" fill-opacity="1" d="M 116.113281 432.855469 C 116.113281 428.625 109.765625 428.625 109.765625 432.855469 C 109.765625 437.085938 116.113281 437.085938 116.113281 432.855469 Z M 116.113281 432.855469 "/>
<path fill-rule="nonzero" fill="rgb(0%, 0%, 0%)" fill-opacity="1" d="M 111.1875 442.304688 C 111.1875 438.074219 104.84375 438.074219 104.84375 442.304688 C 104.84375 446.535156 111.1875 446.535156 111.1875 442.304688 Z M 111.1875 442.304688 "/>
<path fill-rule="nonzero" fill="rgb(0%, 0%, 0%)" fill-opacity="1" d="M 111.117188 465.078125 C 111.117188 460.847656 104.773438 460.847656 104.773438 465.078125 C 104.773438 469.308594 111.117188 469.308594 111.117188 465.078125 Z M 111.117188 465.078125 "/>
<path fill-rule="nonzero" fill="rgb(0%, 0%, 0%)" fill-opacity="1" d="M 110.855469 494.226562 C 110.855469 489.996094 104.507812 489.996094 104.507812 494.226562 C 104.507812 498.457031 110.855469 498.457031 110.855469 494.226562 Z M 110.855469 494.226562 "/>
<path fill="none" stroke-width="1" stroke-linecap="butt" stroke-linejoin="miter" stroke="rgb(0%, 0%, 0%)" stroke-opacity="1" stroke-miterlimit="1.154701" d="M 107.683594 517.5 L 107.683594 522.5 "/>
<path fill="none" stroke-width="1" stroke-linecap="butt" stroke-linejoin="miter" stroke="rgb(0%, 0%, 0%)" stroke-opacity="1" stroke-miterlimit="1.154701" d="M 272.328125 517.5 L 272.328125 522.5 "/>
<path fill="none" stroke-width="1" stroke-linecap="butt" stroke-linejoin="miter" stroke="rgb(0%, 0%, 0%)" stroke-opacity="1" stroke-miterlimit="1.154701" d="M 436.972656 517.5 L 436.972656 522.5 "/>
<path fill="none" stroke-width="1" stroke-linecap="butt" stroke-linejoin="miter" stroke="rgb(0%, 0%, 0%)" stroke-opacity="1" stroke-miterlimit="1.154701" d="M 601.621094 517.5 L 601.621094 522.5 "/>
<path fill="none" stroke-width="1" stroke-linecap="butt" stroke-linejoin="miter" stroke="rgb(0%, 0%, 0%)" stroke-opacity="1" stroke-miterlimit="1.154701" d="M 76.5 494.226562 L 71.5 494.226562 "/>
<path fill="none" stroke-width="1" stroke-linecap="butt" stroke-linejoin="miter" stroke="rgb(0%, 0%, 0%)" stroke-opacity="1" stroke-miterlimit="1.154701" d="M 76.5 380.363281 L 71.5 380.363281 "/>
<path fill="none" stroke-width="1" stroke-linecap="butt" stroke-linejoin="miter" stroke="rgb(0%, 0%, 0%)" stroke-opacity="1" stroke-miterlimit="1.154701" d="M 76.5 266.5 L 71.5 266.5 "/>
<path fill="none" stroke-width="1" stroke-linecap="butt" stroke-linejoin="miter" stroke="rgb(0%, 0%, 0%)" stroke-opacity="1" stroke-miterlimit="1.154701" d="M 76.5 152.636719 L 71.5 152.636719 "/>
<path fill="none" stroke-width="1" stroke-linecap="butt" stroke-linejoin="miter" stroke="rgb(0%, 0%, 0%)" stroke-opacity="1" stroke-miterlimit="1.154701" d="M 76.5 38.773438 L 71.5 38.773438 "/>
<path fill="none" stroke-width="1" stroke-linecap="butt" stroke-linejoin="miter" stroke="rgb(0%, 0%, 0%)" stroke-opacity="1" stroke-miterlimit="1.154701" d="M 76.5 517 L 752.5 517 "/>
<path fill="none" stroke-width="1" stroke-linecap="butt" stroke-linejoin="miter" stroke="rgb(0%, 0%, 0%)" stroke-opacity="1" stroke-miterlimit="1.154701" d="M 77 517.5 L 77 15.5 "/>
<path fill="none" stroke-width="1" stroke-linecap="butt" stroke-linejoin="miter" stroke="rgb(0%, 0%, 0%)" stroke-opacity="1" stroke-miterlimit="1.154701" d="M 76.5 16 L 752.5 16 "/>
<path fill="none" stroke-width="1" stroke-linecap="butt" stroke-linejoin="miter" stroke="rgb(0%, 0%, 0%)" stroke-opacity="1" stroke-miterlimit="1.154701" d="M 752 517.5 L 752 15.5 "/>
</svg>
