<?xml version="1.0" encoding="UTF-8"?>
<svg xmlns="http://www.w3.org/2000/svg" xmlns:xlink="http://www.w3.org/1999/xlink" width="768" height="576" viewBox="0 0 768 576">
<defs>
<g>
<g id="glyph-0-0-08ade921">
<path d="M 8.640625 -7.203125 C 8.640625 -5.515625 7.46875 -4.328125 5.78125 -4.328125 C 5.78125 -4.328125 2.578125 -4.328125 2.578125 -4.328125 C 2.578125 -4.328125 2.578125 0 2.578125 0 C 2.578125 0 1.28125 0 1.28125 0 C 1.28125 0 1.28125 -10.203125 1.28125 -10.203125 C 1.28125 -10.203125 5.484375 -10.203125 5.484375 -10.203125 C 7.5 -10.203125 8.640625 -9.125 8.640625 -7.203125 Z M 7.28125 -7.265625 C 7.28125 -8.390625 6.53125 -9.0625 5.296875 -9.0625 C 5.296875 -9.0625 2.578125 -9.0625 2.578125 -9.0625 C 2.578125 -9.0625 2.578125 -5.46875 2.578125 -5.46875 C 2.578125 -5.46875 5.296875 -5.46875 5.296875 -5.46875 C 6.53125 -5.46875 7.28125 -6.140625 7.28125 -7.265625 Z M 7.28125 -7.265625 "/>
</g>
<g id="glyph-0-1-08ade921">
<path d="M 7.484375 -0.03125 C 7.109375 0.0625 6.9375 0.09375 6.6875 0.09375 C 6.125 0.09375 5.609375 -0.3125 5.484375 -0.875 C 4.84375 -0.1875 3.9375 0.203125 3 0.203125 C 1.515625 0.203125 0.59375 -0.578125 0.59375 -1.90625 C 0.59375 -2.796875 1.015625 -3.453125 1.875 -3.8125 C 2.328125 -3.984375 2.578125 -4.046875 4.234375 -4.25 C 5.15625 -4.375 5.453125 -4.578125 5.453125 -5.0625 C 5.453125 -5.0625 5.453125 -5.375 5.453125 -5.375 C 5.453125 -6.078125 4.859375 -6.46875 3.8125 -6.46875 C 2.71875 -6.46875 2.1875 -6.0625 2.09375 -5.171875 C 2.09375 -5.171875 0.90625 -5.171875 0.90625 -5.171875 C 0.984375 -6.859375 2.078125 -7.546875 3.84375 -7.546875 C 5.65625 -7.546875 6.609375 -6.84375 6.609375 -5.546875 C 6.609375 -5.546875 6.609375 -1.453125 6.609375 -1.453125 C 6.609375 -1.09375 6.828125 -0.875 7.234375 -0.875 C 7.3125 -0.875 7.359375 -0.875 7.484375 -0.90625 C 7.484375 -0.90625 7.484375 -0.03125 7.484375 -0.03125 Z M 5.453125 -2.53125 C 5.453125 -2.53125 5.453125 -3.625 5.453125 -3.625 C 5.046875 -3.4375 4.796875 -3.390625 3.5625 -3.21875 C 2.328125 -3.03125 1.8125 -2.703125 1.8125 -1.9375 C 1.8125 -1.140625 2.34375 -0.8125 3.25 -0.8125 C 4.375 -0.8125 5.453125 -1.484375 5.453125 -2.53125 Z M 5.453125 -2.53125 "/>
</g>
<g id="glyph-0-2-08ade921">
<path d="M 4.5 -6.3125 C 2.6875 -6.28125 2.140625 -5.453125 2.140625 -3.8125 C 2.140625 -3.8125 2.140625 0 2.140625 0 C 2.140625 0 0.984375 0 0.984375 0 C 0.984375 0 0.984375 -7.34375 0.984375 -7.34375 C 0.984375 -7.34375 2.046875 -7.34375 2.046875 -7.34375 C 2.046875 -7.34375 2.046875 -6 2.046875 -6 C 2.71875 -7.09375 3.296875 -7.546875 4.046875 -7.546875 C 4.203125 -7.546875 4.296875 -7.53125 4.5 -7.5 C 4.5 -7.5 4.5 -6.3125 4.5 -6.3125 Z M 4.5 -6.3125 "/>
</g>
<g id="glyph-0-3-08ade921">
<path d="M 10.640625 0 C 10.640625 0 9.484375 0 9.484375 0 C 9.484375 0 9.484375 -5.046875 9.484375 -5.046875 C 9.484375 -5.984375 8.984375 -6.53125 8.140625 -6.53125 C 7.1875 -6.53125 6.390625 -5.671875 6.390625 -4.609375 C 6.390625 -4.609375 6.390625 0 6.390625 0 C 6.390625 0 5.234375 0 5.234375 0 C 5.234375 0 5.234375 -5.046875 5.234375 -5.046875 C 5.234375 -5.984375 4.75 -6.53125 3.875 -6.53125 C 2.921875 -6.53125 2.15625 -5.671875 2.15625 -4.609375 C 2.15625 -4.609375 2.15625 0 2.15625 0 C 2.15625 0 1 0 1 0 C 1 0 1 -7.34375 1 -7.34375 C 1 -7.34375 2.0625 -7.34375 2.0625 -7.34375 C 2.0625 -7.34375 2.0625 -6.296875 2.0625 -6.296875 C 2.6875 -7.1875 3.328125 -7.546875 4.3125 -7.546875 C 5.265625 -7.546875 5.859375 -7.203125 6.28125 -6.421875 C 6.96875 -7.25 7.5625 -7.546875 8.546875 -7.546875 C 9.90625 -7.546875 10.640625 -6.8125 10.640625 -5.5 C 10.640625 -5.5 10.640625 0 10.640625 0 Z M 10.640625 0 "/>
</g>
<g id="glyph-0-4-08ade921">
<path d="M 7.1875 -3.328125 C 7.1875 -3.328125 1.78125 -3.328125 1.78125 -3.328125 C 1.8125 -1.65625 2.71875 -0.875 3.9375 -0.875 C 4.875 -0.875 5.53125 -1.265625 5.859375 -2.21875 C 5.859375 -2.21875 7.03125 -2.21875 7.03125 -2.21875 C 6.734375 -0.734375 5.578125 0.203125 3.890625 0.203125 C 1.828125 0.203125 0.5625 -1.21875 0.5625 -3.625 C 0.5625 -6.03125 1.875 -7.546875 3.921875 -7.546875 C 5.296875 -7.546875 6.40625 -6.8125 6.890625 -5.609375 C 7.09375 -5.0625 7.1875 -4.390625 7.1875 -3.328125 Z M 5.9375 -4.375 C 5.9375 -5.515625 5.046875 -6.46875 3.90625 -6.46875 C 2.734375 -6.46875 1.90625 -5.59375 1.8125 -4.28125 C 1.8125 -4.28125 5.921875 -4.28125 5.921875 -4.28125 C 5.9375 -4.3125 5.9375 -4.375 5.9375 -4.375 Z M 5.9375 -4.375 "/>
</g>
<g id="glyph-0-5-08ade921">
<path d="M 3.5625 0 C 3.15625 0.0625 2.890625 0.09375 2.609375 0.09375 C 1.6875 0.09375 1.1875 -0.328125 1.1875 -1.0625 C 1.1875 -1.0625 1.1875 -6.390625 1.1875 -6.390625 C 1.1875 -6.390625 0.203125 -6.390625 0.203125 -6.390625 C 0.203125 -6.390625 0.203125 -7.34375 0.203125 -7.34375 C 0.203125 -7.34375 1.1875 -7.34375 1.1875 -7.34375 C 1.1875 -7.34375 1.1875 -9.359375 1.1875 -9.359375 C 1.1875 -9.359375 2.359375 -9.359375 2.359375 -9.359375 C 2.359375 -9.359375 2.359375 -7.34375 2.359375 -7.34375 C 2.359375 -7.34375 3.5625 -7.34375 3.5625 -7.34375 C 3.5625 -7.34375 3.5625 -6.390625 3.5625 -6.390625 C 3.5625 -6.390625 2.359375 -6.390625 2.359375 -6.390625 C 2.359375 -6.390625 2.359375 -1.578125 2.359375 -1.578125 C 2.359375 -1.0625 2.484375 -0.921875 3 -0.921875 C 3.21875 -0.921875 3.40625 -0.9375 3.5625 -0.984375 C 3.5625 -0.984375 3.5625 0 3.5625 0 Z M 3.5625 0 "/>
</g>
<g id="glyph-0-6-08ade921">
<path d="M 7.09375 -4.78125 C 7.09375 -1.515625 5.953125 0.203125 3.84375 0.203125 C 1.71875 0.203125 0.609375 -1.515625 0.609375 -4.859375 C 0.609375 -8.1875 1.703125 -9.921875 3.84375 -9.921875 C 6 -9.921875 7.09375 -8.21875 7.09375 -4.78125 Z M 5.84375 -4.890625 C 5.84375 -7.546875 5.1875 -8.828125 3.84375 -8.828125 C 2.515625 -8.828125 1.859375 -7.5625 1.859375 -4.84375 C 1.859375 -2.125 2.515625 -0.8125 3.828125 -0.8125 C 5.1875 -0.8125 5.84375 -2.078125 5.84375 -4.890625 Z M 5.84375 -4.890625 "/>
</g>
<g id="glyph-0-7-08ade921">
<path d="M 2.671875 0 C 2.671875 0 1.21875 0 1.21875 0 C 1.21875 0 1.21875 -1.453125 1.21875 -1.453125 C 1.21875 -1.453125 2.671875 -1.453125 2.671875 -1.453125 C 2.671875 -1.453125 2.671875 0 2.671875 0 Z M 2.671875 0 "/>
</g>
<g id="glyph-0-8-08ade921">
<path d="M 7.15625 -7.015625 C 7.15625 -5.796875 6.4375 -4.765625 5.046875 -4.015625 C 5.046875 -4.015625 3.65625 -3.265625 3.65625 -3.265625 C 2.4375 -2.546875 1.984375 -2.03125 1.859375 -1.21875 C 1.859375 -1.21875 7.078125 -1.21875 7.078125 -1.21875 C 7.078125 -1.21875 7.078125 0 7.078125 0 C 7.078125 0 0.46875 0 0.46875 0 C 0.59375 -2.1875 1.1875 -3.125 3.265625 -4.296875 C 3.265625 -4.296875 4.546875 -5.03125 4.546875 -5.03125 C 5.4375 -5.53125 5.890625 -6.203125 5.890625 -6.984375 C 5.890625 -8.046875 5.046875 -8.84375 3.9375 -8.84375 C 2.71875 -8.84375 2.03125 -8.140625 1.9375 -6.484375 C 1.9375 -6.484375 0.703125 -6.484375 0.703125 -6.484375 C 0.765625 -8.890625 1.953125 -9.921875 3.96875 -9.921875 C 5.859375 -9.921875 7.15625 -8.6875 7.15625 -7.015625 Z M 7.15625 -7.015625 "/>
</g>
<g id="glyph-0-9-08ade921">
<path d="M 7.28125 -2.375 C 7.28125 -2.375 5.8125 -2.375 5.8125 -2.375 C 5.8125 -2.375 5.8125 0 5.8125 0 C 5.8125 0 4.578125 0 4.578125 0 C 4.578125 0 4.578125 -2.375 4.578125 -2.375 C 4.578125 -2.375 0.390625 -2.375 0.390625 -2.375 C 0.390625 -2.375 0.390625 -3.6875 0.390625 -3.6875 C 0.390625 -3.6875 4.90625 -9.921875 4.90625 -9.921875 C 4.90625 -9.921875 5.8125 -9.921875 5.8125 -9.921875 C 5.8125 -9.921875 5.8125 -3.484375 5.8125 -3.484375 C 5.8125 -3.484375 7.28125 -3.484375 7.28125 -3.484375 C 7.28125 -3.484375 7.28125 -2.375 7.28125 -2.375 Z M 4.578125 -3.484375 C 4.578125 -3.484375 4.578125 -7.828125 4.578125 -7.828125 C 4.578125 -7.828125 1.46875 -3.484375 1.46875 -3.484375 C 1.46875 -3.484375 4.578125 -3.484375 4.578125 -3.484375 Z M 4.578125 -3.484375 "/>
</g>
<g id="glyph-0-10-08ade921">
<path d="M 7.1875 -3.078125 C 7.1875 -1.140625 5.828125 0.203125 3.9375 0.203125 C 1.671875 0.203125 0.609375 -1.421875 0.609375 -4.515625 C 0.609375 -7.984375 1.84375 -9.921875 4.15625 -9.921875 C 5.671875 -9.921875 6.734375 -8.953125 6.96875 -7.34375 C 6.96875 -7.34375 5.734375 -7.34375 5.734375 -7.34375 C 5.546875 -8.28125 4.9375 -8.828125 4.078125 -8.828125 C 2.65625 -8.828125 1.875 -7.484375 1.859375 -5.0625 C 2.390625 -5.796875 3.15625 -6.171875 4.140625 -6.171875 C 5.921875 -6.171875 7.1875 -4.921875 7.1875 -3.078125 Z M 5.921875 -2.984375 C 5.921875 -4.3125 5.1875 -5.078125 3.984375 -5.078125 C 2.765625 -5.078125 1.9375 -4.28125 1.9375 -3.046875 C 1.9375 -1.78125 2.796875 -0.875 3.953125 -0.875 C 5.078125 -0.875 5.921875 -1.734375 5.921875 -2.984375 Z M 5.921875 -2.984375 "/>
</g>
<g id="glyph-0-11-08ade921">
<path d="M 7.1875 -2.796875 C 7.1875 -1 5.8125 0.203125 3.84375 0.203125 C 1.890625 0.203125 0.515625 -1 0.515625 -2.8125 C 0.515625 -3.90625 1.078125 -4.671875 2.21875 -5.21875 C 1.203125 -5.859375 0.875 -6.359375 0.875 -7.28125 C 0.875 -8.828125 2.09375 -9.921875 3.84375 -9.921875 C 5.609375 -9.921875 6.828125 -8.828125 6.828125 -7.28125 C 6.828125 -6.34375 6.5 -5.84375 5.46875 -5.21875 C 6.625 -4.671875 7.1875 -3.90625 7.1875 -2.796875 Z M 5.578125 -7.25 C 5.578125 -8.21875 4.90625 -8.828125 3.84375 -8.828125 C 2.8125 -8.828125 2.125 -8.21875 2.125 -7.265625 C 2.125 -6.328125 2.8125 -5.71875 3.84375 -5.71875 C 4.890625 -5.71875 5.578125 -6.328125 5.578125 -7.25 Z M 5.921875 -2.78125 C 5.921875 -3.953125 5.078125 -4.671875 3.84375 -4.671875 C 2.625 -4.671875 1.78125 -3.953125 1.78125 -2.78125 C 1.78125 -1.625 2.625 -0.875 3.828125 -0.875 C 5.078125 -0.875 5.921875 -1.609375 5.921875 -2.78125 Z M 5.921875 -2.78125 "/>
</g>
<g id="glyph-0-12-08ade921">
<path d="M 8.109375 -9.0625 C 8.109375 -9.0625 2.5625 -9.0625 2.5625 -9.0625 C 2.5625 -9.0625 2.5625 -5.796875 2.5625 -5.796875 C 2.5625 -5.796875 7.4375 -5.796875 7.4375 -5.796875 C 7.4375 -5.796875 7.4375 -4.640625 7.4375 -4.640625 C 7.4375 -4.640625 2.5625 -4.640625 2.5625 -4.640625 C 2.5625 -4.640625 2.5625 0 2.5625 0 C 2.5625 0 1.265625 0 1.265625 0 C 1.265625 0 1.265625 -10.203125 1.265625 -10.203125 C 1.265625 -10.203125 8.109375 -10.203125 8.109375 -10.203125 C 8.109375 -10.203125 8.109375 -9.0625 8.109375 -9.0625 Z M 8.109375 -9.0625 "/>
</g>
<g id="glyph-0-13-08ade921">
<path d="M 2.140625 0 C 2.140625 0 0.984375 0 0.984375 0 C 0.984375 0 0.984375 -7.34375 0.984375 -7.34375 C 0.984375 -7.34375 2.140625 -7.34375 2.140625 -7.34375 C 2.140625 -7.34375 2.140625 0 2.140625 0 Z M 2.296875 -8.4375 C 2.296875 -8.4375 0.84375 -8.4375 0.84375 -8.4375 C 0.84375 -8.4375 0.84375 -9.890625 0.84375 -9.890625 C 0.84375 -9.890625 2.296875 -9.890625 2.296875 -9.890625 C 2.296875 -9.890625 2.296875 -8.4375 2.296875 -8.4375 Z M 2.296875 -8.4375 "/>
</g>
<g id="glyph-0-14-08ade921">
<path d="M 6.421875 -2.0625 C 6.421875 -0.640625 5.25 0.203125 3.40625 0.203125 C 1.484375 0.203125 0.53125 -0.546875 0.46875 -2.234375 C 0.46875 -2.234375 1.703125 -2.234375 1.703125 -2.234375 C 1.859375 -1.125 2.453125 -0.875 3.5 -0.875 C 4.515625 -0.875 5.203125 -1.28125 5.203125 -1.953125 C 5.203125 -2.484375 4.890625 -2.734375 4.078125 -2.921875 C 4.078125 -2.921875 2.984375 -3.1875 2.984375 -3.1875 C 1.25 -3.609375 0.65625 -4.15625 0.65625 -5.3125 C 0.65625 -6.65625 1.765625 -7.546875 3.46875 -7.546875 C 5.171875 -7.546875 6.125 -6.734375 6.125 -5.296875 C 6.125 -5.296875 4.90625 -5.296875 4.90625 -5.296875 C 4.875 -6.0625 4.375 -6.46875 3.4375 -6.46875 C 2.484375 -6.46875 1.875 -6.03125 1.875 -5.359375 C 1.875 -4.84375 2.28125 -4.53125 3.234375 -4.3125 C 3.234375 -4.3125 4.359375 -4.046875 4.359375 -4.046875 C 5.8125 -3.703125 6.421875 -3.15625 6.421875 -2.0625 Z M 6.421875 -2.0625 "/>
</g>
<g id="glyph-0-15-08ade921">
<path d="M 3.96875 -3.359375 C 3.96875 -3.359375 0.640625 -3.359375 0.640625 -3.359375 C 0.640625 -3.359375 0.640625 -4.375 0.640625 -4.375 C 0.640625 -4.375 3.96875 -4.375 3.96875 -4.375 C 3.96875 -4.375 3.96875 -3.359375 3.96875 -3.359375 Z M 3.96875 -3.359375 "/>
</g>
<g id="glyph-0-16-08ade921">
<path d="M 7.140625 -3.609375 C 7.140625 -1.203125 5.875 0.203125 3.828125 0.203125 C 1.734375 0.203125 0.5 -1.203125 0.5 -3.671875 C 0.5 -6.125 1.75 -7.546875 3.8125 -7.546875 C 5.921875 -7.546875 7.140625 -6.140625 7.140625 -3.609375 Z M 5.921875 -3.625 C 5.921875 -5.453125 5.140625 -6.46875 3.828125 -6.46875 C 2.515625 -6.46875 1.71875 -5.4375 1.71875 -3.671875 C 1.71875 -1.890625 2.515625 -0.875 3.828125 -0.875 C 5.109375 -0.875 5.921875 -1.90625 5.921875 -3.625 Z M 5.921875 -3.625 "/>
</g>
<g id="glyph-0-17-08ade921">
<path d="M 6.9375 0 C 6.9375 0 5.890625 0 5.890625 0 C 5.890625 0 5.890625 -1.078125 5.890625 -1.078125 C 5.265625 -0.171875 4.5625 0.203125 3.5625 0.203125 C 1.578125 0.203125 0.359375 -1.265625 0.359375 -3.734375 C 0.359375 -6.078125 1.609375 -7.546875 3.515625 -7.546875 C 4.5 -7.546875 5.28125 -7.15625 5.765625 -6.40625 C 5.765625 -6.40625 5.765625 -10.203125 5.765625 -10.203125 C 5.765625 -10.203125 6.9375 -10.203125 6.9375 -10.203125 C 6.9375 -10.203125 6.9375 0 6.9375 0 Z M 5.765625 -3.640625 C 5.765625 -5.328125 4.96875 -6.453125 3.703125 -6.453125 C 2.4375 -6.453125 1.578125 -5.375 1.578125 -3.671875 C 1.578125 -1.953125 2.4375 -0.875 3.71875 -0.875 C 4.953125 -0.875 5.765625 -1.953125 5.765625 -3.640625 Z M 5.765625 -3.640625 "/>
</g>
<g id="glyph-0-18-08ade921">
</g>
<g id="glyph-0-19-08ade921">
<path d="M 4.078125 2.96875 C 4.078125 2.96875 3.296875 2.96875 3.296875 2.96875 C 1.90625 1.140625 1.015625 -1.40625 1.015625 -3.625 C 1.015625 -5.828125 1.90625 -8.375 3.296875 -10.203125 C 3.296875 -10.203125 4.078125 -10.203125 4.078125 -10.203125 C 2.84375 -8.21875 2.15625 -5.859375 2.15625 -3.625 C 2.15625 -1.390625 2.84375 0.96875 4.078125 2.96875 Z M 4.078125 2.96875 "/>
</g>
<g id="glyph-0-20-08ade921">
<path d="M 8.6875 -2.796875 C 8.6875 -0.984375 7.296875 0.25 4.703125 0.25 C 2.296875 0.25 0.671875 -0.90625 0.671875 -3.3125 C 0.671875 -3.3125 1.90625 -3.3125 1.90625 -3.3125 C 1.90625 -1.859375 2.859375 -0.890625 4.78125 -0.890625 C 6.546875 -0.890625 7.390625 -1.546875 7.390625 -2.671875 C 7.390625 -3.46875 6.796875 -3.984375 5.515625 -4.328125 C 5.515625 -4.328125 2.984375 -5 2.984375 -5 C 1.640625 -5.34375 0.984375 -6.125 0.984375 -7.375 C 0.984375 -9.21875 2.359375 -10.453125 4.609375 -10.453125 C 6.953125 -10.453125 8.34375 -9.296875 8.34375 -7.296875 C 8.34375 -7.296875 7.109375 -7.296875 7.109375 -7.296875 C 7.109375 -8.625 6.1875 -9.359375 4.5625 -9.359375 C 3.1875 -9.359375 2.28125 -8.59375 2.28125 -7.5625 C 2.28125 -6.78125 2.734375 -6.375 3.96875 -6.046875 C 3.96875 -6.046875 6.53125 -5.359375 6.53125 -5.359375 C 7.90625 -4.984375 8.6875 -4.0625 8.6875 -2.796875 Z M 8.6875 -2.796875 "/>
</g>
<g id="glyph-0-21-08ade921">
<path d="M 3.578125 -3.609375 C 3.578125 -1.40625 2.703125 1.140625 1.296875 2.96875 C 1.296875 2.96875 0.53125 2.96875 0.53125 2.96875 C 1.765625 0.984375 2.453125 -1.390625 2.453125 -3.609375 C 2.453125 -5.859375 1.765625 -8.203125 0.53125 -10.203125 C 0.53125 -10.203125 1.296875 -10.203125 1.296875 -10.203125 C 2.703125 -8.375 3.578125 -5.828125 3.578125 -3.609375 Z M 3.578125 -3.609375 "/>
</g>
<g id="glyph-0-22-08ade921">
<path d="M 2.703125 0 C 2.703125 0 1.40625 0 1.40625 0 C 1.40625 0 1.40625 -10.203125 1.40625 -10.203125 C 1.40625 -10.203125 2.703125 -10.203125 2.703125 -10.203125 C 2.703125 -10.203125 2.703125 0 2.703125 0 Z M 2.703125 0 "/>
</g>
<g id="glyph-0-23-08ade921">
<path d="M 6.8125 0 C 6.8125 0 5.65625 0 5.65625 0 C 5.65625 0 5.65625 -5.078125 5.65625 -5.078125 C 5.65625 -5.96875 5.0625 -6.53125 4.140625 -6.53125 C 2.953125 -6.53125 2.140625 -5.546875 2.140625 -4.046875 C 2.140625 -4.046875 2.140625 0 2.140625 0 C 2.140625 0 0.984375 0 0.984375 0 C 0.984375 0 0.984375 -7.34375 0.984375 -7.34375 C 0.984375 -7.34375 2.0625 -7.34375 2.0625 -7.34375 C 2.0625 -7.34375 2.0625 -6.109375 2.0625 -6.109375 C 2.703125 -7.125 3.40625 -7.546875 4.5 -7.546875 C 5.90625 -7.546875 6.8125 -6.765625 6.8125 -5.546875 C 6.8125 -5.546875 6.8125 0 6.8125 0 Z M 6.8125 0 "/>
</g>
<g id="glyph-0-24-08ade921">
<path d="M 6.671875 -2.515625 C 6.53125 -0.84375 5.4375 0.203125 3.6875 0.203125 C 1.6875 0.203125 0.4375 -1.234375 0.4375 -3.59375 C 0.4375 -6.03125 1.71875 -7.546875 3.703125 -7.546875 C 5.328125 -7.546875 6.453125 -6.65625 6.59375 -4.875 C 6.59375 -4.875 5.421875 -4.875 5.421875 -4.875 C 5.28125 -5.890625 4.65625 -6.46875 3.6875 -6.46875 C 2.40625 -6.46875 1.65625 -5.4375 1.65625 -3.59375 C 1.65625 -1.859375 2.421875 -0.875 3.703125 -0.875 C 4.703125 -0.875 5.3125 -1.34375 5.5 -2.515625 C 5.5 -2.515625 6.671875 -2.515625 6.671875 -2.515625 Z M 6.671875 -2.515625 "/>
</g>
<g id="glyph-0-25-08ade921">
<path d="M 7.21875 -4.296875 C 7.21875 -4.296875 0.953125 -4.296875 0.953125 -4.296875 C 0.953125 -4.296875 0.953125 -5.25 0.953125 -5.25 C 0.953125 -5.25 7.21875 -5.25 7.21875 -5.25 C 7.21875 -5.25 7.21875 -4.296875 7.21875 -4.296875 Z M 7.21875 -1.75 C 7.21875 -1.75 0.953125 -1.75 0.953125 -1.75 C 0.953125 -1.75 0.953125 -2.703125 0.953125 -2.703125 C 0.953125 -2.703125 7.21875 -2.703125 7.21875 -2.703125 C 7.21875 -2.703125 7.21875 -1.75 7.21875 -1.75 Z M 7.21875 -1.75 "/>
</g>
<g id="glyph-0-26-08ade921">
<path d="M 4.859375 0 C 4.859375 0 3.625 0 3.625 0 C 3.625 0 3.625 -7.0625 3.625 -7.0625 C 3.625 -7.0625 1.421875 -7.0625 1.421875 -7.0625 C 1.421875 -7.0625 1.421875 -7.953125 1.421875 -7.953125 C 3.328125 -8.1875 3.609375 -8.40625 4.046875 -9.921875 C 4.046875 -9.921875 4.859375 -9.921875 4.859375 -9.921875 C 4.859375 -9.921875 4.859375 0 4.859375 0 Z M 4.859375 0 "/>
</g>
<g id="glyph-1-0-08ade921">
<path d="M 3.328125 -5.921875 C 4 -4.78125 3.8125 -3.53125 2.75 -2.46875 C 1.328125 -1.046875 -0.5625 -1.1875 -2.234375 -2.859375 C -3.953125 -4.578125 -4.125 -6.5625 -2.71875 -7.96875 C -1.71875 -8.96875 -0.5 -9.21875 0.703125 -8.484375 C 0.703125 -8.484375 -0.171875 -7.609375 -0.171875 -7.609375 C -0.8125 -7.84375 -1.4375 -7.71875 -1.96875 -7.1875 C -2.78125 -6.375 -2.703125 -5.265625 -1.734375 -4.109375 C -1.734375 -4.109375 0.375 -6.21875 0.375 -6.21875 C 0.375 -6.21875 1.046875 -5.546875 1.046875 -5.546875 C 1.046875 -5.546875 -1.0625 -3.4375 -1.0625 -3.4375 C 0.0625 -2.46875 1.15625 -2.40625 2 -3.25 C 2.546875 -3.796875 2.734375 -4.359375 2.453125 -5.046875 C 2.453125 -5.046875 3.328125 -5.921875 3.328125 -5.921875 Z M 3.328125 -5.921875 "/>
</g>
<g id="glyph-2-0-08ade921">
<path d="M 1.265625 -1.265625 C 1.265625 -1.265625 0.65625 -0.65625 0.65625 -0.65625 C 0.65625 -0.65625 -4.109375 -5.421875 -4.109375 -5.421875 C -4.109375 -5.421875 -3.5 -6.03125 -3.5 -6.03125 C -3.5 -6.03125 1.265625 -1.265625 1.265625 -1.265625 Z M 1.265625 -1.265625 "/>
</g>
<g id="glyph-2-1-08ade921">
<path d="M 4.265625 -4.265625 C 4.265625 -4.265625 3.578125 -3.578125 3.578125 -3.578125 C 3.578125 -3.578125 1.671875 -4.515625 1.671875 -4.515625 C 1.671875 -4.515625 -0.15625 -2.6875 -0.15625 -2.6875 C -0.15625 -2.6875 0.765625 -0.765625 0.765625 -0.765625 C 0.765625 -0.765625 0.109375 -0.109375 0.109375 -0.109375 C 0.109375 -0.109375 -2.953125 -6.578125 -2.953125 -6.578125 C -2.953125 -6.578125 -2.171875 -7.359375 -2.171875 -7.359375 C -2.171875 -7.359375 4.265625 -4.265625 4.265625 -4.265625 Z M 0.984375 -4.859375 C 0.984375 -4.859375 -1.90625 -6.3125 -1.90625 -6.3125 C -1.90625 -6.3125 -0.515625 -3.359375 -0.515625 -3.359375 C -0.515625 -3.359375 0.984375 -4.859375 0.984375 -4.859375 Z M 0.984375 -4.859375 "/>
</g>
<g id="glyph-3-0-08ade921">
<path d="M -0.4375 -8 C -0.4375 -8 -3.03125 -5.40625 -3.03125 -5.40625 C -3.03125 -5.40625 -1.515625 -3.890625 -1.515625 -3.890625 C -1.515625 -3.890625 0.765625 -6.171875 0.765625 -6.171875 C 0.765625 -6.171875 1.296875 -5.640625 1.296875 -5.640625 C 1.296875 -5.640625 -0.984375 -3.359375 -0.984375 -3.359375 C -0.984375 -3.359375 1.1875 -1.1875 1.1875 -1.1875 C 1.1875 -1.1875 0.578125 -0.578125 0.578125 -0.578125 C 0.578125 -0.578125 -4.1875 -5.34375 -4.1875 -5.34375 C -4.1875 -5.34375 -0.984375 -8.546875 -0.984375 -8.546875 C -0.984375 -8.546875 -0.4375 -8 -0.4375 -8 Z M -0.4375 -8 "/>
</g>
<g id="glyph-3-1-08ade921">
<path d="M 4.21875 -4.21875 C 4.21875 -4.21875 3.53125 -3.53125 3.53125 -3.53125 C 3.53125 -3.53125 -2.78125 -4.9375 -2.78125 -4.9375 C -2.78125 -4.9375 1.078125 -1.078125 1.078125 -1.078125 C 1.078125 -1.078125 0.5 -0.5 0.5 -0.5 C 0.5 -0.5 -4.265625 -5.265625 -4.265625 -5.265625 C -4.265625 -5.265625 -3.609375 -5.921875 -3.609375 -5.921875 C -3.609375 -5.921875 2.765625 -4.515625 2.765625 -4.515625 C 2.765625 -4.515625 -1.125 -8.40625 -1.125 -8.40625 C -1.125 -8.40625 -0.546875 -8.984375 -0.546875 -8.984375 C -0.546875 -8.984375 4.21875 -4.21875 4.21875 -4.21875 Z M 4.21875 -4.21875 "/>
</g>
<g id="glyph-4-0-08ade921">
<path d="M 4.21875 -4.21875 C 4.21875 -4.21875 3.53125 -3.53125 3.53125 -3.53125 C 3.53125 -3.53125 -2.78125 -4.9375 -2.78125 -4.9375 C -2.78125 -4.9375 1.078125 -1.078125 1.078125 -1.078125 C 1.078125 -1.078125 0.5 -0.5 0.5 -0.5 C 0.5 -0.5 -4.265625 -5.265625 -4.265625 -5.265625 C -4.265625 -5.265625 -3.609375 -5.921875 -3.609375 -5.921875 C -3.609375 -5.921875 2.765625 -4.515625 2.765625 -4.515625 C 2.765625 -4.515625 -1.125 -8.40625 -1.125 -8.40625 C -1.125 -8.40625 -0.546875 -8.984375 -0.546875 -8.984375 C -0.546875 -8.984375 4.21875 -4.21875 4.21875 -4.21875 Z M 4.21875 -4.21875 "/>
</g>
<g id="glyph-4-1-08ade921">
<path d="M 4 -4 C 4 -4 0.578125 -0.578125 0.578125 -0.578125 C 0.578125 -0.578125 -4.1875 -5.34375 -4.1875 -5.34375 C -4.1875 -5.34375 -0.875 -8.65625 -0.875 -8.65625 C -0.875 -8.65625 -0.328125 -8.109375 -0.328125 -8.109375 C -0.328125 -8.109375 -3.03125 -5.40625 -3.03125 -5.40625 C -3.03125 -5.40625 -1.515625 -3.890625 -1.515625 -3.890625 C -1.515625 -3.890625 1.09375 -6.5 1.09375 -6.5 C 1.09375 -6.5 1.625 -5.96875 1.625 -5.96875 C 1.625 -5.96875 -0.984375 -3.359375 -0.984375 -3.359375 C -0.984375 -3.359375 0.65625 -1.71875 0.65625 -1.71875 C 0.65625 -1.71875 3.46875 -4.53125 3.46875 -4.53125 C 3.46875 -4.53125 4 -4 4 -4 Z M 4 -4 "/>
</g>
<g id="glyph-5-0-08ade921">
<path d="M -1.28125 -7.65625 C -2.53125 -6.34375 -2.34375 -5.375 -1.1875 -4.21875 C -1.1875 -4.21875 1.515625 -1.515625 1.515625 -1.515625 C 1.515625 -1.515625 0.703125 -0.703125 0.703125 -0.703125 C 0.703125 -0.703125 -4.484375 -5.890625 -4.484375 -5.890625 C -4.484375 -5.890625 -3.734375 -6.640625 -3.734375 -6.640625 C -3.734375 -6.640625 -2.796875 -5.703125 -2.796875 -5.703125 C -3.09375 -6.9375 -3.015625 -7.671875 -2.484375 -8.203125 C -2.375 -8.3125 -2.296875 -8.359375 -2.109375 -8.484375 C -2.109375 -8.484375 -1.28125 -7.65625 -1.28125 -7.65625 Z M -1.28125 -7.65625 "/>
</g>
<g id="glyph-6-0-08ade921">
<path d="M 3.328125 -5.921875 C 4 -4.78125 3.8125 -3.53125 2.75 -2.46875 C 1.328125 -1.046875 -0.5625 -1.1875 -2.234375 -2.859375 C -3.953125 -4.578125 -4.125 -6.5625 -2.71875 -7.96875 C -1.71875 -8.96875 -0.5 -9.21875 0.703125 -8.484375 C 0.703125 -8.484375 -0.171875 -7.609375 -0.171875 -7.609375 C -0.8125 -7.84375 -1.4375 -7.71875 -1.96875 -7.1875 C -2.78125 -6.375 -2.703125 -5.265625 -1.734375 -4.109375 C -1.734375 -4.109375 0.375 -6.21875 0.375 -6.21875 C 0.375 -6.21875 1.046875 -5.546875 1.046875 -5.546875 C 1.046875 -5.546875 -1.0625 -3.4375 -1.0625 -3.4375 C 0.0625 -2.46875 1.15625 -2.40625 2 -3.25 C 2.546875 -3.796875 2.734375 -4.359375 2.453125 -5.046875 C 2.453125 -5.046875 3.328125 -5.921875 3.328125 -5.921875 Z M 3.328125 -5.921875 "/>
</g>
<g id="glyph-6-1-08ade921">
<path d="M 7.53125 -7.53125 C 7.53125 -7.53125 6.703125 -6.703125 6.703125 -6.703125 C 6.703125 -6.703125 3.140625 -10.265625 3.140625 -10.265625 C 2.46875 -10.9375 1.734375 -10.984375 1.125 -10.375 C 0.453125 -9.703125 0.5 -8.53125 1.25 -7.78125 C 1.25 -7.78125 4.515625 -4.515625 4.515625 -4.515625 C 4.515625 -4.515625 3.703125 -3.703125 3.703125 -3.703125 C 3.703125 -3.703125 0.140625 -7.265625 0.140625 -7.265625 C -0.53125 -7.9375 -1.265625 -7.984375 -1.890625 -7.359375 C -2.5625 -6.6875 -2.484375 -5.546875 -1.734375 -4.796875 C -1.734375 -4.796875 1.53125 -1.53125 1.53125 -1.53125 C 1.53125 -1.53125 0.703125 -0.703125 0.703125 -0.703125 C 0.703125 -0.703125 -4.484375 -5.890625 -4.484375 -5.890625 C -4.484375 -5.890625 -3.734375 -6.640625 -3.734375 -6.640625 C -3.734375 -6.640625 -3 -5.90625 -3 -5.90625 C -3.171875 -6.984375 -2.984375 -7.703125 -2.296875 -8.390625 C -1.625 -9.0625 -0.953125 -9.234375 -0.109375 -8.984375 C -0.203125 -10.046875 0 -10.6875 0.703125 -11.390625 C 1.65625 -12.34375 2.71875 -12.34375 3.640625 -11.421875 C 3.640625 -11.421875 7.53125 -7.53125 7.53125 -7.53125 Z M 7.53125 -7.53125 "/>
</g>
<g id="glyph-7-0-08ade921">
<path d="M 4.21875 -4.21875 C 4.21875 -4.21875 3.53125 -3.53125 3.53125 -3.53125 C 3.53125 -3.53125 -2.78125 -4.9375 -2.78125 -4.9375 C -2.78125 -4.9375 1.078125 -1.078125 1.078125 -1.078125 C 1.078125 -1.078125 0.5 -0.5 0.5 -0.5 C 0.5 -0.5 -4.265625 -5.265625 -4.265625 -5.265625 C -4.265625 -5.265625 -3.609375 -5.921875 -3.609375 -5.921875 C -3.609375 -5.921875 2.765625 -4.515625 2.765625 -4.515625 C 2.765625 -4.515625 -1.125 -8.40625 -1.125 -8.40625 C -1.125 -8.40625 -0.546875 -8.984375 -0.546875 -8.984375 C -0.546875 -8.984375 4.21875 -4.21875 4.21875 -4.21875 Z M 4.21875 -4.21875 "/>
</g>
<g id="glyph-8-0-08ade921">
<path d="M 2.90625 -7.25 C 4.359375 -5.796875 4.359375 -4.078125 3 -2.71875 C 2.53125 -2.25 1.9375 -1.9375 1.265625 -1.828125 C 1.265625 -1.828125 3.828125 0.734375 3.828125 0.734375 C 3.828125 0.734375 3 1.5625 3 1.5625 C 3 1.5625 -4.609375 -6.046875 -4.609375 -6.046875 C -5.921875 -7.359375 -5.53125 -8.90625 -4.40625 -10.03125 C -3.234375 -11.203125 -1.71875 -11.25 -0.625 -10.15625 C 0.0625 -9.46875 0.203125 -8.671875 -0.28125 -7.65625 C 1.015625 -8.296875 1.984375 -8.171875 2.90625 -7.25 Z M 2.109375 -6.328125 C 1.078125 -7.359375 0.1875 -7.09375 -0.984375 -5.921875 C -0.984375 -5.921875 -1.796875 -6.734375 -1.796875 -6.734375 C -1.796875 -6.734375 -1.71875 -6.8125 -1.71875 -6.8125 C -0.921875 -7.609375 -0.8125 -8.625 -1.46875 -9.28125 C -2.09375 -9.90625 -3.015625 -9.859375 -3.703125 -9.171875 C -4.421875 -8.453125 -4.46875 -7.5625 -3.78125 -6.875 C -3.78125 -6.875 0.453125 -2.640625 0.453125 -2.640625 C 1.078125 -2.703125 1.671875 -2.984375 2.125 -3.4375 C 2.984375 -4.296875 3 -5.4375 2.109375 -6.328125 Z M 2.109375 -6.328125 "/>
</g>
<g id="glyph-9-0-08ade921">
<path d="M 2.640625 -7.734375 C 4.296875 -6.078125 4.4375 -4.15625 3.109375 -2.828125 C 2.421875 -2.140625 1.703125 -1.890625 0.75 -2 C 0.75 -2 3.53125 0.78125 3.53125 0.78125 C 3.53125 0.78125 2.703125 1.609375 2.703125 1.609375 C 2.703125 1.609375 -4.640625 -5.734375 -4.640625 -5.734375 C -4.640625 -5.734375 -3.890625 -6.484375 -3.890625 -6.484375 C -3.890625 -6.484375 -3.109375 -5.703125 -3.109375 -5.703125 C -3.34375 -6.6875 -3.09375 -7.59375 -2.390625 -8.296875 C -1.015625 -9.671875 0.90625 -9.46875 2.640625 -7.734375 Z M 1.75 -6.875 C 0.515625 -8.109375 -0.84375 -8.28125 -1.75 -7.375 C -2.625 -6.5 -2.390625 -5.140625 -1.171875 -3.921875 C 0.03125 -2.71875 1.3125 -2.5625 2.1875 -3.4375 C 3.09375 -4.34375 2.9375 -5.6875 1.75 -6.875 Z M 1.75 -6.875 "/>
</g>
<g id="glyph-10-0-08ade921">
<path d="M 2.765625 -5.359375 C 3.609375 -4.515625 3.53125 -3.28125 2.328125 -2.078125 C 1.203125 -0.953125 -0.109375 -0.734375 -1.234375 -1.859375 C -1.234375 -1.859375 -0.65625 -2.4375 -0.65625 -2.4375 C 0.015625 -1.765625 0.921875 -1.765625 1.8125 -2.65625 C 2.640625 -3.484375 2.71875 -4.1875 2.203125 -4.703125 C 1.828125 -5.078125 1.3125 -5.03125 0.5625 -4.59375 C 0.5625 -4.59375 -0.9375 -3.71875 -0.9375 -3.71875 C -1.734375 -3.265625 -2.40625 -3.3125 -2.984375 -3.890625 C -3.84375 -4.75 -3.765625 -5.984375 -2.734375 -7.015625 C -1.625 -8.125 -0.4375 -8.21875 0.484375 -7.296875 C 0.484375 -7.296875 -0.09375 -6.71875 -0.09375 -6.71875 C -0.703125 -7.328125 -1.46875 -7.25 -2.234375 -6.484375 C -2.875 -5.84375 -2.953125 -5.078125 -2.46875 -4.59375 C -2.09375 -4.21875 -1.703125 -4.234375 -0.96875 -4.65625 C -0.96875 -4.65625 0.53125 -5.53125 0.53125 -5.53125 C 1.375 -6 2.171875 -5.953125 2.765625 -5.359375 Z M 2.765625 -5.359375 "/>
</g>
<g id="glyph-11-0-08ade921">
<path d="M 4.96875 -4.96875 C 4.96875 -4.96875 3.953125 -3.953125 3.953125 -3.953125 C 3.953125 -3.953125 -0.609375 -5.015625 -0.609375 -5.015625 C -0.609375 -5.015625 -0.625 -3.40625 -0.625 -3.40625 C -0.625 -3.40625 1.390625 -1.390625 1.390625 -1.390625 C 1.390625 -1.390625 0.578125 -0.578125 0.578125 -0.578125 C 0.578125 -0.578125 -6.640625 -7.796875 -6.640625 -7.796875 C -6.640625 -7.796875 -5.828125 -8.609375 -5.828125 -8.609375 C -5.828125 -8.609375 -1.609375 -4.390625 -1.609375 -4.390625 C -1.609375 -4.390625 -1.59375 -8.78125 -1.59375 -8.78125 C -1.59375 -8.78125 -0.53125 -9.84375 -0.53125 -9.84375 C -0.53125 -9.84375 -0.546875 -6.234375 -0.546875 -6.234375 C -0.546875 -6.234375 4.96875 -4.96875 4.96875 -4.96875 Z M 4.96875 -4.96875 "/>
</g>
<g id="glyph-12-0-08ade921">
<path d="M 3.8125 -3.8125 C 3.8125 -3.8125 0.1875 -0.1875 0.1875 -0.1875 C 0.1875 -0.1875 -0.34375 -0.71875 -0.34375 -0.71875 C -0.34375 -0.71875 -1.1875 -7.25 -1.1875 -7.25 C -1.1875 -7.25 -3.859375 -4.578125 -3.859375 -4.578125 C -3.859375 -4.578125 -4.40625 -5.125 -4.40625 -5.125 C -4.40625 -5.125 -0.96875 -8.5625 -0.96875 -8.5625 C -0.96875 -8.5625 -0.40625 -8 -0.40625 -8 C -0.40625 -8 0.421875 -1.484375 0.421875 -1.484375 C 0.421875 -1.484375 3.28125 -4.34375 3.28125 -4.34375 C 3.28125 -4.34375 3.8125 -3.8125 3.8125 -3.8125 Z M 3.8125 -3.8125 "/>
</g>
<g id="glyph-13-0-08ade921">
<path d="M 2.9375 -6.5 C 4.03125 -5.21875 3.984375 -3.703125 2.75 -2.46875 C 1.328125 -1.046875 -0.5625 -1.1875 -2.234375 -2.859375 C -3.953125 -4.578125 -4.125 -6.5625 -2.71875 -7.96875 C -1.578125 -9.109375 -0.140625 -9.265625 1.203125 -8.109375 C 1.203125 -8.109375 0.375 -7.28125 0.375 -7.28125 C -0.4375 -7.90625 -1.28125 -7.875 -1.96875 -7.1875 C -2.875 -6.28125 -2.671875 -5.015625 -1.375 -3.71875 C -0.140625 -2.484375 1.09375 -2.34375 2 -3.25 C 2.703125 -3.953125 2.796875 -4.703125 2.109375 -5.671875 C 2.109375 -5.671875 2.9375 -6.5 2.9375 -6.5 Z M 2.9375 -6.5 "/>
</g>
<g id="glyph-13-1-08ade921">
<path d="M -0.375 -10 C -0.375 -10 2.8125 -2.8125 2.8125 -2.8125 C 2.8125 -2.8125 1.921875 -1.921875 1.921875 -1.921875 C 1.921875 -1.921875 -5.09375 -5.28125 -5.09375 -5.28125 C -5.09375 -5.28125 -4.15625 -6.21875 -4.15625 -6.21875 C -4.15625 -6.21875 1.4375 -3.40625 1.4375 -3.40625 C 1.4375 -3.40625 -1.3125 -9.0625 -1.3125 -9.0625 C -1.3125 -9.0625 -0.375 -10 -0.375 -10 Z M -0.375 -10 "/>
</g>
<g id="glyph-13-2-08ade921">
<path d="M 4.96875 -4.96875 C 4.96875 -4.96875 3.953125 -3.953125 3.953125 -3.953125 C 3.953125 -3.953125 -0.609375 -5.015625 -0.609375 -5.015625 C -0.609375 -5.015625 -0.625 -3.40625 -0.625 -3.40625 C -0.625 -3.40625 1.390625 -1.390625 1.390625 -1.390625 C 1.390625 -1.390625 0.578125 -0.578125 0.578125 -0.578125 C 0.578125 -0.578125 -6.640625 -7.796875 -6.640625 -7.796875 C -6.640625 -7.796875 -5.828125 -8.609375 -5.828125 -8.609375 C -5.828125 -8.609375 -1.609375 -4.390625 -1.609375 -4.390625 C -1.609375 -4.390625 -1.59375 -8.78125 -1.59375 -8.78125 C -1.59375 -8.78125 -0.53125 -9.84375 -0.53125 -9.84375 C -0.53125 -9.84375 -0.546875 -6.234375 -0.546875 -6.234375 C -0.546875 -6.234375 4.96875 -4.96875 4.96875 -4.96875 Z M 4.96875 -4.96875 "/>
</g>
<g id="glyph-14-0-08ade921">
<path d="M 2.5 -7.59375 C 4.203125 -5.890625 4.296875 -4.015625 2.84375 -2.5625 C 1.359375 -1.078125 -0.484375 -1.203125 -2.234375 -2.953125 C -3.96875 -4.6875 -4.109375 -6.578125 -2.640625 -8.046875 C -1.15625 -9.53125 0.703125 -9.390625 2.5 -7.59375 Z M 1.625 -6.75 C 0.328125 -8.046875 -0.9375 -8.21875 -1.875 -7.28125 C -2.796875 -6.359375 -2.625 -5.0625 -1.375 -3.8125 C -0.125 -2.5625 1.15625 -2.40625 2.078125 -3.328125 C 2.984375 -4.234375 2.84375 -5.53125 1.625 -6.75 Z M 1.625 -6.75 "/>
</g>
<g id="glyph-14-1-08ade921">
<path d="M 4.8125 -4.8125 C 4.8125 -4.8125 4 -4 4 -4 C 4 -4 0.40625 -7.59375 0.40625 -7.59375 C -0.21875 -8.21875 -1.046875 -8.203125 -1.703125 -7.546875 C -2.53125 -6.71875 -2.40625 -5.4375 -1.34375 -4.375 C -1.34375 -4.375 1.515625 -1.515625 1.515625 -1.515625 C 1.515625 -1.515625 0.703125 -0.703125 0.703125 -0.703125 C 0.703125 -0.703125 -4.484375 -5.890625 -4.484375 -5.890625 C -4.484375 -5.890625 -3.734375 -6.640625 -3.734375 -6.640625 C -3.734375 -6.640625 -2.859375 -5.765625 -2.859375 -5.765625 C -3.125 -6.9375 -2.9375 -7.75 -2.15625 -8.53125 C -1.171875 -9.515625 0.03125 -9.59375 0.890625 -8.734375 C 0.890625 -8.734375 4.8125 -4.8125 4.8125 -4.8125 Z M 4.8125 -4.8125 "/>
</g>
<g id="glyph-15-0-08ade921">
<path d="M 4 -4 C 4 -4 0.578125 -0.578125 0.578125 -0.578125 C 0.578125 -0.578125 -4.1875 -5.34375 -4.1875 -5.34375 C -4.1875 -5.34375 -0.875 -8.65625 -0.875 -8.65625 C -0.875 -8.65625 -0.328125 -8.109375 -0.328125 -8.109375 C -0.328125 -8.109375 -3.03125 -5.40625 -3.03125 -5.40625 C -3.03125 -5.40625 -1.515625 -3.890625 -1.515625 -3.890625 C -1.515625 -3.890625 1.09375 -6.5 1.09375 -6.5 C 1.09375 -6.5 1.625 -5.96875 1.625 -5.96875 C 1.625 -5.96875 -0.984375 -3.359375 -0.984375 -3.359375 C -0.984375 -3.359375 0.65625 -1.71875 0.65625 -1.71875 C 0.65625 -1.71875 3.46875 -4.53125 3.46875 -4.53125 C 3.46875 -4.53125 4 -4 4 -4 Z M 4 -4 "/>
</g>
<g id="glyph-16-0-08ade921">
<path d="M 1.96875 -6.75 C 3.453125 -5.265625 3.609375 -3.609375 2.421875 -2.421875 C 2.421875 -2.421875 0.578125 -0.578125 0.578125 -0.578125 C 0.578125 -0.578125 -4.1875 -5.34375 -4.1875 -5.34375 C -4.1875 -5.34375 -2.34375 -7.1875 -2.34375 -7.1875 C -1.140625 -8.390625 0.5 -8.21875 1.96875 -6.75 Z M 1.375 -6.125 C 0.15625 -7.34375 -0.96875 -7.46875 -1.90625 -6.53125 C -1.90625 -6.53125 -3.03125 -5.40625 -3.03125 -5.40625 C -3.03125 -5.40625 0.65625 -1.71875 0.65625 -1.71875 C 0.65625 -1.71875 1.78125 -2.84375 1.78125 -2.84375 C 2.71875 -3.78125 2.578125 -4.921875 1.375 -6.125 Z M 1.375 -6.125 "/>
</g>
<g id="glyph-17-0-08ade921">
<path d="M -2.796875 -8.6875 C -0.984375 -8.6875 0.25 -7.296875 0.25 -4.703125 C 0.25 -2.296875 -0.90625 -0.671875 -3.3125 -0.671875 C -3.3125 -0.671875 -3.3125 -1.90625 -3.3125 -1.90625 C -1.859375 -1.90625 -0.890625 -2.859375 -0.890625 -4.78125 C -0.890625 -6.546875 -1.546875 -7.390625 -2.671875 -7.390625 C -3.46875 -7.390625 -3.984375 -6.796875 -4.328125 -5.515625 C -4.328125 -5.515625 -5 -2.984375 -5 -2.984375 C -5.34375 -1.640625 -6.125 -0.984375 -7.375 -0.984375 C -9.21875 -0.984375 -10.453125 -2.359375 -10.453125 -4.609375 C -10.453125 -6.953125 -9.296875 -8.34375 -7.296875 -8.34375 C -7.296875 -8.34375 -7.296875 -7.109375 -7.296875 -7.109375 C -8.625 -7.109375 -9.359375 -6.1875 -9.359375 -4.5625 C -9.359375 -3.1875 -8.59375 -2.28125 -7.5625 -2.28125 C -6.78125 -2.28125 -6.375 -2.734375 -6.046875 -3.96875 C -6.046875 -3.96875 -5.359375 -6.53125 -5.359375 -6.53125 C -4.984375 -7.90625 -4.0625 -8.6875 -2.796875 -8.6875 Z M -2.796875 -8.6875 "/>
</g>
<g id="glyph-17-1-08ade921">
<path d="M 0 -6.8125 C 0 -6.8125 0 -5.65625 0 -5.65625 C 0 -5.65625 -5.078125 -5.65625 -5.078125 -5.65625 C -5.96875 -5.65625 -6.53125 -5.0625 -6.53125 -4.140625 C -6.53125 -2.953125 -5.546875 -2.140625 -4.046875 -2.140625 C -4.046875 -2.140625 0 -2.140625 0 -2.140625 C 0 -2.140625 0 -0.984375 0 -0.984375 C 0 -0.984375 -7.34375 -0.984375 -7.34375 -0.984375 C -7.34375 -0.984375 -7.34375 -2.0625 -7.34375 -2.0625 C -7.34375 -2.0625 -6.109375 -2.0625 -6.109375 -2.0625 C -7.125 -2.703125 -7.546875 -3.40625 -7.546875 -4.5 C -7.546875 -5.90625 -6.765625 -6.8125 -5.546875 -6.8125 C -5.546875 -6.8125 0 -6.8125 0 -6.8125 Z M 0 -6.8125 "/>
</g>
<g id="glyph-17-2-08ade921">
<path d="M 0 -2.140625 C 0 -2.140625 0 -0.984375 0 -0.984375 C 0 -0.984375 -7.34375 -0.984375 -7.34375 -0.984375 C -7.34375 -0.984375 -7.34375 -2.140625 -7.34375 -2.140625 C -7.34375 -2.140625 0 -2.140625 0 -2.140625 Z M -8.4375 -2.296875 C -8.4375 -2.296875 -8.4375 -0.84375 -8.4375 -0.84375 C -8.4375 -0.84375 -9.890625 -0.84375 -9.890625 -0.84375 C -9.890625 -0.84375 -9.890625 -2.296875 -9.890625 -2.296875 C -9.890625 -2.296875 -8.4375 -2.296875 -8.4375 -2.296875 Z M -8.4375 -2.296875 "/>
</g>
<g id="glyph-18-0-08ade921">
<path d="M -3.328125 -7.1875 C -3.328125 -7.1875 -3.328125 -1.78125 -3.328125 -1.78125 C -1.65625 -1.8125 -0.875 -2.71875 -0.875 -3.9375 C -0.875 -4.875 -1.265625 -5.53125 -2.21875 -5.859375 C -2.21875 -5.859375 -2.21875 -7.03125 -2.21875 -7.03125 C -0.734375 -6.734375 0.203125 -5.578125 0.203125 -3.890625 C 0.203125 -1.828125 -1.21875 -0.5625 -3.625 -0.5625 C -6.03125 -0.5625 -7.546875 -1.875 -7.546875 -3.921875 C -7.546875 -5.296875 -6.8125 -6.40625 -5.609375 -6.890625 C -5.0625 -7.09375 -4.390625 -7.1875 -3.328125 -7.1875 Z M -4.375 -5.9375 C -5.515625 -5.9375 -6.46875 -5.046875 -6.46875 -3.90625 C -6.46875 -2.734375 -5.59375 -1.90625 -4.28125 -1.8125 C -4.28125 -1.8125 -4.28125 -5.921875 -4.28125 -5.921875 C -4.3125 -5.9375 -4.375 -5.9375 -4.375 -5.9375 Z M -4.375 -5.9375 "/>
</g>
<g id="glyph-18-1-08ade921">
<path d="M 0 -2.140625 C 0 -2.140625 0 -0.984375 0 -0.984375 C 0 -0.984375 -7.34375 -0.984375 -7.34375 -0.984375 C -7.34375 -0.984375 -7.34375 -2.140625 -7.34375 -2.140625 C -7.34375 -2.140625 0 -2.140625 0 -2.140625 Z M -8.4375 -2.296875 C -8.4375 -2.296875 -8.4375 -0.84375 -8.4375 -0.84375 C -8.4375 -0.84375 -9.890625 -0.84375 -9.890625 -0.84375 C -9.890625 -0.84375 -9.890625 -2.296875 -9.890625 -2.296875 C -9.890625 -2.296875 -8.4375 -2.296875 -8.4375 -2.296875 Z M -8.4375 -2.296875 "/>
</g>
<g id="glyph-18-2-08ade921">
<path d="M -7.34375 -6.6875 C -7.34375 -6.6875 1.546875 -3.4375 1.546875 -3.4375 C 2.59375 -3.03125 3.046875 -2.359375 3.046875 -1.546875 C 3.046875 -1.234375 3 -1 2.875 -0.75 C 2.875 -0.75 1.8125 -0.75 1.8125 -0.75 C 1.875 -1.015625 1.90625 -1.203125 1.90625 -1.375 C 1.90625 -1.875 1.703125 -2.109375 1.1875 -2.3125 C 1.1875 -2.3125 0.03125 -2.765625 0.03125 -2.765625 C 0.03125 -2.765625 -7.34375 -0.28125 -7.34375 -0.28125 C -7.34375 -0.28125 -7.34375 -1.53125 -7.34375 -1.53125 C -7.34375 -1.53125 -1.625 -3.40625 -1.625 -3.40625 C -1.625 -3.40625 -7.34375 -5.4375 -7.34375 -5.4375 C -7.34375 -5.4375 -7.34375 -6.6875 -7.34375 -6.6875 Z M -7.34375 -6.6875 "/>
</g>
<g id="glyph-19-0-08ade921">
<path d="M -2.0625 -6.421875 C -0.640625 -6.421875 0.203125 -5.25 0.203125 -3.40625 C 0.203125 -1.484375 -0.546875 -0.53125 -2.234375 -0.46875 C -2.234375 -0.46875 -2.234375 -1.703125 -2.234375 -1.703125 C -1.125 -1.859375 -0.875 -2.453125 -0.875 -3.5 C -0.875 -4.515625 -1.28125 -5.203125 -1.953125 -5.203125 C -2.484375 -5.203125 -2.734375 -4.890625 -2.921875 -4.078125 C -2.921875 -4.078125 -3.1875 -2.984375 -3.1875 -2.984375 C -3.609375 -1.25 -4.15625 -0.65625 -5.3125 -0.65625 C -6.65625 -0.65625 -7.546875 -1.765625 -7.546875 -3.46875 C -7.546875 -5.171875 -6.734375 -6.125 -5.296875 -6.125 C -5.296875 -6.125 -5.296875 -4.90625 -5.296875 -4.90625 C -6.0625 -4.875 -6.46875 -4.375 -6.46875 -3.4375 C -6.46875 -2.484375 -6.03125 -1.875 -5.359375 -1.875 C -4.84375 -1.875 -4.53125 -2.28125 -4.3125 -3.234375 C -4.3125 -3.234375 -4.046875 -4.359375 -4.046875 -4.359375 C -3.703125 -5.8125 -3.15625 -6.421875 -2.0625 -6.421875 Z M -2.0625 -6.421875 "/>
</g>
<g id="glyph-20-0-08ade921">
<path d="M 0 -3.5625 C 0.0625 -3.15625 0.09375 -2.890625 0.09375 -2.609375 C 0.09375 -1.6875 -0.328125 -1.1875 -1.0625 -1.1875 C -1.0625 -1.1875 -6.390625 -1.1875 -6.390625 -1.1875 C -6.390625 -1.1875 -6.390625 -0.203125 -6.390625 -0.203125 C -6.390625 -0.203125 -7.34375 -0.203125 -7.34375 -0.203125 C -7.34375 -0.203125 -7.34375 -1.1875 -7.34375 -1.1875 C -7.34375 -1.1875 -9.359375 -1.1875 -9.359375 -1.1875 C -9.359375 -1.1875 -9.359375 -2.359375 -9.359375 -2.359375 C -9.359375 -2.359375 -7.34375 -2.359375 -7.34375 -2.359375 C -7.34375 -2.359375 -7.34375 -3.5625 -7.34375 -3.5625 C -7.34375 -3.5625 -6.390625 -3.5625 -6.390625 -3.5625 C -6.390625 -3.5625 -6.390625 -2.359375 -6.390625 -2.359375 C -6.390625 -2.359375 -1.578125 -2.359375 -1.578125 -2.359375 C -1.0625 -2.359375 -0.921875 -2.484375 -0.921875 -3 C -0.921875 -3.21875 -0.9375 -3.40625 -0.984375 -3.5625 C -0.984375 -3.5625 0 -3.5625 0 -3.5625 Z M 0 -3.5625 "/>
</g>
<g id="glyph-20-1-08ade921">
<path d="M -7.34375 -6.796875 C -7.34375 -6.796875 0 -3.984375 0 -3.984375 C 0 -3.984375 0 -2.71875 0 -2.71875 C 0 -2.71875 -7.34375 -0.140625 -7.34375 -0.140625 C -7.34375 -0.140625 -7.34375 -1.453125 -7.34375 -1.453125 C -7.34375 -1.453125 -1.390625 -3.421875 -1.390625 -3.421875 C -1.390625 -3.421875 -7.34375 -5.484375 -7.34375 -5.484375 C -7.34375 -5.484375 -7.34375 -6.796875 -7.34375 -6.796875 Z M -7.34375 -6.796875 "/>
</g>
<g id="glyph-21-0-08ade921">
<path d="M 0 -2.140625 C 0 -2.140625 0 -0.984375 0 -0.984375 C 0 -0.984375 -7.34375 -0.984375 -7.34375 -0.984375 C -7.34375 -0.984375 -7.34375 -2.140625 -7.34375 -2.140625 C -7.34375 -2.140625 0 -2.140625 0 -2.140625 Z M -8.4375 -2.296875 C -8.4375 -2.296875 -8.4375 -0.84375 -8.4375 -0.84375 C -8.4375 -0.84375 -9.890625 -0.84375 -9.890625 -0.84375 C -9.890625 -0.84375 -9.890625 -2.296875 -9.890625 -2.296875 C -9.890625 -2.296875 -8.4375 -2.296875 -8.4375 -2.296875 Z M -8.4375 -2.296875 "/>
</g>
<g id="glyph-22-0-08ade921">
<path d="M 0 -3.5625 C 0.0625 -3.15625 0.09375 -2.890625 0.09375 -2.609375 C 0.09375 -1.6875 -0.328125 -1.1875 -1.0625 -1.1875 C -1.0625 -1.1875 -6.390625 -1.1875 -6.390625 -1.1875 C -6.390625 -1.1875 -6.390625 -0.203125 -6.390625 -0.203125 C -6.390625 -0.203125 -7.34375 -0.203125 -7.34375 -0.203125 C -7.34375 -0.203125 -7.34375 -1.1875 -7.34375 -1.1875 C -7.34375 -1.1875 -9.359375 -1.1875 -9.359375 -1.1875 C -9.359375 -1.1875 -9.359375 -2.359375 -9.359375 -2.359375 C -9.359375 -2.359375 -7.34375 -2.359375 -7.34375 -2.359375 C -7.34375 -2.359375 -7.34375 -3.5625 -7.34375 -3.5625 C -7.34375 -3.5625 -6.390625 -3.5625 -6.390625 -3.5625 C -6.390625 -3.5625 -6.390625 -2.359375 -6.390625 -2.359375 C -6.390625 -2.359375 -1.578125 -2.359375 -1.578125 -2.359375 C -1.0625 -2.359375 -0.921875 -2.484375 -0.921875 -3 C -0.921875 -3.21875 -0.9375 -3.40625 -0.984375 -3.5625 C -0.984375 -3.5625 0 -3.5625 0 -3.5625 Z M 0 -3.5625 "/>
</g>
<g id="glyph-23-0-08ade921">
<path d="M 8.375 -8.453125 C 8.375 -8.453125 5.390625 -8.453125 5.390625 -8.453125 C 5.390625 -8.453125 5.390625 0 5.390625 0 C 5.390625 0 3.296875 0 3.296875 0 C 3.296875 0 3.296875 -8.453125 3.296875 -8.453125 C 3.296875 -8.453125 0.203125 -8.453125 0.203125 -8.453125 C 0.203125 -8.453125 0.203125 -10.203125 0.203125 -10.203125 C 0.203125 -10.203125 8.375 -10.203125 8.375 -10.203125 C 8.375 -10.203125 8.375 -8.453125 8.375 -8.453125 Z M 8.375 -8.453125 "/>
</g>
<g id="glyph-23-1-08ade921">
<path d="M 7.53125 -7.5625 C 7.53125 -7.5625 4.421875 1.390625 4.421875 1.390625 C 3.90625 2.828125 3.21875 3.0625 1.90625 3.0625 C 1.671875 3.0625 1.5 3.046875 1.203125 3.015625 C 1.203125 3.015625 1.203125 1.546875 1.203125 1.546875 C 1.453125 1.609375 1.5625 1.625 1.71875 1.625 C 2.40625 1.625 2.9375 1.078125 2.9375 0.359375 C 2.9375 0.359375 2.9375 0.328125 2.9375 0.328125 C 2.9375 0.328125 0.125 -7.5625 0.125 -7.5625 C 0.125 -7.5625 2.28125 -7.5625 2.28125 -7.5625 C 2.28125 -7.5625 3.953125 -2.0625 3.953125 -2.0625 C 3.953125 -2.0625 5.515625 -7.5625 5.515625 -7.5625 C 5.515625 -7.5625 7.53125 -7.5625 7.53125 -7.5625 Z M 7.53125 -7.5625 "/>
</g>
<g id="glyph-23-2-08ade921">
<path d="M 8.03125 -3.78125 C 8.03125 -1.484375 6.6875 0.125 4.875 0.125 C 3.921875 0.125 3.25 -0.171875 2.765625 -1.015625 C 2.765625 -1.015625 2.765625 3.046875 2.765625 3.046875 C 2.765625 3.046875 0.8125 3.046875 0.8125 3.046875 C 0.8125 3.046875 0.8125 -7.5625 0.8125 -7.5625 C 0.8125 -7.5625 2.765625 -7.5625 2.765625 -7.5625 C 2.765625 -7.5625 2.765625 -6.4375 2.765625 -6.4375 C 3.25 -7.28125 3.921875 -7.6875 4.875 -7.6875 C 6.84375 -7.6875 8.03125 -6.015625 8.03125 -3.78125 Z M 6.078125 -3.75 C 6.078125 -5.1875 5.421875 -6.046875 4.421875 -6.046875 C 3.4375 -6.046875 2.765625 -5.1875 2.765625 -3.78125 C 2.765625 -2.359375 3.4375 -1.515625 4.421875 -1.515625 C 5.390625 -1.515625 6.078125 -2.375 6.078125 -3.75 Z M 6.078125 -3.75 "/>
</g>
<g id="glyph-23-3-08ade921">
<path d="M 7.34375 -3.5 C 7.34375 -3.5 7.34375 -3.265625 7.34375 -3.265625 C 7.34375 -3.265625 2.265625 -3.265625 2.265625 -3.265625 C 2.328125 -1.796875 2.90625 -1.375 3.84375 -1.375 C 4.546875 -1.375 5.171875 -1.578125 5.328125 -2.125 C 5.328125 -2.125 7.265625 -2.125 7.265625 -2.125 C 6.828125 -0.640625 5.453125 0.125 3.765625 0.125 C 1.625 0.125 0.3125 -1.265625 0.3125 -3.6875 C 0.3125 -6.21875 1.640625 -7.6875 3.8125 -7.6875 C 6.03125 -7.6875 7.34375 -6.109375 7.34375 -3.5 Z M 5.3125 -4.5625 C 5.203125 -5.640625 4.625 -6.1875 3.78125 -6.1875 C 2.90625 -6.1875 2.421875 -5.609375 2.296875 -4.5625 C 2.296875 -4.5625 5.3125 -4.5625 5.3125 -4.5625 Z M 5.3125 -4.5625 "/>
</g>
<g id="glyph-23-4-08ade921">
<path d="M 2.984375 0 C 2.984375 0 0.875 0 0.875 0 C 0.875 0 0.875 -10.203125 0.875 -10.203125 C 0.875 -10.203125 2.984375 -10.203125 2.984375 -10.203125 C 2.984375 -10.203125 2.984375 0 2.984375 0 Z M 2.984375 0 "/>
</g>
<g id="glyph-23-5-08ade921">
<path d="M 11.53125 0 C 11.53125 0 9.578125 0 9.578125 0 C 9.578125 0 9.578125 -5.046875 9.578125 -5.046875 C 9.578125 -5.640625 9.171875 -6.015625 8.515625 -6.015625 C 7.671875 -6.015625 7.171875 -5.453125 7.171875 -4.53125 C 7.171875 -4.53125 7.171875 0 7.171875 0 C 7.171875 0 5.203125 0 5.203125 0 C 5.203125 0 5.203125 -5.046875 5.203125 -5.046875 C 5.203125 -5.640625 4.796875 -6.015625 4.140625 -6.015625 C 3.296875 -6.015625 2.796875 -5.453125 2.796875 -4.53125 C 2.796875 -4.53125 2.796875 0 2.796875 0 C 2.796875 0 0.84375 0 0.84375 0 C 0.84375 0 0.84375 -7.5625 0.84375 -7.5625 C 0.84375 -7.5625 2.78125 -7.5625 2.78125 -7.5625 C 2.78125 -7.5625 2.78125 -6.625 2.78125 -6.625 C 3.4375 -7.390625 3.984375 -7.6875 4.859375 -7.6875 C 5.796875 -7.6875 6.546875 -7.28125 6.921875 -6.5625 C 7.5 -7.34375 8.171875 -7.6875 9.125 -7.6875 C 10.640625 -7.6875 11.53125 -6.8125 11.53125 -5.34375 C 11.53125 -5.34375 11.53125 0 11.53125 0 Z M 11.53125 0 "/>
</g>
<g id="glyph-23-6-08ade921">
<path d="M 7.96875 -3.71875 C 7.96875 -1.296875 6.53125 0.125 4.234375 0.125 C 1.90625 0.125 0.484375 -1.28125 0.484375 -3.78125 C 0.484375 -6.265625 1.90625 -7.6875 4.21875 -7.6875 C 6.578125 -7.6875 7.96875 -6.28125 7.96875 -3.71875 Z M 6 -3.75 C 6 -5.234375 5.3125 -6.109375 4.234375 -6.109375 C 3.15625 -6.109375 2.453125 -5.21875 2.453125 -3.78125 C 2.453125 -2.34375 3.15625 -1.453125 4.234375 -1.453125 C 5.28125 -1.453125 6 -2.34375 6 -3.75 Z M 6 -3.75 "/>
</g>
<g id="glyph-23-7-08ade921">
<path d="M 5.1875 -5.6875 C 4.90625 -5.71875 4.78125 -5.734375 4.5625 -5.734375 C 3.421875 -5.734375 2.84375 -5.171875 2.84375 -4.015625 C 2.84375 -4.015625 2.84375 0 2.84375 0 C 2.84375 0 0.875 0 0.875 0 C 0.875 0 0.875 -7.5625 0.875 -7.5625 C 0.875 -7.5625 2.84375 -7.5625 2.84375 -7.5625 C 2.84375 -7.5625 2.84375 -6.078125 2.84375 -6.078125 C 3.265625 -7.09375 4.046875 -7.6875 4.9375 -7.6875 C 5 -7.6875 5.0625 -7.6875 5.1875 -7.671875 C 5.1875 -7.671875 5.1875 -5.6875 5.1875 -5.6875 Z M 5.1875 -5.6875 "/>
</g>
<g id="glyph-23-8-08ade921">
<path d="M 4.21875 0 C 3.859375 0.015625 3.515625 0.0625 3.078125 0.0625 C 1.796875 0.0625 1.15625 -0.4375 1.15625 -1.625 C 1.15625 -1.625 1.15625 -6.109375 1.15625 -6.109375 C 1.15625 -6.109375 0.203125 -6.109375 0.203125 -6.109375 C 0.203125 -6.109375 0.203125 -7.40625 0.203125 -7.40625 C 0.203125 -7.40625 1.15625 -7.40625 1.15625 -7.40625 C 1.15625 -7.40625 1.15625 -9.4375 1.15625 -9.4375 C 1.15625 -9.4375 3.125 -9.4375 3.125 -9.4375 C 3.125 -9.4375 3.125 -7.40625 3.125 -7.40625 C 3.125 -7.40625 4.21875 -7.40625 4.21875 -7.40625 C 4.21875 -7.40625 4.21875 -6.109375 4.21875 -6.109375 C 4.21875 -6.109375 3.125 -6.109375 3.125 -6.109375 C 3.125 -6.109375 3.125 -2.15625 3.125 -2.15625 C 3.125 -1.484375 3.25 -1.328125 3.765625 -1.328125 C 3.90625 -1.328125 4.015625 -1.34375 4.21875 -1.375 C 4.21875 -1.375 4.21875 0 4.21875 0 Z M 4.21875 0 "/>
</g>
<g id="glyph-23-9-08ade921">
<path d="M 7.34375 0 C 7.34375 0 5.203125 0 5.203125 0 C 5.03125 -0.21875 4.984375 -0.5625 4.984375 -0.953125 C 4.296875 -0.234375 3.53125 0.125 2.6875 0.125 C 1.421875 0.125 0.390625 -0.578125 0.390625 -2.046875 C 0.390625 -3.421875 1.125 -4.0625 2.625 -4.328125 C 2.625 -4.328125 3.40625 -4.46875 3.40625 -4.46875 C 4.375 -4.640625 4.96875 -4.546875 4.96875 -5.34375 C 4.96875 -5.859375 4.59375 -6.109375 3.84375 -6.109375 C 2.875 -6.109375 2.546875 -5.859375 2.453125 -5.0625 C 2.453125 -5.0625 0.5625 -5.0625 0.5625 -5.0625 C 0.6875 -6.8125 1.75 -7.6875 3.796875 -7.6875 C 5.84375 -7.6875 6.890625 -6.90625 6.890625 -5.359375 C 6.890625 -5.359375 6.890625 -1.15625 6.890625 -1.15625 C 6.890625 -0.765625 6.984375 -0.5625 7.34375 -0.234375 C 7.34375 -0.234375 7.34375 0 7.34375 0 Z M 4.96875 -3.234375 C 4.96875 -3.234375 4.96875 -3.5625 4.96875 -3.5625 C 4.75 -3.453125 4.65625 -3.4375 4.140625 -3.328125 C 4.140625 -3.328125 3.46875 -3.203125 3.46875 -3.203125 C 2.65625 -3.046875 2.359375 -2.84375 2.359375 -2.265625 C 2.359375 -1.703125 2.765625 -1.453125 3.421875 -1.453125 C 4.40625 -1.453125 4.96875 -2.09375 4.96875 -3.234375 Z M 4.96875 -3.234375 "/>
</g>
<g id="glyph-23-10-08ade921">
<path d="M 7.640625 0 C 7.640625 0 5.6875 0 5.6875 0 C 5.6875 0 5.6875 -4.65625 5.6875 -4.65625 C 5.6875 -5.5625 5.265625 -6.015625 4.421875 -6.015625 C 3.46875 -6.015625 2.84375 -5.4375 2.84375 -4.53125 C 2.84375 -4.53125 2.84375 0 2.84375 0 C 2.84375 0 0.875 0 0.875 0 C 0.875 0 0.875 -7.5625 0.875 -7.5625 C 0.875 -7.5625 2.84375 -7.5625 2.84375 -7.5625 C 2.84375 -7.5625 2.84375 -6.46875 2.84375 -6.46875 C 3.40625 -7.3125 4.09375 -7.6875 5.109375 -7.6875 C 6.71875 -7.6875 7.640625 -6.734375 7.640625 -5.0625 C 7.640625 -5.0625 7.640625 0 7.640625 0 Z M 7.640625 0 "/>
</g>
<g id="glyph-23-11-08ade921">
<path d="M 7.3125 -2.625 C 7.125 -1.015625 5.859375 0.125 4.015625 0.125 C 1.78125 0.125 0.46875 -1.234375 0.46875 -3.71875 C 0.46875 -6.296875 1.796875 -7.6875 4.046875 -7.6875 C 5.9375 -7.6875 7.171875 -6.578125 7.3125 -4.734375 C 7.3125 -4.734375 5.4375 -4.734375 5.4375 -4.734375 C 5.203125 -5.71875 4.828125 -6.109375 4.03125 -6.109375 C 2.796875 -6.109375 2.4375 -5.109375 2.4375 -3.71875 C 2.4375 -2.25 3.03125 -1.453125 4.03125 -1.453125 C 4.78125 -1.453125 5.1875 -1.828125 5.4375 -2.625 C 5.4375 -2.625 7.3125 -2.625 7.3125 -2.625 Z M 7.3125 -2.625 "/>
</g>
<g id="glyph-23-12-08ade921">
</g>
<g id="glyph-23-13-08ade921">
<path d="M 7.578125 0 C 7.578125 0 5.609375 0 5.609375 0 C 5.609375 0 5.609375 -4.625 5.609375 -4.625 C 5.609375 -5.640625 5.109375 -6.015625 4.40625 -6.015625 C 3.53125 -6.015625 2.890625 -5.40625 2.890625 -4.53125 C 2.890625 -4.53125 2.890625 0 2.890625 0 C 2.890625 0 0.9375 0 0.9375 0 C 0.9375 0 0.9375 -10.203125 0.9375 -10.203125 C 0.9375 -10.203125 2.890625 -10.203125 2.890625 -10.203125 C 2.890625 -10.203125 2.890625 -6.46875 2.890625 -6.46875 C 3.4375 -7.296875 4.140625 -7.6875 5.109375 -7.6875 C 6.53125 -7.6875 7.578125 -6.828125 7.578125 -5.0625 C 7.578125 -5.0625 7.578125 0 7.578125 0 Z M 7.578125 0 "/>
</g>
<g id="glyph-23-14-08ade921">
<path d="M 7.28125 -2.234375 C 7.28125 -0.71875 6.109375 0.125 3.96875 0.125 C 1.6875 0.125 0.46875 -0.734375 0.40625 -2.390625 C 0.40625 -2.390625 2.328125 -2.390625 2.328125 -2.390625 C 2.484375 -1.578125 2.96875 -1.40625 3.859375 -1.40625 C 4.78125 -1.40625 5.3125 -1.59375 5.3125 -2.0625 C 5.3125 -2.265625 5.15625 -2.421875 4.65625 -2.578125 C 4.65625 -2.578125 2.328125 -3.296875 2.328125 -3.296875 C 0.921875 -3.734375 0.671875 -4.234375 0.671875 -5.171875 C 0.671875 -6.71875 1.859375 -7.6875 3.78125 -7.6875 C 5.8125 -7.6875 7.046875 -6.71875 7.0625 -5.125 C 7.0625 -5.125 5.1875 -5.125 5.1875 -5.125 C 5.171875 -5.8125 4.703125 -6.140625 3.765625 -6.140625 C 3.078125 -6.140625 2.625 -5.859375 2.625 -5.453125 C 2.625 -5.140625 2.765625 -5.015625 3.3125 -4.859375 C 3.3125 -4.859375 5.796875 -4.140625 5.796875 -4.140625 C 6.796875 -3.84375 7.28125 -3.203125 7.28125 -2.34375 C 7.28125 -2.34375 7.28125 -2.234375 7.28125 -2.234375 Z M 7.28125 -2.234375 "/>
</g>
<g id="glyph-23-15-08ade921">
<path d="M 2.890625 0 C 2.890625 0 0.9375 0 0.9375 0 C 0.9375 0 0.9375 -10.203125 0.9375 -10.203125 C 0.9375 -10.203125 2.890625 -10.203125 2.890625 -10.203125 C 2.890625 -10.203125 2.890625 0 2.890625 0 Z M 2.890625 0 "/>
</g>
<g id="glyph-23-16-08ade921">
<path d="M 7.625 0 C 7.625 0 5.671875 0 5.671875 0 C 5.671875 0 5.671875 -0.875 5.671875 -0.875 C 5.1875 -0.21875 4.515625 0.125 3.578125 0.125 C 1.578125 0.125 0.40625 -1.625 0.40625 -3.765625 C 0.40625 -6.046875 1.78125 -7.6875 3.578125 -7.6875 C 4.515625 -7.6875 5.1875 -7.34375 5.671875 -6.578125 C 5.671875 -6.578125 5.671875 -10.203125 5.671875 -10.203125 C 5.671875 -10.203125 7.625 -10.203125 7.625 -10.203125 C 7.625 -10.203125 7.625 0 7.625 0 Z M 5.671875 -3.734375 C 5.671875 -5.1875 5.015625 -6.046875 4.015625 -6.046875 C 3.03125 -6.046875 2.359375 -5.171875 2.359375 -3.765625 C 2.359375 -2.375 3.03125 -1.515625 4.015625 -1.515625 C 5 -1.515625 5.671875 -2.359375 5.671875 -3.734375 Z M 5.671875 -3.734375 "/>
</g>
<g id="glyph-24-0-08ade921">
<path d="M 0.828125 -4.296875 L 1.625 -4.296875 L 1.625 0 L 0.828125 0 Z M 0.828125 -5.953125 L 1.625 -5.953125 L 1.625 -5.0625 L 0.828125 -5.0625 Z M 0.828125 -5.953125 "/>
</g>
<g id="glyph-24-1-08ade921">
<path d="M 1.609375 -5.5 L 1.609375 -4.296875 L 3.25 -4.296875 L 3.25 -3.75 L 1.609375 -3.75 L 1.609375 -1.421875 C 1.609375 -1.066406 1.660156 -0.835938 1.765625 -0.734375 C 1.878906 -0.640625 2.101562 -0.59375 2.4375 -0.59375 L 3.25 -0.59375 L 3.25 0 L 2.4375 0 C 1.820312 0 1.398438 -0.101562 1.171875 -0.3125 C 0.941406 -0.507812 0.828125 -0.878906 0.828125 -1.421875 L 0.828125 -3.75 L 0.234375 -3.75 L 0.234375 -4.296875 L 0.828125 -4.296875 L 0.828125 -5.5 Z M 1.609375 -5.5 "/>
</g>
</g>
<clipPath id="clip-0-08ade921">
<path clip-rule="nonzero" d="M 66 358 L 752 358 L 752 360 L 66 360 Z M 66 358 "/>
</clipPath>
</defs>
<rect x="-76.8" y="-57.6" width="921.6" height="691.2" fill="rgb(100%, 100%, 100%)" fill-opacity="1"/>
<path fill-rule="nonzero" fill="rgb(100%, 100%, 100%)" fill-opacity="1" d="M 66 423 L 752 423 L 752 16 L 66 16 Z M 66 423 "/>
<path fill="none" stroke-width="1" stroke-linecap="butt" stroke-linejoin="miter" stroke="rgb(0%, 0%, 0%)" stroke-opacity="0.12" stroke-miterlimit="1.154701" d="M 131.828125 423 L 131.828125 16 "/>
<path fill="none" stroke-width="1" stroke-linecap="butt" stroke-linejoin="miter" stroke="rgb(0%, 0%, 0%)" stroke-opacity="0.12" stroke-miterlimit="1.154701" d="M 201.121094 423 L 201.121094 16 "/>
<path fill="none" stroke-width="1" stroke-linecap="butt" stroke-linejoin="miter" stroke="rgb(0%, 0%, 0%)" stroke-opacity="0.12" stroke-miterlimit="1.154701" d="M 270.414062 423 L 270.414062 16 "/>
<path fill="none" stroke-width="1" stroke-linecap="butt" stroke-linejoin="miter" stroke="rgb(0%, 0%, 0%)" stroke-opacity="0.12" stroke-miterlimit="1.154701" d="M 339.707031 423 L 339.707031 16 "/>
<path fill="none" stroke-width="1" stroke-linecap="butt" stroke-linejoin="miter" stroke="rgb(0%, 0%, 0%)" stroke-opacity="0.12" stroke-miterlimit="1.154701" d="M 409 423 L 409 16 "/>
<path fill="none" stroke-width="1" stroke-linecap="butt" stroke-linejoin="miter" stroke="rgb(0%, 0%, 0%)" stroke-opacity="0.12" stroke-miterlimit="1.154701" d="M 478.292969 423 L 478.292969 16 "/>
<path fill="none" stroke-width="1" stroke-linecap="butt" stroke-linejoin="miter" stroke="rgb(0%, 0%, 0%)" stroke-opacity="0.12" stroke-miterlimit="1.154701" d="M 547.585938 423 L 547.585938 16 "/>
<path fill="none" stroke-width="1" stroke-linecap="butt" stroke-linejoin="miter" stroke="rgb(0%, 0%, 0%)" stroke-opacity="0.12" stroke-miterlimit="1.154701" d="M 616.878906 423 L 616.878906 16 "/>
<path fill="none" stroke-width="1" stroke-linecap="butt" stroke-linejoin="miter" stroke="rgb(0%, 0%, 0%)" stroke-opacity="0.12" stroke-miterlimit="1.154701" d="M 686.171875 423 L 686.171875 16 "/>
<path fill="none" stroke-width="1" stroke-linecap="butt" stroke-linejoin="miter" stroke="rgb(0%, 0%, 0%)" stroke-opacity="0.12" stroke-miterlimit="1.154701" d="M 66 404.472656 L 752 404.472656 "/>
<path fill="none" stroke-width="1" stroke-linecap="butt" stroke-linejoin="miter" stroke="rgb(0%, 0%, 0%)" stroke-opacity="0.12" stroke-miterlimit="1.154701" d="M 66 313.691406 L 752 313.691406 "/>
<path fill="none" stroke-width="1" stroke-linecap="butt" stroke-linejoin="miter" stroke="rgb(0%, 0%, 0%)" stroke-opacity="0.12" stroke-miterlimit="1.154701" d="M 66 222.910156 L 752 222.910156 "/>
<path fill="none" stroke-width="1" stroke-linecap="butt" stroke-linejoin="miter" stroke="rgb(0%, 0%, 0%)" stroke-opacity="0.12" stroke-miterlimit="1.154701" d="M 66 132.128906 L 752 132.128906 "/>
<path fill="none" stroke-width="1" stroke-linecap="butt" stroke-linejoin="miter" stroke="rgb(0%, 0%, 0%)" stroke-opacity="0.12" stroke-miterlimit="1.154701" d="M 66 41.347656 L 752 41.347656 "/>
<g fill="rgb(0%, 0%, 0%)" fill-opacity="1">
<use xlink:href="#glyph-0-0-08ade921" x="376.324013" y="484.056599"/>
</g>
<g fill="rgb(0%, 0%, 0%)" fill-opacity="1">
<use xlink:href="#glyph-0-1-08ade921" x="385.662014" y="484.056599"/>
</g>
<g fill="rgb(0%, 0%, 0%)" fill-opacity="1">
<use xlink:href="#glyph-0-2-08ade921" x="393.446013" y="484.056599"/>
</g>
<g fill="rgb(0%, 0%, 0%)" fill-opacity="1">
<use xlink:href="#glyph-0-1-08ade921" x="398.108014" y="484.056599"/>
</g>
<g fill="rgb(0%, 0%, 0%)" fill-opacity="1">
<use xlink:href="#glyph-0-3-08ade921" x="405.892014" y="484.056599"/>
</g>
<g fill="rgb(0%, 0%, 0%)" fill-opacity="1">
<use xlink:href="#glyph-0-4-08ade921" x="417.554013" y="484.056599"/>
</g>
<g fill="rgb(0%, 0%, 0%)" fill-opacity="1">
<use xlink:href="#glyph-0-5-08ade921" x="425.338014" y="484.056599"/>
</g>
<g fill="rgb(0%, 0%, 0%)" fill-opacity="1">
<use xlink:href="#glyph-0-4-08ade921" x="429.230012" y="484.056599"/>
</g>
<g fill="rgb(0%, 0%, 0%)" fill-opacity="1">
<use xlink:href="#glyph-0-2-08ade921" x="437.014013" y="484.056599"/>
</g>
<g fill="rgb(0%, 0%, 0%)" fill-opacity="1">
<use xlink:href="#glyph-1-0-08ade921" x="125.72762" y="455.850305"/>
</g>
<g fill="rgb(0%, 0%, 0%)" fill-opacity="1">
<use xlink:href="#glyph-2-0-08ade921" x="133.15224" y="453.37543"/>
</g>
<g fill="rgb(0%, 0%, 0%)" fill-opacity="1">
<use xlink:href="#glyph-3-0-08ade921" x="134.9686" y="451.559072"/>
</g>
<g fill="rgb(0%, 0%, 0%)" fill-opacity="1">
<use xlink:href="#glyph-4-0-08ade921" x="138.960669" y="447.567"/>
</g>
<g fill="rgb(0%, 0%, 0%)" fill-opacity="1">
<use xlink:href="#glyph-5-0-08ade921" x="197.446134" y="454.969449"/>
</g>
<g fill="rgb(0%, 0%, 0%)" fill-opacity="1">
<use xlink:href="#glyph-2-0-08ade921" x="203.21754" y="454.14779"/>
</g>
<g fill="rgb(0%, 0%, 0%)" fill-opacity="1">
<use xlink:href="#glyph-3-0-08ade921" x="205.033899" y="452.331431"/>
</g>
<g fill="rgb(0%, 0%, 0%)" fill-opacity="1">
<use xlink:href="#glyph-3-1-08ade921" x="209.02597" y="448.33936"/>
</g>
<g fill="rgb(0%, 0%, 0%)" fill-opacity="1">
<use xlink:href="#glyph-4-1-08ade921" x="196.782868" y="447.713119"/>
</g>
<g fill="rgb(0%, 0%, 0%)" fill-opacity="1">
<use xlink:href="#glyph-6-0-08ade921" x="265.763974" y="454.399831"/>
</g>
<g fill="rgb(0%, 0%, 0%)" fill-opacity="1">
<use xlink:href="#glyph-7-0-08ade921" x="273.188594" y="451.924956"/>
</g>
<g fill="rgb(0%, 0%, 0%)" fill-opacity="1">
<use xlink:href="#glyph-2-1-08ade921" x="277.905902" y="447.20765"/>
</g>
<g fill="rgb(0%, 0%, 0%)" fill-opacity="1">
<use xlink:href="#glyph-8-0-08ade921" x="343.647071" y="445.809644"/>
</g>
<g fill="rgb(0%, 0%, 0%)" fill-opacity="1">
<use xlink:href="#glyph-9-0-08ade921" x="408.51276" y="450.236896"/>
</g>
<g fill="rgb(0%, 0%, 0%)" fill-opacity="1">
<use xlink:href="#glyph-10-0-08ade921" x="416.491752" y="447.20765"/>
</g>
<g fill="rgb(0%, 0%, 0%)" fill-opacity="1">
<use xlink:href="#glyph-6-1-08ade921" x="479.421495" y="448.6211"/>
</g>
<g fill="rgb(0%, 0%, 0%)" fill-opacity="1">
<use xlink:href="#glyph-11-0-08ade921" x="548.018897" y="449.316638"/>
</g>
<g fill="rgb(0%, 0%, 0%)" fill-opacity="1">
<use xlink:href="#glyph-12-0-08ade921" x="555.443518" y="446.841764"/>
</g>
<g fill="rgb(0%, 0%, 0%)" fill-opacity="1">
<use xlink:href="#glyph-13-0-08ade921" x="600.987936" y="465.64051"/>
</g>
<g fill="rgb(0%, 0%, 0%)" fill-opacity="1">
<use xlink:href="#glyph-14-0-08ade921" x="605.937683" y="460.690763"/>
</g>
<g fill="rgb(0%, 0%, 0%)" fill-opacity="1">
<use xlink:href="#glyph-14-1-08ade921" x="611.441803" y="455.186643"/>
</g>
<g fill="rgb(0%, 0%, 0%)" fill-opacity="1">
<use xlink:href="#glyph-13-1-08ade921" x="616.945923" y="449.682523"/>
</g>
<g fill="rgb(0%, 0%, 0%)" fill-opacity="1">
<use xlink:href="#glyph-15-0-08ade921" x="624.370543" y="447.207648"/>
</g>
<g fill="rgb(0%, 0%, 0%)" fill-opacity="1">
<use xlink:href="#glyph-13-2-08ade921" x="685.87948" y="450.041875"/>
</g>
<g fill="rgb(0%, 0%, 0%)" fill-opacity="1">
<use xlink:href="#glyph-16-0-08ade921" x="693.3041" y="447.567"/>
</g>
<g fill="rgb(0%, 0%, 0%)" fill-opacity="1">
<use xlink:href="#glyph-17-0-08ade921" x="28.488" y="251.006996"/>
</g>
<g fill="rgb(0%, 0%, 0%)" fill-opacity="1">
<use xlink:href="#glyph-18-0-08ade921" x="28.488001" y="241.668994"/>
</g>
<g fill="rgb(0%, 0%, 0%)" fill-opacity="1">
<use xlink:href="#glyph-17-1-08ade921" x="28.488001" y="233.884997"/>
</g>
<g fill="rgb(0%, 0%, 0%)" fill-opacity="1">
<use xlink:href="#glyph-19-0-08ade921" x="28.488001" y="226.100997"/>
</g>
<g fill="rgb(0%, 0%, 0%)" fill-opacity="1">
<use xlink:href="#glyph-17-2-08ade921" x="28.488002" y="219.100997"/>
</g>
<g fill="rgb(0%, 0%, 0%)" fill-opacity="1">
<use xlink:href="#glyph-20-0-08ade921" x="28.488002" y="215.992997"/>
</g>
<g fill="rgb(0%, 0%, 0%)" fill-opacity="1">
<use xlink:href="#glyph-18-1-08ade921" x="28.488002" y="212.101"/>
</g>
<g fill="rgb(0%, 0%, 0%)" fill-opacity="1">
<use xlink:href="#glyph-20-1-08ade921" x="28.488003" y="208.992998"/>
</g>
<g fill="rgb(0%, 0%, 0%)" fill-opacity="1">
<use xlink:href="#glyph-21-0-08ade921" x="28.488003" y="201.992999"/>
</g>
<g fill="rgb(0%, 0%, 0%)" fill-opacity="1">
<use xlink:href="#glyph-22-0-08ade921" x="28.488003" y="198.884997"/>
</g>
<g fill="rgb(0%, 0%, 0%)" fill-opacity="1">
<use xlink:href="#glyph-18-2-08ade921" x="28.488003" y="194.992999"/>
</g>
<g fill="rgb(0%, 0%, 0%)" fill-opacity="1">
<use xlink:href="#glyph-0-6-08ade921" x="36.540002" y="409.576662"/>
</g>
<g fill="rgb(0%, 0%, 0%)" fill-opacity="1">
<use xlink:href="#glyph-0-7-08ade921" x="44.324003" y="409.576662"/>
</g>
<g fill="rgb(0%, 0%, 0%)" fill-opacity="1">
<use xlink:href="#glyph-0-6-08ade921" x="48.216002" y="409.576662"/>
</g>
<g fill="rgb(0%, 0%, 0%)" fill-opacity="1">
<use xlink:href="#glyph-0-6-08ade921" x="36.540002" y="318.795564"/>
</g>
<g fill="rgb(0%, 0%, 0%)" fill-opacity="1">
<use xlink:href="#glyph-0-7-08ade921" x="44.324003" y="318.795564"/>
</g>
<g fill="rgb(0%, 0%, 0%)" fill-opacity="1">
<use xlink:href="#glyph-0-8-08ade921" x="48.216002" y="318.795564"/>
</g>
<g fill="rgb(0%, 0%, 0%)" fill-opacity="1">
<use xlink:href="#glyph-0-6-08ade921" x="36.540002" y="228.014497"/>
</g>
<g fill="rgb(0%, 0%, 0%)" fill-opacity="1">
<use xlink:href="#glyph-0-7-08ade921" x="44.324003" y="228.014497"/>
</g>
<g fill="rgb(0%, 0%, 0%)" fill-opacity="1">
<use xlink:href="#glyph-0-9-08ade921" x="48.216002" y="228.014497"/>
</g>
<g fill="rgb(0%, 0%, 0%)" fill-opacity="1">
<use xlink:href="#glyph-0-6-08ade921" x="36.540002" y="137.233399"/>
</g>
<g fill="rgb(0%, 0%, 0%)" fill-opacity="1">
<use xlink:href="#glyph-0-7-08ade921" x="44.324003" y="137.233399"/>
</g>
<g fill="rgb(0%, 0%, 0%)" fill-opacity="1">
<use xlink:href="#glyph-0-10-08ade921" x="48.216002" y="137.233399"/>
</g>
<g fill="rgb(0%, 0%, 0%)" fill-opacity="1">
<use xlink:href="#glyph-0-6-08ade921" x="36.540002" y="46.4523"/>
</g>
<g fill="rgb(0%, 0%, 0%)" fill-opacity="1">
<use xlink:href="#glyph-0-7-08ade921" x="44.324003" y="46.4523"/>
</g>
<g fill="rgb(0%, 0%, 0%)" fill-opacity="1">
<use xlink:href="#glyph-0-11-08ade921" x="48.216002" y="46.4523"/>
</g>
<path fill-rule="nonzero" fill="rgb(0%, 44.705883%, 69.803923%)" fill-opacity="1" d="M 104.109375 404.472656 L 159.542969 404.472656 L 159.542969 316.410156 L 104.109375 316.410156 Z M 104.109375 404.472656 "/>
<path fill-rule="nonzero" fill="rgb(90.196079%, 62.352943%, 0%)" fill-opacity="1" d="M 104.109375 316.410156 L 159.542969 316.410156 L 159.542969 34.5 L 104.109375 34.5 Z M 104.109375 316.410156 "/>
<path fill-rule="nonzero" fill="rgb(0%, 44.705883%, 69.803923%)" fill-opacity="1" d="M 173.402344 404.472656 L 228.835938 404.472656 L 228.835938 366.636719 L 173.402344 366.636719 Z M 173.402344 404.472656 "/>
<path fill-rule="nonzero" fill="rgb(90.196079%, 62.352943%, 0%)" fill-opacity="1" d="M 173.402344 366.636719 L 228.835938 366.636719 L 228.835938 141.578125 L 173.402344 141.578125 Z M 173.402344 366.636719 "/>
<path fill-rule="nonzero" fill="rgb(0%, 44.705883%, 69.803923%)" fill-opacity="1" d="M 242.695312 404.472656 L 298.128906 404.472656 L 298.128906 342.582031 L 242.695312 342.582031 Z M 242.695312 404.472656 "/>
<path fill-rule="nonzero" fill="rgb(90.196079%, 62.352943%, 0%)" fill-opacity="1" d="M 242.695312 342.582031 L 298.128906 342.582031 L 298.128906 153.429688 L 242.695312 153.429688 Z M 242.695312 342.582031 "/>
<path fill-rule="nonzero" fill="rgb(0%, 44.705883%, 69.803923%)" fill-opacity="1" d="M 381.28125 404.480469 L 436.714844 404.480469 L 436.714844 404.472656 L 381.28125 404.472656 Z M 381.28125 404.480469 "/>
<path fill-rule="nonzero" fill="rgb(90.196079%, 62.352943%, 0%)" fill-opacity="1" d="M 381.28125 404.472656 L 436.714844 404.472656 L 436.714844 404.460938 L 381.28125 404.460938 Z M 381.28125 404.472656 "/>
<path fill-rule="nonzero" fill="rgb(0%, 44.705883%, 69.803923%)" fill-opacity="1" d="M 450.574219 404.5 L 506.007812 404.5 L 506.007812 404.472656 L 450.574219 404.472656 Z M 450.574219 404.5 "/>
<path fill-rule="nonzero" fill="rgb(90.196079%, 62.352943%, 0%)" fill-opacity="1" d="M 450.574219 404.472656 L 506.007812 404.472656 L 506.007812 404.433594 L 450.574219 404.433594 Z M 450.574219 404.472656 "/>
<path fill-rule="nonzero" fill="rgb(0%, 44.705883%, 69.803923%)" fill-opacity="1" d="M 589.160156 404.472656 L 644.59375 404.472656 L 644.59375 404.433594 L 589.160156 404.433594 Z M 589.160156 404.472656 "/>
<path fill-rule="nonzero" fill="rgb(90.196079%, 62.352943%, 0%)" fill-opacity="1" d="M 589.160156 404.5 L 644.59375 404.5 L 644.59375 404.476562 L 589.160156 404.476562 Z M 589.160156 404.5 "/>
<g clip-path="url(#clip-0-08ade921)">
<path fill="none" stroke-width="1.5" stroke-linecap="butt" stroke-linejoin="miter" stroke="rgb(100%, 0%, 0%)" stroke-opacity="1" stroke-miterlimit="1.154701" d="M 66 359.082031 L 752 359.082031 "/>
</g>
<path fill-rule="nonzero" fill="rgb(100%, 100%, 100%)" fill-opacity="1" stroke-width="1" stroke-linecap="butt" stroke-linejoin="miter" stroke="rgb(0%, 0%, 0%)" stroke-opacity="1" stroke-miterlimit="2" d="M 186 560 L 632 560 L 632 504 L 186 504 Z M 186 560 "/>
<path fill="none" stroke-width="1" stroke-linecap="butt" stroke-linejoin="miter" stroke="rgb(0%, 0%, 0%)" stroke-opacity="1" stroke-miterlimit="1.154701" d="M 131.828125 423.5 L 131.828125 428.5 "/>
<path fill="none" stroke-width="1" stroke-linecap="butt" stroke-linejoin="miter" stroke="rgb(0%, 0%, 0%)" stroke-opacity="1" stroke-miterlimit="1.154701" d="M 201.121094 423.5 L 201.121094 428.5 "/>
<path fill="none" stroke-width="1" stroke-linecap="butt" stroke-linejoin="miter" stroke="rgb(0%, 0%, 0%)" stroke-opacity="1" stroke-miterlimit="1.154701" d="M 270.414062 423.5 L 270.414062 428.5 "/>
<path fill="none" stroke-width="1" stroke-linecap="butt" stroke-linejoin="miter" stroke="rgb(0%, 0%, 0%)" stroke-opacity="1" stroke-miterlimit="1.154701" d="M 339.707031 423.5 L 339.707031 428.5 "/>
<path fill="none" stroke-width="1" stroke-linecap="butt" stroke-linejoin="miter" stroke="rgb(0%, 0%, 0%)" stroke-opacity="1" stroke-miterlimit="1.154701" d="M 409 423.5 L 409 428.5 "/>
<path fill="none" stroke-width="1" stroke-linecap="butt" stroke-linejoin="miter" stroke="rgb(0%, 0%, 0%)" stroke-opacity="1" stroke-miterlimit="1.154701" d="M 478.292969 423.5 L 478.292969 428.5 "/>
<path fill="none" stroke-width="1" stroke-linecap="butt" stroke-linejoin="miter" stroke="rgb(0%, 0%, 0%)" stroke-opacity="1" stroke-miterlimit="1.154701" d="M 547.585938 423.5 L 547.585938 428.5 "/>
<path fill="none" stroke-width="1" stroke-linecap="butt" stroke-linejoin="miter" stroke="rgb(0%, 0%, 0%)" stroke-opacity="1" stroke-miterlimit="1.154701" d="M 616.878906 423.5 L 616.878906 428.5 "/>
<path fill="none" stroke-width="1" stroke-linecap="butt" stroke-linejoin="miter" stroke="rgb(0%, 0%, 0%)" stroke-opacity="1" stroke-miterlimit="1.154701" d="M 686.171875 423.5 L 686.171875 428.5 "/>
<path fill="none" stroke-width="1" stroke-linecap="butt" stroke-linejoin="miter" stroke="rgb(0%, 0%, 0%)" stroke-opacity="1" stroke-miterlimit="1.154701" d="M 65.5 404.472656 L 60.5 404.472656 "/>
<path fill="none" stroke-width="1" stroke-linecap="butt" stroke-linejoin="miter" stroke="rgb(0%, 0%, 0%)" stroke-opacity="1" stroke-miterlimit="1.154701" d="M 65.5 313.691406 L 60.5 313.691406 "/>
<path fill="none" stroke-width="1" stroke-linecap="butt" stroke-linejoin="miter" stroke="rgb(0%, 0%, 0%)" stroke-opacity="1" stroke-miterlimit="1.154701" d="M 65.5 222.910156 L 60.5 222.910156 "/>
<path fill="none" stroke-width="1" stroke-linecap="butt" stroke-linejoin="miter" stroke="rgb(0%, 0%, 0%)" stroke-opacity="1" stroke-miterlimit="1.154701" d="M 65.5 132.128906 L 60.5 132.128906 "/>
<path fill="none" stroke-width="1" stroke-linecap="butt" stroke-linejoin="miter" stroke="rgb(0%, 0%, 0%)" stroke-opacity="1" stroke-miterlimit="1.154701" d="M 65.5 41.347656 L 60.5 41.347656 "/>
<path fill-rule="nonzero" fill="rgb(0%, 44.705883%, 69.803923%)" fill-opacity="1" d="M 192.207031 554.15625 L 212.207031 554.15625 L 212.207031 534.15625 L 192.207031 534.15625 Z M 192.207031 554.15625 "/>
<path fill-rule="nonzero" fill="rgb(90.196079%, 62.352943%, 0%)" fill-opacity="1" d="M 322.820312 554.15625 L 342.820312 554.15625 L 342.820312 534.15625 L 322.820312 534.15625 Z M 322.820312 554.15625 "/>
<path fill="none" stroke-width="1.5" stroke-linecap="butt" stroke-linejoin="miter" stroke="rgb(100%, 0%, 0%)" stroke-opacity="1" stroke-miterlimit="2" d="M 516.027344 544.15625 L 536.027344 544.15625 "/>
<g fill="rgb(0%, 0%, 0%)" fill-opacity="1">
<use xlink:href="#glyph-23-0-08ade921" x="313.094017" y="523.103"/>
</g>
<g fill="rgb(0%, 0%, 0%)" fill-opacity="1">
<use xlink:href="#glyph-23-1-08ade921" x="321.648017" y="523.103"/>
</g>
<g fill="rgb(0%, 0%, 0%)" fill-opacity="1">
<use xlink:href="#glyph-23-2-08ade921" x="329.432017" y="523.103"/>
</g>
<g fill="rgb(0%, 0%, 0%)" fill-opacity="1">
<use xlink:href="#glyph-23-3-08ade921" x="337.986016" y="523.103"/>
</g>
<g fill="rgb(0%, 0%, 0%)" fill-opacity="1">
<use xlink:href="#glyph-0-12-08ade921" x="217.20864" y="549.13312"/>
</g>
<g fill="rgb(0%, 0%, 0%)" fill-opacity="1">
<use xlink:href="#glyph-0-13-08ade921" x="225.762641" y="549.13312"/>
</g>
<g fill="rgb(0%, 0%, 0%)" fill-opacity="1">
<use xlink:href="#glyph-0-2-08ade921" x="228.870639" y="549.13312"/>
</g>
<g fill="rgb(0%, 0%, 0%)" fill-opacity="1">
<use xlink:href="#glyph-0-14-08ade921" x="233.53264" y="549.13312"/>
</g>
<g fill="rgb(0%, 0%, 0%)" fill-opacity="1">
<use xlink:href="#glyph-0-5-08ade921" x="240.53264" y="549.13312"/>
</g>
<g fill="rgb(0%, 0%, 0%)" fill-opacity="1">
<use xlink:href="#glyph-0-15-08ade921" x="244.42464" y="549.13312"/>
</g>
<g fill="rgb(0%, 0%, 0%)" fill-opacity="1">
<use xlink:href="#glyph-0-16-08ade921" x="249.086641" y="549.13312"/>
</g>
<g fill="rgb(0%, 0%, 0%)" fill-opacity="1">
<use xlink:href="#glyph-0-2-08ade921" x="256.87064" y="549.13312"/>
</g>
<g fill="rgb(0%, 0%, 0%)" fill-opacity="1">
<use xlink:href="#glyph-0-17-08ade921" x="261.532639" y="549.13312"/>
</g>
<g fill="rgb(0%, 0%, 0%)" fill-opacity="1">
<use xlink:href="#glyph-0-4-08ade921" x="269.316639" y="549.13312"/>
</g>
<g fill="rgb(0%, 0%, 0%)" fill-opacity="1">
<use xlink:href="#glyph-0-2-08ade921" x="277.10064" y="549.13312"/>
</g>
<g fill="rgb(0%, 0%, 0%)" fill-opacity="1">
<use xlink:href="#glyph-0-18-08ade921" x="281.762643" y="549.13312"/>
</g>
<g fill="rgb(0%, 0%, 0%)" fill-opacity="1">
<use xlink:href="#glyph-0-19-08ade921" x="285.654641" y="549.13312"/>
</g>
<g fill="rgb(0%, 0%, 0%)" fill-opacity="1">
<use xlink:href="#glyph-0-20-08ade921" x="290.316644" y="549.13312"/>
</g>
<g fill="rgb(0%, 0%, 0%)" fill-opacity="1">
<use xlink:href="#glyph-24-0-08ade921" x="299.654641" y="549.13312"/>
</g>
<g fill="rgb(0%, 0%, 0%)" fill-opacity="1">
<use xlink:href="#glyph-0-21-08ade921" x="302.156595" y="549.13312"/>
</g>
<g fill="rgb(0%, 0%, 0%)" fill-opacity="1">
<use xlink:href="#glyph-0-22-08ade921" x="347.818576" y="549.13312"/>
</g>
<g fill="rgb(0%, 0%, 0%)" fill-opacity="1">
<use xlink:href="#glyph-0-23-08ade921" x="351.710574" y="549.13312"/>
</g>
<g fill="rgb(0%, 0%, 0%)" fill-opacity="1">
<use xlink:href="#glyph-0-5-08ade921" x="359.494575" y="549.13312"/>
</g>
<g fill="rgb(0%, 0%, 0%)" fill-opacity="1">
<use xlink:href="#glyph-0-4-08ade921" x="363.386577" y="549.13312"/>
</g>
<g fill="rgb(0%, 0%, 0%)" fill-opacity="1">
<use xlink:href="#glyph-0-2-08ade921" x="371.170574" y="549.13312"/>
</g>
<g fill="rgb(0%, 0%, 0%)" fill-opacity="1">
<use xlink:href="#glyph-0-1-08ade921" x="375.832577" y="549.13312"/>
</g>
<g fill="rgb(0%, 0%, 0%)" fill-opacity="1">
<use xlink:href="#glyph-0-24-08ade921" x="383.616577" y="549.13312"/>
</g>
<g fill="rgb(0%, 0%, 0%)" fill-opacity="1">
<use xlink:href="#glyph-0-5-08ade921" x="390.616577" y="549.13312"/>
</g>
<g fill="rgb(0%, 0%, 0%)" fill-opacity="1">
<use xlink:href="#glyph-0-13-08ade921" x="394.508576" y="549.13312"/>
</g>
<g fill="rgb(0%, 0%, 0%)" fill-opacity="1">
<use xlink:href="#glyph-0-16-08ade921" x="397.616578" y="549.13312"/>
</g>
<g fill="rgb(0%, 0%, 0%)" fill-opacity="1">
<use xlink:href="#glyph-0-23-08ade921" x="405.400578" y="549.13312"/>
</g>
<g fill="rgb(0%, 0%, 0%)" fill-opacity="1">
<use xlink:href="#glyph-0-18-08ade921" x="413.184575" y="549.13312"/>
</g>
<g fill="rgb(0%, 0%, 0%)" fill-opacity="1">
<use xlink:href="#glyph-0-19-08ade921" x="417.076573" y="549.13312"/>
</g>
<g fill="rgb(0%, 0%, 0%)" fill-opacity="1">
<use xlink:href="#glyph-0-20-08ade921" x="421.738576" y="549.13312"/>
</g>
<g fill="rgb(0%, 0%, 0%)" fill-opacity="1">
<use xlink:href="#glyph-24-1-08ade921" x="431.076574" y="549.13312"/>
</g>
<g fill="rgb(0%, 0%, 0%)" fill-opacity="1">
<use xlink:href="#glyph-24-0-08ade921" x="435.20548" y="549.13312"/>
</g>
<g fill="rgb(0%, 0%, 0%)" fill-opacity="1">
<use xlink:href="#glyph-0-18-08ade921" x="437.707433" y="549.13312"/>
</g>
<g fill="rgb(0%, 0%, 0%)" fill-opacity="1">
<use xlink:href="#glyph-0-15-08ade921" x="441.599432" y="549.13312"/>
</g>
<g fill="rgb(0%, 0%, 0%)" fill-opacity="1">
<use xlink:href="#glyph-0-18-08ade921" x="446.261435" y="549.13312"/>
</g>
<g fill="rgb(0%, 0%, 0%)" fill-opacity="1">
<use xlink:href="#glyph-0-20-08ade921" x="450.153433" y="549.13312"/>
</g>
<g fill="rgb(0%, 0%, 0%)" fill-opacity="1">
<use xlink:href="#glyph-24-0-08ade921" x="459.491431" y="549.13312"/>
</g>
<g fill="rgb(0%, 0%, 0%)" fill-opacity="1">
<use xlink:href="#glyph-0-21-08ade921" x="461.993384" y="549.13312"/>
</g>
<g fill="rgb(0%, 0%, 0%)" fill-opacity="1">
<use xlink:href="#glyph-23-4-08ade921" x="482.65541" y="523.103"/>
</g>
<g fill="rgb(0%, 0%, 0%)" fill-opacity="1">
<use xlink:href="#glyph-23-5-08ade921" x="486.547408" y="523.103"/>
</g>
<g fill="rgb(0%, 0%, 0%)" fill-opacity="1">
<use xlink:href="#glyph-23-2-08ade921" x="498.993408" y="523.103"/>
</g>
<g fill="rgb(0%, 0%, 0%)" fill-opacity="1">
<use xlink:href="#glyph-23-6-08ade921" x="507.547409" y="523.103"/>
</g>
<g fill="rgb(0%, 0%, 0%)" fill-opacity="1">
<use xlink:href="#glyph-23-7-08ade921" x="516.10141" y="523.103"/>
</g>
<g fill="rgb(0%, 0%, 0%)" fill-opacity="1">
<use xlink:href="#glyph-23-8-08ade921" x="521.547409" y="523.103"/>
</g>
<g fill="rgb(0%, 0%, 0%)" fill-opacity="1">
<use xlink:href="#glyph-23-9-08ade921" x="526.209408" y="523.103"/>
</g>
<g fill="rgb(0%, 0%, 0%)" fill-opacity="1">
<use xlink:href="#glyph-23-10-08ade921" x="533.993409" y="523.103"/>
</g>
<g fill="rgb(0%, 0%, 0%)" fill-opacity="1">
<use xlink:href="#glyph-23-11-08ade921" x="542.54741" y="523.103"/>
</g>
<g fill="rgb(0%, 0%, 0%)" fill-opacity="1">
<use xlink:href="#glyph-23-3-08ade921" x="550.331407" y="523.103"/>
</g>
<g fill="rgb(0%, 0%, 0%)" fill-opacity="1">
<use xlink:href="#glyph-23-12-08ade921" x="558.115404" y="523.103"/>
</g>
<g fill="rgb(0%, 0%, 0%)" fill-opacity="1">
<use xlink:href="#glyph-23-8-08ade921" x="562.007402" y="523.103"/>
</g>
<g fill="rgb(0%, 0%, 0%)" fill-opacity="1">
<use xlink:href="#glyph-23-13-08ade921" x="566.669405" y="523.103"/>
</g>
<g fill="rgb(0%, 0%, 0%)" fill-opacity="1">
<use xlink:href="#glyph-23-7-08ade921" x="575.223406" y="523.103"/>
</g>
<g fill="rgb(0%, 0%, 0%)" fill-opacity="1">
<use xlink:href="#glyph-23-3-08ade921" x="580.669405" y="523.103"/>
</g>
<g fill="rgb(0%, 0%, 0%)" fill-opacity="1">
<use xlink:href="#glyph-23-14-08ade921" x="588.453402" y="523.103"/>
</g>
<g fill="rgb(0%, 0%, 0%)" fill-opacity="1">
<use xlink:href="#glyph-23-13-08ade921" x="596.237399" y="523.103"/>
</g>
<g fill="rgb(0%, 0%, 0%)" fill-opacity="1">
<use xlink:href="#glyph-23-6-08ade921" x="604.7914" y="523.103"/>
</g>
<g fill="rgb(0%, 0%, 0%)" fill-opacity="1">
<use xlink:href="#glyph-23-15-08ade921" x="613.345401" y="523.103"/>
</g>
<g fill="rgb(0%, 0%, 0%)" fill-opacity="1">
<use xlink:href="#glyph-23-16-08ade921" x="617.237399" y="523.103"/>
</g>
<g fill="rgb(0%, 0%, 0%)" fill-opacity="1">
<use xlink:href="#glyph-0-20-08ade921" x="541.028977" y="549.13312"/>
</g>
<g fill="rgb(0%, 0%, 0%)" fill-opacity="1">
<use xlink:href="#glyph-24-1-08ade921" x="550.366979" y="549.13312"/>
</g>
<g fill="rgb(0%, 0%, 0%)" fill-opacity="1">
<use xlink:href="#glyph-24-0-08ade921" x="554.495884" y="549.13312"/>
</g>
<g fill="rgb(0%, 0%, 0%)" fill-opacity="1">
<use xlink:href="#glyph-0-18-08ade921" x="556.997837" y="549.13312"/>
</g>
<g fill="rgb(0%, 0%, 0%)" fill-opacity="1">
<use xlink:href="#glyph-0-25-08ade921" x="560.889837" y="549.13312"/>
</g>
<g fill="rgb(0%, 0%, 0%)" fill-opacity="1">
<use xlink:href="#glyph-0-18-08ade921" x="569.065836" y="549.13312"/>
</g>
<g fill="rgb(0%, 0%, 0%)" fill-opacity="1">
<use xlink:href="#glyph-0-6-08ade921" x="572.957836" y="549.13312"/>
</g>
<g fill="rgb(0%, 0%, 0%)" fill-opacity="1">
<use xlink:href="#glyph-0-7-08ade921" x="580.741835" y="549.13312"/>
</g>
<g fill="rgb(0%, 0%, 0%)" fill-opacity="1">
<use xlink:href="#glyph-0-26-08ade921" x="584.633833" y="549.13312"/>
</g>
<path fill="none" stroke-width="1" stroke-linecap="butt" stroke-linejoin="miter" stroke="rgb(0%, 0%, 0%)" stroke-opacity="1" stroke-miterlimit="1.154701" d="M 65.5 423 L 752.5 423 "/>
<path fill="none" stroke-width="1" stroke-linecap="butt" stroke-linejoin="miter" stroke="rgb(0%, 0%, 0%)" stroke-opacity="1" stroke-miterlimit="1.154701" d="M 66 423.5 L 66 15.5 "/>
<path fill="none" stroke-width="1" stroke-linecap="butt" stroke-linejoin="miter" stroke="rgb(0%, 0%, 0%)" stroke-opacity="1" stroke-miterlimit="1.154701" d="M 65.5 16 L 752.5 16 "/>
<path fill="none" stroke-width="1" stroke-linecap="butt" stroke-linejoin="miter" stroke="rgb(0%, 0%, 0%)" stroke-opacity="1" stroke-miterlimit="1.154701" d="M 752 423.5 L 752 15.5 "/>
</svg>
